<?xml version="1.0" standalone="no"?>
 <!DOCTYPE svg PUBLIC "-//W3C//DTD SVG 1.1//EN" 
 "http://www.w3.org/Graphics/SVG/1.1/DTD/svg11.dtd"> 
<svg
  xmlns:svg="http://www.w3.org/2000/svg"
  xmlns="http://www.w3.org/2000/svg"
  xmlns:xlink="http://www.w3.org/1999/xlink"
  version="1.1"
  width="297.0022mm" height="210.0072mm" viewBox="0.0000 0.0000 297.0022 210.0072">
<title>SVG Image created as vm1-controller-B_Courtyard.svg date 2025/07/18 07:27:12 </title>
  <desc>Image generated by PCBNEW </desc>
<g style="fill:#000000; fill-opacity:1.0000;stroke:#000000; stroke-opacity:1.0000;
stroke-linecap:round; stroke-linejoin:round;"
 transform="translate(0 0) scale(1 1)">
</g>
<g style="fill:none; 
stroke:#000000; stroke-width:0.0500; stroke-opacity:1; 
stroke-linecap:round; stroke-linejoin:round;">
<path d="M161.7760 55.0800
L170.4260 55.0800
" />
<path d="M161.7760 58.6800
L161.7760 55.0800
" />
<path d="M170.4260 55.0800
L170.4260 58.6800
" />
<path d="M170.4260 58.6800
L161.7760 58.6800
" />
<path d="M207.1300 119.9350
L207.1300 124.6350
" />
<path d="M207.1300 119.9350
L209.4300 119.9350
" />
<path d="M207.1300 124.6350
L209.4300 124.6350
" />
<path d="M209.4300 124.6350
L209.4300 119.9350
" />
<path d="M118.8960 54.3386
L118.8960 57.3386
" />
<path d="M118.8960 54.3386
L121.8960 54.3386
" />
<path d="M121.8960 57.3386
L118.8960 57.3386
" />
<path d="M121.8960 57.3386
L121.8960 54.3386
" />
<path d="M162.4190 71.5762
L162.4190 73.6762
" />
<path d="M162.4190 73.6762
L167.0190 73.6762
" />
<path d="M167.0190 71.5762
L162.4190 71.5762
" />
<path d="M167.0190 73.6762
L167.0190 71.5762
" />
<path d="M146.1700 119.9350
L146.1700 124.6350
" />
<path d="M146.1700 119.9350
L148.4700 119.9350
" />
<path d="M146.1700 124.6350
L148.4700 124.6350
" />
<path d="M148.4700 124.6350
L148.4700 119.9350
" />
<path d="M146.1700 99.6150
L146.1700 104.3150
" />
<path d="M146.1700 99.6150
L148.4700 99.6150
" />
<path d="M146.1700 104.3150
L148.4700 104.3150
" />
<path d="M148.4700 104.3150
L148.4700 99.6150
" />
<path d="M110.8442 54.3386
L110.8442 57.3386
" />
<path d="M110.8442 54.3386
L113.8442 54.3386
" />
<path d="M113.8442 57.3386
L110.8442 57.3386
" />
<path d="M113.8442 57.3386
L113.8442 54.3386
" />
<path d="M220.2071 77.0856
L220.2071 78.0256
" />
<path d="M220.2071 78.0256
L222.0671 78.0256
" />
<path d="M222.0671 77.0856
L220.2071 77.0856
" />
<path d="M222.0671 78.0256
L222.0671 77.0856
" />
<path d="M64.8900 130.0950
L64.8900 134.7950
" />
<path d="M64.8900 130.0950
L67.1900 130.0950
" />
<path d="M64.8900 134.7950
L67.1900 134.7950
" />
<path d="M67.1900 134.7950
L67.1900 130.0950
" />
<path d="M215.1271 79.6256
L215.1271 80.5656
" />
<path d="M215.1271 80.5656
L216.9871 80.5656
" />
<path d="M216.9871 79.6256
L215.1271 79.6256
" />
<path d="M216.9871 80.5656
L216.9871 79.6256
" />
<path d="M145.2184 80.0928
L145.2184 81.0128
" />
<path d="M145.2184 81.0128
L147.0384 81.0128
" />
<path d="M147.0384 80.0928
L145.2184 80.0928
" />
<path d="M147.0384 81.0128
L147.0384 80.0928
" />
<path d="M125.8500 119.9350
L125.8500 124.6350
" />
<path d="M125.8500 119.9350
L128.1500 119.9350
" />
<path d="M125.8500 124.6350
L128.1500 124.6350
" />
<path d="M128.1500 124.6350
L128.1500 119.9350
" />
<path d="M207.1300 140.2550
L207.1300 144.9550
" />
<path d="M207.1300 140.2550
L209.4300 140.2550
" />
<path d="M207.1300 144.9550
L209.4300 144.9550
" />
<path d="M209.4300 144.9550
L209.4300 140.2550
" />
<path d="M98.6200 57.3200
L98.6200 54.3200
" />
<path d="M98.6200 57.3200
L101.6200 57.3200
" />
<path d="M101.6200 54.3200
L98.6200 54.3200
" />
<path d="M101.6200 54.3200
L101.6200 57.3200
" />
<path d="M240.4763 77.0856
L240.4763 78.0256
" />
<path d="M240.4763 78.0256
L242.3363 78.0256
" />
<path d="M242.3363 77.0856
L240.4763 77.0856
" />
<path d="M242.3363 78.0256
L242.3363 77.0856
" />
<path d="M236.6863 78.3656
L236.6863 79.2856
" />
<path d="M236.6863 79.2856
L238.5063 79.2856
" />
<path d="M238.5063 78.3656
L236.6863 78.3656
" />
<path d="M238.5063 79.2856
L238.5063 78.3656
" />
<path d="M220.2071 79.6256
L220.2071 80.5656
" />
<path d="M220.2071 80.5656
L222.0671 80.5656
" />
<path d="M222.0671 79.6256
L220.2071 79.6256
" />
<path d="M222.0671 80.5656
L222.0671 79.6256
" />
<path d="M144.8238 64.6327
L144.8238 66.4927
" />
<path d="M144.8238 66.4927
L145.7638 66.4927
" />
<path d="M145.7638 64.6327
L144.8238 64.6327
" />
<path d="M145.7638 66.4927
L145.7638 64.6327
" />
<path d="M207.8854 92.5034
L207.8854 93.4434
" />
<path d="M207.8854 93.4434
L209.7454 93.4434
" />
<path d="M209.7454 92.5034
L207.8854 92.5034
" />
<path d="M209.7454 93.4434
L209.7454 92.5034
" />
<path d="M213.1540 77.3060
L213.1540 79.1260
" />
<path d="M213.1540 79.1260
L214.0740 79.1260
" />
<path d="M214.0740 77.3060
L213.1540 77.3060
" />
<path d="M214.0740 79.1260
L214.0740 77.3060
" />
<path d="M166.4900 99.6150
L166.4900 104.3150
" />
<path d="M166.4900 99.6150
L168.7900 99.6150
" />
<path d="M166.4900 104.3150
L168.7900 104.3150
" />
<path d="M168.7900 104.3150
L168.7900 99.6150
" />
<path d="M142.8018 64.6527
L142.8018 66.4727
" />
<path d="M142.8018 66.4727
L143.7218 66.4727
" />
<path d="M143.7218 64.6527
L142.8018 64.6527
" />
<path d="M143.7218 66.4727
L143.7218 64.6527
" />
<path d="M218.9571 78.3656
L218.9571 79.2856
" />
<path d="M218.9571 79.2856
L220.7771 79.2856
" />
<path d="M220.7771 78.3656
L218.9571 78.3656
" />
<path d="M220.7771 79.2856
L220.7771 78.3656
" />
<path d="M106.7040 54.3640
L106.7040 57.3640
" />
<path d="M106.7040 54.3640
L109.7040 54.3640
" />
<path d="M109.7040 57.3640
L106.7040 57.3640
" />
<path d="M109.7040 57.3640
L109.7040 54.3640
" />
<path d="M138.0080 75.2060
L138.0080 76.1460
" />
<path d="M138.0080 76.1460
L139.8680 76.1460
" />
<path d="M139.8680 75.2060
L138.0080 75.2060
" />
<path d="M139.8680 76.1460
L139.8680 75.2060
" />
<path d="M102.6200 57.3200
L102.6200 54.3200
" />
<path d="M102.6200 57.3200
L105.6200 57.3200
" />
<path d="M105.6200 54.3200
L102.6200 54.3200
" />
<path d="M105.6200 54.3200
L105.6200 57.3200
" />
<path d="M166.4900 140.2550
L166.4900 144.9550
" />
<path d="M166.4900 140.2550
L168.7900 140.2550
" />
<path d="M166.4900 144.9550
L168.7900 144.9550
" />
<path d="M168.7900 144.9550
L168.7900 140.2550
" />
<path d="M139.7780 72.4170
L139.7780 73.3370
" />
<path d="M139.7780 73.3370
L141.5980 73.3370
" />
<path d="M141.5980 72.4170
L139.7780 72.4170
" />
<path d="M141.5980 73.3370
L141.5980 72.4170
" />
<path d="M210.9060 92.5034
L210.9060 93.4434
" />
<path d="M210.9060 93.4434
L212.7660 93.4434
" />
<path d="M212.7660 92.5034
L210.9060 92.5034
" />
<path d="M212.7660 93.4434
L212.7660 92.5034
" />
<path d="M235.3963 79.6256
L235.3963 80.5656
" />
<path d="M235.3963 80.5656
L237.2563 80.5656
" />
<path d="M237.2563 79.6256
L235.3963 79.6256
" />
<path d="M237.2563 80.5656
L237.2563 79.6256
" />
<path d="M152.3536 72.2950
L152.3536 73.2150
" />
<path d="M152.3536 73.2150
L154.1736 73.2150
" />
<path d="M154.1736 72.2950
L152.3536 72.2950
" />
<path d="M154.1736 73.2150
L154.1736 72.2950
" />
<path d="M144.5798 77.4798
L144.5798 79.2998
" />
<path d="M144.5798 79.2998
L145.4998 79.2998
" />
<path d="M145.4998 77.4798
L144.5798 77.4798
" />
<path d="M145.4998 79.2998
L145.4998 77.4798
" />
<path d="M85.2100 140.2550
L85.2100 144.9550
" />
<path d="M85.2100 140.2550
L87.5100 140.2550
" />
<path d="M85.2100 144.9550
L87.5100 144.9550
" />
<path d="M87.5100 144.9550
L87.5100 140.2550
" />
<path d="M186.8100 119.9350
L186.8100 124.6350
" />
<path d="M186.8100 119.9350
L189.1100 119.9350
" />
<path d="M186.8100 124.6350
L189.1100 124.6350
" />
<path d="M189.1100 124.6350
L189.1100 119.9350
" />
<path d="M151.4900 56.6739
L151.4900 57.5939
" />
<path d="M151.4900 57.5939
L153.3100 57.5939
" />
<path d="M153.3100 56.6739
L151.4900 56.6739
" />
<path d="M153.3100 57.5939
L153.3100 56.6739
" />
<path d="M240.5551 79.6256
L240.5551 80.5656
" />
<path d="M240.5551 80.5656
L242.4151 80.5656
" />
<path d="M242.4151 79.6256
L240.5551 79.6256
" />
<path d="M242.4151 80.5656
L242.4151 79.6256
" />
<path d="M215.1271 77.0856
L215.1271 78.0256
" />
<path d="M215.1271 78.0256
L216.9871 78.0256
" />
<path d="M216.9871 77.0856
L215.1271 77.0856
" />
<path d="M216.9871 78.0256
L216.9871 77.0856
" />
<path d="M140.5452 67.6467
L140.5452 68.5667
" />
<path d="M140.5452 68.5667
L142.3652 68.5667
" />
<path d="M142.3652 67.6467
L140.5452 67.6467
" />
<path d="M142.3652 68.5667
L142.3652 67.6467
" />
<path d="M162.4190 60.0700
L162.4190 62.1700
" />
<path d="M162.4190 62.1700
L167.0190 62.1700
" />
<path d="M167.0190 60.0700
L162.4190 60.0700
" />
<path d="M167.0190 62.1700
L167.0190 60.0700
" />
<path d="M138.0060 74.1900
L138.0060 75.1300
" />
<path d="M138.0060 75.1300
L139.8660 75.1300
" />
<path d="M139.8660 74.1900
L138.0060 74.1900
" />
<path d="M139.8660 75.1300
L139.8660 74.1900
" />
<path d="M138.0060 76.2220
L138.0060 77.1620
" />
<path d="M138.0060 77.1620
L139.8660 77.1620
" />
<path d="M139.8660 76.2220
L138.0060 76.2220
" />
<path d="M139.8660 77.1620
L139.8660 76.2220
" />
<path d="M166.4900 119.9350
L166.4900 124.6350
" />
<path d="M166.4900 119.9350
L168.7900 119.9350
" />
<path d="M166.4900 124.6350
L168.7900 124.6350
" />
<path d="M168.7900 124.6350
L168.7900 119.9350
" />
<path d="M140.4492 85.0412
L140.4492 91.1412
" />
<path d="M140.4492 91.1412
L192.2492 91.1412
" />
<path d="M192.2492 85.0412
L140.4492 85.0412
" />
<path d="M192.2492 91.1412
L192.2492 85.0412
" />
<path d="M64.8900 119.9350
L64.8900 124.6350
" />
<path d="M64.8900 119.9350
L67.1900 119.9350
" />
<path d="M64.8900 124.6350
L67.1900 124.6350
" />
<path d="M67.1900 124.6350
L67.1900 119.9350
" />
<path d="M64.8900 69.1350
L64.8900 73.8350
" />
<path d="M64.8900 69.1350
L67.1900 69.1350
" />
<path d="M64.8900 73.8350
L67.1900 73.8350
" />
<path d="M67.1900 73.8350
L67.1900 69.1350
" />
<path d="M209.8646 93.5956
L209.8646 94.5356
" />
<path d="M209.8646 94.5356
L211.7246 94.5356
" />
<path d="M211.7246 93.5956
L209.8646 93.5956
" />
<path d="M211.7246 94.5356
L211.7246 93.5956
" />
<path d="M146.6118 77.4798
L146.6118 79.2998
" />
<path d="M146.6118 79.2998
L147.5318 79.2998
" />
<path d="M147.5318 77.4798
L146.6118 77.4798
" />
<path d="M147.5318 79.2998
L147.5318 77.4798
" />
<path d="M207.1300 99.6150
L207.1300 104.3150
" />
<path d="M207.1300 99.6150
L209.4300 99.6150
" />
<path d="M207.1300 104.3150
L209.4300 104.3150
" />
<path d="M209.4300 104.3150
L209.4300 99.6150
" />
<path d="M143.2000 67.4925
L151.4400 67.4925
" />
<path d="M143.2000 75.7325
L143.2000 67.4925
" />
<path d="M151.4400 67.4925
L151.4400 75.7325
" />
<path d="M151.4400 75.7325
L143.2000 75.7325
" />
<path d="M64.8900 99.6150
L64.8900 104.3150
" />
<path d="M64.8900 99.6150
L67.1900 99.6150
" />
<path d="M64.8900 104.3150
L67.1900 104.3150
" />
<path d="M67.1900 104.3150
L67.1900 99.6150
" />
<path d="M143.8178 64.6567
L143.8178 66.4767
" />
<path d="M143.8178 66.4767
L144.7378 66.4767
" />
<path d="M144.7378 64.6567
L143.8178 64.6567
" />
<path d="M144.7378 66.4767
L144.7378 64.6567
" />
<path d="M140.5452 66.6307
L140.5452 67.5507
" />
<path d="M140.5452 67.5507
L142.3652 67.5507
" />
<path d="M142.3652 66.6307
L140.5452 66.6307
" />
<path d="M142.3652 67.5507
L142.3652 66.6307
" />
<path d="M148.6280 55.4420
L148.6280 57.3020
" />
<path d="M148.6280 57.3020
L149.5680 57.3020
" />
<path d="M149.5680 55.4420
L148.6280 55.4420
" />
<path d="M149.5680 57.3020
L149.5680 55.4420
" />
<path d="M85.2100 99.6150
L85.2100 104.3150
" />
<path d="M85.2100 99.6150
L87.5100 99.6150
" />
<path d="M85.2100 104.3150
L87.5100 104.3150
" />
<path d="M87.5100 104.3150
L87.5100 99.6150
" />
<path d="M145.8398 64.6347
L145.8398 66.4947
" />
<path d="M145.8398 66.4947
L146.7798 66.4947
" />
<path d="M146.7798 64.6347
L145.8398 64.6347
" />
<path d="M146.7798 66.4947
L146.7798 64.6347
" />
<path d="M133.6420 74.4920
L133.6420 76.3520
" />
<path d="M133.6420 76.3520
L134.5820 76.3520
" />
<path d="M134.5820 74.4920
L133.6420 74.4920
" />
<path d="M134.5820 76.3520
L134.5820 74.4920
" />
<path d="M105.5300 140.2550
L105.5300 144.9550
" />
<path d="M105.5300 140.2550
L107.8300 140.2550
" />
<path d="M105.5300 144.9550
L107.8300 144.9550
" />
<path d="M107.8300 144.9550
L107.8300 140.2550
" />
<path d="M64.8900 140.2550
L64.8900 144.9550
" />
<path d="M64.8900 140.2550
L67.1900 140.2550
" />
<path d="M64.8900 144.9550
L67.1900 144.9550
" />
<path d="M67.1900 144.9550
L67.1900 140.2550
" />
<path d="M125.8500 140.2550
L125.8500 144.9550
" />
<path d="M125.8500 140.2550
L128.1500 140.2550
" />
<path d="M125.8500 144.9550
L128.1500 144.9550
" />
<path d="M128.1500 144.9550
L128.1500 140.2550
" />
<path d="M157.2132 55.6645
L157.2132 57.5245
" />
<path d="M157.2132 57.5245
L158.1532 57.5245
" />
<path d="M158.1532 55.6645
L157.2132 55.6645
" />
<path d="M158.1532 57.5245
L158.1532 55.6645
" />
<path d="M147.5324 80.0928
L147.5324 81.0128
" />
<path d="M147.5324 81.0128
L149.3524 81.0128
" />
<path d="M149.3524 80.0928
L147.5324 80.0928
" />
<path d="M149.3524 81.0128
L149.3524 80.0928
" />
<path d="M138.0040 77.2380
L138.0040 78.1780
" />
<path d="M138.0040 78.1780
L139.8640 78.1780
" />
<path d="M139.8640 77.2380
L138.0040 77.2380
" />
<path d="M139.8640 78.1780
L139.8640 77.2380
" />
<path d="M125.8500 99.6150
L125.8500 104.3150
" />
<path d="M125.8500 99.6150
L128.1500 99.6150
" />
<path d="M125.8500 104.3150
L128.1500 104.3150
" />
<path d="M128.1500 104.3150
L128.1500 99.6150
" />
<path d="M156.1972 55.6685
L156.1972 57.5285
" />
<path d="M156.1972 57.5285
L157.1372 57.5285
" />
<path d="M157.1372 55.6685
L156.1972 55.6685
" />
<path d="M157.1372 57.5285
L157.1372 55.6685
" />
<path d="M146.1700 140.2550
L146.1700 144.9550
" />
<path d="M146.1700 140.2550
L148.4700 140.2550
" />
<path d="M146.1700 144.9550
L148.4700 144.9550
" />
<path d="M148.4700 144.9550
L148.4700 140.2550
" />
<path d="M145.5800 55.4420
L145.5800 57.3020
" />
<path d="M145.5800 57.3020
L146.5200 57.3020
" />
<path d="M146.5200 55.4420
L145.5800 55.4420
" />
<path d="M146.5200 57.3020
L146.5200 55.4420
" />
<path d="M216.4171 78.3656
L216.4171 79.2856
" />
<path d="M216.4171 79.2856
L218.2371 79.2856
" />
<path d="M218.2371 78.3656
L216.4171 78.3656
" />
<path d="M218.2371 79.2856
L218.2371 78.3656
" />
<path d="M186.8100 99.6150
L186.8100 104.3150
" />
<path d="M186.8100 99.6150
L189.1100 99.6150
" />
<path d="M186.8100 104.3150
L189.1100 104.3150
" />
<path d="M189.1100 104.3150
L189.1100 99.6150
" />
<path d="M85.2100 119.9350
L85.2100 124.6350
" />
<path d="M85.2100 119.9350
L87.5100 119.9350
" />
<path d="M85.2100 124.6350
L87.5100 124.6350
" />
<path d="M87.5100 124.6350
L87.5100 119.9350
" />
<path d="M105.5300 119.9350
L105.5300 124.6350
" />
<path d="M105.5300 119.9350
L107.8300 119.9350
" />
<path d="M105.5300 124.6350
L107.8300 124.6350
" />
<path d="M107.8300 124.6350
L107.8300 119.9350
" />
<path d="M133.6520 69.4320
L133.6520 71.2520
" />
<path d="M133.6520 71.2520
L134.5720 71.2520
" />
<path d="M134.5720 69.4320
L133.6520 69.4320
" />
<path d="M134.5720 71.2520
L134.5720 69.4320
" />
<path d="M146.8829 63.6917
L146.8829 65.5117
" />
<path d="M146.8829 65.5117
L147.8029 65.5117
" />
<path d="M147.8029 63.6917
L146.8829 63.6917
" />
<path d="M147.8029 65.5117
L147.8029 63.6917
" />
<path d="M147.6178 77.4638
L147.6178 79.3238
" />
<path d="M147.6178 79.3238
L148.5578 79.3238
" />
<path d="M148.5578 77.4638
L147.6178 77.4638
" />
<path d="M148.5578 79.3238
L148.5578 77.4638
" />
<path d="M114.8320 54.3386
L114.8320 57.3386
" />
<path d="M114.8320 54.3386
L117.8320 54.3386
" />
<path d="M117.8320 57.3386
L114.8320 57.3386
" />
<path d="M117.8320 57.3386
L117.8320 54.3386
" />
<path d="M233.4740 77.3060
L233.4740 79.1260
" />
<path d="M233.4740 79.1260
L234.3940 79.1260
" />
<path d="M234.3940 77.3060
L233.4740 77.3060
" />
<path d="M234.3940 79.1260
L234.3940 77.3060
" />
<path d="M145.5958 77.4798
L145.5958 79.2998
" />
<path d="M145.5958 79.2998
L146.5158 79.2998
" />
<path d="M146.5158 77.4798
L145.5958 77.4798
" />
<path d="M146.5158 79.2998
L146.5158 77.4798
" />
<path d="M105.5300 99.6150
L105.5300 104.3150
" />
<path d="M105.5300 99.6150
L107.8300 99.6150
" />
<path d="M105.5300 104.3150
L107.8300 104.3150
" />
<path d="M107.8300 104.3150
L107.8300 99.6150
" />
<path d="M152.3536 68.5611
L152.3536 69.4811
" />
<path d="M152.3536 69.4811
L154.1736 69.4811
" />
<path d="M154.1736 68.5611
L152.3536 68.5611
" />
<path d="M154.1736 69.4811
L154.1736 68.5611
" />
<path d="M186.8100 140.2550
L186.8100 144.9550
" />
<path d="M186.8100 140.2550
L189.1100 140.2550
" />
<path d="M186.8100 144.9550
L189.1100 144.9550
" />
<path d="M189.1100 144.9550
L189.1100 140.2550
" />
<path d="M235.3963 77.0856
L235.3963 78.0256
" />
<path d="M235.3963 78.0256
L237.2563 78.0256
" />
<path d="M237.2563 77.0856
L235.3963 77.0856
" />
<path d="M237.2563 78.0256
L237.2563 77.0856
" />
<path d="M239.2263 78.3656
L239.2263 79.2856
" />
<path d="M239.2263 79.2856
L241.0463 79.2856
" />
<path d="M241.0463 78.3656
L239.2263 78.3656
" />
<path d="M241.0463 79.2856
L241.0463 78.3656
" />
<path d="M147.8760 63.6915
L147.8760 65.5115
" />
<path d="M147.8760 65.5115
L148.7960 65.5115
" />
<path d="M148.7960 63.6915
L147.8760 63.6915
" />
<path d="M148.7960 65.5115
L148.7960 63.6915
" />
<path d="M44.5700 69.1350
L44.5700 73.8350
" />
<path d="M44.5700 69.1350
L46.8700 69.1350
" />
<path d="M44.5700 73.8350
L46.8700 73.8350
" />
<path d="M46.8700 73.8350
L46.8700 69.1350
" />
<path d="M138.5430 61.5450
L138.5430 63.6450
" />
<path d="M138.5430 63.6450
L143.1430 63.6450
" />
<path d="M143.1430 61.5450
L138.5430 61.5450
" />
<path d="M143.1430 63.6450
L143.1430 61.5450
" />
</g> 
</svg>
