<?xml version="1.0" standalone="no"?>
 <!DOCTYPE svg PUBLIC "-//W3C//DTD SVG 1.1//EN" 
 "http://www.w3.org/Graphics/SVG/1.1/DTD/svg11.dtd"> 
<svg
  xmlns:svg="http://www.w3.org/2000/svg"
  xmlns="http://www.w3.org/2000/svg"
  xmlns:xlink="http://www.w3.org/1999/xlink"
  version="1.1"
  width="297.0022mm" height="210.0072mm" viewBox="0.0000 0.0000 297.0022 210.0072">
<title>SVG Image created as vm1-controller-F_Courtyard.svg date 2025/07/18 07:27:12 </title>
  <desc>Image generated by PCBNEW </desc>
<g style="fill:#000000; fill-opacity:1.0000;stroke:#000000; stroke-opacity:1.0000;
stroke-linecap:round; stroke-linejoin:round;"
 transform="translate(0 0) scale(1 1)">
<path style="fill:none; 
stroke:#000000; stroke-width:0.0500; stroke-opacity:1; 
stroke-linecap:round; stroke-linejoin:round;fill:none"
d="M 47.6300,136.2500
64.1300,136.2500
64.1300,119.7500
47.6300,119.7500
Z" /> 
</g>
<g style="fill:none; 
stroke:#000000; stroke-width:0.0500; stroke-opacity:1; 
stroke-linecap:round; stroke-linejoin:round;">
<path d="M237.5100 113.7800
L237.5100 116.8200
" />
<path d="M237.5100 116.8200
L240.0100 116.8200
" />
<path d="M240.0100 113.7800
L237.5100 113.7800
" />
<path d="M240.0100 116.8200
L240.0100 113.7800
" />
<path d="M114.6041 131.7284
L114.6041 134.2284
" />
<path d="M114.6041 134.2284
L117.6441 134.2284
" />
<path d="M117.6441 131.7284
L114.6041 131.7284
" />
<path d="M117.6441 134.2284
L117.6441 131.7284
" />
<circle cx="252.3200" cy="141.5200" r="3.4500" /> 
<path d="M94.2841 91.0884
L94.2841 93.5884
" />
<path d="M94.2841 93.5884
L97.3241 93.5884
" />
<path d="M97.3241 91.0884
L94.2841 91.0884
" />
<path d="M97.3241 93.5884
L97.3241 91.0884
" />
<path d="M114.6041 111.4084
L114.6041 113.9084
" />
<path d="M114.6041 113.9084
L117.6441 113.9084
" />
<path d="M117.6441 111.4084
L114.6041 111.4084
" />
<path d="M117.6441 113.9084
L117.6441 111.4084
" />
<path d="M155.2441 91.0884
L155.2441 93.5884
" />
<path d="M155.2441 93.5884
L158.2841 93.5884
" />
<path d="M158.2841 91.0884
L155.2441 91.0884
" />
<path d="M158.2841 93.5884
L158.2841 91.0884
" />
<path d="M94.2841 111.4084
L94.2841 113.9084
" />
<path d="M94.2841 113.9084
L97.3241 113.9084
" />
<path d="M97.3241 111.4084
L94.2841 111.4084
" />
<path d="M97.3241 113.9084
L97.3241 111.4084
" />
<path d="M73.9641 91.0884
L73.9641 93.5884
" />
<path d="M73.9641 93.5884
L77.0041 93.5884
" />
<path d="M77.0041 91.0884
L73.9641 91.0884
" />
<path d="M77.0041 93.5884
L77.0041 91.0884
" />
<circle cx="252.3200" cy="51.5200" r="3.4500" /> 
<path style="fill:none; 
stroke:#000000; stroke-width:0.0500; stroke-opacity:1; 
stroke-linecap:round; stroke-linejoin:round;fill:none"
d="M 88.2700,126.0900
104.7700,126.0900
104.7700,109.5900
88.2700,109.5900
Z" /> 
<path d="M216.2041 91.0884
L216.2041 93.5884
" />
<path d="M216.2041 93.5884
L219.2441 93.5884
" />
<path d="M219.2441 91.0884
L216.2041 91.0884
" />
<path d="M219.2441 93.5884
L219.2441 91.0884
" />
<path style="fill:none; 
stroke:#000000; stroke-width:0.0500; stroke-opacity:1; 
stroke-linecap:round; stroke-linejoin:round;fill:none"
d="M 108.5900,105.7700
125.0900,105.7700
125.0900,89.2700
108.5900,89.2700
Z" /> 
<path style="fill:none; 
stroke:#000000; stroke-width:0.0500; stroke-opacity:1; 
stroke-linecap:round; stroke-linejoin:round;fill:none"
d="M 67.9500,146.4100
84.4500,146.4100
84.4500,129.9100
67.9500,129.9100
Z" /> 
<path d="M195.8841 91.0884
L195.8841 93.5884
" />
<path d="M195.8841 93.5884
L198.9241 93.5884
" />
<path d="M198.9241 91.0884
L195.8841 91.0884
" />
<path d="M198.9241 93.5884
L198.9241 91.0884
" />
<circle cx="252.3200" cy="81.5200" r="3.4500" /> 
<path d="M175.5641 91.0884
L175.5641 93.5884
" />
<path d="M175.5641 93.5884
L178.6041 93.5884
" />
<path d="M178.6041 91.0884
L175.5641 91.0884
" />
<path d="M178.6041 93.5884
L178.6041 91.0884
" />
<path style="fill:none; 
stroke:#000000; stroke-width:0.0500; stroke-opacity:1; 
stroke-linecap:round; stroke-linejoin:round;fill:none"
d="M 169.5500,146.4100
186.0500,146.4100
186.0500,129.9100
169.5500,129.9100
Z" /> 
<path d="M175.5895 111.4084
L175.5895 113.9084
" />
<path d="M175.5895 113.9084
L178.6295 113.9084
" />
<path d="M178.6295 111.4084
L175.5895 111.4084
" />
<path d="M178.6295 113.9084
L178.6295 111.4084
" />
<path d="M211.0900 68.3400
L211.0900 65.7400
" />
<path d="M211.9900 60.0900
L224.8900 60.0900
" />
<path d="M211.9900 64.8400
L211.0900 65.7400
" />
<path d="M211.9900 64.8400
L211.9900 60.0900
" />
<path d="M211.9900 69.2400
L211.0900 68.3400
" />
<path d="M211.9900 73.9900
L211.9900 69.2400
" />
<path d="M214.8900 73.9900
L211.9900 73.9900
" />
<path d="M214.8900 75.5900
L214.8900 73.9900
" />
<path d="M221.9900 73.9900
L221.9900 75.5900
" />
<path d="M221.9900 75.5900
L214.8900 75.5900
" />
<path d="M224.8900 60.0900
L224.8900 64.8400
" />
<path d="M224.8900 64.8400
L225.7900 65.7400
" />
<path d="M224.8900 69.2400
L224.8900 73.9900
" />
<path d="M224.8900 69.2400
L225.7900 68.3400
" />
<path d="M224.8900 73.9900
L221.9900 73.9900
" />
<path d="M225.7900 65.7400
L225.7900 68.3400
" />
<path style="fill:none; 
stroke:#000000; stroke-width:0.0500; stroke-opacity:1; 
stroke-linecap:round; stroke-linejoin:round;fill:none"
d="M 128.9100,146.4100
145.4100,146.4100
145.4100,129.9100
128.9100,129.9100
Z" /> 
<path d="M237.5100 118.8600
L237.5100 121.9000
" />
<path d="M237.5100 121.9000
L240.0100 121.9000
" />
<path d="M240.0100 118.8600
L237.5100 118.8600
" />
<path d="M240.0100 121.9000
L240.0100 118.8600
" />
<path d="M195.8841 111.4084
L195.8841 113.9084
" />
<path d="M195.8841 113.9084
L198.9241 113.9084
" />
<path d="M198.9241 111.4084
L195.8841 111.4084
" />
<path d="M198.9241 113.9084
L198.9241 111.4084
" />
<path d="M114.6041 91.0884
L114.6041 93.5884
" />
<path d="M114.6041 93.5884
L117.6441 93.5884
" />
<path d="M117.6441 91.0884
L114.6041 91.0884
" />
<path d="M117.6441 93.5884
L117.6441 91.0884
" />
<path d="M195.8841 131.7284
L195.8841 134.2284
" />
<path d="M195.8841 134.2284
L198.9241 134.2284
" />
<path d="M198.9241 131.7284
L195.8841 131.7284
" />
<path d="M198.9241 134.2284
L198.9241 131.7284
" />
<path style="fill:none; 
stroke:#000000; stroke-width:0.0500; stroke-opacity:1; 
stroke-linecap:round; stroke-linejoin:round;fill:none"
d="M 210.1900,126.0900
226.6900,126.0900
226.6900,109.5900
210.1900,109.5900
Z" /> 
<path d="M231.4100 68.3400
L231.4100 65.7400
" />
<path d="M232.3100 60.0900
L245.2100 60.0900
" />
<path d="M232.3100 64.8400
L231.4100 65.7400
" />
<path d="M232.3100 64.8400
L232.3100 60.0900
" />
<path d="M232.3100 69.2400
L231.4100 68.3400
" />
<path d="M232.3100 73.9900
L232.3100 69.2400
" />
<path d="M235.2100 73.9900
L232.3100 73.9900
" />
<path d="M235.2100 75.5900
L235.2100 73.9900
" />
<path d="M242.3100 73.9900
L242.3100 75.5900
" />
<path d="M242.3100 75.5900
L235.2100 75.5900
" />
<path d="M245.2100 60.0900
L245.2100 64.8400
" />
<path d="M245.2100 64.8400
L246.1100 65.7400
" />
<path d="M245.2100 69.2400
L245.2100 73.9900
" />
<path d="M245.2100 69.2400
L246.1100 68.3400
" />
<path d="M245.2100 73.9900
L242.3100 73.9900
" />
<path d="M246.1100 65.7400
L246.1100 68.3400
" />
<circle cx="42.3200" cy="51.5200" r="3.4500" /> 
<path style="fill:none; 
stroke:#000000; stroke-width:0.0500; stroke-opacity:1; 
stroke-linecap:round; stroke-linejoin:round;fill:none"
d="M 169.5500,105.7700
186.0500,105.7700
186.0500,89.2700
169.5500,89.2700
Z" /> 
<path style="fill:none; 
stroke:#000000; stroke-width:0.0500; stroke-opacity:1; 
stroke-linecap:round; stroke-linejoin:round;fill:none"
d="M 149.2300,126.0900
165.7300,126.0900
165.7300,109.5900
149.2300,109.5900
Z" /> 
<path d="M73.9641 131.7284
L73.9641 134.2284
" />
<path d="M73.9641 134.2284
L77.0041 134.2284
" />
<path d="M77.0041 131.7284
L73.9641 131.7284
" />
<path d="M77.0041 134.2284
L77.0041 131.7284
" />
<path style="fill:none; 
stroke:#000000; stroke-width:0.0500; stroke-opacity:1; 
stroke-linecap:round; stroke-linejoin:round;fill:none"
d="M 169.5500,126.0900
186.0500,126.0900
186.0500,109.5900
169.5500,109.5900
Z" /> 
<path style="fill:none; 
stroke:#000000; stroke-width:0.0500; stroke-opacity:1; 
stroke-linecap:round; stroke-linejoin:round;fill:none"
d="M 149.2300,146.4100
165.7300,146.4100
165.7300,129.9100
149.2300,129.9100
Z" /> 
<path style="fill:none; 
stroke:#000000; stroke-width:0.0500; stroke-opacity:1; 
stroke-linecap:round; stroke-linejoin:round;fill:none"
d="M 210.1900,105.7700
226.6900,105.7700
226.6900,89.2700
210.1900,89.2700
Z" /> 
<path style="fill:none; 
stroke:#000000; stroke-width:0.0500; stroke-opacity:1; 
stroke-linecap:round; stroke-linejoin:round;fill:none"
d="M 67.9500,75.2900
84.4500,75.2900
84.4500,58.7900
67.9500,58.7900
Z" /> 
<path style="fill:none; 
stroke:#000000; stroke-width:0.0500; stroke-opacity:1; 
stroke-linecap:round; stroke-linejoin:round;fill:none"
d="M 108.5900,126.0900
125.0900,126.0900
125.0900,109.5900
108.5900,109.5900
Z" /> 
<path d="M216.2041 131.7284
L216.2041 134.2284
" />
<path d="M216.2041 134.2284
L219.2441 134.2284
" />
<path d="M219.2441 131.7284
L216.2041 131.7284
" />
<path d="M219.2441 134.2284
L219.2441 131.7284
" />
<path d="M155.2441 111.4084
L155.2441 113.9084
" />
<path d="M155.2441 113.9084
L158.2841 113.9084
" />
<path d="M158.2841 111.4084
L155.2441 111.4084
" />
<path d="M158.2841 113.9084
L158.2841 111.4084
" />
<path style="fill:none; 
stroke:#000000; stroke-width:0.0500; stroke-opacity:1; 
stroke-linecap:round; stroke-linejoin:round;fill:none"
d="M 149.2300,105.7700
165.7300,105.7700
165.7300,89.2700
149.2300,89.2700
Z" /> 
<path d="M94.2841 131.7284
L94.2841 134.2284
" />
<path d="M94.2841 134.2284
L97.3241 134.2284
" />
<path d="M97.3241 131.7284
L94.2841 131.7284
" />
<path d="M97.3241 134.2284
L97.3241 131.7284
" />
<path d="M216.2041 111.4084
L216.2041 113.9084
" />
<path d="M216.2041 113.9084
L219.2441 113.9084
" />
<path d="M219.2441 111.4084
L216.2041 111.4084
" />
<path d="M219.2441 113.9084
L219.2441 111.4084
" />
<path style="fill:none; 
stroke:#000000; stroke-width:0.0500; stroke-opacity:1; 
stroke-linecap:round; stroke-linejoin:round;fill:none"
d="M 67.9500,105.7700
84.4500,105.7700
84.4500,89.2700
67.9500,89.2700
Z" /> 
<circle cx="42.3200" cy="141.5200" r="3.4500" /> 
<path d="M237.5100 123.9400
L237.5100 126.9800
" />
<path d="M237.5100 126.9800
L240.0100 126.9800
" />
<path d="M240.0100 123.9400
L237.5100 123.9400
" />
<path d="M240.0100 126.9800
L240.0100 123.9400
" />
<path style="fill:none; 
stroke:#000000; stroke-width:0.0500; stroke-opacity:1; 
stroke-linecap:round; stroke-linejoin:round;fill:none"
d="M 128.9100,126.0900
145.4100,126.0900
145.4100,109.5900
128.9100,109.5900
Z" /> 
<path style="fill:none; 
stroke:#000000; stroke-width:0.0500; stroke-opacity:1; 
stroke-linecap:round; stroke-linejoin:round;fill:none"
d="M 189.8700,146.4100
206.3700,146.4100
206.3700,129.9100
189.8700,129.9100
Z" /> 
<path d="M53.6441 121.5684
L53.6441 124.0684
" />
<path d="M53.6441 124.0684
L56.6841 124.0684
" />
<path d="M56.6841 121.5684
L53.6441 121.5684
" />
<path d="M56.6841 124.0684
L56.6841 121.5684
" />
<path style="fill:none; 
stroke:#000000; stroke-width:0.0500; stroke-opacity:1; 
stroke-linecap:round; stroke-linejoin:round;fill:none"
d="M 88.2700,146.4100
104.7700,146.4100
104.7700,129.9100
88.2700,129.9100
Z" /> 
<path d="M134.9241 91.0884
L134.9241 93.5884
" />
<path d="M134.9241 93.5884
L137.9641 93.5884
" />
<path d="M137.9641 91.0884
L134.9241 91.0884
" />
<path d="M137.9641 93.5884
L137.9641 91.0884
" />
<path style="fill:none; 
stroke:#000000; stroke-width:0.0500; stroke-opacity:1; 
stroke-linecap:round; stroke-linejoin:round;fill:none"
d="M 47.6300,75.2900
64.1300,75.2900
64.1300,58.7900
47.6300,58.7900
Z" /> 
<path style="fill:none; 
stroke:#000000; stroke-width:0.1000; stroke-opacity:1; 
stroke-linecap:round; stroke-linejoin:round;fill:none"
d="M 169.5911,85.4550
125.1411,85.4550
125.1411,48.6250
169.5911,48.6250
Z" /> 
<path style="fill:none; 
stroke:#000000; stroke-width:0.0500; stroke-opacity:1; 
stroke-linecap:round; stroke-linejoin:round;fill:none"
d="M 189.8700,105.7700
206.3700,105.7700
206.3700,89.2700
189.8700,89.2700
Z" /> 
</g>
<g style="fill:none; 
stroke:#000000; stroke-width:0.0500; stroke-opacity:1; 
stroke-linecap:round; stroke-linejoin:round;">
<path d="M53.6949 60.6084
L53.6949 63.1084
" />
<path d="M53.6949 63.1084
L56.7349 63.1084
" />
<path d="M56.7349 60.6084
L53.6949 60.6084
" />
<path d="M56.7349 63.1084
L56.7349 60.6084
" />
<path d="M74.0190 60.6084
L74.0190 63.1084
" />
<path d="M74.0190 63.1084
L77.0590 63.1084
" />
<path d="M77.0590 60.6084
L74.0190 60.6084
" />
<path d="M77.0590 63.1084
L77.0590 60.6084
" />
<path d="M155.2441 131.7284
L155.2441 134.2284
" />
<path d="M155.2441 134.2284
L158.2841 134.2284
" />
<path d="M158.2841 131.7284
L155.2441 131.7284
" />
<path d="M158.2841 134.2284
L158.2841 131.7284
" />
<path style="fill:none; 
stroke:#000000; stroke-width:0.0500; stroke-opacity:1; 
stroke-linecap:round; stroke-linejoin:round;fill:none"
d="M 88.2700,105.7700
104.7700,105.7700
104.7700,89.2700
88.2700,89.2700
Z" /> 
<path d="M73.9641 111.4084
L73.9641 113.9084
" />
<path d="M73.9641 113.9084
L77.0041 113.9084
" />
<path d="M77.0041 111.4084
L73.9641 111.4084
" />
<path d="M77.0041 113.9084
L77.0041 111.4084
" />
<path style="fill:none; 
stroke:#000000; stroke-width:0.0500; stroke-opacity:1; 
stroke-linecap:round; stroke-linejoin:round;fill:none"
d="M 189.8700,126.0900
206.3700,126.0900
206.3700,109.5900
189.8700,109.5900
Z" /> 
<circle cx="42.3200" cy="81.5200" r="3.4500" /> 
<path d="M134.9241 131.7284
L134.9241 134.2284
" />
<path d="M134.9241 134.2284
L137.9641 134.2284
" />
<path d="M137.9641 131.7284
L134.9241 131.7284
" />
<path d="M137.9641 134.2284
L137.9641 131.7284
" />
<path style="fill:none; 
stroke:#000000; stroke-width:0.0500; stroke-opacity:1; 
stroke-linecap:round; stroke-linejoin:round;fill:none"
d="M 67.9500,126.0900
84.4500,126.0900
84.4500,109.5900
67.9500,109.5900
Z" /> 
<path style="fill:none; 
stroke:#000000; stroke-width:0.0500; stroke-opacity:1; 
stroke-linecap:round; stroke-linejoin:round;fill:none"
d="M 128.9100,105.7700
145.4100,105.7700
145.4100,89.2700
128.9100,89.2700
Z" /> 
<path d="M134.9241 111.4084
L134.9241 113.9084
" />
<path d="M134.9241 113.9084
L137.9641 113.9084
" />
<path d="M137.9641 111.4084
L134.9241 111.4084
" />
<path d="M137.9641 113.9084
L137.9641 111.4084
" />
<path d="M237.5100 108.7000
L237.5100 111.7400
" />
<path d="M237.5100 111.7400
L240.0100 111.7400
" />
<path d="M240.0100 108.7000
L237.5100 108.7000
" />
<path d="M240.0100 111.7400
L240.0100 108.7000
" />
<path d="M175.5641 131.7284
L175.5641 134.2284
" />
<path d="M175.5641 134.2284
L178.6041 134.2284
" />
<path d="M178.6041 131.7284
L175.5641 131.7284
" />
<path d="M178.6041 134.2284
L178.6041 131.7284
" />
<path style="fill:none; 
stroke:#000000; stroke-width:0.0500; stroke-opacity:1; 
stroke-linecap:round; stroke-linejoin:round;fill:none"
d="M 210.1900,146.4100
226.6900,146.4100
226.6900,129.9100
210.1900,129.9100
Z" /> 
<path d="M237.5100 103.6200
L237.5100 106.6600
" />
<path d="M237.5100 106.6600
L240.0100 106.6600
" />
<path d="M240.0100 103.6200
L237.5100 103.6200
" />
<path d="M240.0100 106.6600
L240.0100 103.6200
" />
<path style="fill:none; 
stroke:#000000; stroke-width:0.0500; stroke-opacity:1; 
stroke-linecap:round; stroke-linejoin:round;fill:none"
d="M 108.5900,146.4100
125.0900,146.4100
125.0900,129.9100
108.5900,129.9100
Z" /> 
<path d="M237.5100 129.0200
L237.5100 132.0600
" />
<path d="M237.5100 132.0600
L240.0100 132.0600
" />
<path d="M240.0100 129.0200
L237.5100 129.0200
" />
<path d="M240.0100 132.0600
L240.0100 129.0200
" />
</g> 
</svg>
