%TF.GenerationSoftware,KiCad,Pcbnew,7.0.5-0*%
%TF.CreationDate,2023-10-31T21:53:37+01:00*%
%TF.ProjectId,20231027_vm-1_prototyp,32303233-3130-4323-975f-766d2d315f70,rev?*%
%TF.SameCoordinates,Original*%
%TF.FileFunction,Profile,NP*%
%FSLAX46Y46*%
G04 Gerber Fmt 4.6, Leading zero omitted, Abs format (unit mm)*
G04 Created by KiCad (PCBNEW 7.0.5-0) date 2023-10-31 21:53:37*
%MOMM*%
%LPD*%
G01*
G04 APERTURE LIST*
%TA.AperFunction,Profile*%
%ADD10C,0.100000*%
%TD*%
%TA.AperFunction,Profile*%
%ADD11C,0.050000*%
%TD*%
G04 APERTURE END LIST*
D10*
X260000000Y-60000000D02*
G75*
G03*
X255000000Y-55000000I-5000000J0D01*
G01*
X40000000Y-55000000D02*
X255000000Y-55000000D01*
X260000000Y-150000000D02*
X260000000Y-60000000D01*
X40000000Y-155000000D02*
X255000000Y-155000000D01*
X35000000Y-60000000D02*
X35000000Y-150000000D01*
X255000000Y-155000000D02*
G75*
G03*
X260000000Y-150000000I0J5000000D01*
G01*
X35000000Y-150000000D02*
G75*
G03*
X40000000Y-155000000I5000000J0D01*
G01*
X40000000Y-55000000D02*
G75*
G03*
X35000000Y-60000000I0J-5000000D01*
G01*
D11*
%TO.C,U31*%
X57080000Y-90100000D02*
X54680000Y-90100000D01*
X54680000Y-90100000D02*
X54680000Y-87700000D01*
X54680000Y-87700000D02*
X57080000Y-87700000D01*
X57080000Y-87700000D02*
X57080000Y-90100000D01*
%TO.C,U30*%
X57080000Y-79940000D02*
X54680000Y-79940000D01*
X54680000Y-79940000D02*
X54680000Y-77540000D01*
X54680000Y-77540000D02*
X57080000Y-77540000D01*
X57080000Y-77540000D02*
X57080000Y-79940000D01*
%TO.C,U29*%
X57080000Y-69780000D02*
X54680000Y-69780000D01*
X54680000Y-69780000D02*
X54680000Y-67380000D01*
X54680000Y-67380000D02*
X57080000Y-67380000D01*
X57080000Y-67380000D02*
X57080000Y-69780000D01*
%TO.C,U32*%
X57080000Y-100260000D02*
X54680000Y-100260000D01*
X54680000Y-100260000D02*
X54680000Y-97860000D01*
X54680000Y-97860000D02*
X57080000Y-97860000D01*
X57080000Y-97860000D02*
X57080000Y-100260000D01*
%TD*%
M02*
