<?xml version="1.0" standalone="no"?>
 <!DOCTYPE svg PUBLIC "-//W3C//DTD SVG 1.1//EN" 
 "http://www.w3.org/Graphics/SVG/1.1/DTD/svg11.dtd"> 
<svg
  xmlns:svg="http://www.w3.org/2000/svg"
  xmlns="http://www.w3.org/2000/svg"
  xmlns:xlink="http://www.w3.org/1999/xlink"
  version="1.1"
  width="297.0022mm" height="210.0072mm" viewBox="0.0000 0.0000 297.0022 210.0072">
<title>SVG Image created as vm1-controller-F_Mask.svg date 2025/07/18 07:27:12 </title>
  <desc>Image generated by PCBNEW </desc>
<g style="fill:#000000; fill-opacity:1.0000;stroke:#000000; stroke-opacity:1.0000;
stroke-linecap:round; stroke-linejoin:round;"
 transform="translate(0 0) scale(1 1)">
<path style="fill:#000000; fill-opacity:1.0000; stroke:none;fill-rule:evenodd;"
d="M 241.6221,119.2176
241.7843,119.2613
241.9387,119.3344
242.0873,119.4392
242.2313,119.5795
242.3532,119.7371
242.4463,119.9021
242.5125,120.0760
242.5527,120.2607
242.5663,120.4585
242.5527,120.6562
242.5125,120.8409
242.4463,121.0148
242.3532,121.1799
242.2313,121.3374
242.0873,121.4777
241.9387,121.5825
241.7843,121.6557
241.6221,121.6993
241.4497,121.7141
240.9445,121.7141
240.9445,121.6207
241.0377,121.6207
241.4497,121.6207
241.6074,121.6071
241.7559,121.5668
241.8973,121.4992
242.0336,121.4022
242.1659,121.2722
242.2775,121.1266
242.3629,120.9739
242.4237,120.8128
242.4606,120.6417
242.4731,120.4585
242.4606,120.2753
242.4237,120.1042
242.3629,119.9432
242.2775,119.7905
242.1659,119.6448
242.0336,119.5148
241.8973,119.4178
241.7558,119.3502
241.6074,119.3098
241.4497,119.2962
241.0377,119.2962
241.0377,121.6207
240.9445,121.6207
240.9445,119.2028
241.4497,119.2028
Z" /> 
<path style="fill:#000000; fill-opacity:1.0000; stroke:none;fill-rule:evenodd;"
d="M 240.9445,126.7941
240.9445,124.2828
242.5079,124.2828
242.5079,124.3762
241.0377,124.3762
241.0377,125.4938
242.0116,125.4938
242.0116,125.5872
241.0377,125.5872
241.0377,126.7007
242.5079,126.7007
242.5079,126.7941
Z" /> 
<path style="fill:#000000; fill-opacity:1.0000; stroke:none;fill-rule:evenodd;"
d="M 241.8523,116.5407
241.9624,116.5281
242.0679,116.4899
242.1711,116.4239
242.2738,116.3254
242.3767,116.1876
242.4421,116.2532
242.3279,116.4008
242.2131,116.5070
242.0969,116.5786
241.9775,116.6202
241.8523,116.6341
241.7269,116.6203
241.6077,116.5790
241.4920,116.5080
241.3781,116.4030
241.2651,116.2572
241.1566,116.0638
241.0784,115.8547
241.0305,115.6274
241.0140,115.3785
241.0305,115.1296
241.0784,114.9022
241.1566,114.6931
241.2651,114.4997
241.3781,114.3539
241.4920,114.2489
241.6077,114.1779
241.7269,114.1366
241.8523,114.1228
241.9775,114.1367
242.0969,114.1783
242.2131,114.2499
242.3279,114.3560
242.4421,114.5036
242.3767,114.5693
242.2738,114.4315
242.1711,114.3330
242.0679,114.2670
241.9624,114.2288
241.8523,114.2162
241.7420,114.2287
241.6368,114.2666
241.5341,114.3318
241.4324,114.4290
241.3310,114.5647
241.2345,114.7430
241.1648,114.9363
241.1220,115.1472
241.1072,115.3785
241.1220,115.6098
241.1648,115.8207
241.2345,116.0141
241.3310,116.1924
241.4324,116.3280
241.5341,116.4251
241.6368,116.4904
241.7420,116.5282
Z" /> 
<path style="fill:#000000; fill-opacity:1.0000; stroke:none;fill-rule:evenodd;"
d="M 240.9445,131.8741
240.9445,129.3628
242.5079,129.3628
242.5079,129.4562
241.0377,129.4562
241.0377,130.5738
242.0116,130.5738
242.0116,130.6672
241.0377,130.6672
241.0377,131.8741
Z" /> 
<path style="fill:#000000; fill-opacity:1.0000; stroke:none;fill-rule:evenodd;"
d="M 242.0425,109.0550
242.1588,109.0912
242.2680,109.1517
242.3717,109.2392
242.4584,109.3435
242.5184,109.4532
242.5542,109.5701
242.5663,109.6964
242.5493,109.8649
242.5018,109.9989
242.4265,110.1058
242.2892,110.2377
242.1996,110.3005
242.2891,110.3633
242.4265,110.4959
242.5019,110.6033
242.5493,110.7373
242.5663,110.9053
242.5542,111.0311
242.5184,111.1474
242.4583,111.2563
242.3717,111.3598
242.2681,111.4462
242.1590,111.5062
242.0426,111.5420
241.9165,111.5541
240.9445,111.5541
240.9445,111.4607
241.0377,111.4607
241.9165,111.4607
242.0585,111.4424
242.1871,111.3879
242.3064,111.2945
242.4002,111.1754
242.4548,111.0470
242.4731,110.9053
242.4548,110.7636
242.4002,110.6348
242.3064,110.5150
242.1870,110.4206
242.0584,110.3656
241.9165,110.3472
241.0377,110.3472
241.0377,111.4607
240.9445,111.4607
240.9445,110.2538
241.0377,110.2538
241.9165,110.2538
242.0585,110.2354
242.1871,110.1807
242.3064,110.0868
242.4002,109.9673
242.4547,109.8385
242.4731,109.6964
242.4548,109.5541
242.4002,109.4249
242.3064,109.3046
242.1870,109.2098
242.0584,109.1547
241.9165,109.1362
241.0377,109.1362
241.0377,110.2538
240.9445,110.2538
240.9445,109.0428
241.9165,109.0428
Z" /> 
<path style="fill:#000000; fill-opacity:1.0000; stroke:none;fill-rule:evenodd;"
d="M 242.6658,106.4741
242.5718,106.4741
242.3052,105.7238
241.1455,105.7238
240.8788,106.4741
240.7849,106.4741
241.0857,105.6304
241.1795,105.6304
242.2712,105.6304
241.7253,104.0993
241.1795,105.6304
241.0857,105.6304
241.6801,103.9628
241.7706,103.9628
Z" /> 
<path style="fill:#000000; fill-opacity:1.0000; stroke:none;fill-rule:evenodd;"
d="M 90.9865,62.0830
94.5109,71.9700
94.8669,71.9700
98.3914,62.0830
98.0213,62.0830
94.6886,71.4327
91.3559,62.0830
Z" /> 
<path style="fill:#000000; fill-opacity:1.0000; stroke:none;fill-rule:evenodd;"
d="M 99.0496,71.9700
99.0496,62.0830
99.4092,62.0830
102.1368,67.9211
104.8644,62.0830
105.2240,62.0830
105.2240,71.9700
104.8571,71.9700
104.8571,62.9782
102.1368,68.8016
99.4166,62.9782
99.4166,71.9700
Z" /> 
<path style="fill:#000000; fill-opacity:1.0000; stroke:none;fill-rule:evenodd;"
d="M 107.0705,67.2024
107.0705,66.8348
112.0335,66.8348
112.0335,67.2024
Z" /> 
<path style="fill:#000000; fill-opacity:1.0000; stroke:none;fill-rule:evenodd;"
d="M 116.1551,63.4160
117.4869,62.0830
117.8422,62.0830
117.8422,71.9700
117.4753,71.9700
117.4753,62.6094
116.4122,63.6731
Z" /> 
</g>
<g style="fill:#000000; fill-opacity:1.0000; stroke:none;">
<circle cx="55.8800" cy="128.0000" r="2.6250" /> 
<path style="fill:#000000; fill-opacity:1.0000; stroke:none;fill-rule:evenodd;"
d="M 238.9600,114.0350
239.6600,114.0350
239.6600,114.7350
238.9600,114.7350
Z" /> 
<path style="fill:#000000; fill-opacity:1.0000; stroke:none;fill-rule:evenodd;"
d="M 237.8600,114.0350
238.5600,114.0350
238.5600,114.7350
237.8600,114.7350
Z" /> 
<path style="fill:#000000; fill-opacity:1.0000; stroke:none;fill-rule:evenodd;"
d="M 237.8600,115.8650
238.5600,115.8650
238.5600,116.5650
237.8600,116.5650
Z" /> 
<path style="fill:#000000; fill-opacity:1.0000; stroke:none;fill-rule:evenodd;"
d="M 238.9600,115.8650
239.6600,115.8650
239.6600,116.5650
238.9600,116.5650
Z" /> 
<path style="fill:#000000; fill-opacity:1.0000; stroke:none;fill-rule:evenodd;"
d="M 117.3891,133.1784
117.3891,133.8784
116.6891,133.8784
116.6891,133.1784
Z" /> 
<path style="fill:#000000; fill-opacity:1.0000; stroke:none;fill-rule:evenodd;"
d="M 117.3891,132.0784
117.3891,132.7784
116.6891,132.7784
116.6891,132.0784
Z" /> 
<path style="fill:#000000; fill-opacity:1.0000; stroke:none;fill-rule:evenodd;"
d="M 115.5591,132.0784
115.5591,132.7784
114.8591,132.7784
114.8591,132.0784
Z" /> 
<path style="fill:#000000; fill-opacity:1.0000; stroke:none;fill-rule:evenodd;"
d="M 115.5591,133.1784
115.5591,133.8784
114.8591,133.8784
114.8591,133.1784
Z" /> 
</g>
<g style="fill:#000000; fill-opacity:1.0000; stroke:none;">
<circle cx="252.3200" cy="141.5200" r="1.6000" /> 
<path style="fill:#000000; fill-opacity:1.0000; stroke:none;fill-rule:evenodd;"
d="M 97.0691,92.5384
97.0691,93.2384
96.3691,93.2384
96.3691,92.5384
Z" /> 
<path style="fill:#000000; fill-opacity:1.0000; stroke:none;fill-rule:evenodd;"
d="M 97.0691,91.4384
97.0691,92.1384
96.3691,92.1384
96.3691,91.4384
Z" /> 
<path style="fill:#000000; fill-opacity:1.0000; stroke:none;fill-rule:evenodd;"
d="M 95.2391,91.4384
95.2391,92.1384
94.5391,92.1384
94.5391,91.4384
Z" /> 
<path style="fill:#000000; fill-opacity:1.0000; stroke:none;fill-rule:evenodd;"
d="M 95.2391,92.5384
95.2391,93.2384
94.5391,93.2384
94.5391,92.5384
Z" /> 
<path style="fill:#000000; fill-opacity:1.0000; stroke:none;fill-rule:evenodd;"
d="M 114.8591,112.4584
114.8591,111.7584
115.5591,111.7584
115.5591,112.4584
Z" /> 
<path style="fill:#000000; fill-opacity:1.0000; stroke:none;fill-rule:evenodd;"
d="M 114.8591,113.5584
114.8591,112.8584
115.5591,112.8584
115.5591,113.5584
Z" /> 
<path style="fill:#000000; fill-opacity:1.0000; stroke:none;fill-rule:evenodd;"
d="M 116.6891,113.5584
116.6891,112.8584
117.3891,112.8584
117.3891,113.5584
Z" /> 
<path style="fill:#000000; fill-opacity:1.0000; stroke:none;fill-rule:evenodd;"
d="M 116.6891,112.4584
116.6891,111.7584
117.3891,111.7584
117.3891,112.4584
Z" /> 
<path style="fill:#000000; fill-opacity:1.0000; stroke:none;fill-rule:evenodd;"
d="M 158.0291,92.5384
158.0291,93.2384
157.3291,93.2384
157.3291,92.5384
Z" /> 
<path style="fill:#000000; fill-opacity:1.0000; stroke:none;fill-rule:evenodd;"
d="M 158.0291,91.4384
158.0291,92.1384
157.3291,92.1384
157.3291,91.4384
Z" /> 
<path style="fill:#000000; fill-opacity:1.0000; stroke:none;fill-rule:evenodd;"
d="M 156.1991,91.4384
156.1991,92.1384
155.4991,92.1384
155.4991,91.4384
Z" /> 
<path style="fill:#000000; fill-opacity:1.0000; stroke:none;fill-rule:evenodd;"
d="M 156.1991,92.5384
156.1991,93.2384
155.4991,93.2384
155.4991,92.5384
Z" /> 
<path style="fill:#000000; fill-opacity:1.0000; stroke:none;fill-rule:evenodd;"
d="M 94.5391,112.4584
94.5391,111.7584
95.2391,111.7584
95.2391,112.4584
Z" /> 
<path style="fill:#000000; fill-opacity:1.0000; stroke:none;fill-rule:evenodd;"
d="M 94.5391,113.5584
94.5391,112.8584
95.2391,112.8584
95.2391,113.5584
Z" /> 
<path style="fill:#000000; fill-opacity:1.0000; stroke:none;fill-rule:evenodd;"
d="M 96.3691,113.5584
96.3691,112.8584
97.0691,112.8584
97.0691,113.5584
Z" /> 
<path style="fill:#000000; fill-opacity:1.0000; stroke:none;fill-rule:evenodd;"
d="M 96.3691,112.4584
96.3691,111.7584
97.0691,111.7584
97.0691,112.4584
Z" /> 
<path style="fill:#000000; fill-opacity:1.0000; stroke:none;fill-rule:evenodd;"
d="M 76.7491,92.5384
76.7491,93.2384
76.0491,93.2384
76.0491,92.5384
Z" /> 
<path style="fill:#000000; fill-opacity:1.0000; stroke:none;fill-rule:evenodd;"
d="M 76.7491,91.4384
76.7491,92.1384
76.0491,92.1384
76.0491,91.4384
Z" /> 
<path style="fill:#000000; fill-opacity:1.0000; stroke:none;fill-rule:evenodd;"
d="M 74.9191,91.4384
74.9191,92.1384
74.2191,92.1384
74.2191,91.4384
Z" /> 
<path style="fill:#000000; fill-opacity:1.0000; stroke:none;fill-rule:evenodd;"
d="M 74.9191,92.5384
74.9191,93.2384
74.2191,93.2384
74.2191,92.5384
Z" /> 
</g>
<g style="fill:#000000; fill-opacity:1.0000; stroke:none;">
<circle cx="252.3200" cy="51.5200" r="1.6000" /> 
</g>
<g style="fill:#000000; fill-opacity:1.0000; stroke:none;">
<circle cx="96.5200" cy="117.8400" r="2.6250" /> 
<path style="fill:#000000; fill-opacity:1.0000; stroke:none;fill-rule:evenodd;"
d="M 218.9891,92.5384
218.9891,93.2384
218.2891,93.2384
218.2891,92.5384
Z" /> 
<path style="fill:#000000; fill-opacity:1.0000; stroke:none;fill-rule:evenodd;"
d="M 218.9891,91.4384
218.9891,92.1384
218.2891,92.1384
218.2891,91.4384
Z" /> 
<path style="fill:#000000; fill-opacity:1.0000; stroke:none;fill-rule:evenodd;"
d="M 217.1591,91.4384
217.1591,92.1384
216.4591,92.1384
216.4591,91.4384
Z" /> 
<path style="fill:#000000; fill-opacity:1.0000; stroke:none;fill-rule:evenodd;"
d="M 217.1591,92.5384
217.1591,93.2384
216.4591,93.2384
216.4591,92.5384
Z" /> 
</g>
<g style="fill:#000000; fill-opacity:1.0000; stroke:none;">
<circle cx="116.8400" cy="97.5200" r="2.6250" /> 
</g>
<g style="fill:#000000; fill-opacity:1.0000; stroke:none;">
<circle cx="76.2000" cy="138.1600" r="2.6250" /> 
<path style="fill:#000000; fill-opacity:1.0000; stroke:none;fill-rule:evenodd;"
d="M 198.6691,92.5384
198.6691,93.2384
197.9691,93.2384
197.9691,92.5384
Z" /> 
<path style="fill:#000000; fill-opacity:1.0000; stroke:none;fill-rule:evenodd;"
d="M 198.6691,91.4384
198.6691,92.1384
197.9691,92.1384
197.9691,91.4384
Z" /> 
<path style="fill:#000000; fill-opacity:1.0000; stroke:none;fill-rule:evenodd;"
d="M 196.8391,91.4384
196.8391,92.1384
196.1391,92.1384
196.1391,91.4384
Z" /> 
<path style="fill:#000000; fill-opacity:1.0000; stroke:none;fill-rule:evenodd;"
d="M 196.8391,92.5384
196.8391,93.2384
196.1391,93.2384
196.1391,92.5384
Z" /> 
</g>
<g style="fill:#000000; fill-opacity:1.0000; stroke:none;">
<circle cx="252.3200" cy="81.5200" r="1.6000" /> 
<path style="fill:#000000; fill-opacity:1.0000; stroke:none;fill-rule:evenodd;"
d="M 178.3491,92.5384
178.3491,93.2384
177.6491,93.2384
177.6491,92.5384
Z" /> 
<path style="fill:#000000; fill-opacity:1.0000; stroke:none;fill-rule:evenodd;"
d="M 178.3491,91.4384
178.3491,92.1384
177.6491,92.1384
177.6491,91.4384
Z" /> 
<path style="fill:#000000; fill-opacity:1.0000; stroke:none;fill-rule:evenodd;"
d="M 176.5191,91.4384
176.5191,92.1384
175.8191,92.1384
175.8191,91.4384
Z" /> 
<path style="fill:#000000; fill-opacity:1.0000; stroke:none;fill-rule:evenodd;"
d="M 176.5191,92.5384
176.5191,93.2384
175.8191,93.2384
175.8191,92.5384
Z" /> 
</g>
<g style="fill:#000000; fill-opacity:1.0000; stroke:none;">
<circle cx="177.8000" cy="138.1600" r="2.6250" /> 
<path style="fill:#000000; fill-opacity:1.0000; stroke:none;fill-rule:evenodd;"
d="M 175.8445,112.4584
175.8445,111.7584
176.5445,111.7584
176.5445,112.4584
Z" /> 
<path style="fill:#000000; fill-opacity:1.0000; stroke:none;fill-rule:evenodd;"
d="M 175.8445,113.5584
175.8445,112.8584
176.5445,112.8584
176.5445,113.5584
Z" /> 
<path style="fill:#000000; fill-opacity:1.0000; stroke:none;fill-rule:evenodd;"
d="M 177.6745,113.5584
177.6745,112.8584
178.3745,112.8584
178.3745,113.5584
Z" /> 
<path style="fill:#000000; fill-opacity:1.0000; stroke:none;fill-rule:evenodd;"
d="M 177.6745,112.4584
177.6745,111.7584
178.3745,111.7584
178.3745,112.4584
Z" /> 
<path style="fill:#000000; fill-opacity:1.0000; stroke:none;fill-rule:evenodd;"
d="M 215.3556,75.3900
215.2540,75.3698
215.1678,75.3122
215.1102,75.2260
215.0900,75.1244
215.0900,73.9556
215.1102,73.8540
215.1678,73.7678
215.2540,73.7102
215.3556,73.6900
216.5244,73.6900
216.6260,73.7102
216.7122,73.7678
216.7698,73.8540
216.7900,73.9556
216.7900,75.1244
216.7698,75.2260
216.7122,75.3122
216.6260,75.3698
216.5244,75.3900
Z" /> 
</g>
<g style="fill:#000000; fill-opacity:1.0000; stroke:none;">
<circle cx="220.9400" cy="74.5400" r="0.8500" /> 
</g>
<g style="fill:#000000; fill-opacity:1.0000; stroke:none;">
<circle cx="218.4400" cy="74.5400" r="0.8500" /> 
</g>
<g style="fill:none; 
stroke:#000000; stroke-width:3.0000; stroke-opacity:1; 
stroke-linecap:round; stroke-linejoin:round;">
<path d="M212.8400 67.5900
L212.8400 66.4900
" />
<path d="M224.0400 67.5900
L224.0400 66.4900
" />
</g>
<g style="fill:#000000; fill-opacity:1.0000; stroke:none;">
<circle cx="137.1600" cy="138.1600" r="2.6250" /> 
<path style="fill:#000000; fill-opacity:1.0000; stroke:none;fill-rule:evenodd;"
d="M 238.9600,119.1150
239.6600,119.1150
239.6600,119.8150
238.9600,119.8150
Z" /> 
<path style="fill:#000000; fill-opacity:1.0000; stroke:none;fill-rule:evenodd;"
d="M 237.8600,119.1150
238.5600,119.1150
238.5600,119.8150
237.8600,119.8150
Z" /> 
<path style="fill:#000000; fill-opacity:1.0000; stroke:none;fill-rule:evenodd;"
d="M 237.8600,120.9450
238.5600,120.9450
238.5600,121.6450
237.8600,121.6450
Z" /> 
<path style="fill:#000000; fill-opacity:1.0000; stroke:none;fill-rule:evenodd;"
d="M 238.9600,120.9450
239.6600,120.9450
239.6600,121.6450
238.9600,121.6450
Z" /> 
<path style="fill:#000000; fill-opacity:1.0000; stroke:none;fill-rule:evenodd;"
d="M 196.1391,112.4584
196.1391,111.7584
196.8391,111.7584
196.8391,112.4584
Z" /> 
<path style="fill:#000000; fill-opacity:1.0000; stroke:none;fill-rule:evenodd;"
d="M 196.1391,113.5584
196.1391,112.8584
196.8391,112.8584
196.8391,113.5584
Z" /> 
<path style="fill:#000000; fill-opacity:1.0000; stroke:none;fill-rule:evenodd;"
d="M 197.9691,113.5584
197.9691,112.8584
198.6691,112.8584
198.6691,113.5584
Z" /> 
<path style="fill:#000000; fill-opacity:1.0000; stroke:none;fill-rule:evenodd;"
d="M 197.9691,112.4584
197.9691,111.7584
198.6691,111.7584
198.6691,112.4584
Z" /> 
<path style="fill:#000000; fill-opacity:1.0000; stroke:none;fill-rule:evenodd;"
d="M 117.3891,92.5384
117.3891,93.2384
116.6891,93.2384
116.6891,92.5384
Z" /> 
<path style="fill:#000000; fill-opacity:1.0000; stroke:none;fill-rule:evenodd;"
d="M 117.3891,91.4384
117.3891,92.1384
116.6891,92.1384
116.6891,91.4384
Z" /> 
<path style="fill:#000000; fill-opacity:1.0000; stroke:none;fill-rule:evenodd;"
d="M 115.5591,91.4384
115.5591,92.1384
114.8591,92.1384
114.8591,91.4384
Z" /> 
<path style="fill:#000000; fill-opacity:1.0000; stroke:none;fill-rule:evenodd;"
d="M 115.5591,92.5384
115.5591,93.2384
114.8591,93.2384
114.8591,92.5384
Z" /> 
<path style="fill:#000000; fill-opacity:1.0000; stroke:none;fill-rule:evenodd;"
d="M 198.6691,133.1784
198.6691,133.8784
197.9691,133.8784
197.9691,133.1784
Z" /> 
<path style="fill:#000000; fill-opacity:1.0000; stroke:none;fill-rule:evenodd;"
d="M 198.6691,132.0784
198.6691,132.7784
197.9691,132.7784
197.9691,132.0784
Z" /> 
<path style="fill:#000000; fill-opacity:1.0000; stroke:none;fill-rule:evenodd;"
d="M 196.8391,132.0784
196.8391,132.7784
196.1391,132.7784
196.1391,132.0784
Z" /> 
<path style="fill:#000000; fill-opacity:1.0000; stroke:none;fill-rule:evenodd;"
d="M 196.8391,133.1784
196.8391,133.8784
196.1391,133.8784
196.1391,133.1784
Z" /> 
</g>
<g style="fill:#000000; fill-opacity:1.0000; stroke:none;">
<circle cx="218.4400" cy="117.8400" r="2.6250" /> 
<path style="fill:#000000; fill-opacity:1.0000; stroke:none;fill-rule:evenodd;"
d="M 235.6756,75.3900
235.5740,75.3698
235.4878,75.3122
235.4302,75.2260
235.4100,75.1244
235.4100,73.9556
235.4302,73.8540
235.4878,73.7678
235.5740,73.7102
235.6756,73.6900
236.8444,73.6900
236.9460,73.7102
237.0322,73.7678
237.0898,73.8540
237.1100,73.9556
237.1100,75.1244
237.0898,75.2260
237.0322,75.3122
236.9460,75.3698
236.8444,75.3900
Z" /> 
</g>
<g style="fill:#000000; fill-opacity:1.0000; stroke:none;">
<circle cx="241.2600" cy="74.5400" r="0.8500" /> 
</g>
<g style="fill:#000000; fill-opacity:1.0000; stroke:none;">
<circle cx="238.7600" cy="74.5400" r="0.8500" /> 
</g>
<g style="fill:none; 
stroke:#000000; stroke-width:3.0000; stroke-opacity:1; 
stroke-linecap:round; stroke-linejoin:round;">
<path d="M233.1600 67.5900
L233.1600 66.4900
" />
<path d="M244.3600 67.5900
L244.3600 66.4900
" />
</g>
<g style="fill:#000000; fill-opacity:1.0000; stroke:none;">
<circle cx="42.3200" cy="51.5200" r="1.6000" /> 
</g>
<g style="fill:#000000; fill-opacity:1.0000; stroke:none;">
<circle cx="177.8000" cy="97.5200" r="2.6250" /> 
</g>
<g style="fill:#000000; fill-opacity:1.0000; stroke:none;">
<circle cx="157.4800" cy="117.8400" r="2.6250" /> 
<path style="fill:#000000; fill-opacity:1.0000; stroke:none;fill-rule:evenodd;"
d="M 76.7491,133.1784
76.7491,133.8784
76.0491,133.8784
76.0491,133.1784
Z" /> 
<path style="fill:#000000; fill-opacity:1.0000; stroke:none;fill-rule:evenodd;"
d="M 76.7491,132.0784
76.7491,132.7784
76.0491,132.7784
76.0491,132.0784
Z" /> 
<path style="fill:#000000; fill-opacity:1.0000; stroke:none;fill-rule:evenodd;"
d="M 74.9191,132.0784
74.9191,132.7784
74.2191,132.7784
74.2191,132.0784
Z" /> 
<path style="fill:#000000; fill-opacity:1.0000; stroke:none;fill-rule:evenodd;"
d="M 74.9191,133.1784
74.9191,133.8784
74.2191,133.8784
74.2191,133.1784
Z" /> 
</g>
<g style="fill:#000000; fill-opacity:1.0000; stroke:none;">
<circle cx="177.8000" cy="117.8400" r="2.6250" /> 
</g>
<g style="fill:#000000; fill-opacity:1.0000; stroke:none;">
<circle cx="157.4800" cy="138.1600" r="2.6250" /> 
</g>
<g style="fill:#000000; fill-opacity:1.0000; stroke:none;">
<circle cx="218.4400" cy="97.5200" r="2.6250" /> 
</g>
<g style="fill:#000000; fill-opacity:1.0000; stroke:none;">
<circle cx="76.2000" cy="67.0400" r="2.6250" /> 
</g>
<g style="fill:#000000; fill-opacity:1.0000; stroke:none;">
<circle cx="116.8400" cy="117.8400" r="2.6250" /> 
<path style="fill:#000000; fill-opacity:1.0000; stroke:none;fill-rule:evenodd;"
d="M 218.9891,133.1784
218.9891,133.8784
218.2891,133.8784
218.2891,133.1784
Z" /> 
<path style="fill:#000000; fill-opacity:1.0000; stroke:none;fill-rule:evenodd;"
d="M 218.9891,132.0784
218.9891,132.7784
218.2891,132.7784
218.2891,132.0784
Z" /> 
<path style="fill:#000000; fill-opacity:1.0000; stroke:none;fill-rule:evenodd;"
d="M 217.1591,132.0784
217.1591,132.7784
216.4591,132.7784
216.4591,132.0784
Z" /> 
<path style="fill:#000000; fill-opacity:1.0000; stroke:none;fill-rule:evenodd;"
d="M 217.1591,133.1784
217.1591,133.8784
216.4591,133.8784
216.4591,133.1784
Z" /> 
<path style="fill:#000000; fill-opacity:1.0000; stroke:none;fill-rule:evenodd;"
d="M 155.4991,112.4584
155.4991,111.7584
156.1991,111.7584
156.1991,112.4584
Z" /> 
<path style="fill:#000000; fill-opacity:1.0000; stroke:none;fill-rule:evenodd;"
d="M 155.4991,113.5584
155.4991,112.8584
156.1991,112.8584
156.1991,113.5584
Z" /> 
<path style="fill:#000000; fill-opacity:1.0000; stroke:none;fill-rule:evenodd;"
d="M 157.3291,113.5584
157.3291,112.8584
158.0291,112.8584
158.0291,113.5584
Z" /> 
<path style="fill:#000000; fill-opacity:1.0000; stroke:none;fill-rule:evenodd;"
d="M 157.3291,112.4584
157.3291,111.7584
158.0291,111.7584
158.0291,112.4584
Z" /> 
</g>
<g style="fill:#000000; fill-opacity:1.0000; stroke:none;">
<circle cx="157.4800" cy="97.5200" r="2.6250" /> 
<path style="fill:#000000; fill-opacity:1.0000; stroke:none;fill-rule:evenodd;"
d="M 97.0691,133.1784
97.0691,133.8784
96.3691,133.8784
96.3691,133.1784
Z" /> 
<path style="fill:#000000; fill-opacity:1.0000; stroke:none;fill-rule:evenodd;"
d="M 97.0691,132.0784
97.0691,132.7784
96.3691,132.7784
96.3691,132.0784
Z" /> 
<path style="fill:#000000; fill-opacity:1.0000; stroke:none;fill-rule:evenodd;"
d="M 95.2391,132.0784
95.2391,132.7784
94.5391,132.7784
94.5391,132.0784
Z" /> 
<path style="fill:#000000; fill-opacity:1.0000; stroke:none;fill-rule:evenodd;"
d="M 95.2391,133.1784
95.2391,133.8784
94.5391,133.8784
94.5391,133.1784
Z" /> 
<path style="fill:#000000; fill-opacity:1.0000; stroke:none;fill-rule:evenodd;"
d="M 216.4591,112.4584
216.4591,111.7584
217.1591,111.7584
217.1591,112.4584
Z" /> 
<path style="fill:#000000; fill-opacity:1.0000; stroke:none;fill-rule:evenodd;"
d="M 216.4591,113.5584
216.4591,112.8584
217.1591,112.8584
217.1591,113.5584
Z" /> 
<path style="fill:#000000; fill-opacity:1.0000; stroke:none;fill-rule:evenodd;"
d="M 218.2891,113.5584
218.2891,112.8584
218.9891,112.8584
218.9891,113.5584
Z" /> 
<path style="fill:#000000; fill-opacity:1.0000; stroke:none;fill-rule:evenodd;"
d="M 218.2891,112.4584
218.2891,111.7584
218.9891,111.7584
218.9891,112.4584
Z" /> 
</g>
<g style="fill:#000000; fill-opacity:1.0000; stroke:none;">
<circle cx="76.2000" cy="97.5200" r="2.6250" /> 
</g>
<g style="fill:#000000; fill-opacity:1.0000; stroke:none;">
<circle cx="42.3200" cy="141.5200" r="1.6000" /> 
<path style="fill:#000000; fill-opacity:1.0000; stroke:none;fill-rule:evenodd;"
d="M 238.9600,124.1950
239.6600,124.1950
239.6600,124.8950
238.9600,124.8950
Z" /> 
<path style="fill:#000000; fill-opacity:1.0000; stroke:none;fill-rule:evenodd;"
d="M 237.8600,124.1950
238.5600,124.1950
238.5600,124.8950
237.8600,124.8950
Z" /> 
<path style="fill:#000000; fill-opacity:1.0000; stroke:none;fill-rule:evenodd;"
d="M 237.8600,126.0250
238.5600,126.0250
238.5600,126.7250
237.8600,126.7250
Z" /> 
<path style="fill:#000000; fill-opacity:1.0000; stroke:none;fill-rule:evenodd;"
d="M 238.9600,126.0250
239.6600,126.0250
239.6600,126.7250
238.9600,126.7250
Z" /> 
</g>
<g style="fill:#000000; fill-opacity:1.0000; stroke:none;">
<circle cx="137.1600" cy="117.8400" r="2.6250" /> 
</g>
<g style="fill:#000000; fill-opacity:1.0000; stroke:none;">
<circle cx="198.1200" cy="138.1600" r="2.6250" /> 
<path style="fill:#000000; fill-opacity:1.0000; stroke:none;fill-rule:evenodd;"
d="M 56.4291,123.0184
56.4291,123.7184
55.7291,123.7184
55.7291,123.0184
Z" /> 
<path style="fill:#000000; fill-opacity:1.0000; stroke:none;fill-rule:evenodd;"
d="M 56.4291,121.9184
56.4291,122.6184
55.7291,122.6184
55.7291,121.9184
Z" /> 
<path style="fill:#000000; fill-opacity:1.0000; stroke:none;fill-rule:evenodd;"
d="M 54.5991,121.9184
54.5991,122.6184
53.8991,122.6184
53.8991,121.9184
Z" /> 
<path style="fill:#000000; fill-opacity:1.0000; stroke:none;fill-rule:evenodd;"
d="M 54.5991,123.0184
54.5991,123.7184
53.8991,123.7184
53.8991,123.0184
Z" /> 
</g>
<g style="fill:#000000; fill-opacity:1.0000; stroke:none;">
<circle cx="96.5200" cy="138.1600" r="2.6250" /> 
<path style="fill:#000000; fill-opacity:1.0000; stroke:none;fill-rule:evenodd;"
d="M 137.7091,92.5384
137.7091,93.2384
137.0091,93.2384
137.0091,92.5384
Z" /> 
<path style="fill:#000000; fill-opacity:1.0000; stroke:none;fill-rule:evenodd;"
d="M 137.7091,91.4384
137.7091,92.1384
137.0091,92.1384
137.0091,91.4384
Z" /> 
<path style="fill:#000000; fill-opacity:1.0000; stroke:none;fill-rule:evenodd;"
d="M 135.8791,91.4384
135.8791,92.1384
135.1791,92.1384
135.1791,91.4384
Z" /> 
<path style="fill:#000000; fill-opacity:1.0000; stroke:none;fill-rule:evenodd;"
d="M 135.8791,92.5384
135.8791,93.2384
135.1791,93.2384
135.1791,92.5384
Z" /> 
</g>
<g style="fill:#000000; fill-opacity:1.0000; stroke:none;">
<circle cx="55.8800" cy="67.0400" r="2.6250" /> 
</g>
<g style="fill:#000000; fill-opacity:1.0000; stroke:none;">
<circle cx="127.6811" cy="50.9400" r="1.5000" /> 
</g>
<g style="fill:#000000; fill-opacity:1.0000; stroke:none;">
<circle cx="127.6811" cy="82.9900" r="1.5000" /> 
</g>
<g style="fill:#000000; fill-opacity:1.0000; stroke:none;">
<circle cx="167.1811" cy="50.9400" r="1.5000" /> 
</g>
<g style="fill:#000000; fill-opacity:1.0000; stroke:none;">
<circle cx="167.1811" cy="82.9900" r="1.5000" /> 
</g>
<g style="fill:#000000; fill-opacity:1.0000; stroke:none;">
<circle cx="127.4411" cy="74.6600" r="0.8500" /> 
</g>
<g style="fill:#000000; fill-opacity:1.0000; stroke:none;">
<circle cx="127.4411" cy="72.1200" r="0.8500" /> 
<circle cx="127.4411" cy="69.5800" r="0.8500" /> 
<circle cx="127.4411" cy="67.0400" r="0.8500" /> 
<circle cx="127.4411" cy="64.5000" r="0.8500" /> 
<circle cx="127.4411" cy="61.9600" r="0.8500" /> 
<circle cx="127.4411" cy="59.4200" r="0.8500" /> 
<circle cx="198.1200" cy="97.5200" r="2.6250" /> 
<path style="fill:#000000; fill-opacity:1.0000; stroke:none;fill-rule:evenodd;"
d="M 53.9499,61.6584
53.9499,60.9584
54.6499,60.9584
54.6499,61.6584
Z" /> 
<path style="fill:#000000; fill-opacity:1.0000; stroke:none;fill-rule:evenodd;"
d="M 53.9499,62.7584
53.9499,62.0584
54.6499,62.0584
54.6499,62.7584
Z" /> 
<path style="fill:#000000; fill-opacity:1.0000; stroke:none;fill-rule:evenodd;"
d="M 55.7799,62.7584
55.7799,62.0584
56.4799,62.0584
56.4799,62.7584
Z" /> 
<path style="fill:#000000; fill-opacity:1.0000; stroke:none;fill-rule:evenodd;"
d="M 55.7799,61.6584
55.7799,60.9584
56.4799,60.9584
56.4799,61.6584
Z" /> 
<path style="fill:#000000; fill-opacity:1.0000; stroke:none;fill-rule:evenodd;"
d="M 74.2740,61.6584
74.2740,60.9584
74.9740,60.9584
74.9740,61.6584
Z" /> 
<path style="fill:#000000; fill-opacity:1.0000; stroke:none;fill-rule:evenodd;"
d="M 74.2740,62.7584
74.2740,62.0584
74.9740,62.0584
74.9740,62.7584
Z" /> 
<path style="fill:#000000; fill-opacity:1.0000; stroke:none;fill-rule:evenodd;"
d="M 76.1040,62.7584
76.1040,62.0584
76.8040,62.0584
76.8040,62.7584
Z" /> 
<path style="fill:#000000; fill-opacity:1.0000; stroke:none;fill-rule:evenodd;"
d="M 76.1040,61.6584
76.1040,60.9584
76.8040,60.9584
76.8040,61.6584
Z" /> 
<path style="fill:#000000; fill-opacity:1.0000; stroke:none;fill-rule:evenodd;"
d="M 158.0291,133.1784
158.0291,133.8784
157.3291,133.8784
157.3291,133.1784
Z" /> 
<path style="fill:#000000; fill-opacity:1.0000; stroke:none;fill-rule:evenodd;"
d="M 158.0291,132.0784
158.0291,132.7784
157.3291,132.7784
157.3291,132.0784
Z" /> 
<path style="fill:#000000; fill-opacity:1.0000; stroke:none;fill-rule:evenodd;"
d="M 156.1991,132.0784
156.1991,132.7784
155.4991,132.7784
155.4991,132.0784
Z" /> 
<path style="fill:#000000; fill-opacity:1.0000; stroke:none;fill-rule:evenodd;"
d="M 156.1991,133.1784
156.1991,133.8784
155.4991,133.8784
155.4991,133.1784
Z" /> 
</g>
<g style="fill:#000000; fill-opacity:1.0000; stroke:none;">
<circle cx="96.5200" cy="97.5200" r="2.6250" /> 
<path style="fill:#000000; fill-opacity:1.0000; stroke:none;fill-rule:evenodd;"
d="M 74.2191,112.4584
74.2191,111.7584
74.9191,111.7584
74.9191,112.4584
Z" /> 
<path style="fill:#000000; fill-opacity:1.0000; stroke:none;fill-rule:evenodd;"
d="M 74.2191,113.5584
74.2191,112.8584
74.9191,112.8584
74.9191,113.5584
Z" /> 
<path style="fill:#000000; fill-opacity:1.0000; stroke:none;fill-rule:evenodd;"
d="M 76.0491,113.5584
76.0491,112.8584
76.7491,112.8584
76.7491,113.5584
Z" /> 
<path style="fill:#000000; fill-opacity:1.0000; stroke:none;fill-rule:evenodd;"
d="M 76.0491,112.4584
76.0491,111.7584
76.7491,111.7584
76.7491,112.4584
Z" /> 
</g>
<g style="fill:#000000; fill-opacity:1.0000; stroke:none;">
<circle cx="198.1200" cy="117.8400" r="2.6250" /> 
</g>
<g style="fill:#000000; fill-opacity:1.0000; stroke:none;">
<circle cx="42.3200" cy="81.5200" r="1.6000" /> 
<path style="fill:#000000; fill-opacity:1.0000; stroke:none;fill-rule:evenodd;"
d="M 137.7091,133.1784
137.7091,133.8784
137.0091,133.8784
137.0091,133.1784
Z" /> 
<path style="fill:#000000; fill-opacity:1.0000; stroke:none;fill-rule:evenodd;"
d="M 137.7091,132.0784
137.7091,132.7784
137.0091,132.7784
137.0091,132.0784
Z" /> 
<path style="fill:#000000; fill-opacity:1.0000; stroke:none;fill-rule:evenodd;"
d="M 135.8791,132.0784
135.8791,132.7784
135.1791,132.7784
135.1791,132.0784
Z" /> 
<path style="fill:#000000; fill-opacity:1.0000; stroke:none;fill-rule:evenodd;"
d="M 135.8791,133.1784
135.8791,133.8784
135.1791,133.8784
135.1791,133.1784
Z" /> 
</g>
<g style="fill:#000000; fill-opacity:1.0000; stroke:none;">
<circle cx="76.2000" cy="117.8400" r="2.6250" /> 
</g>
<g style="fill:#000000; fill-opacity:1.0000; stroke:none;">
<circle cx="137.1600" cy="97.5200" r="2.6250" /> 
<path style="fill:#000000; fill-opacity:1.0000; stroke:none;fill-rule:evenodd;"
d="M 135.1791,112.4584
135.1791,111.7584
135.8791,111.7584
135.8791,112.4584
Z" /> 
<path style="fill:#000000; fill-opacity:1.0000; stroke:none;fill-rule:evenodd;"
d="M 135.1791,113.5584
135.1791,112.8584
135.8791,112.8584
135.8791,113.5584
Z" /> 
<path style="fill:#000000; fill-opacity:1.0000; stroke:none;fill-rule:evenodd;"
d="M 137.0091,113.5584
137.0091,112.8584
137.7091,112.8584
137.7091,113.5584
Z" /> 
<path style="fill:#000000; fill-opacity:1.0000; stroke:none;fill-rule:evenodd;"
d="M 137.0091,112.4584
137.0091,111.7584
137.7091,111.7584
137.7091,112.4584
Z" /> 
<path style="fill:#000000; fill-opacity:1.0000; stroke:none;fill-rule:evenodd;"
d="M 238.9600,108.9550
239.6600,108.9550
239.6600,109.6550
238.9600,109.6550
Z" /> 
<path style="fill:#000000; fill-opacity:1.0000; stroke:none;fill-rule:evenodd;"
d="M 237.8600,108.9550
238.5600,108.9550
238.5600,109.6550
237.8600,109.6550
Z" /> 
<path style="fill:#000000; fill-opacity:1.0000; stroke:none;fill-rule:evenodd;"
d="M 237.8600,110.7850
238.5600,110.7850
238.5600,111.4850
237.8600,111.4850
Z" /> 
<path style="fill:#000000; fill-opacity:1.0000; stroke:none;fill-rule:evenodd;"
d="M 238.9600,110.7850
239.6600,110.7850
239.6600,111.4850
238.9600,111.4850
Z" /> 
<path style="fill:#000000; fill-opacity:1.0000; stroke:none;fill-rule:evenodd;"
d="M 178.3491,133.1784
178.3491,133.8784
177.6491,133.8784
177.6491,133.1784
Z" /> 
<path style="fill:#000000; fill-opacity:1.0000; stroke:none;fill-rule:evenodd;"
d="M 178.3491,132.0784
178.3491,132.7784
177.6491,132.7784
177.6491,132.0784
Z" /> 
<path style="fill:#000000; fill-opacity:1.0000; stroke:none;fill-rule:evenodd;"
d="M 176.5191,132.0784
176.5191,132.7784
175.8191,132.7784
175.8191,132.0784
Z" /> 
<path style="fill:#000000; fill-opacity:1.0000; stroke:none;fill-rule:evenodd;"
d="M 176.5191,133.1784
176.5191,133.8784
175.8191,133.8784
175.8191,133.1784
Z" /> 
</g>
<g style="fill:#000000; fill-opacity:1.0000; stroke:none;">
<circle cx="218.4400" cy="138.1600" r="2.6250" /> 
<path style="fill:#000000; fill-opacity:1.0000; stroke:none;fill-rule:evenodd;"
d="M 238.9600,103.8750
239.6600,103.8750
239.6600,104.5750
238.9600,104.5750
Z" /> 
<path style="fill:#000000; fill-opacity:1.0000; stroke:none;fill-rule:evenodd;"
d="M 237.8600,103.8750
238.5600,103.8750
238.5600,104.5750
237.8600,104.5750
Z" /> 
<path style="fill:#000000; fill-opacity:1.0000; stroke:none;fill-rule:evenodd;"
d="M 237.8600,105.7050
238.5600,105.7050
238.5600,106.4050
237.8600,106.4050
Z" /> 
<path style="fill:#000000; fill-opacity:1.0000; stroke:none;fill-rule:evenodd;"
d="M 238.9600,105.7050
239.6600,105.7050
239.6600,106.4050
238.9600,106.4050
Z" /> 
</g>
<g style="fill:#000000; fill-opacity:1.0000; stroke:none;">
<circle cx="116.8400" cy="138.1600" r="2.6250" /> 
<path style="fill:#000000; fill-opacity:1.0000; stroke:none;fill-rule:evenodd;"
d="M 238.9600,129.2750
239.6600,129.2750
239.6600,129.9750
238.9600,129.9750
Z" /> 
<path style="fill:#000000; fill-opacity:1.0000; stroke:none;fill-rule:evenodd;"
d="M 237.8600,129.2750
238.5600,129.2750
238.5600,129.9750
237.8600,129.9750
Z" /> 
<path style="fill:#000000; fill-opacity:1.0000; stroke:none;fill-rule:evenodd;"
d="M 237.8600,131.1050
238.5600,131.1050
238.5600,131.8050
237.8600,131.8050
Z" /> 
<path style="fill:#000000; fill-opacity:1.0000; stroke:none;fill-rule:evenodd;"
d="M 238.9600,131.1050
239.6600,131.1050
239.6600,131.8050
238.9600,131.8050
Z" /> 
<path style="fill:#000000; fill-opacity:1.0000; stroke:none;fill-rule:evenodd;"
d="M 162.7260,56.0300
164.4260,56.0300
164.4260,57.7300
162.7260,57.7300
Z" /> 
</g>
<g style="fill:#000000; fill-opacity:1.0000; stroke:none;">
<circle cx="166.1160" cy="56.8800" r="0.8500" /> 
<circle cx="168.6560" cy="56.8800" r="0.8500" /> 
<circle cx="144.4301" cy="53.1049" r="0.3500" /> 
</g>
<g style="fill:#000000; fill-opacity:1.0000; stroke:none;">
<circle cx="150.2101" cy="53.1049" r="0.3500" /> 
</g>
<g style="fill:none; 
stroke:#000000; stroke-width:1.2000; stroke-opacity:1; 
stroke-linecap:round; stroke-linejoin:round;">
<path d="M142.9950 49.1250
L142.9950 49.7250
" />
</g>
<g style="fill:none; 
stroke:#000000; stroke-width:1.1000; stroke-opacity:1; 
stroke-linecap:round; stroke-linejoin:round;">
<path d="M142.9950 53.1751
L142.9950 54.0751
" />
</g>
<g style="fill:none; 
stroke:#000000; stroke-width:1.2000; stroke-opacity:1; 
stroke-linecap:round; stroke-linejoin:round;">
<path d="M151.6450 49.1250
L151.6450 49.7250
" />
</g>
<g style="fill:none; 
stroke:#000000; stroke-width:1.1000; stroke-opacity:1; 
stroke-linecap:round; stroke-linejoin:round;">
<path d="M151.6450 53.1751
L151.6450 54.0751
" />
<path style="fill:#000000; fill-opacity:1.0000; stroke:none;fill-rule:evenodd;"
d="M 191.2992,87.6512
189.5992,87.6512
189.5992,85.9512
191.2992,85.9512
Z" /> 
</g>
<g style="fill:#000000; fill-opacity:1.0000; stroke:none;">
<circle cx="190.4492" cy="89.3412" r="0.8500" /> 
<circle cx="187.9092" cy="86.8012" r="0.8500" /> 
<circle cx="187.9092" cy="89.3412" r="0.8500" /> 
<circle cx="185.3692" cy="86.8012" r="0.8500" /> 
<circle cx="185.3692" cy="89.3412" r="0.8500" /> 
<circle cx="182.8292" cy="86.8012" r="0.8500" /> 
<circle cx="182.8292" cy="89.3412" r="0.8500" /> 
<circle cx="180.2892" cy="86.8012" r="0.8500" /> 
<circle cx="180.2892" cy="89.3412" r="0.8500" /> 
<circle cx="177.7492" cy="86.8012" r="0.8500" /> 
<circle cx="177.7492" cy="89.3412" r="0.8500" /> 
<circle cx="175.2092" cy="86.8012" r="0.8500" /> 
<circle cx="175.2092" cy="89.3412" r="0.8500" /> 
<circle cx="172.6692" cy="86.8012" r="0.8500" /> 
<circle cx="172.6692" cy="89.3412" r="0.8500" /> 
<circle cx="170.1292" cy="86.8012" r="0.8500" /> 
<circle cx="170.1292" cy="89.3412" r="0.8500" /> 
<circle cx="167.5892" cy="86.8012" r="0.8500" /> 
<circle cx="167.5892" cy="89.3412" r="0.8500" /> 
<circle cx="165.0492" cy="86.8012" r="0.8500" /> 
<circle cx="165.0492" cy="89.3412" r="0.8500" /> 
<circle cx="162.5092" cy="86.8012" r="0.8500" /> 
<circle cx="162.5092" cy="89.3412" r="0.8500" /> 
<circle cx="159.9692" cy="86.8012" r="0.8500" /> 
<circle cx="159.9692" cy="89.3412" r="0.8500" /> 
<circle cx="157.4292" cy="86.8012" r="0.8500" /> 
<circle cx="157.4292" cy="89.3412" r="0.8500" /> 
<circle cx="154.8892" cy="86.8012" r="0.8500" /> 
<circle cx="154.8892" cy="89.3412" r="0.8500" /> 
<circle cx="152.3492" cy="86.8012" r="0.8500" /> 
<circle cx="152.3492" cy="89.3412" r="0.8500" /> 
<circle cx="149.8092" cy="86.8012" r="0.8500" /> 
<circle cx="149.8092" cy="89.3412" r="0.8500" /> 
<circle cx="147.2692" cy="86.8012" r="0.8500" /> 
<circle cx="147.2692" cy="89.3412" r="0.8500" /> 
<circle cx="144.7292" cy="86.8012" r="0.8500" /> 
<circle cx="144.7292" cy="89.3412" r="0.8500" /> 
<circle cx="142.1892" cy="86.8012" r="0.8500" /> 
<circle cx="142.1892" cy="89.3412" r="0.8500" /> 
</g> 
</svg>
