<?xml version="1.0" standalone="no"?>
 <!DOCTYPE svg PUBLIC "-//W3C//DTD SVG 1.1//EN" 
 "http://www.w3.org/Graphics/SVG/1.1/DTD/svg11.dtd"> 
<svg
  xmlns:svg="http://www.w3.org/2000/svg"
  xmlns="http://www.w3.org/2000/svg"
  xmlns:xlink="http://www.w3.org/1999/xlink"
  version="1.1"
  width="297.0022mm" height="210.0072mm" viewBox="0.0000 0.0000 297.0022 210.0072">
<title>SVG Image created as vm1-controller-F_Paste.svg date 2025/07/18 07:27:12 </title>
  <desc>Image generated by PCBNEW </desc>
<g style="fill:#000000; fill-opacity:1.0000;stroke:#000000; stroke-opacity:1.0000;
stroke-linecap:round; stroke-linejoin:round;"
 transform="translate(0 0) scale(1 1)">
<path style="fill:#000000; fill-opacity:1.0000; stroke:none;fill-rule:evenodd;"
d="M 238.9600,114.0350
239.6600,114.0350
239.6600,114.7350
238.9600,114.7350
Z" /> 
<path style="fill:#000000; fill-opacity:1.0000; stroke:none;fill-rule:evenodd;"
d="M 237.8600,114.0350
238.5600,114.0350
238.5600,114.7350
237.8600,114.7350
Z" /> 
<path style="fill:#000000; fill-opacity:1.0000; stroke:none;fill-rule:evenodd;"
d="M 237.8600,115.8650
238.5600,115.8650
238.5600,116.5650
237.8600,116.5650
Z" /> 
<path style="fill:#000000; fill-opacity:1.0000; stroke:none;fill-rule:evenodd;"
d="M 238.9600,115.8650
239.6600,115.8650
239.6600,116.5650
238.9600,116.5650
Z" /> 
<path style="fill:#000000; fill-opacity:1.0000; stroke:none;fill-rule:evenodd;"
d="M 117.3891,133.1784
117.3891,133.8784
116.6891,133.8784
116.6891,133.1784
Z" /> 
<path style="fill:#000000; fill-opacity:1.0000; stroke:none;fill-rule:evenodd;"
d="M 117.3891,132.0784
117.3891,132.7784
116.6891,132.7784
116.6891,132.0784
Z" /> 
<path style="fill:#000000; fill-opacity:1.0000; stroke:none;fill-rule:evenodd;"
d="M 115.5591,132.0784
115.5591,132.7784
114.8591,132.7784
114.8591,132.0784
Z" /> 
<path style="fill:#000000; fill-opacity:1.0000; stroke:none;fill-rule:evenodd;"
d="M 115.5591,133.1784
115.5591,133.8784
114.8591,133.8784
114.8591,133.1784
Z" /> 
<path style="fill:#000000; fill-opacity:1.0000; stroke:none;fill-rule:evenodd;"
d="M 97.0691,92.5384
97.0691,93.2384
96.3691,93.2384
96.3691,92.5384
Z" /> 
<path style="fill:#000000; fill-opacity:1.0000; stroke:none;fill-rule:evenodd;"
d="M 97.0691,91.4384
97.0691,92.1384
96.3691,92.1384
96.3691,91.4384
Z" /> 
<path style="fill:#000000; fill-opacity:1.0000; stroke:none;fill-rule:evenodd;"
d="M 95.2391,91.4384
95.2391,92.1384
94.5391,92.1384
94.5391,91.4384
Z" /> 
<path style="fill:#000000; fill-opacity:1.0000; stroke:none;fill-rule:evenodd;"
d="M 95.2391,92.5384
95.2391,93.2384
94.5391,93.2384
94.5391,92.5384
Z" /> 
<path style="fill:#000000; fill-opacity:1.0000; stroke:none;fill-rule:evenodd;"
d="M 114.8591,112.4584
114.8591,111.7584
115.5591,111.7584
115.5591,112.4584
Z" /> 
<path style="fill:#000000; fill-opacity:1.0000; stroke:none;fill-rule:evenodd;"
d="M 114.8591,113.5584
114.8591,112.8584
115.5591,112.8584
115.5591,113.5584
Z" /> 
<path style="fill:#000000; fill-opacity:1.0000; stroke:none;fill-rule:evenodd;"
d="M 116.6891,113.5584
116.6891,112.8584
117.3891,112.8584
117.3891,113.5584
Z" /> 
<path style="fill:#000000; fill-opacity:1.0000; stroke:none;fill-rule:evenodd;"
d="M 116.6891,112.4584
116.6891,111.7584
117.3891,111.7584
117.3891,112.4584
Z" /> 
<path style="fill:#000000; fill-opacity:1.0000; stroke:none;fill-rule:evenodd;"
d="M 158.0291,92.5384
158.0291,93.2384
157.3291,93.2384
157.3291,92.5384
Z" /> 
<path style="fill:#000000; fill-opacity:1.0000; stroke:none;fill-rule:evenodd;"
d="M 158.0291,91.4384
158.0291,92.1384
157.3291,92.1384
157.3291,91.4384
Z" /> 
<path style="fill:#000000; fill-opacity:1.0000; stroke:none;fill-rule:evenodd;"
d="M 156.1991,91.4384
156.1991,92.1384
155.4991,92.1384
155.4991,91.4384
Z" /> 
<path style="fill:#000000; fill-opacity:1.0000; stroke:none;fill-rule:evenodd;"
d="M 156.1991,92.5384
156.1991,93.2384
155.4991,93.2384
155.4991,92.5384
Z" /> 
<path style="fill:#000000; fill-opacity:1.0000; stroke:none;fill-rule:evenodd;"
d="M 94.5391,112.4584
94.5391,111.7584
95.2391,111.7584
95.2391,112.4584
Z" /> 
<path style="fill:#000000; fill-opacity:1.0000; stroke:none;fill-rule:evenodd;"
d="M 94.5391,113.5584
94.5391,112.8584
95.2391,112.8584
95.2391,113.5584
Z" /> 
<path style="fill:#000000; fill-opacity:1.0000; stroke:none;fill-rule:evenodd;"
d="M 96.3691,113.5584
96.3691,112.8584
97.0691,112.8584
97.0691,113.5584
Z" /> 
<path style="fill:#000000; fill-opacity:1.0000; stroke:none;fill-rule:evenodd;"
d="M 96.3691,112.4584
96.3691,111.7584
97.0691,111.7584
97.0691,112.4584
Z" /> 
<path style="fill:#000000; fill-opacity:1.0000; stroke:none;fill-rule:evenodd;"
d="M 76.7491,92.5384
76.7491,93.2384
76.0491,93.2384
76.0491,92.5384
Z" /> 
<path style="fill:#000000; fill-opacity:1.0000; stroke:none;fill-rule:evenodd;"
d="M 76.7491,91.4384
76.7491,92.1384
76.0491,92.1384
76.0491,91.4384
Z" /> 
<path style="fill:#000000; fill-opacity:1.0000; stroke:none;fill-rule:evenodd;"
d="M 74.9191,91.4384
74.9191,92.1384
74.2191,92.1384
74.2191,91.4384
Z" /> 
<path style="fill:#000000; fill-opacity:1.0000; stroke:none;fill-rule:evenodd;"
d="M 74.9191,92.5384
74.9191,93.2384
74.2191,93.2384
74.2191,92.5384
Z" /> 
<path style="fill:#000000; fill-opacity:1.0000; stroke:none;fill-rule:evenodd;"
d="M 218.9891,92.5384
218.9891,93.2384
218.2891,93.2384
218.2891,92.5384
Z" /> 
<path style="fill:#000000; fill-opacity:1.0000; stroke:none;fill-rule:evenodd;"
d="M 218.9891,91.4384
218.9891,92.1384
218.2891,92.1384
218.2891,91.4384
Z" /> 
<path style="fill:#000000; fill-opacity:1.0000; stroke:none;fill-rule:evenodd;"
d="M 217.1591,91.4384
217.1591,92.1384
216.4591,92.1384
216.4591,91.4384
Z" /> 
<path style="fill:#000000; fill-opacity:1.0000; stroke:none;fill-rule:evenodd;"
d="M 217.1591,92.5384
217.1591,93.2384
216.4591,93.2384
216.4591,92.5384
Z" /> 
<path style="fill:#000000; fill-opacity:1.0000; stroke:none;fill-rule:evenodd;"
d="M 198.6691,92.5384
198.6691,93.2384
197.9691,93.2384
197.9691,92.5384
Z" /> 
<path style="fill:#000000; fill-opacity:1.0000; stroke:none;fill-rule:evenodd;"
d="M 198.6691,91.4384
198.6691,92.1384
197.9691,92.1384
197.9691,91.4384
Z" /> 
<path style="fill:#000000; fill-opacity:1.0000; stroke:none;fill-rule:evenodd;"
d="M 196.8391,91.4384
196.8391,92.1384
196.1391,92.1384
196.1391,91.4384
Z" /> 
<path style="fill:#000000; fill-opacity:1.0000; stroke:none;fill-rule:evenodd;"
d="M 196.8391,92.5384
196.8391,93.2384
196.1391,93.2384
196.1391,92.5384
Z" /> 
<path style="fill:#000000; fill-opacity:1.0000; stroke:none;fill-rule:evenodd;"
d="M 178.3491,92.5384
178.3491,93.2384
177.6491,93.2384
177.6491,92.5384
Z" /> 
<path style="fill:#000000; fill-opacity:1.0000; stroke:none;fill-rule:evenodd;"
d="M 178.3491,91.4384
178.3491,92.1384
177.6491,92.1384
177.6491,91.4384
Z" /> 
<path style="fill:#000000; fill-opacity:1.0000; stroke:none;fill-rule:evenodd;"
d="M 176.5191,91.4384
176.5191,92.1384
175.8191,92.1384
175.8191,91.4384
Z" /> 
<path style="fill:#000000; fill-opacity:1.0000; stroke:none;fill-rule:evenodd;"
d="M 176.5191,92.5384
176.5191,93.2384
175.8191,93.2384
175.8191,92.5384
Z" /> 
<path style="fill:#000000; fill-opacity:1.0000; stroke:none;fill-rule:evenodd;"
d="M 175.8445,112.4584
175.8445,111.7584
176.5445,111.7584
176.5445,112.4584
Z" /> 
<path style="fill:#000000; fill-opacity:1.0000; stroke:none;fill-rule:evenodd;"
d="M 175.8445,113.5584
175.8445,112.8584
176.5445,112.8584
176.5445,113.5584
Z" /> 
<path style="fill:#000000; fill-opacity:1.0000; stroke:none;fill-rule:evenodd;"
d="M 177.6745,113.5584
177.6745,112.8584
178.3745,112.8584
178.3745,113.5584
Z" /> 
<path style="fill:#000000; fill-opacity:1.0000; stroke:none;fill-rule:evenodd;"
d="M 177.6745,112.4584
177.6745,111.7584
178.3745,111.7584
178.3745,112.4584
Z" /> 
<path style="fill:#000000; fill-opacity:1.0000; stroke:none;fill-rule:evenodd;"
d="M 238.9600,119.1150
239.6600,119.1150
239.6600,119.8150
238.9600,119.8150
Z" /> 
<path style="fill:#000000; fill-opacity:1.0000; stroke:none;fill-rule:evenodd;"
d="M 237.8600,119.1150
238.5600,119.1150
238.5600,119.8150
237.8600,119.8150
Z" /> 
<path style="fill:#000000; fill-opacity:1.0000; stroke:none;fill-rule:evenodd;"
d="M 237.8600,120.9450
238.5600,120.9450
238.5600,121.6450
237.8600,121.6450
Z" /> 
<path style="fill:#000000; fill-opacity:1.0000; stroke:none;fill-rule:evenodd;"
d="M 238.9600,120.9450
239.6600,120.9450
239.6600,121.6450
238.9600,121.6450
Z" /> 
<path style="fill:#000000; fill-opacity:1.0000; stroke:none;fill-rule:evenodd;"
d="M 196.1391,112.4584
196.1391,111.7584
196.8391,111.7584
196.8391,112.4584
Z" /> 
<path style="fill:#000000; fill-opacity:1.0000; stroke:none;fill-rule:evenodd;"
d="M 196.1391,113.5584
196.1391,112.8584
196.8391,112.8584
196.8391,113.5584
Z" /> 
<path style="fill:#000000; fill-opacity:1.0000; stroke:none;fill-rule:evenodd;"
d="M 197.9691,113.5584
197.9691,112.8584
198.6691,112.8584
198.6691,113.5584
Z" /> 
<path style="fill:#000000; fill-opacity:1.0000; stroke:none;fill-rule:evenodd;"
d="M 197.9691,112.4584
197.9691,111.7584
198.6691,111.7584
198.6691,112.4584
Z" /> 
<path style="fill:#000000; fill-opacity:1.0000; stroke:none;fill-rule:evenodd;"
d="M 117.3891,92.5384
117.3891,93.2384
116.6891,93.2384
116.6891,92.5384
Z" /> 
<path style="fill:#000000; fill-opacity:1.0000; stroke:none;fill-rule:evenodd;"
d="M 117.3891,91.4384
117.3891,92.1384
116.6891,92.1384
116.6891,91.4384
Z" /> 
<path style="fill:#000000; fill-opacity:1.0000; stroke:none;fill-rule:evenodd;"
d="M 115.5591,91.4384
115.5591,92.1384
114.8591,92.1384
114.8591,91.4384
Z" /> 
<path style="fill:#000000; fill-opacity:1.0000; stroke:none;fill-rule:evenodd;"
d="M 115.5591,92.5384
115.5591,93.2384
114.8591,93.2384
114.8591,92.5384
Z" /> 
<path style="fill:#000000; fill-opacity:1.0000; stroke:none;fill-rule:evenodd;"
d="M 198.6691,133.1784
198.6691,133.8784
197.9691,133.8784
197.9691,133.1784
Z" /> 
<path style="fill:#000000; fill-opacity:1.0000; stroke:none;fill-rule:evenodd;"
d="M 198.6691,132.0784
198.6691,132.7784
197.9691,132.7784
197.9691,132.0784
Z" /> 
<path style="fill:#000000; fill-opacity:1.0000; stroke:none;fill-rule:evenodd;"
d="M 196.8391,132.0784
196.8391,132.7784
196.1391,132.7784
196.1391,132.0784
Z" /> 
<path style="fill:#000000; fill-opacity:1.0000; stroke:none;fill-rule:evenodd;"
d="M 196.8391,133.1784
196.8391,133.8784
196.1391,133.8784
196.1391,133.1784
Z" /> 
<path style="fill:#000000; fill-opacity:1.0000; stroke:none;fill-rule:evenodd;"
d="M 76.7491,133.1784
76.7491,133.8784
76.0491,133.8784
76.0491,133.1784
Z" /> 
<path style="fill:#000000; fill-opacity:1.0000; stroke:none;fill-rule:evenodd;"
d="M 76.7491,132.0784
76.7491,132.7784
76.0491,132.7784
76.0491,132.0784
Z" /> 
<path style="fill:#000000; fill-opacity:1.0000; stroke:none;fill-rule:evenodd;"
d="M 74.9191,132.0784
74.9191,132.7784
74.2191,132.7784
74.2191,132.0784
Z" /> 
<path style="fill:#000000; fill-opacity:1.0000; stroke:none;fill-rule:evenodd;"
d="M 74.9191,133.1784
74.9191,133.8784
74.2191,133.8784
74.2191,133.1784
Z" /> 
<path style="fill:#000000; fill-opacity:1.0000; stroke:none;fill-rule:evenodd;"
d="M 218.9891,133.1784
218.9891,133.8784
218.2891,133.8784
218.2891,133.1784
Z" /> 
<path style="fill:#000000; fill-opacity:1.0000; stroke:none;fill-rule:evenodd;"
d="M 218.9891,132.0784
218.9891,132.7784
218.2891,132.7784
218.2891,132.0784
Z" /> 
<path style="fill:#000000; fill-opacity:1.0000; stroke:none;fill-rule:evenodd;"
d="M 217.1591,132.0784
217.1591,132.7784
216.4591,132.7784
216.4591,132.0784
Z" /> 
<path style="fill:#000000; fill-opacity:1.0000; stroke:none;fill-rule:evenodd;"
d="M 217.1591,133.1784
217.1591,133.8784
216.4591,133.8784
216.4591,133.1784
Z" /> 
<path style="fill:#000000; fill-opacity:1.0000; stroke:none;fill-rule:evenodd;"
d="M 155.4991,112.4584
155.4991,111.7584
156.1991,111.7584
156.1991,112.4584
Z" /> 
<path style="fill:#000000; fill-opacity:1.0000; stroke:none;fill-rule:evenodd;"
d="M 155.4991,113.5584
155.4991,112.8584
156.1991,112.8584
156.1991,113.5584
Z" /> 
<path style="fill:#000000; fill-opacity:1.0000; stroke:none;fill-rule:evenodd;"
d="M 157.3291,113.5584
157.3291,112.8584
158.0291,112.8584
158.0291,113.5584
Z" /> 
<path style="fill:#000000; fill-opacity:1.0000; stroke:none;fill-rule:evenodd;"
d="M 157.3291,112.4584
157.3291,111.7584
158.0291,111.7584
158.0291,112.4584
Z" /> 
<path style="fill:#000000; fill-opacity:1.0000; stroke:none;fill-rule:evenodd;"
d="M 97.0691,133.1784
97.0691,133.8784
96.3691,133.8784
96.3691,133.1784
Z" /> 
<path style="fill:#000000; fill-opacity:1.0000; stroke:none;fill-rule:evenodd;"
d="M 97.0691,132.0784
97.0691,132.7784
96.3691,132.7784
96.3691,132.0784
Z" /> 
<path style="fill:#000000; fill-opacity:1.0000; stroke:none;fill-rule:evenodd;"
d="M 95.2391,132.0784
95.2391,132.7784
94.5391,132.7784
94.5391,132.0784
Z" /> 
<path style="fill:#000000; fill-opacity:1.0000; stroke:none;fill-rule:evenodd;"
d="M 95.2391,133.1784
95.2391,133.8784
94.5391,133.8784
94.5391,133.1784
Z" /> 
<path style="fill:#000000; fill-opacity:1.0000; stroke:none;fill-rule:evenodd;"
d="M 216.4591,112.4584
216.4591,111.7584
217.1591,111.7584
217.1591,112.4584
Z" /> 
<path style="fill:#000000; fill-opacity:1.0000; stroke:none;fill-rule:evenodd;"
d="M 216.4591,113.5584
216.4591,112.8584
217.1591,112.8584
217.1591,113.5584
Z" /> 
<path style="fill:#000000; fill-opacity:1.0000; stroke:none;fill-rule:evenodd;"
d="M 218.2891,113.5584
218.2891,112.8584
218.9891,112.8584
218.9891,113.5584
Z" /> 
<path style="fill:#000000; fill-opacity:1.0000; stroke:none;fill-rule:evenodd;"
d="M 218.2891,112.4584
218.2891,111.7584
218.9891,111.7584
218.9891,112.4584
Z" /> 
<path style="fill:#000000; fill-opacity:1.0000; stroke:none;fill-rule:evenodd;"
d="M 238.9600,124.1950
239.6600,124.1950
239.6600,124.8950
238.9600,124.8950
Z" /> 
<path style="fill:#000000; fill-opacity:1.0000; stroke:none;fill-rule:evenodd;"
d="M 237.8600,124.1950
238.5600,124.1950
238.5600,124.8950
237.8600,124.8950
Z" /> 
<path style="fill:#000000; fill-opacity:1.0000; stroke:none;fill-rule:evenodd;"
d="M 237.8600,126.0250
238.5600,126.0250
238.5600,126.7250
237.8600,126.7250
Z" /> 
<path style="fill:#000000; fill-opacity:1.0000; stroke:none;fill-rule:evenodd;"
d="M 238.9600,126.0250
239.6600,126.0250
239.6600,126.7250
238.9600,126.7250
Z" /> 
<path style="fill:#000000; fill-opacity:1.0000; stroke:none;fill-rule:evenodd;"
d="M 56.4291,123.0184
56.4291,123.7184
55.7291,123.7184
55.7291,123.0184
Z" /> 
<path style="fill:#000000; fill-opacity:1.0000; stroke:none;fill-rule:evenodd;"
d="M 56.4291,121.9184
56.4291,122.6184
55.7291,122.6184
55.7291,121.9184
Z" /> 
<path style="fill:#000000; fill-opacity:1.0000; stroke:none;fill-rule:evenodd;"
d="M 54.5991,121.9184
54.5991,122.6184
53.8991,122.6184
53.8991,121.9184
Z" /> 
<path style="fill:#000000; fill-opacity:1.0000; stroke:none;fill-rule:evenodd;"
d="M 54.5991,123.0184
54.5991,123.7184
53.8991,123.7184
53.8991,123.0184
Z" /> 
<path style="fill:#000000; fill-opacity:1.0000; stroke:none;fill-rule:evenodd;"
d="M 137.7091,92.5384
137.7091,93.2384
137.0091,93.2384
137.0091,92.5384
Z" /> 
<path style="fill:#000000; fill-opacity:1.0000; stroke:none;fill-rule:evenodd;"
d="M 137.7091,91.4384
137.7091,92.1384
137.0091,92.1384
137.0091,91.4384
Z" /> 
<path style="fill:#000000; fill-opacity:1.0000; stroke:none;fill-rule:evenodd;"
d="M 135.8791,91.4384
135.8791,92.1384
135.1791,92.1384
135.1791,91.4384
Z" /> 
<path style="fill:#000000; fill-opacity:1.0000; stroke:none;fill-rule:evenodd;"
d="M 135.8791,92.5384
135.8791,93.2384
135.1791,93.2384
135.1791,92.5384
Z" /> 
<path style="fill:#000000; fill-opacity:1.0000; stroke:none;fill-rule:evenodd;"
d="M 53.9499,61.6584
53.9499,60.9584
54.6499,60.9584
54.6499,61.6584
Z" /> 
<path style="fill:#000000; fill-opacity:1.0000; stroke:none;fill-rule:evenodd;"
d="M 53.9499,62.7584
53.9499,62.0584
54.6499,62.0584
54.6499,62.7584
Z" /> 
<path style="fill:#000000; fill-opacity:1.0000; stroke:none;fill-rule:evenodd;"
d="M 55.7799,62.7584
55.7799,62.0584
56.4799,62.0584
56.4799,62.7584
Z" /> 
<path style="fill:#000000; fill-opacity:1.0000; stroke:none;fill-rule:evenodd;"
d="M 55.7799,61.6584
55.7799,60.9584
56.4799,60.9584
56.4799,61.6584
Z" /> 
<path style="fill:#000000; fill-opacity:1.0000; stroke:none;fill-rule:evenodd;"
d="M 74.2740,61.6584
74.2740,60.9584
74.9740,60.9584
74.9740,61.6584
Z" /> 
<path style="fill:#000000; fill-opacity:1.0000; stroke:none;fill-rule:evenodd;"
d="M 74.2740,62.7584
74.2740,62.0584
74.9740,62.0584
74.9740,62.7584
Z" /> 
<path style="fill:#000000; fill-opacity:1.0000; stroke:none;fill-rule:evenodd;"
d="M 76.1040,62.7584
76.1040,62.0584
76.8040,62.0584
76.8040,62.7584
Z" /> 
<path style="fill:#000000; fill-opacity:1.0000; stroke:none;fill-rule:evenodd;"
d="M 76.1040,61.6584
76.1040,60.9584
76.8040,60.9584
76.8040,61.6584
Z" /> 
<path style="fill:#000000; fill-opacity:1.0000; stroke:none;fill-rule:evenodd;"
d="M 158.0291,133.1784
158.0291,133.8784
157.3291,133.8784
157.3291,133.1784
Z" /> 
<path style="fill:#000000; fill-opacity:1.0000; stroke:none;fill-rule:evenodd;"
d="M 158.0291,132.0784
158.0291,132.7784
157.3291,132.7784
157.3291,132.0784
Z" /> 
<path style="fill:#000000; fill-opacity:1.0000; stroke:none;fill-rule:evenodd;"
d="M 156.1991,132.0784
156.1991,132.7784
155.4991,132.7784
155.4991,132.0784
Z" /> 
<path style="fill:#000000; fill-opacity:1.0000; stroke:none;fill-rule:evenodd;"
d="M 156.1991,133.1784
156.1991,133.8784
155.4991,133.8784
155.4991,133.1784
Z" /> 
<path style="fill:#000000; fill-opacity:1.0000; stroke:none;fill-rule:evenodd;"
d="M 74.2191,112.4584
74.2191,111.7584
74.9191,111.7584
74.9191,112.4584
Z" /> 
<path style="fill:#000000; fill-opacity:1.0000; stroke:none;fill-rule:evenodd;"
d="M 74.2191,113.5584
74.2191,112.8584
74.9191,112.8584
74.9191,113.5584
Z" /> 
<path style="fill:#000000; fill-opacity:1.0000; stroke:none;fill-rule:evenodd;"
d="M 76.0491,113.5584
76.0491,112.8584
76.7491,112.8584
76.7491,113.5584
Z" /> 
<path style="fill:#000000; fill-opacity:1.0000; stroke:none;fill-rule:evenodd;"
d="M 76.0491,112.4584
76.0491,111.7584
76.7491,111.7584
76.7491,112.4584
Z" /> 
<path style="fill:#000000; fill-opacity:1.0000; stroke:none;fill-rule:evenodd;"
d="M 137.7091,133.1784
137.7091,133.8784
137.0091,133.8784
137.0091,133.1784
Z" /> 
<path style="fill:#000000; fill-opacity:1.0000; stroke:none;fill-rule:evenodd;"
d="M 137.7091,132.0784
137.7091,132.7784
137.0091,132.7784
137.0091,132.0784
Z" /> 
<path style="fill:#000000; fill-opacity:1.0000; stroke:none;fill-rule:evenodd;"
d="M 135.8791,132.0784
135.8791,132.7784
135.1791,132.7784
135.1791,132.0784
Z" /> 
<path style="fill:#000000; fill-opacity:1.0000; stroke:none;fill-rule:evenodd;"
d="M 135.8791,133.1784
135.8791,133.8784
135.1791,133.8784
135.1791,133.1784
Z" /> 
<path style="fill:#000000; fill-opacity:1.0000; stroke:none;fill-rule:evenodd;"
d="M 135.1791,112.4584
135.1791,111.7584
135.8791,111.7584
135.8791,112.4584
Z" /> 
<path style="fill:#000000; fill-opacity:1.0000; stroke:none;fill-rule:evenodd;"
d="M 135.1791,113.5584
135.1791,112.8584
135.8791,112.8584
135.8791,113.5584
Z" /> 
<path style="fill:#000000; fill-opacity:1.0000; stroke:none;fill-rule:evenodd;"
d="M 137.0091,113.5584
137.0091,112.8584
137.7091,112.8584
137.7091,113.5584
Z" /> 
<path style="fill:#000000; fill-opacity:1.0000; stroke:none;fill-rule:evenodd;"
d="M 137.0091,112.4584
137.0091,111.7584
137.7091,111.7584
137.7091,112.4584
Z" /> 
<path style="fill:#000000; fill-opacity:1.0000; stroke:none;fill-rule:evenodd;"
d="M 238.9600,108.9550
239.6600,108.9550
239.6600,109.6550
238.9600,109.6550
Z" /> 
<path style="fill:#000000; fill-opacity:1.0000; stroke:none;fill-rule:evenodd;"
d="M 237.8600,108.9550
238.5600,108.9550
238.5600,109.6550
237.8600,109.6550
Z" /> 
<path style="fill:#000000; fill-opacity:1.0000; stroke:none;fill-rule:evenodd;"
d="M 237.8600,110.7850
238.5600,110.7850
238.5600,111.4850
237.8600,111.4850
Z" /> 
<path style="fill:#000000; fill-opacity:1.0000; stroke:none;fill-rule:evenodd;"
d="M 238.9600,110.7850
239.6600,110.7850
239.6600,111.4850
238.9600,111.4850
Z" /> 
<path style="fill:#000000; fill-opacity:1.0000; stroke:none;fill-rule:evenodd;"
d="M 178.3491,133.1784
178.3491,133.8784
177.6491,133.8784
177.6491,133.1784
Z" /> 
<path style="fill:#000000; fill-opacity:1.0000; stroke:none;fill-rule:evenodd;"
d="M 178.3491,132.0784
178.3491,132.7784
177.6491,132.7784
177.6491,132.0784
Z" /> 
<path style="fill:#000000; fill-opacity:1.0000; stroke:none;fill-rule:evenodd;"
d="M 176.5191,132.0784
176.5191,132.7784
175.8191,132.7784
175.8191,132.0784
Z" /> 
<path style="fill:#000000; fill-opacity:1.0000; stroke:none;fill-rule:evenodd;"
d="M 176.5191,133.1784
176.5191,133.8784
175.8191,133.8784
175.8191,133.1784
Z" /> 
<path style="fill:#000000; fill-opacity:1.0000; stroke:none;fill-rule:evenodd;"
d="M 238.9600,103.8750
239.6600,103.8750
239.6600,104.5750
238.9600,104.5750
Z" /> 
<path style="fill:#000000; fill-opacity:1.0000; stroke:none;fill-rule:evenodd;"
d="M 237.8600,103.8750
238.5600,103.8750
238.5600,104.5750
237.8600,104.5750
Z" /> 
<path style="fill:#000000; fill-opacity:1.0000; stroke:none;fill-rule:evenodd;"
d="M 237.8600,105.7050
238.5600,105.7050
238.5600,106.4050
237.8600,106.4050
Z" /> 
<path style="fill:#000000; fill-opacity:1.0000; stroke:none;fill-rule:evenodd;"
d="M 238.9600,105.7050
239.6600,105.7050
239.6600,106.4050
238.9600,106.4050
Z" /> 
<path style="fill:#000000; fill-opacity:1.0000; stroke:none;fill-rule:evenodd;"
d="M 238.9600,129.2750
239.6600,129.2750
239.6600,129.9750
238.9600,129.9750
Z" /> 
<path style="fill:#000000; fill-opacity:1.0000; stroke:none;fill-rule:evenodd;"
d="M 237.8600,129.2750
238.5600,129.2750
238.5600,129.9750
237.8600,129.9750
Z" /> 
<path style="fill:#000000; fill-opacity:1.0000; stroke:none;fill-rule:evenodd;"
d="M 237.8600,131.1050
238.5600,131.1050
238.5600,131.8050
237.8600,131.8050
Z" /> 
<path style="fill:#000000; fill-opacity:1.0000; stroke:none;fill-rule:evenodd;"
d="M 238.9600,131.1050
239.6600,131.1050
239.6600,131.8050
238.9600,131.8050
Z" /> 
</g> 
</svg>
