<?xml version="1.0" standalone="no"?>
 <!DOCTYPE svg PUBLIC "-//W3C//DTD SVG 1.1//EN" 
 "http://www.w3.org/Graphics/SVG/1.1/DTD/svg11.dtd"> 
<svg
  xmlns:svg="http://www.w3.org/2000/svg"
  xmlns="http://www.w3.org/2000/svg"
  xmlns:xlink="http://www.w3.org/1999/xlink"
  version="1.1"
  width="297.0022mm" height="210.0072mm" viewBox="0.0000 0.0000 297.0022 210.0072">
<title>SVG Image created as vm1-controller-B_Silkscreen.svg date 2025/07/18 07:27:12 </title>
  <desc>Image generated by PCBNEW </desc>
<g style="fill:#000000; fill-opacity:1.0000;stroke:#000000; stroke-opacity:1.0000;
stroke-linecap:round; stroke-linejoin:round;"
 transform="translate(0 0) scale(1 1)">
</g>
<g style="fill:none; 
stroke:#000000; stroke-width:0.1875; stroke-opacity:1; 
stroke-linecap:round; stroke-linejoin:round;">
<g transform="rotate(-270.000000 119.5443 53.8200)">
<text x="119.5443" y="53.8200"
transform="scale(-1 1) translate(-239.088600 0)"
textLength="2.5744" font-size="1.6667" lengthAdjust="spacingAndGlyphs"
text-anchor="start" opacity="0" stroke-opacity="0">A3</text>
</g>
<g class="stroked-text"><desc>A3</desc>
<path d="M120.0642 53.4585
L120.0642 52.8633
" />
<path d="M119.7070 53.5776
L120.9570 53.1609
" />
<path d="M120.9570 53.1609
L119.7070 52.7443
" />
<path d="M120.9570 52.4466
L120.9570 51.6728
" />
<path d="M120.9570 51.6728
L120.4808 52.0895
" />
<path d="M120.4808 52.0895
L120.4808 51.9109
" />
<path d="M120.4808 51.9109
L120.4213 51.7919
" />
<path d="M120.4213 51.7919
L120.3618 51.7324
" />
<path d="M120.3618 51.7324
L120.2427 51.6728
" />
<path d="M120.2427 51.6728
L119.9451 51.6728
" />
<path d="M119.9451 51.6728
L119.8261 51.7324
" />
<path d="M119.8261 51.7324
L119.7665 51.7919
" />
<path d="M119.7665 51.7919
L119.7070 51.9109
" />
<path d="M119.7070 51.9109
L119.7070 52.2681
" />
<path d="M119.7070 52.2681
L119.7665 52.3871
" />
<path d="M119.7665 52.3871
L119.8261 52.4466
" />
</g><g transform="rotate(-270.000000 117.5319 53.8200)">
<text x="117.5319" y="53.8200"
transform="scale(-1 1) translate(-235.063740 0)"
textLength="0.5625" font-size="1.6667" lengthAdjust="spacingAndGlyphs"
text-anchor="start" opacity="0" stroke-opacity="0"></text>
</g>
<g class="stroked-text"><desc></desc>
</g><g transform="rotate(-270.000000 115.5194 53.8200)">
<text x="115.5194" y="53.8200"
transform="scale(-1 1) translate(-231.038880 0)"
textLength="2.5744" font-size="1.6667" lengthAdjust="spacingAndGlyphs"
text-anchor="start" opacity="0" stroke-opacity="0">A2</text>
</g>
<g class="stroked-text"><desc>A2</desc>
<path d="M116.0393 53.4585
L116.0393 52.8633
" />
<path d="M115.6822 53.5776
L116.9322 53.1609
" />
<path d="M116.9322 53.1609
L115.6822 52.7443
" />
<path d="M116.8131 52.3871
L116.8726 52.3276
" />
<path d="M116.8726 52.3276
L116.9322 52.2085
" />
<path d="M116.9322 52.2085
L116.9322 51.9109
" />
<path d="M116.9322 51.9109
L116.8726 51.7919
" />
<path d="M116.8726 51.7919
L116.8131 51.7324
" />
<path d="M116.8131 51.7324
L116.6941 51.6728
" />
<path d="M116.6941 51.6728
L116.5750 51.6728
" />
<path d="M116.5750 51.6728
L116.3965 51.7324
" />
<path d="M116.3965 51.7324
L115.6822 52.4466
" />
<path d="M115.6822 52.4466
L115.6822 51.6728
" />
</g><g transform="rotate(-270.000000 113.5070 53.8200)">
<text x="113.5070" y="53.8200"
transform="scale(-1 1) translate(-227.014020 0)"
textLength="0.5625" font-size="1.6667" lengthAdjust="spacingAndGlyphs"
text-anchor="start" opacity="0" stroke-opacity="0"></text>
</g>
<g class="stroked-text"><desc></desc>
</g><g transform="rotate(-270.000000 111.4946 53.8200)">
<text x="111.4946" y="53.8200"
transform="scale(-1 1) translate(-222.989160 0)"
textLength="2.5744" font-size="1.6667" lengthAdjust="spacingAndGlyphs"
text-anchor="start" opacity="0" stroke-opacity="0">A1</text>
</g>
<g class="stroked-text"><desc>A1</desc>
<path d="M112.0144 53.4585
L112.0144 52.8633
" />
<path d="M111.6573 53.5776
L112.9073 53.1609
" />
<path d="M112.9073 53.1609
L111.6573 52.7443
" />
<path d="M111.6573 51.6728
L111.6573 52.3871
" />
<path d="M111.6573 52.0300
L112.9073 52.0300
" />
<path d="M112.9073 52.0300
L112.7287 52.1490
" />
<path d="M112.7287 52.1490
L112.6097 52.2681
" />
<path d="M112.6097 52.2681
L112.5502 52.3871
" />
</g><g transform="rotate(-270.000000 109.4821 53.8200)">
<text x="109.4821" y="53.8200"
transform="scale(-1 1) translate(-218.964300 0)"
textLength="0.5625" font-size="1.6667" lengthAdjust="spacingAndGlyphs"
text-anchor="start" opacity="0" stroke-opacity="0"></text>
</g>
<g class="stroked-text"><desc></desc>
</g><g transform="rotate(-270.000000 107.4697 53.8200)">
<text x="107.4697" y="53.8200"
transform="scale(-1 1) translate(-214.939440 0)"
textLength="2.5744" font-size="1.6667" lengthAdjust="spacingAndGlyphs"
text-anchor="start" opacity="0" stroke-opacity="0">A0</text>
</g>
<g class="stroked-text"><desc>A0</desc>
<path d="M107.9896 53.4585
L107.9896 52.8633
" />
<path d="M107.6324 53.5776
L108.8824 53.1609
" />
<path d="M108.8824 53.1609
L107.6324 52.7443
" />
<path d="M108.8824 52.0895
L108.8824 51.9705
" />
<path d="M108.8824 51.9705
L108.8229 51.8514
" />
<path d="M108.8229 51.8514
L108.7634 51.7919
" />
<path d="M108.7634 51.7919
L108.6443 51.7324
" />
<path d="M108.6443 51.7324
L108.4063 51.6728
" />
<path d="M108.4063 51.6728
L108.1086 51.6728
" />
<path d="M108.1086 51.6728
L107.8705 51.7324
" />
<path d="M107.8705 51.7324
L107.7515 51.7919
" />
<path d="M107.7515 51.7919
L107.6920 51.8514
" />
<path d="M107.6920 51.8514
L107.6324 51.9705
" />
<path d="M107.6324 51.9705
L107.6324 52.0895
" />
<path d="M107.6324 52.0895
L107.6920 52.2085
" />
<path d="M107.6920 52.2085
L107.7515 52.2681
" />
<path d="M107.7515 52.2681
L107.8705 52.3276
" />
<path d="M107.8705 52.3276
L108.1086 52.3871
" />
<path d="M108.1086 52.3871
L108.4063 52.3871
" />
<path d="M108.4063 52.3871
L108.6443 52.3276
" />
<path d="M108.6443 52.3276
L108.7634 52.2681
" />
<path d="M108.7634 52.2681
L108.8229 52.2085
" />
<path d="M108.8229 52.2085
L108.8824 52.0895
" />
</g><g transform="rotate(-270.000000 105.4573 53.8200)">
<text x="105.4573" y="53.8200"
transform="scale(-1 1) translate(-210.914580 0)"
textLength="0.5625" font-size="1.6667" lengthAdjust="spacingAndGlyphs"
text-anchor="start" opacity="0" stroke-opacity="0"></text>
</g>
<g class="stroked-text"><desc></desc>
</g><g transform="rotate(-270.000000 103.4449 53.8200)">
<text x="103.4449" y="53.8200"
transform="scale(-1 1) translate(-206.889720 0)"
textLength="4.1220" font-size="1.6667" lengthAdjust="spacingAndGlyphs"
text-anchor="start" opacity="0" stroke-opacity="0">GND</text>
</g>
<g class="stroked-text"><desc>GND</desc>
<path d="M104.7981 52.7443
L104.8576 52.8633
" />
<path d="M104.8576 52.8633
L104.8576 53.0419
" />
<path d="M104.8576 53.0419
L104.7981 53.2205
" />
<path d="M104.7981 53.2205
L104.6790 53.3395
" />
<path d="M104.6790 53.3395
L104.5600 53.3990
" />
<path d="M104.5600 53.3990
L104.3219 53.4585
" />
<path d="M104.3219 53.4585
L104.1433 53.4585
" />
<path d="M104.1433 53.4585
L103.9052 53.3990
" />
<path d="M103.9052 53.3990
L103.7862 53.3395
" />
<path d="M103.7862 53.3395
L103.6671 53.2205
" />
<path d="M103.6671 53.2205
L103.6076 53.0419
" />
<path d="M103.6076 53.0419
L103.6076 52.9228
" />
<path d="M103.6076 52.9228
L103.6671 52.7443
" />
<path d="M103.6671 52.7443
L103.7266 52.6847
" />
<path d="M103.7266 52.6847
L104.1433 52.6847
" />
<path d="M104.1433 52.6847
L104.1433 52.9228
" />
<path d="M103.6076 52.1490
L104.8576 52.1490
" />
<path d="M104.8576 52.1490
L103.6076 51.4347
" />
<path d="M103.6076 51.4347
L104.8576 51.4347
" />
<path d="M103.6076 50.8395
L104.8576 50.8395
" />
<path d="M104.8576 50.8395
L104.8576 50.5419
" />
<path d="M104.8576 50.5419
L104.7981 50.3633
" />
<path d="M104.7981 50.3633
L104.6790 50.2443
" />
<path d="M104.6790 50.2443
L104.5600 50.1847
" />
<path d="M104.5600 50.1847
L104.3219 50.1252
" />
<path d="M104.3219 50.1252
L104.1433 50.1252
" />
<path d="M104.1433 50.1252
L103.9052 50.1847
" />
<path d="M103.9052 50.1847
L103.7862 50.2443
" />
<path d="M103.7862 50.2443
L103.6671 50.3633
" />
<path d="M103.6671 50.3633
L103.6076 50.5419
" />
<path d="M103.6076 50.5419
L103.6076 50.8395
" />
</g><g transform="rotate(-270.000000 101.4324 53.8200)">
<text x="101.4324" y="53.8200"
transform="scale(-1 1) translate(-202.864860 0)"
textLength="0.5625" font-size="1.6667" lengthAdjust="spacingAndGlyphs"
text-anchor="start" opacity="0" stroke-opacity="0"></text>
</g>
<g class="stroked-text"><desc></desc>
</g><g transform="rotate(-270.000000 99.4200 53.8200)">
<text x="99.4200" y="53.8200"
transform="scale(-1 1) translate(-198.840000 0)"
textLength="3.7649" font-size="1.6667" lengthAdjust="spacingAndGlyphs"
text-anchor="start" opacity="0" stroke-opacity="0">3V3</text>
</g>
<g class="stroked-text"><desc>3V3</desc>
<path d="M100.8327 53.5181
L100.8327 52.7443
" />
<path d="M100.8327 52.7443
L100.3565 53.1609
" />
<path d="M100.3565 53.1609
L100.3565 52.9824
" />
<path d="M100.3565 52.9824
L100.2970 52.8633
" />
<path d="M100.2970 52.8633
L100.2375 52.8038
" />
<path d="M100.2375 52.8038
L100.1184 52.7443
" />
<path d="M100.1184 52.7443
L99.8208 52.7443
" />
<path d="M99.8208 52.7443
L99.7018 52.8038
" />
<path d="M99.7018 52.8038
L99.6422 52.8633
" />
<path d="M99.6422 52.8633
L99.5827 52.9824
" />
<path d="M99.5827 52.9824
L99.5827 53.3395
" />
<path d="M99.5827 53.3395
L99.6422 53.4585
" />
<path d="M99.6422 53.4585
L99.7018 53.5181
" />
<path d="M100.8327 52.3871
L99.5827 51.9705
" />
<path d="M99.5827 51.9705
L100.8327 51.5538
" />
<path d="M100.8327 51.2562
L100.8327 50.4824
" />
<path d="M100.8327 50.4824
L100.3565 50.8990
" />
<path d="M100.3565 50.8990
L100.3565 50.7205
" />
<path d="M100.3565 50.7205
L100.2970 50.6014
" />
<path d="M100.2970 50.6014
L100.2375 50.5419
" />
<path d="M100.2375 50.5419
L100.1184 50.4824
" />
<path d="M100.1184 50.4824
L99.8208 50.4824
" />
<path d="M99.8208 50.4824
L99.7018 50.5419
" />
<path d="M99.7018 50.5419
L99.6422 50.6014
" />
<path d="M99.6422 50.6014
L99.5827 50.7205
" />
<path d="M99.5827 50.7205
L99.5827 51.0776
" />
<path d="M99.5827 51.0776
L99.6422 51.1966
" />
<path d="M99.6422 51.1966
L99.7018 51.2562
" />
</g></g>
<g style="fill:none; 
stroke:#000000; stroke-width:0.1500; stroke-opacity:1; 
stroke-linecap:round; stroke-linejoin:round;">
<text x="136.6520" y="50.9110"
transform="scale(-1 1) translate(-273.304000 0)"
textLength="5.9412" font-size="1.6933" lengthAdjust="spacingAndGlyphs"
text-anchor="middle" opacity="0" stroke-opacity="0">RESET</text>
<g class="stroked-text"><desc>RESET</desc>
<path d="M138.4965 50.8557
L138.9199 50.2510
" />
<path d="M139.2222 50.8557
L139.2222 49.5857
" />
<path d="M139.2222 49.5857
L138.7384 49.5857
" />
<path d="M138.7384 49.5857
L138.6175 49.6462
" />
<path d="M138.6175 49.6462
L138.5570 49.7067
" />
<path d="M138.5570 49.7067
L138.4965 49.8276
" />
<path d="M138.4965 49.8276
L138.4965 50.0091
" />
<path d="M138.4965 50.0091
L138.5570 50.1300
" />
<path d="M138.5570 50.1300
L138.6175 50.1905
" />
<path d="M138.6175 50.1905
L138.7384 50.2510
" />
<path d="M138.7384 50.2510
L139.2222 50.2510
" />
<path d="M137.9522 50.1905
L137.5289 50.1905
" />
<path d="M137.3475 50.8557
L137.9522 50.8557
" />
<path d="M137.9522 50.8557
L137.9522 49.5857
" />
<path d="M137.9522 49.5857
L137.3475 49.5857
" />
<path d="M136.8637 50.7952
L136.6822 50.8557
" />
<path d="M136.6822 50.8557
L136.3799 50.8557
" />
<path d="M136.3799 50.8557
L136.2589 50.7952
" />
<path d="M136.2589 50.7952
L136.1984 50.7348
" />
<path d="M136.1984 50.7348
L136.1380 50.6138
" />
<path d="M136.1380 50.6138
L136.1380 50.4929
" />
<path d="M136.1380 50.4929
L136.1984 50.3719
" />
<path d="M136.1984 50.3719
L136.2589 50.3114
" />
<path d="M136.2589 50.3114
L136.3799 50.2510
" />
<path d="M136.3799 50.2510
L136.6218 50.1905
" />
<path d="M136.6218 50.1905
L136.7427 50.1300
" />
<path d="M136.7427 50.1300
L136.8032 50.0695
" />
<path d="M136.8032 50.0695
L136.8637 49.9486
" />
<path d="M136.8637 49.9486
L136.8637 49.8276
" />
<path d="M136.8637 49.8276
L136.8032 49.7067
" />
<path d="M136.8032 49.7067
L136.7427 49.6462
" />
<path d="M136.7427 49.6462
L136.6218 49.5857
" />
<path d="M136.6218 49.5857
L136.3194 49.5857
" />
<path d="M136.3194 49.5857
L136.1380 49.6462
" />
<path d="M135.5937 50.1905
L135.1703 50.1905
" />
<path d="M134.9889 50.8557
L135.5937 50.8557
" />
<path d="M135.5937 50.8557
L135.5937 49.5857
" />
<path d="M135.5937 49.5857
L134.9889 49.5857
" />
<path d="M134.6260 49.5857
L133.9003 49.5857
" />
<path d="M134.2632 50.8557
L134.2632 49.5857
" />
</g><text x="157.9880" y="51.0380"
transform="scale(-1 1) translate(-315.976000 0)"
textLength="8.4812" font-size="1.6933" lengthAdjust="spacingAndGlyphs"
text-anchor="middle" opacity="0" stroke-opacity="0">BOOTSEL</text>
<g class="stroked-text"><desc>BOOTSEL</desc>
<path d="M161.4049 50.3175
L161.2235 50.3780
" />
<path d="M161.2235 50.3780
L161.1630 50.4384
" />
<path d="M161.1630 50.4384
L161.1025 50.5594
" />
<path d="M161.1025 50.5594
L161.1025 50.7408
" />
<path d="M161.1025 50.7408
L161.1630 50.8618
" />
<path d="M161.1630 50.8618
L161.2235 50.9222
" />
<path d="M161.2235 50.9222
L161.3444 50.9827
" />
<path d="M161.3444 50.9827
L161.8282 50.9827
" />
<path d="M161.8282 50.9827
L161.8282 49.7127
" />
<path d="M161.8282 49.7127
L161.4049 49.7127
" />
<path d="M161.4049 49.7127
L161.2840 49.7732
" />
<path d="M161.2840 49.7732
L161.2235 49.8337
" />
<path d="M161.2235 49.8337
L161.1630 49.9546
" />
<path d="M161.1630 49.9546
L161.1630 50.0756
" />
<path d="M161.1630 50.0756
L161.2235 50.1965
" />
<path d="M161.2235 50.1965
L161.2840 50.2570
" />
<path d="M161.2840 50.2570
L161.4049 50.3175
" />
<path d="M161.4049 50.3175
L161.8282 50.3175
" />
<path d="M160.3163 49.7127
L160.0744 49.7127
" />
<path d="M160.0744 49.7127
L159.9535 49.7732
" />
<path d="M159.9535 49.7732
L159.8325 49.8942
" />
<path d="M159.8325 49.8942
L159.7720 50.1361
" />
<path d="M159.7720 50.1361
L159.7720 50.5594
" />
<path d="M159.7720 50.5594
L159.8325 50.8013
" />
<path d="M159.8325 50.8013
L159.9535 50.9222
" />
<path d="M159.9535 50.9222
L160.0744 50.9827
" />
<path d="M160.0744 50.9827
L160.3163 50.9827
" />
<path d="M160.3163 50.9827
L160.4373 50.9222
" />
<path d="M160.4373 50.9222
L160.5582 50.8013
" />
<path d="M160.5582 50.8013
L160.6187 50.5594
" />
<path d="M160.6187 50.5594
L160.6187 50.1361
" />
<path d="M160.6187 50.1361
L160.5582 49.8942
" />
<path d="M160.5582 49.8942
L160.4373 49.7732
" />
<path d="M160.4373 49.7732
L160.3163 49.7127
" />
<path d="M158.9859 49.7127
L158.7440 49.7127
" />
<path d="M158.7440 49.7127
L158.6230 49.7732
" />
<path d="M158.6230 49.7732
L158.5020 49.8942
" />
<path d="M158.5020 49.8942
L158.4416 50.1361
" />
<path d="M158.4416 50.1361
L158.4416 50.5594
" />
<path d="M158.4416 50.5594
L158.5020 50.8013
" />
<path d="M158.5020 50.8013
L158.6230 50.9222
" />
<path d="M158.6230 50.9222
L158.7440 50.9827
" />
<path d="M158.7440 50.9827
L158.9859 50.9827
" />
<path d="M158.9859 50.9827
L159.1068 50.9222
" />
<path d="M159.1068 50.9222
L159.2278 50.8013
" />
<path d="M159.2278 50.8013
L159.2882 50.5594
" />
<path d="M159.2882 50.5594
L159.2882 50.1361
" />
<path d="M159.2882 50.1361
L159.2278 49.8942
" />
<path d="M159.2278 49.8942
L159.1068 49.7732
" />
<path d="M159.1068 49.7732
L158.9859 49.7127
" />
<path d="M158.0787 49.7127
L157.3530 49.7127
" />
<path d="M157.7159 50.9827
L157.7159 49.7127
" />
<path d="M156.9901 50.9222
L156.8087 50.9827
" />
<path d="M156.8087 50.9827
L156.5063 50.9827
" />
<path d="M156.5063 50.9827
L156.3854 50.9222
" />
<path d="M156.3854 50.9222
L156.3249 50.8618
" />
<path d="M156.3249 50.8618
L156.2644 50.7408
" />
<path d="M156.2644 50.7408
L156.2644 50.6199
" />
<path d="M156.2644 50.6199
L156.3249 50.4989
" />
<path d="M156.3249 50.4989
L156.3854 50.4384
" />
<path d="M156.3854 50.4384
L156.5063 50.3780
" />
<path d="M156.5063 50.3780
L156.7482 50.3175
" />
<path d="M156.7482 50.3175
L156.8692 50.2570
" />
<path d="M156.8692 50.2570
L156.9297 50.1965
" />
<path d="M156.9297 50.1965
L156.9901 50.0756
" />
<path d="M156.9901 50.0756
L156.9901 49.9546
" />
<path d="M156.9901 49.9546
L156.9297 49.8337
" />
<path d="M156.9297 49.8337
L156.8692 49.7732
" />
<path d="M156.8692 49.7732
L156.7482 49.7127
" />
<path d="M156.7482 49.7127
L156.4459 49.7127
" />
<path d="M156.4459 49.7127
L156.2644 49.7732
" />
<path d="M155.7201 50.3175
L155.2968 50.3175
" />
<path d="M155.1154 50.9827
L155.7201 50.9827
" />
<path d="M155.7201 50.9827
L155.7201 49.7127
" />
<path d="M155.7201 49.7127
L155.1154 49.7127
" />
<path d="M153.9663 50.9827
L154.5711 50.9827
" />
<path d="M154.5711 50.9827
L154.5711 49.7127
" />
</g></g>
<g style="fill:none; 
stroke:#000000; stroke-width:0.1200; stroke-opacity:1; 
stroke-linecap:round; stroke-linejoin:round;">
<path d="M162.2460 55.5500
L162.2460 56.8800
" />
<path d="M163.5760 55.5500
L162.2460 55.5500
" />
<path d="M164.8460 55.5500
L164.8460 58.2100
" />
<path d="M164.8460 55.5500
L169.9860 55.5500
" />
<path d="M164.8460 58.2100
L169.9860 58.2100
" />
<path d="M169.9860 55.5500
L169.9860 58.2100
" />
<path d="M207.2800 119.9250
L207.2800 123.9350
" />
<path d="M207.2800 119.9250
L209.2800 119.9250
" />
<path d="M209.2800 119.9250
L209.2800 123.9350
" />
<path d="M119.1960 54.6386
L119.1960 57.0386
" />
<path d="M119.1960 57.0386
L121.5960 57.0386
" />
<path d="M121.5960 54.6386
L119.1960 54.6386
" />
<path d="M121.5960 57.0386
L121.5960 54.6386
" />
</g>
<g style="fill:none; 
stroke:#000000; stroke-width:0.1524; stroke-opacity:1; 
stroke-linecap:round; stroke-linejoin:round;">
<path d="M134.6258 52.0368
L134.6258 52.6948
" />
<path d="M134.6258 55.1192
L134.6258 54.4612
" />
<path d="M138.6782 52.0368
L134.6258 52.0368
" />
<path d="M138.6782 55.1192
L134.6258 55.1192
" />
</g>
<g style="fill:none; 
stroke:#000000; stroke-width:0.2540; stroke-opacity:1; 
stroke-linecap:round; stroke-linejoin:round;">
<circle cx="136.6520" cy="53.5780" r="0.9000" /> 
</g>
<g style="fill:none; 
stroke:#000000; stroke-width:0.0600; stroke-opacity:1; 
stroke-linecap:round; stroke-linejoin:round;">
<circle cx="139.1521" cy="55.0431" r="0.0600" /> 
</g>
<g style="fill:none; 
stroke:#000000; stroke-width:0.1200; stroke-opacity:1; 
stroke-linecap:round; stroke-linejoin:round;">
<path d="M163.1190 71.6912
L167.0290 71.6912
" />
<path d="M167.0290 71.6912
L167.0290 73.5612
" />
<path d="M167.0290 73.5612
L163.1190 73.5612
" />
</g>
<g style="fill:none; 
stroke:#000000; stroke-width:0.1524; stroke-opacity:1; 
stroke-linecap:round; stroke-linejoin:round;">
<path d="M151.9508 58.2798
L151.9508 63.5572
" />
<path d="M151.9508 63.5572
L156.3036 63.5572
" />
<path d="M156.3036 58.2798
L151.9508 58.2798
" />
<path d="M156.3036 63.5572
L156.3036 58.2798
" />
</g>
<g style="fill:none; 
stroke:#000000; stroke-width:0.3000; stroke-opacity:1; 
stroke-linecap:round; stroke-linejoin:round;">
<circle cx="155.5511" cy="59.0135" r="0.1501" /> 
<circle cx="157.6573" cy="58.2461" r="0.1501" /> 
</g>
<g style="fill:none; 
stroke:#000000; stroke-width:0.0600; stroke-opacity:1; 
stroke-linecap:round; stroke-linejoin:round;">
<circle cx="158.0472" cy="58.3334" r="0.0600" /> 
</g>
<g style="fill:none; 
stroke:#000000; stroke-width:0.1200; stroke-opacity:1; 
stroke-linecap:round; stroke-linejoin:round;">
<path d="M146.3200 119.9250
L146.3200 123.9350
" />
<path d="M146.3200 119.9250
L148.3200 119.9250
" />
<path d="M148.3200 119.9250
L148.3200 123.9350
" />
<path d="M146.3200 99.6050
L146.3200 103.6150
" />
<path d="M146.3200 99.6050
L148.3200 99.6050
" />
<path d="M148.3200 99.6050
L148.3200 103.6150
" />
<path d="M111.1442 54.6386
L111.1442 57.0386
" />
<path d="M111.1442 57.0386
L113.5442 57.0386
" />
<path d="M113.5442 54.6386
L111.1442 54.6386
" />
<path d="M113.5442 57.0386
L113.5442 54.6386
" />
<path d="M221.2907 77.1756
L220.9835 77.1756
" />
<path d="M221.2907 77.9356
L220.9835 77.9356
" />
<path d="M65.0400 130.0850
L65.0400 134.0950
" />
<path d="M65.0400 130.0850
L67.0400 130.0850
" />
<path d="M67.0400 130.0850
L67.0400 134.0950
" />
<path d="M216.2107 79.7156
L215.9035 79.7156
" />
<path d="M216.2107 80.4756
L215.9035 80.4756
" />
<path d="M146.2363 80.1928
L146.0206 80.1928
" />
<path d="M146.2363 80.9128
L146.0206 80.9128
" />
<path d="M126.0000 119.9250
L126.0000 123.9350
" />
<path d="M126.0000 119.9250
L128.0000 119.9250
" />
<path d="M128.0000 119.9250
L128.0000 123.9350
" />
<path d="M207.2800 140.2450
L207.2800 144.2550
" />
<path d="M207.2800 140.2450
L209.2800 140.2450
" />
<path d="M209.2800 140.2450
L209.2800 144.2550
" />
<path d="M98.9200 54.6200
L98.9200 57.0200
" />
<path d="M98.9200 57.0200
L101.3200 57.0200
" />
<path d="M101.3200 54.6200
L98.9200 54.6200
" />
<path d="M101.3200 57.0200
L101.3200 54.6200
" />
<path d="M241.5599 77.1756
L241.2527 77.1756
" />
<path d="M241.5599 77.9356
L241.2527 77.9356
" />
<path d="M237.4885 78.4656
L237.7041 78.4656
" />
<path d="M237.4885 79.1856
L237.7041 79.1856
" />
<path d="M220.9835 79.7156
L221.2907 79.7156
" />
<path d="M220.9835 80.4756
L221.2907 80.4756
" />
<path d="M144.9138 65.4090
L144.9138 65.7163
" />
<path d="M145.6738 65.4090
L145.6738 65.7163
" />
<path d="M208.9690 92.5934
L208.6618 92.5934
" />
<path d="M208.9690 93.3534
L208.6618 93.3534
" />
<path d="M213.2540 78.1082
L213.2540 78.3238
" />
<path d="M213.9740 78.1082
L213.9740 78.3238
" />
<path d="M166.6400 99.6050
L166.6400 103.6150
" />
<path d="M166.6400 99.6050
L168.6400 99.6050
" />
<path d="M168.6400 99.6050
L168.6400 103.6150
" />
<path d="M142.9018 65.6705
L142.9018 65.4548
" />
<path d="M143.6218 65.6705
L143.6218 65.4548
" />
<path d="M219.9749 78.4656
L219.7593 78.4656
" />
<path d="M219.9749 79.1856
L219.7593 79.1856
" />
<path d="M107.0040 54.6640
L107.0040 57.0640
" />
<path d="M107.0040 57.0640
L109.4040 57.0640
" />
<path d="M109.4040 54.6640
L107.0040 54.6640
" />
<path d="M109.4040 57.0640
L109.4040 54.6640
" />
<path d="M138.7844 75.2960
L139.0916 75.2960
" />
<path d="M138.7844 76.0560
L139.0916 76.0560
" />
<path d="M102.9200 54.6200
L102.9200 57.0200
" />
<path d="M102.9200 57.0200
L105.3200 57.0200
" />
<path d="M105.3200 54.6200
L102.9200 54.6200
" />
<path d="M105.3200 57.0200
L105.3200 54.6200
" />
<path d="M166.6400 140.2450
L166.6400 144.2550
" />
<path d="M166.6400 140.2450
L168.6400 140.2450
" />
<path d="M168.6400 140.2450
L168.6400 144.2550
" />
<path d="M140.7958 72.5170
L140.5802 72.5170
" />
<path d="M140.7958 73.2370
L140.5802 73.2370
" />
<path d="M211.6824 92.5934
L211.9896 92.5934
" />
<path d="M211.6824 93.3534
L211.9896 93.3534
" />
<path d="M236.4799 79.7156
L236.1727 79.7156
" />
<path d="M236.4799 80.4756
L236.1727 80.4756
" />
<path d="M153.1558 72.3950
L153.3714 72.3950
" />
<path d="M153.1558 73.1150
L153.3714 73.1150
" />
<path d="M144.6798 78.4976
L144.6798 78.2820
" />
<path d="M145.3998 78.4976
L145.3998 78.2820
" />
</g>
<g style="fill:none; 
stroke:#000000; stroke-width:0.1524; stroke-opacity:1; 
stroke-linecap:round; stroke-linejoin:round;">
<path d="M161.3928 65.5906
L161.3928 68.5334
" />
<path d="M161.3928 68.5334
L168.0452 68.5334
" />
<path d="M168.0452 65.5906
L161.3928 65.5906
" />
<path d="M168.0452 68.5334
L168.0452 65.5906
" />
</g>
<g style="fill:none; 
stroke:#000000; stroke-width:0.0600; stroke-opacity:1; 
stroke-linecap:round; stroke-linejoin:round;">
<circle cx="161.4691" cy="63.5618" r="0.0600" /> 
</g>
<g style="fill:none; 
stroke:#000000; stroke-width:0.2540; stroke-opacity:1; 
stroke-linecap:round; stroke-linejoin:round;">
<path d="M142.8201 46.8250
L142.8201 48.4439
" />
<path d="M142.8201 50.4062
L142.8201 52.3939
" />
<path d="M151.8201 46.8250
L142.8201 46.8250
" />
<path d="M151.8921 46.9740
L151.8921 48.4470
" />
<path d="M151.8921 50.4030
L151.8921 52.3970
" />
</g>
<g style="fill:none; 
stroke:#000000; stroke-width:0.0600; stroke-opacity:1; 
stroke-linecap:round; stroke-linejoin:round;">
<circle cx="142.8700" cy="54.4491" r="0.0600" /> 
</g>
<g style="fill:none; 
stroke:#000000; stroke-width:0.1200; stroke-opacity:1; 
stroke-linecap:round; stroke-linejoin:round;">
<path d="M85.3600 140.2450
L85.3600 144.2550
" />
<path d="M85.3600 140.2450
L87.3600 140.2450
" />
<path d="M87.3600 140.2450
L87.3600 144.2550
" />
<path d="M186.9600 119.9250
L186.9600 123.9350
" />
<path d="M186.9600 119.9250
L188.9600 119.9250
" />
<path d="M188.9600 119.9250
L188.9600 123.9350
" />
<path d="M152.2922 56.7739
L152.5078 56.7739
" />
<path d="M152.2922 57.4939
L152.5078 57.4939
" />
<path d="M241.3315 79.7156
L241.6387 79.7156
" />
<path d="M241.3315 80.4756
L241.6387 80.4756
" />
<path d="M215.9035 77.1756
L216.2107 77.1756
" />
<path d="M215.9035 77.9356
L216.2107 77.9356
" />
</g>
<g style="fill:none; 
stroke:#000000; stroke-width:0.1524; stroke-opacity:1; 
stroke-linecap:round; stroke-linejoin:round;">
<path d="M145.2914 81.3633
L145.2914 84.7205
" />
<path d="M145.2914 84.7205
L149.3486 84.7205
" />
<path d="M149.3486 81.3633
L145.2914 81.3633
" />
<path d="M149.3486 84.7205
L149.3486 81.3633
" />
<path d="M149.5772 83.2919
L149.5772 84.9491
" />
<path d="M149.5772 84.9491
L147.7200 84.9491
" />
</g>
<g style="fill:none; 
stroke:#000000; stroke-width:0.0600; stroke-opacity:1; 
stroke-linecap:round; stroke-linejoin:round;">
<circle cx="148.9199" cy="84.2918" r="0.0600" /> 
</g>
<g style="fill:none; 
stroke:#000000; stroke-width:0.1200; stroke-opacity:1; 
stroke-linecap:round; stroke-linejoin:round;">
<path d="M141.5630 67.7467
L141.3474 67.7467
" />
<path d="M141.5630 68.4667
L141.3474 68.4667
" />
<path d="M163.1190 60.1850
L167.0290 60.1850
" />
<path d="M167.0290 60.1850
L167.0290 62.0550
" />
<path d="M167.0290 62.0550
L163.1190 62.0550
" />
<path d="M138.7824 74.2800
L139.0896 74.2800
" />
<path d="M138.7824 75.0400
L139.0896 75.0400
" />
<path d="M138.7824 76.3120
L139.0896 76.3120
" />
<path d="M138.7824 77.0720
L139.0896 77.0720
" />
<path d="M166.6400 119.9250
L166.6400 123.9350
" />
<path d="M166.6400 119.9250
L168.6400 119.9250
" />
<path d="M168.6400 119.9250
L168.6400 123.9350
" />
<path d="M140.8592 90.6712
L140.8592 85.4712
" />
<path d="M189.1792 85.4712
L140.8592 85.4712
" />
<path d="M189.1792 88.0712
L189.1792 85.4712
" />
<path d="M191.7792 85.4712
L190.4492 85.4712
" />
<path d="M191.7792 86.8012
L191.7792 85.4712
" />
<path d="M191.7792 88.0712
L189.1792 88.0712
" />
<path d="M191.7792 90.6712
L140.8592 90.6712
" />
<path d="M191.7792 90.6712
L191.7792 88.0712
" />
<path d="M65.0400 119.9250
L65.0400 123.9350
" />
<path d="M65.0400 119.9250
L67.0400 119.9250
" />
<path d="M67.0400 119.9250
L67.0400 123.9350
" />
<path d="M65.0400 69.1250
L65.0400 73.1350
" />
<path d="M65.0400 69.1250
L67.0400 69.1250
" />
<path d="M67.0400 69.1250
L67.0400 73.1350
" />
<path d="M210.9482 93.6856
L210.6410 93.6856
" />
<path d="M210.9482 94.4456
L210.6410 94.4456
" />
<path d="M146.7118 78.2820
L146.7118 78.4976
" />
<path d="M147.4318 78.2820
L147.4318 78.4976
" />
<path d="M207.2800 99.6050
L207.2800 103.6150
" />
<path d="M207.2800 99.6050
L209.2800 99.6050
" />
<path d="M209.2800 99.6050
L209.2800 103.6150
" />
<path d="M143.7100 68.0025
L143.7100 68.6525
" />
<path d="M143.7100 75.2225
L143.7100 74.5725
" />
<path d="M144.3600 68.0025
L143.7100 68.0025
" />
<path d="M144.3600 75.2225
L143.7100 75.2225
" />
<path d="M150.2800 68.0025
L150.9300 68.0025
" />
<path d="M150.2800 75.2225
L150.9300 75.2225
" />
<path d="M150.9300 75.2225
L150.9300 74.5725
" />
<path d="M65.0400 99.6050
L65.0400 103.6150
" />
<path d="M65.0400 99.6050
L67.0400 99.6050
" />
<path d="M67.0400 99.6050
L67.0400 103.6150
" />
<path d="M143.9178 65.6745
L143.9178 65.4588
" />
<path d="M144.6378 65.6745
L144.6378 65.4588
" />
<path d="M141.5630 66.7307
L141.3474 66.7307
" />
<path d="M141.5630 67.4507
L141.3474 67.4507
" />
<path d="M148.7180 56.5256
L148.7180 56.2184
" />
<path d="M149.4780 56.5256
L149.4780 56.2184
" />
<path d="M85.3600 99.6050
L85.3600 103.6150
" />
<path d="M85.3600 99.6050
L87.3600 99.6050
" />
<path d="M87.3600 99.6050
L87.3600 103.6150
" />
<path d="M145.9298 65.4110
L145.9298 65.7183
" />
<path d="M146.6898 65.4110
L146.6898 65.7183
" />
<path d="M133.7320 75.5756
L133.7320 75.2684
" />
<path d="M134.4920 75.5756
L134.4920 75.2684
" />
<path d="M105.6800 140.2450
L105.6800 144.2550
" />
<path d="M105.6800 140.2450
L107.6800 140.2450
" />
<path d="M107.6800 140.2450
L107.6800 144.2550
" />
<path d="M65.0400 140.2450
L65.0400 144.2550
" />
<path d="M65.0400 140.2450
L67.0400 140.2450
" />
<path d="M67.0400 140.2450
L67.0400 144.2550
" />
<path d="M126.0000 140.2450
L126.0000 144.2550
" />
<path d="M126.0000 140.2450
L128.0000 140.2450
" />
<path d="M128.0000 140.2450
L128.0000 144.2550
" />
<path d="M157.3032 56.4408
L157.3032 56.7481
" />
<path d="M158.0632 56.4408
L158.0632 56.7481
" />
<path d="M148.3346 80.1928
L148.5503 80.1928
" />
<path d="M148.3346 80.9128
L148.5503 80.9128
" />
<path d="M138.7804 77.3280
L139.0876 77.3280
" />
<path d="M138.7804 78.0880
L139.0876 78.0880
" />
<path d="M126.0000 99.6050
L126.0000 103.6150
" />
<path d="M126.0000 99.6050
L128.0000 99.6050
" />
<path d="M128.0000 99.6050
L128.0000 103.6150
" />
</g>
<g style="fill:none; 
stroke:#000000; stroke-width:0.1524; stroke-opacity:1; 
stroke-linecap:round; stroke-linejoin:round;">
<path d="M134.1728 73.1459
L134.1728 72.6181
" />
<path d="M135.5752 71.7808
L134.1728 71.7808
" />
<path d="M135.5752 73.9832
L134.1728 73.9832
" />
</g>
<g style="fill:none; 
stroke:#000000; stroke-width:0.3000; stroke-opacity:1; 
stroke-linecap:round; stroke-linejoin:round;">
<circle cx="135.8707" cy="71.6222" r="0.1501" /> 
</g>
<g style="fill:none; 
stroke:#000000; stroke-width:0.0600; stroke-opacity:1; 
stroke-linecap:round; stroke-linejoin:round;">
<circle cx="135.9365" cy="71.8570" r="0.0600" /> 
</g>
<g style="fill:none; 
stroke:#000000; stroke-width:0.1200; stroke-opacity:1; 
stroke-linecap:round; stroke-linejoin:round;">
<path d="M156.2872 56.7521
L156.2872 56.4448
" />
<path d="M157.0472 56.7521
L157.0472 56.4448
" />
<path d="M146.3200 140.2450
L146.3200 144.2550
" />
<path d="M146.3200 140.2450
L148.3200 140.2450
" />
<path d="M148.3200 140.2450
L148.3200 144.2550
" />
<path d="M145.6700 56.5256
L145.6700 56.2184
" />
<path d="M146.4300 56.5256
L146.4300 56.2184
" />
<path d="M217.2193 78.4656
L217.4349 78.4656
" />
<path d="M217.2193 79.1856
L217.4349 79.1856
" />
<path d="M186.9600 99.6050
L186.9600 103.6150
" />
<path d="M186.9600 99.6050
L188.9600 99.6050
" />
<path d="M188.9600 99.6050
L188.9600 103.6150
" />
<path d="M85.3600 119.9250
L85.3600 123.9350
" />
<path d="M85.3600 119.9250
L87.3600 119.9250
" />
<path d="M87.3600 119.9250
L87.3600 123.9350
" />
<path d="M105.6800 119.9250
L105.6800 123.9350
" />
<path d="M105.6800 119.9250
L107.6800 119.9250
" />
<path d="M107.6800 119.9250
L107.6800 123.9350
" />
</g>
<g style="fill:none; 
stroke:#000000; stroke-width:0.1524; stroke-opacity:1; 
stroke-linecap:round; stroke-linejoin:round;">
<path d="M155.9618 52.0368
L160.0142 52.0368
" />
<path d="M155.9618 55.1192
L160.0142 55.1192
" />
<path d="M160.0142 52.0368
L160.0142 52.6948
" />
<path d="M160.0142 55.1192
L160.0142 54.4612
" />
</g>
<g style="fill:none; 
stroke:#000000; stroke-width:0.0600; stroke-opacity:1; 
stroke-linecap:round; stroke-linejoin:round;">
<circle cx="155.4879" cy="52.1129" r="0.0600" /> 
</g>
<g style="fill:none; 
stroke:#000000; stroke-width:0.2540; stroke-opacity:1; 
stroke-linecap:round; stroke-linejoin:round;">
<circle cx="157.9880" cy="53.5780" r="0.9000" /> 
</g>
<g style="fill:none; 
stroke:#000000; stroke-width:0.1200; stroke-opacity:1; 
stroke-linecap:round; stroke-linejoin:round;">
<path d="M133.7520 70.4498
L133.7520 70.2342
" />
<path d="M134.4720 70.4498
L134.4720 70.2342
" />
<path d="M146.9829 64.7095
L146.9829 64.4939
" />
<path d="M147.7029 64.7095
L147.7029 64.4939
" />
<path d="M147.7078 78.2402
L147.7078 78.5474
" />
<path d="M148.4678 78.2402
L148.4678 78.5474
" />
<path d="M115.1320 54.6386
L115.1320 57.0386
" />
<path d="M115.1320 57.0386
L117.5320 57.0386
" />
<path d="M117.5320 54.6386
L115.1320 54.6386
" />
<path d="M117.5320 57.0386
L117.5320 54.6386
" />
<path d="M233.5740 78.1082
L233.5740 78.3238
" />
<path d="M234.2940 78.1082
L234.2940 78.3238
" />
<path d="M145.6958 78.2820
L145.6958 78.4976
" />
<path d="M146.4158 78.2820
L146.4158 78.4976
" />
<path d="M105.6800 99.6050
L105.6800 103.6150
" />
<path d="M105.6800 99.6050
L107.6800 99.6050
" />
<path d="M107.6800 99.6050
L107.6800 103.6150
" />
<path d="M153.1558 68.6611
L153.3714 68.6611
" />
<path d="M153.1558 69.3811
L153.3714 69.3811
" />
<path d="M186.9600 140.2450
L186.9600 144.2550
" />
<path d="M186.9600 140.2450
L188.9600 140.2450
" />
<path d="M188.9600 140.2450
L188.9600 144.2550
" />
<path d="M236.1727 77.1756
L236.4799 77.1756
" />
<path d="M236.1727 77.9356
L236.4799 77.9356
" />
<path d="M240.2441 78.4656
L240.0285 78.4656
" />
<path d="M240.2441 79.1856
L240.0285 79.1856
" />
<path d="M147.9760 64.7093
L147.9760 64.4936
" />
<path d="M148.6960 64.7093
L148.6960 64.4936
" />
<path d="M44.7200 69.1250
L44.7200 73.1350
" />
<path d="M44.7200 69.1250
L46.7200 69.1250
" />
<path d="M46.7200 69.1250
L46.7200 73.1350
" />
<path d="M138.5330 61.6600
L142.4430 61.6600
" />
<path d="M138.5330 63.5300
L138.5330 61.6600
" />
<path d="M142.4430 63.5300
L138.5330 63.5300
" />
</g> 
</svg>
