<?xml version="1.0" standalone="no"?>
 <!DOCTYPE svg PUBLIC "-//W3C//DTD SVG 1.1//EN" 
 "http://www.w3.org/Graphics/SVG/1.1/DTD/svg11.dtd"> 
<svg
  xmlns:svg="http://www.w3.org/2000/svg"
  xmlns="http://www.w3.org/2000/svg"
  xmlns:xlink="http://www.w3.org/1999/xlink"
  version="1.1"
  width="297.0022mm" height="210.0072mm" viewBox="0.0000 0.0000 297.0022 210.0072">
<title>SVG Image created as vm1-controller-B_Paste.svg date 2025/07/18 07:27:12 </title>
  <desc>Image generated by PCBNEW </desc>
<g style="fill:#000000; fill-opacity:1.0000;stroke:#000000; stroke-opacity:1.0000;
stroke-linecap:round; stroke-linejoin:round;"
 transform="translate(0 0) scale(1 1)">
<path style="fill:#000000; fill-opacity:1.0000; stroke:none;fill-rule:evenodd;"
d="M 208.6550,120.1850
208.7411,120.2021
208.8141,120.2509
208.8629,120.3239
208.8800,120.4100
208.8800,120.8600
208.8629,120.9461
208.8141,121.0191
208.7411,121.0679
208.6550,121.0850
207.9050,121.0850
207.8189,121.0679
207.7459,121.0191
207.6971,120.9461
207.6800,120.8600
207.6800,120.4100
207.6971,120.3239
207.7459,120.2509
207.8189,120.2021
207.9050,120.1850
Z" /> 
<path style="fill:#000000; fill-opacity:1.0000; stroke:none;fill-rule:evenodd;"
d="M 208.6550,123.4850
208.7411,123.5021
208.8141,123.5509
208.8629,123.6239
208.8800,123.7100
208.8800,124.1600
208.8629,124.2461
208.8141,124.3191
208.7411,124.3679
208.6550,124.3850
207.9050,124.3850
207.8189,124.3679
207.7459,124.3191
207.6971,124.2461
207.6800,124.1600
207.6800,123.7100
207.6971,123.6239
207.7459,123.5509
207.8189,123.5021
207.9050,123.4850
Z" /> 
<path style="fill:#000000; fill-opacity:1.0000; stroke:none;fill-rule:evenodd;"
d="M 133.8521,54.2580
133.8521,52.8980
135.0821,52.8980
135.0821,54.2580
Z" /> 
<path style="fill:#000000; fill-opacity:1.0000; stroke:none;fill-rule:evenodd;"
d="M 138.2219,54.2580
138.2219,52.8980
139.4519,52.8980
139.4519,54.2580
Z" /> 
<path style="fill:#000000; fill-opacity:1.0000; stroke:none;fill-rule:evenodd;"
d="M 166.7690,73.0512
166.7500,73.1468
166.6958,73.2279
166.6147,73.2821
166.5190,73.3012
165.6190,73.3012
165.5233,73.2821
165.4422,73.2279
165.3880,73.1468
165.3690,73.0512
165.3690,72.2012
165.3880,72.1055
165.4422,72.0244
165.5233,71.9702
165.6190,71.9512
166.5190,71.9512
166.6147,71.9702
166.6958,72.0244
166.7500,72.1055
166.7690,72.2012
Z" /> 
<path style="fill:#000000; fill-opacity:1.0000; stroke:none;fill-rule:evenodd;"
d="M 164.0690,73.0512
164.0500,73.1468
163.9958,73.2279
163.9147,73.2821
163.8190,73.3012
162.9190,73.3012
162.8233,73.2821
162.7422,73.2279
162.6880,73.1468
162.6690,73.0512
162.6690,72.2012
162.6880,72.1055
162.7422,72.0244
162.8233,71.9702
162.9190,71.9512
163.8190,71.9512
163.9147,71.9702
163.9958,72.0244
164.0500,72.1055
164.0690,72.2012
Z" /> 
</g>
<g style="fill:none; 
stroke:#000000; stroke-width:0.6300; stroke-opacity:1; 
stroke-linecap:round; stroke-linejoin:round;">
<path d="M158.4673 59.0135
L156.8473 59.0135
" />
<path d="M158.4673 60.2835
L156.8473 60.2835
" />
<path d="M158.4673 61.5535
L156.8473 61.5535
" />
<path d="M158.4673 62.8235
L156.8473 62.8235
" />
<path d="M151.4071 62.8235
L149.7871 62.8235
" />
<path d="M151.4071 61.5535
L149.7871 61.5535
" />
<path d="M151.4071 60.2835
L149.7871 60.2835
" />
<path d="M151.4071 59.0135
L149.7871 59.0135
" />
<path style="fill:#000000; fill-opacity:1.0000; stroke:none;fill-rule:evenodd;"
d="M 147.6950,120.1850
147.7811,120.2021
147.8541,120.2509
147.9029,120.3239
147.9200,120.4100
147.9200,120.8600
147.9029,120.9461
147.8541,121.0191
147.7811,121.0679
147.6950,121.0850
146.9450,121.0850
146.8589,121.0679
146.7859,121.0191
146.7371,120.9461
146.7200,120.8600
146.7200,120.4100
146.7371,120.3239
146.7859,120.2509
146.8589,120.2021
146.9450,120.1850
Z" /> 
<path style="fill:#000000; fill-opacity:1.0000; stroke:none;fill-rule:evenodd;"
d="M 147.6950,123.4850
147.7811,123.5021
147.8541,123.5509
147.9029,123.6239
147.9200,123.7100
147.9200,124.1600
147.9029,124.2461
147.8541,124.3191
147.7811,124.3679
147.6950,124.3850
146.9450,124.3850
146.8589,124.3679
146.7859,124.3191
146.7371,124.2461
146.7200,124.1600
146.7200,123.7100
146.7371,123.6239
146.7859,123.5509
146.8589,123.5021
146.9450,123.4850
Z" /> 
<path style="fill:#000000; fill-opacity:1.0000; stroke:none;fill-rule:evenodd;"
d="M 147.6950,99.8650
147.7811,99.8821
147.8541,99.9309
147.9029,100.0039
147.9200,100.0900
147.9200,100.5400
147.9029,100.6261
147.8541,100.6991
147.7811,100.7479
147.6950,100.7650
146.9450,100.7650
146.8589,100.7479
146.7859,100.6991
146.7371,100.6261
146.7200,100.5400
146.7200,100.0900
146.7371,100.0039
146.7859,99.9309
146.8589,99.8821
146.9450,99.8650
Z" /> 
<path style="fill:#000000; fill-opacity:1.0000; stroke:none;fill-rule:evenodd;"
d="M 147.6950,103.1650
147.7811,103.1821
147.8541,103.2309
147.9029,103.3039
147.9200,103.3900
147.9200,103.8400
147.9029,103.9261
147.8541,103.9991
147.7811,104.0479
147.6950,104.0650
146.9450,104.0650
146.8589,104.0479
146.7859,103.9991
146.7371,103.9261
146.7200,103.8400
146.7200,103.3900
146.7371,103.3039
146.7859,103.2309
146.8589,103.1821
146.9450,103.1650
Z" /> 
<path style="fill:#000000; fill-opacity:1.0000; stroke:none;fill-rule:evenodd;"
d="M 221.9171,77.7406
221.9068,77.7923
221.8776,77.8361
221.8338,77.8653
221.7821,77.8756
221.5121,77.8756
221.4604,77.8653
221.4166,77.8361
221.3874,77.7923
221.3771,77.7406
221.3771,77.3706
221.3874,77.3189
221.4166,77.2751
221.4604,77.2459
221.5121,77.2356
221.7821,77.2356
221.8338,77.2459
221.8776,77.2751
221.9068,77.3189
221.9171,77.3706
Z" /> 
<path style="fill:#000000; fill-opacity:1.0000; stroke:none;fill-rule:evenodd;"
d="M 220.8971,77.7406
220.8868,77.7923
220.8576,77.8361
220.8138,77.8653
220.7621,77.8756
220.4921,77.8756
220.4404,77.8653
220.3966,77.8361
220.3674,77.7923
220.3571,77.7406
220.3571,77.3706
220.3674,77.3189
220.3966,77.2751
220.4404,77.2459
220.4921,77.2356
220.7621,77.2356
220.8138,77.2459
220.8576,77.2751
220.8868,77.3189
220.8971,77.3706
Z" /> 
<path style="fill:#000000; fill-opacity:1.0000; stroke:none;fill-rule:evenodd;"
d="M 66.4150,130.3450
66.5011,130.3621
66.5741,130.4109
66.6229,130.4839
66.6400,130.5700
66.6400,131.0200
66.6229,131.1061
66.5741,131.1791
66.5011,131.2279
66.4150,131.2450
65.6650,131.2450
65.5789,131.2279
65.5059,131.1791
65.4571,131.1061
65.4400,131.0200
65.4400,130.5700
65.4571,130.4839
65.5059,130.4109
65.5789,130.3621
65.6650,130.3450
Z" /> 
<path style="fill:#000000; fill-opacity:1.0000; stroke:none;fill-rule:evenodd;"
d="M 66.4150,133.6450
66.5011,133.6621
66.5741,133.7109
66.6229,133.7839
66.6400,133.8700
66.6400,134.3200
66.6229,134.4061
66.5741,134.4791
66.5011,134.5279
66.4150,134.5450
65.6650,134.5450
65.5789,134.5279
65.5059,134.4791
65.4571,134.4061
65.4400,134.3200
65.4400,133.8700
65.4571,133.7839
65.5059,133.7109
65.5789,133.6621
65.6650,133.6450
Z" /> 
<path style="fill:#000000; fill-opacity:1.0000; stroke:none;fill-rule:evenodd;"
d="M 216.8371,80.2806
216.8268,80.3323
216.7976,80.3761
216.7538,80.4053
216.7021,80.4156
216.4321,80.4156
216.3804,80.4053
216.3366,80.3761
216.3074,80.3323
216.2971,80.2806
216.2971,79.9106
216.3074,79.8589
216.3366,79.8151
216.3804,79.7859
216.4321,79.7756
216.7021,79.7756
216.7538,79.7859
216.7976,79.8151
216.8268,79.8589
216.8371,79.9106
Z" /> 
<path style="fill:#000000; fill-opacity:1.0000; stroke:none;fill-rule:evenodd;"
d="M 215.8171,80.2806
215.8068,80.3323
215.7776,80.3761
215.7338,80.4053
215.6821,80.4156
215.4121,80.4156
215.3604,80.4053
215.3166,80.3761
215.2874,80.3323
215.2771,80.2806
215.2771,79.9106
215.2874,79.8589
215.3166,79.8151
215.3604,79.7859
215.4121,79.7756
215.6821,79.7756
215.7338,79.7859
215.7776,79.8151
215.8068,79.8589
215.8171,79.9106
Z" /> 
<path style="fill:#000000; fill-opacity:1.0000; stroke:none;fill-rule:evenodd;"
d="M 146.8884,80.7228
146.8778,80.7764
146.8474,80.8218
146.8020,80.8521
146.7484,80.8628
146.4684,80.8628
146.4148,80.8521
146.3694,80.8218
146.3391,80.7764
146.3284,80.7228
146.3284,80.3828
146.3391,80.3292
146.3694,80.2838
146.4148,80.2535
146.4684,80.2428
146.7484,80.2428
146.8020,80.2535
146.8474,80.2838
146.8778,80.3292
146.8884,80.3828
Z" /> 
<path style="fill:#000000; fill-opacity:1.0000; stroke:none;fill-rule:evenodd;"
d="M 145.9284,80.7228
145.9178,80.7764
145.8874,80.8218
145.8420,80.8521
145.7884,80.8628
145.5084,80.8628
145.4548,80.8521
145.4094,80.8218
145.3791,80.7764
145.3684,80.7228
145.3684,80.3828
145.3791,80.3292
145.4094,80.2838
145.4548,80.2535
145.5084,80.2428
145.7884,80.2428
145.8420,80.2535
145.8874,80.2838
145.9178,80.3292
145.9284,80.3828
Z" /> 
<path style="fill:#000000; fill-opacity:1.0000; stroke:none;fill-rule:evenodd;"
d="M 127.3750,120.1850
127.4611,120.2021
127.5341,120.2509
127.5829,120.3239
127.6000,120.4100
127.6000,120.8600
127.5829,120.9461
127.5341,121.0191
127.4611,121.0679
127.3750,121.0850
126.6250,121.0850
126.5389,121.0679
126.4659,121.0191
126.4171,120.9461
126.4000,120.8600
126.4000,120.4100
126.4171,120.3239
126.4659,120.2509
126.5389,120.2021
126.6250,120.1850
Z" /> 
<path style="fill:#000000; fill-opacity:1.0000; stroke:none;fill-rule:evenodd;"
d="M 127.3750,123.4850
127.4611,123.5021
127.5341,123.5509
127.5829,123.6239
127.6000,123.7100
127.6000,124.1600
127.5829,124.2461
127.5341,124.3191
127.4611,124.3679
127.3750,124.3850
126.6250,124.3850
126.5389,124.3679
126.4659,124.3191
126.4171,124.2461
126.4000,124.1600
126.4000,123.7100
126.4171,123.6239
126.4659,123.5509
126.5389,123.5021
126.6250,123.4850
Z" /> 
<path style="fill:#000000; fill-opacity:1.0000; stroke:none;fill-rule:evenodd;"
d="M 208.6550,140.5050
208.7411,140.5221
208.8141,140.5709
208.8629,140.6439
208.8800,140.7300
208.8800,141.1800
208.8629,141.2661
208.8141,141.3391
208.7411,141.3879
208.6550,141.4050
207.9050,141.4050
207.8189,141.3879
207.7459,141.3391
207.6971,141.2661
207.6800,141.1800
207.6800,140.7300
207.6971,140.6439
207.7459,140.5709
207.8189,140.5221
207.9050,140.5050
Z" /> 
<path style="fill:#000000; fill-opacity:1.0000; stroke:none;fill-rule:evenodd;"
d="M 208.6550,143.8050
208.7411,143.8221
208.8141,143.8709
208.8629,143.9439
208.8800,144.0300
208.8800,144.4800
208.8629,144.5661
208.8141,144.6391
208.7411,144.6879
208.6550,144.7050
207.9050,144.7050
207.8189,144.6879
207.7459,144.6391
207.6971,144.5661
207.6800,144.4800
207.6800,144.0300
207.6971,143.9439
207.7459,143.8709
207.8189,143.8221
207.9050,143.8050
Z" /> 
<path style="fill:#000000; fill-opacity:1.0000; stroke:none;fill-rule:evenodd;"
d="M 242.1863,77.7406
242.1760,77.7923
242.1468,77.8361
242.1030,77.8653
242.0513,77.8756
241.7813,77.8756
241.7296,77.8653
241.6858,77.8361
241.6566,77.7923
241.6463,77.7406
241.6463,77.3706
241.6566,77.3189
241.6858,77.2751
241.7296,77.2459
241.7813,77.2356
242.0513,77.2356
242.1030,77.2459
242.1468,77.2751
242.1760,77.3189
242.1863,77.3706
Z" /> 
<path style="fill:#000000; fill-opacity:1.0000; stroke:none;fill-rule:evenodd;"
d="M 241.1663,77.7406
241.1560,77.7923
241.1268,77.8361
241.0830,77.8653
241.0313,77.8756
240.7613,77.8756
240.7096,77.8653
240.6658,77.8361
240.6366,77.7923
240.6263,77.7406
240.6263,77.3706
240.6366,77.3189
240.6658,77.2751
240.7096,77.2459
240.7613,77.2356
241.0313,77.2356
241.0830,77.2459
241.1268,77.2751
241.1560,77.3189
241.1663,77.3706
Z" /> 
<path style="fill:#000000; fill-opacity:1.0000; stroke:none;fill-rule:evenodd;"
d="M 236.8363,78.6556
236.8470,78.6020
236.8773,78.5566
236.9227,78.5263
236.9763,78.5156
237.2563,78.5156
237.3099,78.5263
237.3553,78.5566
237.3856,78.6020
237.3963,78.6556
237.3963,78.9956
237.3856,79.0492
237.3553,79.0946
237.3099,79.1249
237.2563,79.1356
236.9763,79.1356
236.9227,79.1249
236.8773,79.0946
236.8470,79.0492
236.8363,78.9956
Z" /> 
<path style="fill:#000000; fill-opacity:1.0000; stroke:none;fill-rule:evenodd;"
d="M 237.7963,78.6556
237.8070,78.6020
237.8373,78.5566
237.8827,78.5263
237.9363,78.5156
238.2163,78.5156
238.2699,78.5263
238.3153,78.5566
238.3456,78.6020
238.3563,78.6556
238.3563,78.9956
238.3456,79.0492
238.3153,79.0946
238.2699,79.1249
238.2163,79.1356
237.9363,79.1356
237.8827,79.1249
237.8373,79.0946
237.8070,79.0492
237.7963,78.9956
Z" /> 
<path style="fill:#000000; fill-opacity:1.0000; stroke:none;fill-rule:evenodd;"
d="M 220.3571,79.9106
220.3674,79.8589
220.3966,79.8151
220.4404,79.7859
220.4921,79.7756
220.7621,79.7756
220.8138,79.7859
220.8576,79.8151
220.8868,79.8589
220.8971,79.9106
220.8971,80.2806
220.8868,80.3323
220.8576,80.3761
220.8138,80.4053
220.7621,80.4156
220.4921,80.4156
220.4404,80.4053
220.3966,80.3761
220.3674,80.3323
220.3571,80.2806
Z" /> 
<path style="fill:#000000; fill-opacity:1.0000; stroke:none;fill-rule:evenodd;"
d="M 221.3771,79.9106
221.3874,79.8589
221.4166,79.8151
221.4604,79.7859
221.5121,79.7756
221.7821,79.7756
221.8338,79.7859
221.8776,79.8151
221.9068,79.8589
221.9171,79.9106
221.9171,80.2806
221.9068,80.3323
221.8776,80.3761
221.8338,80.4053
221.7821,80.4156
221.5121,80.4156
221.4604,80.4053
221.4166,80.3761
221.3874,80.3323
221.3771,80.2806
Z" /> 
<path style="fill:#000000; fill-opacity:1.0000; stroke:none;fill-rule:evenodd;"
d="M 145.4788,64.7827
145.5305,64.7929
145.5743,64.8222
145.6036,64.8660
145.6138,64.9177
145.6138,65.1877
145.6036,65.2393
145.5743,65.2831
145.5305,65.3124
145.4788,65.3227
145.1088,65.3227
145.0572,65.3124
145.0134,65.2831
144.9841,65.2393
144.9738,65.1877
144.9738,64.9177
144.9841,64.8660
145.0134,64.8222
145.0572,64.7929
145.1088,64.7827
Z" /> 
<path style="fill:#000000; fill-opacity:1.0000; stroke:none;fill-rule:evenodd;"
d="M 145.4788,65.8027
145.5305,65.8129
145.5743,65.8422
145.6036,65.8860
145.6138,65.9377
145.6138,66.2077
145.6036,66.2593
145.5743,66.3031
145.5305,66.3324
145.4788,66.3427
145.1088,66.3427
145.0572,66.3324
145.0134,66.3031
144.9841,66.2593
144.9738,66.2077
144.9738,65.9377
144.9841,65.8860
145.0134,65.8422
145.0572,65.8129
145.1088,65.8027
Z" /> 
<path style="fill:#000000; fill-opacity:1.0000; stroke:none;fill-rule:evenodd;"
d="M 209.5954,93.1584
209.5851,93.2101
209.5559,93.2539
209.5121,93.2831
209.4604,93.2934
209.1904,93.2934
209.1387,93.2831
209.0949,93.2539
209.0657,93.2101
209.0554,93.1584
209.0554,92.7884
209.0657,92.7367
209.0949,92.6929
209.1387,92.6637
209.1904,92.6534
209.4604,92.6534
209.5121,92.6637
209.5559,92.6929
209.5851,92.7367
209.5954,92.7884
Z" /> 
<path style="fill:#000000; fill-opacity:1.0000; stroke:none;fill-rule:evenodd;"
d="M 208.5754,93.1584
208.5651,93.2101
208.5359,93.2539
208.4921,93.2831
208.4404,93.2934
208.1704,93.2934
208.1187,93.2831
208.0749,93.2539
208.0457,93.2101
208.0354,93.1584
208.0354,92.7884
208.0457,92.7367
208.0749,92.6929
208.1187,92.6637
208.1704,92.6534
208.4404,92.6534
208.4921,92.6637
208.5359,92.6929
208.5651,92.7367
208.5754,92.7884
Z" /> 
<path style="fill:#000000; fill-opacity:1.0000; stroke:none;fill-rule:evenodd;"
d="M 213.7840,77.4560
213.8376,77.4667
213.8830,77.4970
213.9133,77.5424
213.9240,77.5960
213.9240,77.8760
213.9133,77.9296
213.8830,77.9750
213.8376,78.0053
213.7840,78.0160
213.4440,78.0160
213.3904,78.0053
213.3450,77.9750
213.3147,77.9296
213.3040,77.8760
213.3040,77.5960
213.3147,77.5424
213.3450,77.4970
213.3904,77.4667
213.4440,77.4560
Z" /> 
<path style="fill:#000000; fill-opacity:1.0000; stroke:none;fill-rule:evenodd;"
d="M 213.7840,78.4160
213.8376,78.4267
213.8830,78.4570
213.9133,78.5024
213.9240,78.5560
213.9240,78.8360
213.9133,78.8896
213.8830,78.9350
213.8376,78.9653
213.7840,78.9760
213.4440,78.9760
213.3904,78.9653
213.3450,78.9350
213.3147,78.8896
213.3040,78.8360
213.3040,78.5560
213.3147,78.5024
213.3450,78.4570
213.3904,78.4267
213.4440,78.4160
Z" /> 
<path style="fill:#000000; fill-opacity:1.0000; stroke:none;fill-rule:evenodd;"
d="M 168.0150,99.8650
168.1011,99.8821
168.1741,99.9309
168.2229,100.0039
168.2400,100.0900
168.2400,100.5400
168.2229,100.6261
168.1741,100.6991
168.1011,100.7479
168.0150,100.7650
167.2650,100.7650
167.1789,100.7479
167.1059,100.6991
167.0571,100.6261
167.0400,100.5400
167.0400,100.0900
167.0571,100.0039
167.1059,99.9309
167.1789,99.8821
167.2650,99.8650
Z" /> 
<path style="fill:#000000; fill-opacity:1.0000; stroke:none;fill-rule:evenodd;"
d="M 168.0150,103.1650
168.1011,103.1821
168.1741,103.2309
168.2229,103.3039
168.2400,103.3900
168.2400,103.8400
168.2229,103.9261
168.1741,103.9991
168.1011,104.0479
168.0150,104.0650
167.2650,104.0650
167.1789,104.0479
167.1059,103.9991
167.0571,103.9261
167.0400,103.8400
167.0400,103.3900
167.0571,103.3039
167.1059,103.2309
167.1789,103.1821
167.2650,103.1650
Z" /> 
<path style="fill:#000000; fill-opacity:1.0000; stroke:none;fill-rule:evenodd;"
d="M 143.0918,66.3227
143.0383,66.3120
142.9928,66.2817
142.9625,66.2362
142.9518,66.1827
142.9518,65.9027
142.9625,65.8491
142.9928,65.8037
143.0383,65.7733
143.0918,65.7627
143.4318,65.7627
143.4854,65.7733
143.5308,65.8037
143.5612,65.8491
143.5718,65.9027
143.5718,66.1827
143.5612,66.2362
143.5308,66.2817
143.4854,66.3120
143.4318,66.3227
Z" /> 
<path style="fill:#000000; fill-opacity:1.0000; stroke:none;fill-rule:evenodd;"
d="M 143.0918,65.3627
143.0383,65.3520
142.9928,65.3217
142.9625,65.2762
142.9518,65.2227
142.9518,64.9427
142.9625,64.8891
142.9928,64.8437
143.0383,64.8133
143.0918,64.8027
143.4318,64.8027
143.4854,64.8133
143.5308,64.8437
143.5612,64.8891
143.5718,64.9427
143.5718,65.2227
143.5612,65.2762
143.5308,65.3217
143.4854,65.3520
143.4318,65.3627
Z" /> 
<path style="fill:#000000; fill-opacity:1.0000; stroke:none;fill-rule:evenodd;"
d="M 220.6271,78.9956
220.6164,79.0492
220.5861,79.0946
220.5407,79.1249
220.4871,79.1356
220.2071,79.1356
220.1535,79.1249
220.1081,79.0946
220.0778,79.0492
220.0671,78.9956
220.0671,78.6556
220.0778,78.6020
220.1081,78.5566
220.1535,78.5263
220.2071,78.5156
220.4871,78.5156
220.5407,78.5263
220.5861,78.5566
220.6164,78.6020
220.6271,78.6556
Z" /> 
<path style="fill:#000000; fill-opacity:1.0000; stroke:none;fill-rule:evenodd;"
d="M 219.6671,78.9956
219.6564,79.0492
219.6261,79.0946
219.5807,79.1249
219.5271,79.1356
219.2471,79.1356
219.1935,79.1249
219.1481,79.0946
219.1178,79.0492
219.1071,78.9956
219.1071,78.6556
219.1178,78.6020
219.1481,78.5566
219.1935,78.5263
219.2471,78.5156
219.5271,78.5156
219.5807,78.5263
219.6261,78.5566
219.6564,78.6020
219.6671,78.6556
Z" /> 
<path style="fill:#000000; fill-opacity:1.0000; stroke:none;fill-rule:evenodd;"
d="M 138.1580,75.4910
138.1683,75.4393
138.1975,75.3955
138.2413,75.3663
138.2930,75.3560
138.5630,75.3560
138.6147,75.3663
138.6585,75.3955
138.6877,75.4393
138.6980,75.4910
138.6980,75.8610
138.6877,75.9127
138.6585,75.9565
138.6147,75.9857
138.5630,75.9960
138.2930,75.9960
138.2413,75.9857
138.1975,75.9565
138.1683,75.9127
138.1580,75.8610
Z" /> 
<path style="fill:#000000; fill-opacity:1.0000; stroke:none;fill-rule:evenodd;"
d="M 139.1780,75.4910
139.1883,75.4393
139.2175,75.3955
139.2613,75.3663
139.3130,75.3560
139.5830,75.3560
139.6347,75.3663
139.6785,75.3955
139.7077,75.4393
139.7180,75.4910
139.7180,75.8610
139.7077,75.9127
139.6785,75.9565
139.6347,75.9857
139.5830,75.9960
139.3130,75.9960
139.2613,75.9857
139.2175,75.9565
139.1883,75.9127
139.1780,75.8610
Z" /> 
<path style="fill:#000000; fill-opacity:1.0000; stroke:none;fill-rule:evenodd;"
d="M 168.0150,140.5050
168.1011,140.5221
168.1741,140.5709
168.2229,140.6439
168.2400,140.7300
168.2400,141.1800
168.2229,141.2661
168.1741,141.3391
168.1011,141.3879
168.0150,141.4050
167.2650,141.4050
167.1789,141.3879
167.1059,141.3391
167.0571,141.2661
167.0400,141.1800
167.0400,140.7300
167.0571,140.6439
167.1059,140.5709
167.1789,140.5221
167.2650,140.5050
Z" /> 
<path style="fill:#000000; fill-opacity:1.0000; stroke:none;fill-rule:evenodd;"
d="M 168.0150,143.8050
168.1011,143.8221
168.1741,143.8709
168.2229,143.9439
168.2400,144.0300
168.2400,144.4800
168.2229,144.5661
168.1741,144.6391
168.1011,144.6879
168.0150,144.7050
167.2650,144.7050
167.1789,144.6879
167.1059,144.6391
167.0571,144.5661
167.0400,144.4800
167.0400,144.0300
167.0571,143.9439
167.1059,143.8709
167.1789,143.8221
167.2650,143.8050
Z" /> 
<path style="fill:#000000; fill-opacity:1.0000; stroke:none;fill-rule:evenodd;"
d="M 141.4480,73.0470
141.4373,73.1006
141.4070,73.1460
141.3616,73.1763
141.3080,73.1870
141.0280,73.1870
140.9744,73.1763
140.9290,73.1460
140.8987,73.1006
140.8880,73.0470
140.8880,72.7070
140.8987,72.6534
140.9290,72.6080
140.9744,72.5777
141.0280,72.5670
141.3080,72.5670
141.3616,72.5777
141.4070,72.6080
141.4373,72.6534
141.4480,72.7070
Z" /> 
<path style="fill:#000000; fill-opacity:1.0000; stroke:none;fill-rule:evenodd;"
d="M 140.4880,73.0470
140.4773,73.1006
140.4470,73.1460
140.4016,73.1763
140.3480,73.1870
140.0680,73.1870
140.0144,73.1763
139.9690,73.1460
139.9387,73.1006
139.9280,73.0470
139.9280,72.7070
139.9387,72.6534
139.9690,72.6080
140.0144,72.5777
140.0680,72.5670
140.3480,72.5670
140.4016,72.5777
140.4470,72.6080
140.4773,72.6534
140.4880,72.7070
Z" /> 
<path style="fill:#000000; fill-opacity:1.0000; stroke:none;fill-rule:evenodd;"
d="M 211.0560,92.7884
211.0663,92.7367
211.0955,92.6929
211.1393,92.6637
211.1910,92.6534
211.4610,92.6534
211.5127,92.6637
211.5565,92.6929
211.5857,92.7367
211.5960,92.7884
211.5960,93.1584
211.5857,93.2101
211.5565,93.2539
211.5127,93.2831
211.4610,93.2934
211.1910,93.2934
211.1393,93.2831
211.0955,93.2539
211.0663,93.2101
211.0560,93.1584
Z" /> 
<path style="fill:#000000; fill-opacity:1.0000; stroke:none;fill-rule:evenodd;"
d="M 212.0760,92.7884
212.0863,92.7367
212.1155,92.6929
212.1593,92.6637
212.2110,92.6534
212.4810,92.6534
212.5327,92.6637
212.5765,92.6929
212.6057,92.7367
212.6160,92.7884
212.6160,93.1584
212.6057,93.2101
212.5765,93.2539
212.5327,93.2831
212.4810,93.2934
212.2110,93.2934
212.1593,93.2831
212.1155,93.2539
212.0863,93.2101
212.0760,93.1584
Z" /> 
<path style="fill:#000000; fill-opacity:1.0000; stroke:none;fill-rule:evenodd;"
d="M 237.1063,80.2806
237.0960,80.3323
237.0668,80.3761
237.0230,80.4053
236.9713,80.4156
236.7013,80.4156
236.6496,80.4053
236.6058,80.3761
236.5766,80.3323
236.5663,80.2806
236.5663,79.9106
236.5766,79.8589
236.6058,79.8151
236.6496,79.7859
236.7013,79.7756
236.9713,79.7756
237.0230,79.7859
237.0668,79.8151
237.0960,79.8589
237.1063,79.9106
Z" /> 
<path style="fill:#000000; fill-opacity:1.0000; stroke:none;fill-rule:evenodd;"
d="M 236.0863,80.2806
236.0760,80.3323
236.0468,80.3761
236.0030,80.4053
235.9513,80.4156
235.6813,80.4156
235.6296,80.4053
235.5858,80.3761
235.5566,80.3323
235.5463,80.2806
235.5463,79.9106
235.5566,79.8589
235.5858,79.8151
235.6296,79.7859
235.6813,79.7756
235.9513,79.7756
236.0030,79.7859
236.0468,79.8151
236.0760,79.8589
236.0863,79.9106
Z" /> 
<path style="fill:#000000; fill-opacity:1.0000; stroke:none;fill-rule:evenodd;"
d="M 152.5036,72.5850
152.5143,72.5314
152.5446,72.4860
152.5900,72.4557
152.6436,72.4450
152.9236,72.4450
152.9772,72.4557
153.0226,72.4860
153.0529,72.5314
153.0636,72.5850
153.0636,72.9250
153.0529,72.9786
153.0226,73.0240
152.9772,73.0543
152.9236,73.0650
152.6436,73.0650
152.5900,73.0543
152.5446,73.0240
152.5143,72.9786
152.5036,72.9250
Z" /> 
<path style="fill:#000000; fill-opacity:1.0000; stroke:none;fill-rule:evenodd;"
d="M 153.4636,72.5850
153.4743,72.5314
153.5046,72.4860
153.5500,72.4557
153.6036,72.4450
153.8836,72.4450
153.9372,72.4557
153.9826,72.4860
154.0129,72.5314
154.0236,72.5850
154.0236,72.9250
154.0129,72.9786
153.9826,73.0240
153.9372,73.0543
153.8836,73.0650
153.6036,73.0650
153.5500,73.0543
153.5046,73.0240
153.4743,72.9786
153.4636,72.9250
Z" /> 
<path style="fill:#000000; fill-opacity:1.0000; stroke:none;fill-rule:evenodd;"
d="M 144.8698,79.1498
144.8163,79.1391
144.7708,79.1088
144.7405,79.0634
144.7298,79.0098
144.7298,78.7298
144.7405,78.6762
144.7708,78.6308
144.8163,78.6005
144.8698,78.5898
145.2098,78.5898
145.2634,78.6005
145.3088,78.6308
145.3392,78.6762
145.3498,78.7298
145.3498,79.0098
145.3392,79.0634
145.3088,79.1088
145.2634,79.1391
145.2098,79.1498
Z" /> 
<path style="fill:#000000; fill-opacity:1.0000; stroke:none;fill-rule:evenodd;"
d="M 144.8698,78.1898
144.8163,78.1791
144.7708,78.1488
144.7405,78.1034
144.7298,78.0498
144.7298,77.7698
144.7405,77.7162
144.7708,77.6708
144.8163,77.6405
144.8698,77.6298
145.2098,77.6298
145.2634,77.6405
145.3088,77.6708
145.3392,77.7162
145.3498,77.7698
145.3498,78.0498
145.3392,78.1034
145.3088,78.1488
145.2634,78.1791
145.2098,78.1898
Z" /> 
<path style="fill:#000000; fill-opacity:1.0000; stroke:none;fill-rule:evenodd;"
d="M 162.9690,65.2420
161.8690,65.2420
161.8690,62.7420
162.9690,62.7420
Z" /> 
<path style="fill:#000000; fill-opacity:1.0000; stroke:none;fill-rule:evenodd;"
d="M 165.2690,65.2420
164.1690,65.2420
164.1690,62.7420
165.2690,62.7420
Z" /> 
<path style="fill:#000000; fill-opacity:1.0000; stroke:none;fill-rule:evenodd;"
d="M 167.5690,65.2420
166.4690,65.2420
166.4690,62.7420
167.5690,62.7420
Z" /> 
<path style="fill:#000000; fill-opacity:1.0000; stroke:none;fill-rule:evenodd;"
d="M 166.5190,71.1019
162.9190,71.1019
162.9190,68.7619
166.5190,68.7619
Z" /> 
<path style="fill:#000000; fill-opacity:1.0000; stroke:none;fill-rule:evenodd;"
d="M 143.8450,54.7250
143.8450,53.6250
144.3950,53.6250
144.3950,54.7250
Z" /> 
<path style="fill:#000000; fill-opacity:1.0000; stroke:none;fill-rule:evenodd;"
d="M 144.6451,54.7250
144.6451,53.6250
145.1951,53.6250
145.1951,54.7250
Z" /> 
<path style="fill:#000000; fill-opacity:1.0000; stroke:none;fill-rule:evenodd;"
d="M 145.4201,54.7250
145.4201,53.6250
145.7201,53.6250
145.7201,54.7250
Z" /> 
<path style="fill:#000000; fill-opacity:1.0000; stroke:none;fill-rule:evenodd;"
d="M 145.9202,54.7250
145.9202,53.6250
146.2202,53.6250
146.2202,54.7250
Z" /> 
<path style="fill:#000000; fill-opacity:1.0000; stroke:none;fill-rule:evenodd;"
d="M 146.4201,54.7250
146.4201,53.6250
146.7201,53.6250
146.7201,54.7250
Z" /> 
<path style="fill:#000000; fill-opacity:1.0000; stroke:none;fill-rule:evenodd;"
d="M 146.9199,54.7250
146.9199,53.6250
147.2199,53.6250
147.2199,54.7250
Z" /> 
<path style="fill:#000000; fill-opacity:1.0000; stroke:none;fill-rule:evenodd;"
d="M 147.4201,54.7250
147.4201,53.6250
147.7201,53.6250
147.7201,54.7250
Z" /> 
<path style="fill:#000000; fill-opacity:1.0000; stroke:none;fill-rule:evenodd;"
d="M 147.9199,54.7250
147.9199,53.6250
148.2199,53.6250
148.2199,54.7250
Z" /> 
<path style="fill:#000000; fill-opacity:1.0000; stroke:none;fill-rule:evenodd;"
d="M 148.4201,54.7250
148.4201,53.6250
148.7201,53.6250
148.7201,54.7250
Z" /> 
<path style="fill:#000000; fill-opacity:1.0000; stroke:none;fill-rule:evenodd;"
d="M 148.9202,54.7250
148.9202,53.6250
149.2202,53.6250
149.2202,54.7250
Z" /> 
<path style="fill:#000000; fill-opacity:1.0000; stroke:none;fill-rule:evenodd;"
d="M 149.4452,54.7250
149.4452,53.6250
149.9952,53.6250
149.9952,54.7250
Z" /> 
<path style="fill:#000000; fill-opacity:1.0000; stroke:none;fill-rule:evenodd;"
d="M 150.2450,54.7250
150.2450,53.6250
150.7950,53.6250
150.7950,54.7250
Z" /> 
<path style="fill:#000000; fill-opacity:1.0000; stroke:none;fill-rule:evenodd;"
d="M 86.7350,140.5050
86.8211,140.5221
86.8941,140.5709
86.9429,140.6439
86.9600,140.7300
86.9600,141.1800
86.9429,141.2661
86.8941,141.3391
86.8211,141.3879
86.7350,141.4050
85.9850,141.4050
85.8989,141.3879
85.8259,141.3391
85.7771,141.2661
85.7600,141.1800
85.7600,140.7300
85.7771,140.6439
85.8259,140.5709
85.8989,140.5221
85.9850,140.5050
Z" /> 
<path style="fill:#000000; fill-opacity:1.0000; stroke:none;fill-rule:evenodd;"
d="M 86.7350,143.8050
86.8211,143.8221
86.8941,143.8709
86.9429,143.9439
86.9600,144.0300
86.9600,144.4800
86.9429,144.5661
86.8941,144.6391
86.8211,144.6879
86.7350,144.7050
85.9850,144.7050
85.8989,144.6879
85.8259,144.6391
85.7771,144.5661
85.7600,144.4800
85.7600,144.0300
85.7771,143.9439
85.8259,143.8709
85.8989,143.8221
85.9850,143.8050
Z" /> 
<path style="fill:#000000; fill-opacity:1.0000; stroke:none;fill-rule:evenodd;"
d="M 188.3350,120.1850
188.4211,120.2021
188.4941,120.2509
188.5429,120.3239
188.5600,120.4100
188.5600,120.8600
188.5429,120.9461
188.4941,121.0191
188.4211,121.0679
188.3350,121.0850
187.5850,121.0850
187.4989,121.0679
187.4259,121.0191
187.3771,120.9461
187.3600,120.8600
187.3600,120.4100
187.3771,120.3239
187.4259,120.2509
187.4989,120.2021
187.5850,120.1850
Z" /> 
<path style="fill:#000000; fill-opacity:1.0000; stroke:none;fill-rule:evenodd;"
d="M 188.3350,123.4850
188.4211,123.5021
188.4941,123.5509
188.5429,123.6239
188.5600,123.7100
188.5600,124.1600
188.5429,124.2461
188.4941,124.3191
188.4211,124.3679
188.3350,124.3850
187.5850,124.3850
187.4989,124.3679
187.4259,124.3191
187.3771,124.2461
187.3600,124.1600
187.3600,123.7100
187.3771,123.6239
187.4259,123.5509
187.4989,123.5021
187.5850,123.4850
Z" /> 
<path style="fill:#000000; fill-opacity:1.0000; stroke:none;fill-rule:evenodd;"
d="M 151.6400,56.9639
151.6507,56.9103
151.6810,56.8649
151.7264,56.8345
151.7800,56.8239
152.0600,56.8239
152.1136,56.8345
152.1590,56.8649
152.1893,56.9103
152.2000,56.9639
152.2000,57.3039
152.1893,57.3574
152.1590,57.4029
152.1136,57.4332
152.0600,57.4439
151.7800,57.4439
151.7264,57.4332
151.6810,57.4029
151.6507,57.3574
151.6400,57.3039
Z" /> 
<path style="fill:#000000; fill-opacity:1.0000; stroke:none;fill-rule:evenodd;"
d="M 152.6000,56.9639
152.6107,56.9103
152.6410,56.8649
152.6864,56.8345
152.7400,56.8239
153.0200,56.8239
153.0736,56.8345
153.1190,56.8649
153.1493,56.9103
153.1600,56.9639
153.1600,57.3039
153.1493,57.3574
153.1190,57.4029
153.0736,57.4332
153.0200,57.4439
152.7400,57.4439
152.6864,57.4332
152.6410,57.4029
152.6107,57.3574
152.6000,57.3039
Z" /> 
<path style="fill:#000000; fill-opacity:1.0000; stroke:none;fill-rule:evenodd;"
d="M 240.7051,79.9106
240.7154,79.8589
240.7446,79.8151
240.7884,79.7859
240.8401,79.7756
241.1101,79.7756
241.1618,79.7859
241.2056,79.8151
241.2348,79.8589
241.2451,79.9106
241.2451,80.2806
241.2348,80.3323
241.2056,80.3761
241.1618,80.4053
241.1101,80.4156
240.8401,80.4156
240.7884,80.4053
240.7446,80.3761
240.7154,80.3323
240.7051,80.2806
Z" /> 
<path style="fill:#000000; fill-opacity:1.0000; stroke:none;fill-rule:evenodd;"
d="M 241.7251,79.9106
241.7354,79.8589
241.7646,79.8151
241.8084,79.7859
241.8601,79.7756
242.1301,79.7756
242.1818,79.7859
242.2256,79.8151
242.2548,79.8589
242.2651,79.9106
242.2651,80.2806
242.2548,80.3323
242.2256,80.3761
242.1818,80.4053
242.1301,80.4156
241.8601,80.4156
241.8084,80.4053
241.7646,80.3761
241.7354,80.3323
241.7251,80.2806
Z" /> 
<path style="fill:#000000; fill-opacity:1.0000; stroke:none;fill-rule:evenodd;"
d="M 215.2771,77.3706
215.2874,77.3189
215.3166,77.2751
215.3604,77.2459
215.4121,77.2356
215.6821,77.2356
215.7338,77.2459
215.7776,77.2751
215.8068,77.3189
215.8171,77.3706
215.8171,77.7406
215.8068,77.7923
215.7776,77.8361
215.7338,77.8653
215.6821,77.8756
215.4121,77.8756
215.3604,77.8653
215.3166,77.8361
215.2874,77.7923
215.2771,77.7406
Z" /> 
<path style="fill:#000000; fill-opacity:1.0000; stroke:none;fill-rule:evenodd;"
d="M 216.2971,77.3706
216.3074,77.3189
216.3366,77.2751
216.3804,77.2459
216.4321,77.2356
216.7021,77.2356
216.7538,77.2459
216.7976,77.2751
216.8268,77.3189
216.8371,77.3706
216.8371,77.7406
216.8268,77.7923
216.7976,77.8361
216.7538,77.8653
216.7021,77.8756
216.4321,77.8756
216.3804,77.8653
216.3366,77.8361
216.3074,77.7923
216.2971,77.7406
Z" /> 
<path style="fill:#000000; fill-opacity:1.0000; stroke:none;fill-rule:evenodd;"
d="M 149.1201,83.2920
149.1201,84.4920
147.7201,84.4920
147.7201,83.2920
Z" /> 
<path style="fill:#000000; fill-opacity:1.0000; stroke:none;fill-rule:evenodd;"
d="M 146.9199,83.2920
146.9199,84.4920
145.5199,84.4920
145.5199,83.2920
Z" /> 
<path style="fill:#000000; fill-opacity:1.0000; stroke:none;fill-rule:evenodd;"
d="M 146.9199,81.5920
146.9199,82.7920
145.5199,82.7920
145.5199,81.5920
Z" /> 
<path style="fill:#000000; fill-opacity:1.0000; stroke:none;fill-rule:evenodd;"
d="M 149.1201,81.5920
149.1201,82.7920
147.7201,82.7920
147.7201,81.5920
Z" /> 
<path style="fill:#000000; fill-opacity:1.0000; stroke:none;fill-rule:evenodd;"
d="M 142.2152,68.2767
142.2045,68.3302
142.1742,68.3757
142.1288,68.4060
142.0752,68.4167
141.7952,68.4167
141.7416,68.4060
141.6962,68.3757
141.6659,68.3302
141.6552,68.2767
141.6552,67.9367
141.6659,67.8831
141.6962,67.8377
141.7416,67.8073
141.7952,67.7967
142.0752,67.7967
142.1288,67.8073
142.1742,67.8377
142.2045,67.8831
142.2152,67.9367
Z" /> 
<path style="fill:#000000; fill-opacity:1.0000; stroke:none;fill-rule:evenodd;"
d="M 141.2552,68.2767
141.2445,68.3302
141.2142,68.3757
141.1688,68.4060
141.1152,68.4167
140.8352,68.4167
140.7816,68.4060
140.7362,68.3757
140.7059,68.3302
140.6952,68.2767
140.6952,67.9367
140.7059,67.8831
140.7362,67.8377
140.7816,67.8073
140.8352,67.7967
141.1152,67.7967
141.1688,67.8073
141.2142,67.8377
141.2445,67.8831
141.2552,67.9367
Z" /> 
<path style="fill:#000000; fill-opacity:1.0000; stroke:none;fill-rule:evenodd;"
d="M 166.7690,61.5450
166.7500,61.6406
166.6958,61.7217
166.6147,61.7759
166.5190,61.7950
165.6190,61.7950
165.5233,61.7759
165.4422,61.7217
165.3880,61.6406
165.3690,61.5450
165.3690,60.6950
165.3880,60.5993
165.4422,60.5182
165.5233,60.4640
165.6190,60.4450
166.5190,60.4450
166.6147,60.4640
166.6958,60.5182
166.7500,60.5993
166.7690,60.6950
Z" /> 
<path style="fill:#000000; fill-opacity:1.0000; stroke:none;fill-rule:evenodd;"
d="M 164.0690,61.5450
164.0500,61.6406
163.9958,61.7217
163.9147,61.7759
163.8190,61.7950
162.9190,61.7950
162.8233,61.7759
162.7422,61.7217
162.6880,61.6406
162.6690,61.5450
162.6690,60.6950
162.6880,60.5993
162.7422,60.5182
162.8233,60.4640
162.9190,60.4450
163.8190,60.4450
163.9147,60.4640
163.9958,60.5182
164.0500,60.5993
164.0690,60.6950
Z" /> 
<path style="fill:#000000; fill-opacity:1.0000; stroke:none;fill-rule:evenodd;"
d="M 138.1560,74.4750
138.1663,74.4233
138.1955,74.3795
138.2393,74.3503
138.2910,74.3400
138.5610,74.3400
138.6127,74.3503
138.6565,74.3795
138.6857,74.4233
138.6960,74.4750
138.6960,74.8450
138.6857,74.8967
138.6565,74.9405
138.6127,74.9697
138.5610,74.9800
138.2910,74.9800
138.2393,74.9697
138.1955,74.9405
138.1663,74.8967
138.1560,74.8450
Z" /> 
<path style="fill:#000000; fill-opacity:1.0000; stroke:none;fill-rule:evenodd;"
d="M 139.1760,74.4750
139.1863,74.4233
139.2155,74.3795
139.2593,74.3503
139.3110,74.3400
139.5810,74.3400
139.6327,74.3503
139.6765,74.3795
139.7057,74.4233
139.7160,74.4750
139.7160,74.8450
139.7057,74.8967
139.6765,74.9405
139.6327,74.9697
139.5810,74.9800
139.3110,74.9800
139.2593,74.9697
139.2155,74.9405
139.1863,74.8967
139.1760,74.8450
Z" /> 
<path style="fill:#000000; fill-opacity:1.0000; stroke:none;fill-rule:evenodd;"
d="M 138.1560,76.5070
138.1663,76.4553
138.1955,76.4115
138.2393,76.3823
138.2910,76.3720
138.5610,76.3720
138.6127,76.3823
138.6565,76.4115
138.6857,76.4553
138.6960,76.5070
138.6960,76.8770
138.6857,76.9287
138.6565,76.9725
138.6127,77.0017
138.5610,77.0120
138.2910,77.0120
138.2393,77.0017
138.1955,76.9725
138.1663,76.9287
138.1560,76.8770
Z" /> 
<path style="fill:#000000; fill-opacity:1.0000; stroke:none;fill-rule:evenodd;"
d="M 139.1760,76.5070
139.1863,76.4553
139.2155,76.4115
139.2593,76.3823
139.3110,76.3720
139.5810,76.3720
139.6327,76.3823
139.6765,76.4115
139.7057,76.4553
139.7160,76.5070
139.7160,76.8770
139.7057,76.9287
139.6765,76.9725
139.6327,77.0017
139.5810,77.0120
139.3110,77.0120
139.2593,77.0017
139.2155,76.9725
139.1863,76.9287
139.1760,76.8770
Z" /> 
<path style="fill:#000000; fill-opacity:1.0000; stroke:none;fill-rule:evenodd;"
d="M 168.0150,120.1850
168.1011,120.2021
168.1741,120.2509
168.2229,120.3239
168.2400,120.4100
168.2400,120.8600
168.2229,120.9461
168.1741,121.0191
168.1011,121.0679
168.0150,121.0850
167.2650,121.0850
167.1789,121.0679
167.1059,121.0191
167.0571,120.9461
167.0400,120.8600
167.0400,120.4100
167.0571,120.3239
167.1059,120.2509
167.1789,120.2021
167.2650,120.1850
Z" /> 
<path style="fill:#000000; fill-opacity:1.0000; stroke:none;fill-rule:evenodd;"
d="M 168.0150,123.4850
168.1011,123.5021
168.1741,123.5509
168.2229,123.6239
168.2400,123.7100
168.2400,124.1600
168.2229,124.2461
168.1741,124.3191
168.1011,124.3679
168.0150,124.3850
167.2650,124.3850
167.1789,124.3679
167.1059,124.3191
167.0571,124.2461
167.0400,124.1600
167.0400,123.7100
167.0571,123.6239
167.1059,123.5509
167.1789,123.5021
167.2650,123.4850
Z" /> 
<path style="fill:#000000; fill-opacity:1.0000; stroke:none;fill-rule:evenodd;"
d="M 66.4150,120.1850
66.5011,120.2021
66.5741,120.2509
66.6229,120.3239
66.6400,120.4100
66.6400,120.8600
66.6229,120.9461
66.5741,121.0191
66.5011,121.0679
66.4150,121.0850
65.6650,121.0850
65.5789,121.0679
65.5059,121.0191
65.4571,120.9461
65.4400,120.8600
65.4400,120.4100
65.4571,120.3239
65.5059,120.2509
65.5789,120.2021
65.6650,120.1850
Z" /> 
<path style="fill:#000000; fill-opacity:1.0000; stroke:none;fill-rule:evenodd;"
d="M 66.4150,123.4850
66.5011,123.5021
66.5741,123.5509
66.6229,123.6239
66.6400,123.7100
66.6400,124.1600
66.6229,124.2461
66.5741,124.3191
66.5011,124.3679
66.4150,124.3850
65.6650,124.3850
65.5789,124.3679
65.5059,124.3191
65.4571,124.2461
65.4400,124.1600
65.4400,123.7100
65.4571,123.6239
65.5059,123.5509
65.5789,123.5021
65.6650,123.4850
Z" /> 
<path style="fill:#000000; fill-opacity:1.0000; stroke:none;fill-rule:evenodd;"
d="M 66.4150,69.3850
66.5011,69.4021
66.5741,69.4509
66.6229,69.5239
66.6400,69.6100
66.6400,70.0600
66.6229,70.1461
66.5741,70.2191
66.5011,70.2679
66.4150,70.2850
65.6650,70.2850
65.5789,70.2679
65.5059,70.2191
65.4571,70.1461
65.4400,70.0600
65.4400,69.6100
65.4571,69.5239
65.5059,69.4509
65.5789,69.4021
65.6650,69.3850
Z" /> 
<path style="fill:#000000; fill-opacity:1.0000; stroke:none;fill-rule:evenodd;"
d="M 66.4150,72.6850
66.5011,72.7021
66.5741,72.7509
66.6229,72.8239
66.6400,72.9100
66.6400,73.3600
66.6229,73.4461
66.5741,73.5191
66.5011,73.5679
66.4150,73.5850
65.6650,73.5850
65.5789,73.5679
65.5059,73.5191
65.4571,73.4461
65.4400,73.3600
65.4400,72.9100
65.4571,72.8239
65.5059,72.7509
65.5789,72.7021
65.6650,72.6850
Z" /> 
<path style="fill:#000000; fill-opacity:1.0000; stroke:none;fill-rule:evenodd;"
d="M 211.5746,94.2506
211.5643,94.3023
211.5351,94.3461
211.4913,94.3753
211.4396,94.3856
211.1696,94.3856
211.1179,94.3753
211.0741,94.3461
211.0449,94.3023
211.0346,94.2506
211.0346,93.8806
211.0449,93.8289
211.0741,93.7851
211.1179,93.7559
211.1696,93.7456
211.4396,93.7456
211.4913,93.7559
211.5351,93.7851
211.5643,93.8289
211.5746,93.8806
Z" /> 
<path style="fill:#000000; fill-opacity:1.0000; stroke:none;fill-rule:evenodd;"
d="M 210.5546,94.2506
210.5443,94.3023
210.5151,94.3461
210.4713,94.3753
210.4196,94.3856
210.1496,94.3856
210.0979,94.3753
210.0541,94.3461
210.0249,94.3023
210.0146,94.2506
210.0146,93.8806
210.0249,93.8289
210.0541,93.7851
210.0979,93.7559
210.1496,93.7456
210.4196,93.7456
210.4713,93.7559
210.5151,93.7851
210.5443,93.8289
210.5546,93.8806
Z" /> 
<path style="fill:#000000; fill-opacity:1.0000; stroke:none;fill-rule:evenodd;"
d="M 147.2418,77.6298
147.2954,77.6405
147.3408,77.6708
147.3712,77.7162
147.3818,77.7698
147.3818,78.0498
147.3712,78.1034
147.3408,78.1488
147.2954,78.1791
147.2418,78.1898
146.9018,78.1898
146.8483,78.1791
146.8028,78.1488
146.7725,78.1034
146.7618,78.0498
146.7618,77.7698
146.7725,77.7162
146.8028,77.6708
146.8483,77.6405
146.9018,77.6298
Z" /> 
<path style="fill:#000000; fill-opacity:1.0000; stroke:none;fill-rule:evenodd;"
d="M 147.2418,78.5898
147.2954,78.6005
147.3408,78.6308
147.3712,78.6762
147.3818,78.7298
147.3818,79.0098
147.3712,79.0634
147.3408,79.1088
147.2954,79.1391
147.2418,79.1498
146.9018,79.1498
146.8483,79.1391
146.8028,79.1088
146.7725,79.0634
146.7618,79.0098
146.7618,78.7298
146.7725,78.6762
146.8028,78.6308
146.8483,78.6005
146.9018,78.5898
Z" /> 
<path style="fill:#000000; fill-opacity:1.0000; stroke:none;fill-rule:evenodd;"
d="M 208.6550,99.8650
208.7411,99.8821
208.8141,99.9309
208.8629,100.0039
208.8800,100.0900
208.8800,100.5400
208.8629,100.6261
208.8141,100.6991
208.7411,100.7479
208.6550,100.7650
207.9050,100.7650
207.8189,100.7479
207.7459,100.6991
207.6971,100.6261
207.6800,100.5400
207.6800,100.0900
207.6971,100.0039
207.7459,99.9309
207.8189,99.8821
207.9050,99.8650
Z" /> 
<path style="fill:#000000; fill-opacity:1.0000; stroke:none;fill-rule:evenodd;"
d="M 208.6550,103.1650
208.7411,103.1821
208.8141,103.2309
208.8629,103.3039
208.8800,103.3900
208.8800,103.8400
208.8629,103.9261
208.8141,103.9991
208.7411,104.0479
208.6550,104.0650
207.9050,104.0650
207.8189,104.0479
207.7459,103.9991
207.6971,103.9261
207.6800,103.8400
207.6800,103.3900
207.6971,103.3039
207.7459,103.2309
207.8189,103.1821
207.9050,103.1650
Z" /> 
<path style="fill:#000000; fill-opacity:1.0000; stroke:none;fill-rule:evenodd;"
d="M 148.4997,72.5422
148.4807,72.6379
148.4265,72.7190
148.3454,72.7732
148.2497,72.7922
147.6653,72.7922
147.5696,72.7732
147.4885,72.7190
147.4343,72.6379
147.4153,72.5422
147.4153,71.9578
147.4343,71.8621
147.4885,71.7810
147.5696,71.7268
147.6653,71.7078
148.2497,71.7078
148.3454,71.7268
148.4265,71.7810
148.4807,71.8621
148.4997,71.9578
Z" /> 
<path style="fill:#000000; fill-opacity:1.0000; stroke:none;fill-rule:evenodd;"
d="M 148.4997,71.2672
148.4807,71.3629
148.4265,71.4440
148.3454,71.4982
148.2497,71.5172
147.6653,71.5172
147.5696,71.4982
147.4885,71.4440
147.4343,71.3629
147.4153,71.2672
147.4153,70.6828
147.4343,70.5871
147.4885,70.5060
147.5696,70.4518
147.6653,70.4328
148.2497,70.4328
148.3454,70.4518
148.4265,70.5060
148.4807,70.5871
148.4997,70.6828
Z" /> 
<path style="fill:#000000; fill-opacity:1.0000; stroke:none;fill-rule:evenodd;"
d="M 147.2247,72.5422
147.2057,72.6379
147.1515,72.7190
147.0704,72.7732
146.9747,72.7922
146.3903,72.7922
146.2946,72.7732
146.2135,72.7190
146.1593,72.6379
146.1403,72.5422
146.1403,71.9578
146.1593,71.8621
146.2135,71.7810
146.2946,71.7268
146.3903,71.7078
146.9747,71.7078
147.0704,71.7268
147.1515,71.7810
147.2057,71.8621
147.2247,71.9578
Z" /> 
<path style="fill:#000000; fill-opacity:1.0000; stroke:none;fill-rule:evenodd;"
d="M 147.2247,71.2672
147.2057,71.3629
147.1515,71.4440
147.0704,71.4982
146.9747,71.5172
146.3903,71.5172
146.2946,71.4982
146.2135,71.4440
146.1593,71.3629
146.1403,71.2672
146.1403,70.6828
146.1593,70.5871
146.2135,70.5060
146.2946,70.4518
146.3903,70.4328
146.9747,70.4328
147.0704,70.4518
147.1515,70.5060
147.2057,70.5871
147.2247,70.6828
Z" /> 
<path style="fill:#000000; fill-opacity:1.0000; stroke:none;fill-rule:evenodd;"
d="M 151.1950,69.0625
151.1912,69.0816
151.1804,69.0979
151.1641,69.1087
151.1450,69.1125
150.3700,69.1125
150.3509,69.1087
150.3346,69.0979
150.3238,69.0816
150.3200,69.0625
150.3200,68.9625
150.3238,68.9434
150.3346,68.9271
150.3509,68.9163
150.3700,68.9125
151.1450,68.9125
151.1641,68.9163
151.1804,68.9271
151.1912,68.9434
151.1950,68.9625
Z" /> 
<path style="fill:#000000; fill-opacity:1.0000; stroke:none;fill-rule:evenodd;"
d="M 151.1950,69.4625
151.1912,69.4816
151.1804,69.4979
151.1641,69.5087
151.1450,69.5125
150.3700,69.5125
150.3509,69.5087
150.3346,69.4979
150.3238,69.4816
150.3200,69.4625
150.3200,69.3625
150.3238,69.3434
150.3346,69.3271
150.3509,69.3163
150.3700,69.3125
151.1450,69.3125
151.1641,69.3163
151.1804,69.3271
151.1912,69.3434
151.1950,69.3625
Z" /> 
<path style="fill:#000000; fill-opacity:1.0000; stroke:none;fill-rule:evenodd;"
d="M 151.1950,69.8625
151.1912,69.8816
151.1804,69.8979
151.1641,69.9087
151.1450,69.9125
150.3700,69.9125
150.3509,69.9087
150.3346,69.8979
150.3238,69.8816
150.3200,69.8625
150.3200,69.7625
150.3238,69.7434
150.3346,69.7271
150.3509,69.7163
150.3700,69.7125
151.1450,69.7125
151.1641,69.7163
151.1804,69.7271
151.1912,69.7434
151.1950,69.7625
Z" /> 
<path style="fill:#000000; fill-opacity:1.0000; stroke:none;fill-rule:evenodd;"
d="M 151.1950,70.2625
151.1912,70.2816
151.1804,70.2979
151.1641,70.3087
151.1450,70.3125
150.3700,70.3125
150.3509,70.3087
150.3346,70.2979
150.3238,70.2816
150.3200,70.2625
150.3200,70.1625
150.3238,70.1434
150.3346,70.1271
150.3509,70.1163
150.3700,70.1125
151.1450,70.1125
151.1641,70.1163
151.1804,70.1271
151.1912,70.1434
151.1950,70.1625
Z" /> 
<path style="fill:#000000; fill-opacity:1.0000; stroke:none;fill-rule:evenodd;"
d="M 151.1950,70.6625
151.1912,70.6816
151.1804,70.6979
151.1641,70.7087
151.1450,70.7125
150.3700,70.7125
150.3509,70.7087
150.3346,70.6979
150.3238,70.6816
150.3200,70.6625
150.3200,70.5625
150.3238,70.5434
150.3346,70.5271
150.3509,70.5163
150.3700,70.5125
151.1450,70.5125
151.1641,70.5163
151.1804,70.5271
151.1912,70.5434
151.1950,70.5625
Z" /> 
<path style="fill:#000000; fill-opacity:1.0000; stroke:none;fill-rule:evenodd;"
d="M 151.1950,71.0625
151.1912,71.0816
151.1804,71.0979
151.1641,71.1087
151.1450,71.1125
150.3700,71.1125
150.3509,71.1087
150.3346,71.0979
150.3238,71.0816
150.3200,71.0625
150.3200,70.9625
150.3238,70.9434
150.3346,70.9271
150.3509,70.9163
150.3700,70.9125
151.1450,70.9125
151.1641,70.9163
151.1804,70.9271
151.1912,70.9434
151.1950,70.9625
Z" /> 
<path style="fill:#000000; fill-opacity:1.0000; stroke:none;fill-rule:evenodd;"
d="M 151.1950,71.4625
151.1912,71.4816
151.1804,71.4979
151.1641,71.5087
151.1450,71.5125
150.3700,71.5125
150.3509,71.5087
150.3346,71.4979
150.3238,71.4816
150.3200,71.4625
150.3200,71.3625
150.3238,71.3434
150.3346,71.3271
150.3509,71.3163
150.3700,71.3125
151.1450,71.3125
151.1641,71.3163
151.1804,71.3271
151.1912,71.3434
151.1950,71.3625
Z" /> 
<path style="fill:#000000; fill-opacity:1.0000; stroke:none;fill-rule:evenodd;"
d="M 151.1950,71.8625
151.1912,71.8816
151.1804,71.8979
151.1641,71.9087
151.1450,71.9125
150.3700,71.9125
150.3509,71.9087
150.3346,71.8979
150.3238,71.8816
150.3200,71.8625
150.3200,71.7625
150.3238,71.7434
150.3346,71.7271
150.3509,71.7163
150.3700,71.7125
151.1450,71.7125
151.1641,71.7163
151.1804,71.7271
151.1912,71.7434
151.1950,71.7625
Z" /> 
<path style="fill:#000000; fill-opacity:1.0000; stroke:none;fill-rule:evenodd;"
d="M 151.1950,72.2625
151.1912,72.2816
151.1804,72.2979
151.1641,72.3087
151.1450,72.3125
150.3700,72.3125
150.3509,72.3087
150.3346,72.2979
150.3238,72.2816
150.3200,72.2625
150.3200,72.1625
150.3238,72.1434
150.3346,72.1271
150.3509,72.1163
150.3700,72.1125
151.1450,72.1125
151.1641,72.1163
151.1804,72.1271
151.1912,72.1434
151.1950,72.1625
Z" /> 
<path style="fill:#000000; fill-opacity:1.0000; stroke:none;fill-rule:evenodd;"
d="M 151.1950,72.6625
151.1912,72.6816
151.1804,72.6979
151.1641,72.7087
151.1450,72.7125
150.3700,72.7125
150.3509,72.7087
150.3346,72.6979
150.3238,72.6816
150.3200,72.6625
150.3200,72.5625
150.3238,72.5434
150.3346,72.5271
150.3509,72.5163
150.3700,72.5125
151.1450,72.5125
151.1641,72.5163
151.1804,72.5271
151.1912,72.5434
151.1950,72.5625
Z" /> 
<path style="fill:#000000; fill-opacity:1.0000; stroke:none;fill-rule:evenodd;"
d="M 151.1950,73.0625
151.1912,73.0816
151.1804,73.0979
151.1641,73.1087
151.1450,73.1125
150.3700,73.1125
150.3509,73.1087
150.3346,73.0979
150.3238,73.0816
150.3200,73.0625
150.3200,72.9625
150.3238,72.9434
150.3346,72.9271
150.3509,72.9163
150.3700,72.9125
151.1450,72.9125
151.1641,72.9163
151.1804,72.9271
151.1912,72.9434
151.1950,72.9625
Z" /> 
<path style="fill:#000000; fill-opacity:1.0000; stroke:none;fill-rule:evenodd;"
d="M 151.1950,73.4625
151.1912,73.4816
151.1804,73.4979
151.1641,73.5087
151.1450,73.5125
150.3700,73.5125
150.3509,73.5087
150.3346,73.4979
150.3238,73.4816
150.3200,73.4625
150.3200,73.3625
150.3238,73.3434
150.3346,73.3271
150.3509,73.3163
150.3700,73.3125
151.1450,73.3125
151.1641,73.3163
151.1804,73.3271
151.1912,73.3434
151.1950,73.3625
Z" /> 
<path style="fill:#000000; fill-opacity:1.0000; stroke:none;fill-rule:evenodd;"
d="M 151.1950,73.8625
151.1912,73.8816
151.1804,73.8979
151.1641,73.9087
151.1450,73.9125
150.3700,73.9125
150.3509,73.9087
150.3346,73.8979
150.3238,73.8816
150.3200,73.8625
150.3200,73.7625
150.3238,73.7434
150.3346,73.7271
150.3509,73.7163
150.3700,73.7125
151.1450,73.7125
151.1641,73.7163
151.1804,73.7271
151.1912,73.7434
151.1950,73.7625
Z" /> 
<path style="fill:#000000; fill-opacity:1.0000; stroke:none;fill-rule:evenodd;"
d="M 151.1950,74.2625
151.1912,74.2816
151.1804,74.2979
151.1641,74.3087
151.1450,74.3125
150.3700,74.3125
150.3509,74.3087
150.3346,74.2979
150.3238,74.2816
150.3200,74.2625
150.3200,74.1625
150.3238,74.1434
150.3346,74.1271
150.3509,74.1163
150.3700,74.1125
151.1450,74.1125
151.1641,74.1163
151.1804,74.1271
151.1912,74.1434
151.1950,74.1625
Z" /> 
<path style="fill:#000000; fill-opacity:1.0000; stroke:none;fill-rule:evenodd;"
d="M 150.0200,75.4375
150.0162,75.4566
150.0054,75.4729
149.9891,75.4837
149.9700,75.4875
149.8700,75.4875
149.8509,75.4837
149.8346,75.4729
149.8238,75.4566
149.8200,75.4375
149.8200,74.6625
149.8238,74.6434
149.8346,74.6271
149.8509,74.6163
149.8700,74.6125
149.9700,74.6125
149.9891,74.6163
150.0054,74.6271
150.0162,74.6434
150.0200,74.6625
Z" /> 
<path style="fill:#000000; fill-opacity:1.0000; stroke:none;fill-rule:evenodd;"
d="M 149.6200,75.4375
149.6162,75.4566
149.6054,75.4729
149.5891,75.4837
149.5700,75.4875
149.4700,75.4875
149.4509,75.4837
149.4346,75.4729
149.4238,75.4566
149.4200,75.4375
149.4200,74.6625
149.4238,74.6434
149.4346,74.6271
149.4509,74.6163
149.4700,74.6125
149.5700,74.6125
149.5891,74.6163
149.6054,74.6271
149.6162,74.6434
149.6200,74.6625
Z" /> 
<path style="fill:#000000; fill-opacity:1.0000; stroke:none;fill-rule:evenodd;"
d="M 149.2200,75.4375
149.2162,75.4566
149.2054,75.4729
149.1891,75.4837
149.1700,75.4875
149.0700,75.4875
149.0509,75.4837
149.0346,75.4729
149.0238,75.4566
149.0200,75.4375
149.0200,74.6625
149.0238,74.6434
149.0346,74.6271
149.0509,74.6163
149.0700,74.6125
149.1700,74.6125
149.1891,74.6163
149.2054,74.6271
149.2162,74.6434
149.2200,74.6625
Z" /> 
<path style="fill:#000000; fill-opacity:1.0000; stroke:none;fill-rule:evenodd;"
d="M 148.8200,75.4375
148.8162,75.4566
148.8054,75.4729
148.7891,75.4837
148.7700,75.4875
148.6700,75.4875
148.6509,75.4837
148.6346,75.4729
148.6238,75.4566
148.6200,75.4375
148.6200,74.6625
148.6238,74.6434
148.6346,74.6271
148.6509,74.6163
148.6700,74.6125
148.7700,74.6125
148.7891,74.6163
148.8054,74.6271
148.8162,74.6434
148.8200,74.6625
Z" /> 
<path style="fill:#000000; fill-opacity:1.0000; stroke:none;fill-rule:evenodd;"
d="M 148.4200,75.4375
148.4162,75.4566
148.4054,75.4729
148.3891,75.4837
148.3700,75.4875
148.2700,75.4875
148.2509,75.4837
148.2346,75.4729
148.2238,75.4566
148.2200,75.4375
148.2200,74.6625
148.2238,74.6434
148.2346,74.6271
148.2509,74.6163
148.2700,74.6125
148.3700,74.6125
148.3891,74.6163
148.4054,74.6271
148.4162,74.6434
148.4200,74.6625
Z" /> 
<path style="fill:#000000; fill-opacity:1.0000; stroke:none;fill-rule:evenodd;"
d="M 148.0200,75.4375
148.0162,75.4566
148.0054,75.4729
147.9891,75.4837
147.9700,75.4875
147.8700,75.4875
147.8509,75.4837
147.8346,75.4729
147.8238,75.4566
147.8200,75.4375
147.8200,74.6625
147.8238,74.6434
147.8346,74.6271
147.8509,74.6163
147.8700,74.6125
147.9700,74.6125
147.9891,74.6163
148.0054,74.6271
148.0162,74.6434
148.0200,74.6625
Z" /> 
<path style="fill:#000000; fill-opacity:1.0000; stroke:none;fill-rule:evenodd;"
d="M 147.6200,75.4375
147.6162,75.4566
147.6054,75.4729
147.5891,75.4837
147.5700,75.4875
147.4700,75.4875
147.4509,75.4837
147.4346,75.4729
147.4238,75.4566
147.4200,75.4375
147.4200,74.6625
147.4238,74.6434
147.4346,74.6271
147.4509,74.6163
147.4700,74.6125
147.5700,74.6125
147.5891,74.6163
147.6054,74.6271
147.6162,74.6434
147.6200,74.6625
Z" /> 
<path style="fill:#000000; fill-opacity:1.0000; stroke:none;fill-rule:evenodd;"
d="M 147.2200,75.4375
147.2162,75.4566
147.2054,75.4729
147.1891,75.4837
147.1700,75.4875
147.0700,75.4875
147.0509,75.4837
147.0346,75.4729
147.0238,75.4566
147.0200,75.4375
147.0200,74.6625
147.0238,74.6434
147.0346,74.6271
147.0509,74.6163
147.0700,74.6125
147.1700,74.6125
147.1891,74.6163
147.2054,74.6271
147.2162,74.6434
147.2200,74.6625
Z" /> 
<path style="fill:#000000; fill-opacity:1.0000; stroke:none;fill-rule:evenodd;"
d="M 146.8200,75.4375
146.8162,75.4566
146.8054,75.4729
146.7891,75.4837
146.7700,75.4875
146.6700,75.4875
146.6509,75.4837
146.6346,75.4729
146.6238,75.4566
146.6200,75.4375
146.6200,74.6625
146.6238,74.6434
146.6346,74.6271
146.6509,74.6163
146.6700,74.6125
146.7700,74.6125
146.7891,74.6163
146.8054,74.6271
146.8162,74.6434
146.8200,74.6625
Z" /> 
<path style="fill:#000000; fill-opacity:1.0000; stroke:none;fill-rule:evenodd;"
d="M 146.4200,75.4375
146.4162,75.4566
146.4054,75.4729
146.3891,75.4837
146.3700,75.4875
146.2700,75.4875
146.2509,75.4837
146.2346,75.4729
146.2238,75.4566
146.2200,75.4375
146.2200,74.6625
146.2238,74.6434
146.2346,74.6271
146.2509,74.6163
146.2700,74.6125
146.3700,74.6125
146.3891,74.6163
146.4054,74.6271
146.4162,74.6434
146.4200,74.6625
Z" /> 
<path style="fill:#000000; fill-opacity:1.0000; stroke:none;fill-rule:evenodd;"
d="M 146.0200,75.4375
146.0162,75.4566
146.0054,75.4729
145.9891,75.4837
145.9700,75.4875
145.8700,75.4875
145.8509,75.4837
145.8346,75.4729
145.8238,75.4566
145.8200,75.4375
145.8200,74.6625
145.8238,74.6434
145.8346,74.6271
145.8509,74.6163
145.8700,74.6125
145.9700,74.6125
145.9891,74.6163
146.0054,74.6271
146.0162,74.6434
146.0200,74.6625
Z" /> 
<path style="fill:#000000; fill-opacity:1.0000; stroke:none;fill-rule:evenodd;"
d="M 145.6200,75.4375
145.6162,75.4566
145.6054,75.4729
145.5891,75.4837
145.5700,75.4875
145.4700,75.4875
145.4509,75.4837
145.4346,75.4729
145.4238,75.4566
145.4200,75.4375
145.4200,74.6625
145.4238,74.6434
145.4346,74.6271
145.4509,74.6163
145.4700,74.6125
145.5700,74.6125
145.5891,74.6163
145.6054,74.6271
145.6162,74.6434
145.6200,74.6625
Z" /> 
<path style="fill:#000000; fill-opacity:1.0000; stroke:none;fill-rule:evenodd;"
d="M 145.2200,75.4375
145.2162,75.4566
145.2054,75.4729
145.1891,75.4837
145.1700,75.4875
145.0700,75.4875
145.0509,75.4837
145.0346,75.4729
145.0238,75.4566
145.0200,75.4375
145.0200,74.6625
145.0238,74.6434
145.0346,74.6271
145.0509,74.6163
145.0700,74.6125
145.1700,74.6125
145.1891,74.6163
145.2054,74.6271
145.2162,74.6434
145.2200,74.6625
Z" /> 
<path style="fill:#000000; fill-opacity:1.0000; stroke:none;fill-rule:evenodd;"
d="M 144.8200,75.4375
144.8162,75.4566
144.8054,75.4729
144.7891,75.4837
144.7700,75.4875
144.6700,75.4875
144.6509,75.4837
144.6346,75.4729
144.6238,75.4566
144.6200,75.4375
144.6200,74.6625
144.6238,74.6434
144.6346,74.6271
144.6509,74.6163
144.6700,74.6125
144.7700,74.6125
144.7891,74.6163
144.8054,74.6271
144.8162,74.6434
144.8200,74.6625
Z" /> 
<path style="fill:#000000; fill-opacity:1.0000; stroke:none;fill-rule:evenodd;"
d="M 144.3200,74.2625
144.3162,74.2816
144.3054,74.2979
144.2891,74.3087
144.2700,74.3125
143.4950,74.3125
143.4759,74.3087
143.4596,74.2979
143.4488,74.2816
143.4450,74.2625
143.4450,74.1625
143.4488,74.1434
143.4596,74.1271
143.4759,74.1163
143.4950,74.1125
144.2700,74.1125
144.2891,74.1163
144.3054,74.1271
144.3162,74.1434
144.3200,74.1625
Z" /> 
<path style="fill:#000000; fill-opacity:1.0000; stroke:none;fill-rule:evenodd;"
d="M 144.3200,73.8625
144.3162,73.8816
144.3054,73.8979
144.2891,73.9087
144.2700,73.9125
143.4950,73.9125
143.4759,73.9087
143.4596,73.8979
143.4488,73.8816
143.4450,73.8625
143.4450,73.7625
143.4488,73.7434
143.4596,73.7271
143.4759,73.7163
143.4950,73.7125
144.2700,73.7125
144.2891,73.7163
144.3054,73.7271
144.3162,73.7434
144.3200,73.7625
Z" /> 
<path style="fill:#000000; fill-opacity:1.0000; stroke:none;fill-rule:evenodd;"
d="M 144.3200,73.4625
144.3162,73.4816
144.3054,73.4979
144.2891,73.5087
144.2700,73.5125
143.4950,73.5125
143.4759,73.5087
143.4596,73.4979
143.4488,73.4816
143.4450,73.4625
143.4450,73.3625
143.4488,73.3434
143.4596,73.3271
143.4759,73.3163
143.4950,73.3125
144.2700,73.3125
144.2891,73.3163
144.3054,73.3271
144.3162,73.3434
144.3200,73.3625
Z" /> 
<path style="fill:#000000; fill-opacity:1.0000; stroke:none;fill-rule:evenodd;"
d="M 144.3200,73.0625
144.3162,73.0816
144.3054,73.0979
144.2891,73.1087
144.2700,73.1125
143.4950,73.1125
143.4759,73.1087
143.4596,73.0979
143.4488,73.0816
143.4450,73.0625
143.4450,72.9625
143.4488,72.9434
143.4596,72.9271
143.4759,72.9163
143.4950,72.9125
144.2700,72.9125
144.2891,72.9163
144.3054,72.9271
144.3162,72.9434
144.3200,72.9625
Z" /> 
<path style="fill:#000000; fill-opacity:1.0000; stroke:none;fill-rule:evenodd;"
d="M 144.3200,72.6625
144.3162,72.6816
144.3054,72.6979
144.2891,72.7087
144.2700,72.7125
143.4950,72.7125
143.4759,72.7087
143.4596,72.6979
143.4488,72.6816
143.4450,72.6625
143.4450,72.5625
143.4488,72.5434
143.4596,72.5271
143.4759,72.5163
143.4950,72.5125
144.2700,72.5125
144.2891,72.5163
144.3054,72.5271
144.3162,72.5434
144.3200,72.5625
Z" /> 
<path style="fill:#000000; fill-opacity:1.0000; stroke:none;fill-rule:evenodd;"
d="M 144.3200,72.2625
144.3162,72.2816
144.3054,72.2979
144.2891,72.3087
144.2700,72.3125
143.4950,72.3125
143.4759,72.3087
143.4596,72.2979
143.4488,72.2816
143.4450,72.2625
143.4450,72.1625
143.4488,72.1434
143.4596,72.1271
143.4759,72.1163
143.4950,72.1125
144.2700,72.1125
144.2891,72.1163
144.3054,72.1271
144.3162,72.1434
144.3200,72.1625
Z" /> 
<path style="fill:#000000; fill-opacity:1.0000; stroke:none;fill-rule:evenodd;"
d="M 144.3200,71.8625
144.3162,71.8816
144.3054,71.8979
144.2891,71.9087
144.2700,71.9125
143.4950,71.9125
143.4759,71.9087
143.4596,71.8979
143.4488,71.8816
143.4450,71.8625
143.4450,71.7625
143.4488,71.7434
143.4596,71.7271
143.4759,71.7163
143.4950,71.7125
144.2700,71.7125
144.2891,71.7163
144.3054,71.7271
144.3162,71.7434
144.3200,71.7625
Z" /> 
<path style="fill:#000000; fill-opacity:1.0000; stroke:none;fill-rule:evenodd;"
d="M 144.3200,71.4625
144.3162,71.4816
144.3054,71.4979
144.2891,71.5087
144.2700,71.5125
143.4950,71.5125
143.4759,71.5087
143.4596,71.4979
143.4488,71.4816
143.4450,71.4625
143.4450,71.3625
143.4488,71.3434
143.4596,71.3271
143.4759,71.3163
143.4950,71.3125
144.2700,71.3125
144.2891,71.3163
144.3054,71.3271
144.3162,71.3434
144.3200,71.3625
Z" /> 
<path style="fill:#000000; fill-opacity:1.0000; stroke:none;fill-rule:evenodd;"
d="M 144.3200,71.0625
144.3162,71.0816
144.3054,71.0979
144.2891,71.1087
144.2700,71.1125
143.4950,71.1125
143.4759,71.1087
143.4596,71.0979
143.4488,71.0816
143.4450,71.0625
143.4450,70.9625
143.4488,70.9434
143.4596,70.9271
143.4759,70.9163
143.4950,70.9125
144.2700,70.9125
144.2891,70.9163
144.3054,70.9271
144.3162,70.9434
144.3200,70.9625
Z" /> 
<path style="fill:#000000; fill-opacity:1.0000; stroke:none;fill-rule:evenodd;"
d="M 144.3200,70.6625
144.3162,70.6816
144.3054,70.6979
144.2891,70.7087
144.2700,70.7125
143.4950,70.7125
143.4759,70.7087
143.4596,70.6979
143.4488,70.6816
143.4450,70.6625
143.4450,70.5625
143.4488,70.5434
143.4596,70.5271
143.4759,70.5163
143.4950,70.5125
144.2700,70.5125
144.2891,70.5163
144.3054,70.5271
144.3162,70.5434
144.3200,70.5625
Z" /> 
<path style="fill:#000000; fill-opacity:1.0000; stroke:none;fill-rule:evenodd;"
d="M 144.3200,70.2625
144.3162,70.2816
144.3054,70.2979
144.2891,70.3087
144.2700,70.3125
143.4950,70.3125
143.4759,70.3087
143.4596,70.2979
143.4488,70.2816
143.4450,70.2625
143.4450,70.1625
143.4488,70.1434
143.4596,70.1271
143.4759,70.1163
143.4950,70.1125
144.2700,70.1125
144.2891,70.1163
144.3054,70.1271
144.3162,70.1434
144.3200,70.1625
Z" /> 
<path style="fill:#000000; fill-opacity:1.0000; stroke:none;fill-rule:evenodd;"
d="M 144.3200,69.8625
144.3162,69.8816
144.3054,69.8979
144.2891,69.9087
144.2700,69.9125
143.4950,69.9125
143.4759,69.9087
143.4596,69.8979
143.4488,69.8816
143.4450,69.8625
143.4450,69.7625
143.4488,69.7434
143.4596,69.7271
143.4759,69.7163
143.4950,69.7125
144.2700,69.7125
144.2891,69.7163
144.3054,69.7271
144.3162,69.7434
144.3200,69.7625
Z" /> 
<path style="fill:#000000; fill-opacity:1.0000; stroke:none;fill-rule:evenodd;"
d="M 144.3200,69.4625
144.3162,69.4816
144.3054,69.4979
144.2891,69.5087
144.2700,69.5125
143.4950,69.5125
143.4759,69.5087
143.4596,69.4979
143.4488,69.4816
143.4450,69.4625
143.4450,69.3625
143.4488,69.3434
143.4596,69.3271
143.4759,69.3163
143.4950,69.3125
144.2700,69.3125
144.2891,69.3163
144.3054,69.3271
144.3162,69.3434
144.3200,69.3625
Z" /> 
<path style="fill:#000000; fill-opacity:1.0000; stroke:none;fill-rule:evenodd;"
d="M 144.3200,69.0625
144.3162,69.0816
144.3054,69.0979
144.2891,69.1087
144.2700,69.1125
143.4950,69.1125
143.4759,69.1087
143.4596,69.0979
143.4488,69.0816
143.4450,69.0625
143.4450,68.9625
143.4488,68.9434
143.4596,68.9271
143.4759,68.9163
143.4950,68.9125
144.2700,68.9125
144.2891,68.9163
144.3054,68.9271
144.3162,68.9434
144.3200,68.9625
Z" /> 
<path style="fill:#000000; fill-opacity:1.0000; stroke:none;fill-rule:evenodd;"
d="M 144.8200,68.5625
144.8162,68.5816
144.8054,68.5979
144.7891,68.6087
144.7700,68.6125
144.6700,68.6125
144.6509,68.6087
144.6346,68.5979
144.6238,68.5816
144.6200,68.5625
144.6200,67.7875
144.6238,67.7684
144.6346,67.7521
144.6509,67.7413
144.6700,67.7375
144.7700,67.7375
144.7891,67.7413
144.8054,67.7521
144.8162,67.7684
144.8200,67.7875
Z" /> 
<path style="fill:#000000; fill-opacity:1.0000; stroke:none;fill-rule:evenodd;"
d="M 145.2200,68.5625
145.2162,68.5816
145.2054,68.5979
145.1891,68.6087
145.1700,68.6125
145.0700,68.6125
145.0509,68.6087
145.0346,68.5979
145.0238,68.5816
145.0200,68.5625
145.0200,67.7875
145.0238,67.7684
145.0346,67.7521
145.0509,67.7413
145.0700,67.7375
145.1700,67.7375
145.1891,67.7413
145.2054,67.7521
145.2162,67.7684
145.2200,67.7875
Z" /> 
<path style="fill:#000000; fill-opacity:1.0000; stroke:none;fill-rule:evenodd;"
d="M 145.6200,68.5625
145.6162,68.5816
145.6054,68.5979
145.5891,68.6087
145.5700,68.6125
145.4700,68.6125
145.4509,68.6087
145.4346,68.5979
145.4238,68.5816
145.4200,68.5625
145.4200,67.7875
145.4238,67.7684
145.4346,67.7521
145.4509,67.7413
145.4700,67.7375
145.5700,67.7375
145.5891,67.7413
145.6054,67.7521
145.6162,67.7684
145.6200,67.7875
Z" /> 
<path style="fill:#000000; fill-opacity:1.0000; stroke:none;fill-rule:evenodd;"
d="M 146.0200,68.5625
146.0162,68.5816
146.0054,68.5979
145.9891,68.6087
145.9700,68.6125
145.8700,68.6125
145.8509,68.6087
145.8346,68.5979
145.8238,68.5816
145.8200,68.5625
145.8200,67.7875
145.8238,67.7684
145.8346,67.7521
145.8509,67.7413
145.8700,67.7375
145.9700,67.7375
145.9891,67.7413
146.0054,67.7521
146.0162,67.7684
146.0200,67.7875
Z" /> 
<path style="fill:#000000; fill-opacity:1.0000; stroke:none;fill-rule:evenodd;"
d="M 146.4200,68.5625
146.4162,68.5816
146.4054,68.5979
146.3891,68.6087
146.3700,68.6125
146.2700,68.6125
146.2509,68.6087
146.2346,68.5979
146.2238,68.5816
146.2200,68.5625
146.2200,67.7875
146.2238,67.7684
146.2346,67.7521
146.2509,67.7413
146.2700,67.7375
146.3700,67.7375
146.3891,67.7413
146.4054,67.7521
146.4162,67.7684
146.4200,67.7875
Z" /> 
<path style="fill:#000000; fill-opacity:1.0000; stroke:none;fill-rule:evenodd;"
d="M 146.8200,68.5625
146.8162,68.5816
146.8054,68.5979
146.7891,68.6087
146.7700,68.6125
146.6700,68.6125
146.6509,68.6087
146.6346,68.5979
146.6238,68.5816
146.6200,68.5625
146.6200,67.7875
146.6238,67.7684
146.6346,67.7521
146.6509,67.7413
146.6700,67.7375
146.7700,67.7375
146.7891,67.7413
146.8054,67.7521
146.8162,67.7684
146.8200,67.7875
Z" /> 
<path style="fill:#000000; fill-opacity:1.0000; stroke:none;fill-rule:evenodd;"
d="M 147.2200,68.5625
147.2162,68.5816
147.2054,68.5979
147.1891,68.6087
147.1700,68.6125
147.0700,68.6125
147.0509,68.6087
147.0346,68.5979
147.0238,68.5816
147.0200,68.5625
147.0200,67.7875
147.0238,67.7684
147.0346,67.7521
147.0509,67.7413
147.0700,67.7375
147.1700,67.7375
147.1891,67.7413
147.2054,67.7521
147.2162,67.7684
147.2200,67.7875
Z" /> 
<path style="fill:#000000; fill-opacity:1.0000; stroke:none;fill-rule:evenodd;"
d="M 147.6200,68.5625
147.6162,68.5816
147.6054,68.5979
147.5891,68.6087
147.5700,68.6125
147.4700,68.6125
147.4509,68.6087
147.4346,68.5979
147.4238,68.5816
147.4200,68.5625
147.4200,67.7875
147.4238,67.7684
147.4346,67.7521
147.4509,67.7413
147.4700,67.7375
147.5700,67.7375
147.5891,67.7413
147.6054,67.7521
147.6162,67.7684
147.6200,67.7875
Z" /> 
<path style="fill:#000000; fill-opacity:1.0000; stroke:none;fill-rule:evenodd;"
d="M 148.0200,68.5625
148.0162,68.5816
148.0054,68.5979
147.9891,68.6087
147.9700,68.6125
147.8700,68.6125
147.8509,68.6087
147.8346,68.5979
147.8238,68.5816
147.8200,68.5625
147.8200,67.7875
147.8238,67.7684
147.8346,67.7521
147.8509,67.7413
147.8700,67.7375
147.9700,67.7375
147.9891,67.7413
148.0054,67.7521
148.0162,67.7684
148.0200,67.7875
Z" /> 
<path style="fill:#000000; fill-opacity:1.0000; stroke:none;fill-rule:evenodd;"
d="M 148.4200,68.5625
148.4162,68.5816
148.4054,68.5979
148.3891,68.6087
148.3700,68.6125
148.2700,68.6125
148.2509,68.6087
148.2346,68.5979
148.2238,68.5816
148.2200,68.5625
148.2200,67.7875
148.2238,67.7684
148.2346,67.7521
148.2509,67.7413
148.2700,67.7375
148.3700,67.7375
148.3891,67.7413
148.4054,67.7521
148.4162,67.7684
148.4200,67.7875
Z" /> 
<path style="fill:#000000; fill-opacity:1.0000; stroke:none;fill-rule:evenodd;"
d="M 148.8200,68.5625
148.8162,68.5816
148.8054,68.5979
148.7891,68.6087
148.7700,68.6125
148.6700,68.6125
148.6509,68.6087
148.6346,68.5979
148.6238,68.5816
148.6200,68.5625
148.6200,67.7875
148.6238,67.7684
148.6346,67.7521
148.6509,67.7413
148.6700,67.7375
148.7700,67.7375
148.7891,67.7413
148.8054,67.7521
148.8162,67.7684
148.8200,67.7875
Z" /> 
<path style="fill:#000000; fill-opacity:1.0000; stroke:none;fill-rule:evenodd;"
d="M 149.2200,68.5625
149.2162,68.5816
149.2054,68.5979
149.1891,68.6087
149.1700,68.6125
149.0700,68.6125
149.0509,68.6087
149.0346,68.5979
149.0238,68.5816
149.0200,68.5625
149.0200,67.7875
149.0238,67.7684
149.0346,67.7521
149.0509,67.7413
149.0700,67.7375
149.1700,67.7375
149.1891,67.7413
149.2054,67.7521
149.2162,67.7684
149.2200,67.7875
Z" /> 
<path style="fill:#000000; fill-opacity:1.0000; stroke:none;fill-rule:evenodd;"
d="M 149.6200,68.5625
149.6162,68.5816
149.6054,68.5979
149.5891,68.6087
149.5700,68.6125
149.4700,68.6125
149.4509,68.6087
149.4346,68.5979
149.4238,68.5816
149.4200,68.5625
149.4200,67.7875
149.4238,67.7684
149.4346,67.7521
149.4509,67.7413
149.4700,67.7375
149.5700,67.7375
149.5891,67.7413
149.6054,67.7521
149.6162,67.7684
149.6200,67.7875
Z" /> 
<path style="fill:#000000; fill-opacity:1.0000; stroke:none;fill-rule:evenodd;"
d="M 150.0200,68.5625
150.0162,68.5816
150.0054,68.5979
149.9891,68.6087
149.9700,68.6125
149.8700,68.6125
149.8509,68.6087
149.8346,68.5979
149.8238,68.5816
149.8200,68.5625
149.8200,67.7875
149.8238,67.7684
149.8346,67.7521
149.8509,67.7413
149.8700,67.7375
149.9700,67.7375
149.9891,67.7413
150.0054,67.7521
150.0162,67.7684
150.0200,67.7875
Z" /> 
<path style="fill:#000000; fill-opacity:1.0000; stroke:none;fill-rule:evenodd;"
d="M 66.4197,99.8640
66.5058,99.8811
66.5788,99.9299
66.6276,100.0029
66.6447,100.0890
66.6447,100.5390
66.6276,100.6251
66.5788,100.6981
66.5058,100.7469
66.4197,100.7640
65.6697,100.7640
65.5836,100.7469
65.5106,100.6981
65.4618,100.6251
65.4447,100.5390
65.4447,100.0890
65.4618,100.0029
65.5106,99.9299
65.5836,99.8811
65.6697,99.8640
Z" /> 
<path style="fill:#000000; fill-opacity:1.0000; stroke:none;fill-rule:evenodd;"
d="M 66.4150,103.1650
66.5011,103.1821
66.5741,103.2309
66.6229,103.3039
66.6400,103.3900
66.6400,103.8400
66.6229,103.9261
66.5741,103.9991
66.5011,104.0479
66.4150,104.0650
65.6650,104.0650
65.5789,104.0479
65.5059,103.9991
65.4571,103.9261
65.4400,103.8400
65.4400,103.3900
65.4571,103.3039
65.5059,103.2309
65.5789,103.1821
65.6650,103.1650
Z" /> 
<path style="fill:#000000; fill-opacity:1.0000; stroke:none;fill-rule:evenodd;"
d="M 144.1078,66.3267
144.0543,66.3160
144.0088,66.2857
143.9785,66.2402
143.9678,66.1867
143.9678,65.9067
143.9785,65.8531
144.0088,65.8077
144.0543,65.7773
144.1078,65.7667
144.4478,65.7667
144.5014,65.7773
144.5468,65.8077
144.5772,65.8531
144.5878,65.9067
144.5878,66.1867
144.5772,66.2402
144.5468,66.2857
144.5014,66.3160
144.4478,66.3267
Z" /> 
<path style="fill:#000000; fill-opacity:1.0000; stroke:none;fill-rule:evenodd;"
d="M 144.1078,65.3667
144.0543,65.3560
144.0088,65.3257
143.9785,65.2802
143.9678,65.2267
143.9678,64.9467
143.9785,64.8931
144.0088,64.8477
144.0543,64.8173
144.1078,64.8067
144.4478,64.8067
144.5014,64.8173
144.5468,64.8477
144.5772,64.8931
144.5878,64.9467
144.5878,65.2267
144.5772,65.2802
144.5468,65.3257
144.5014,65.3560
144.4478,65.3667
Z" /> 
<path style="fill:#000000; fill-opacity:1.0000; stroke:none;fill-rule:evenodd;"
d="M 142.2152,67.2607
142.2045,67.3142
142.1742,67.3597
142.1288,67.3900
142.0752,67.4007
141.7952,67.4007
141.7416,67.3900
141.6962,67.3597
141.6659,67.3142
141.6552,67.2607
141.6552,66.9207
141.6659,66.8671
141.6962,66.8217
141.7416,66.7913
141.7952,66.7807
142.0752,66.7807
142.1288,66.7913
142.1742,66.8217
142.2045,66.8671
142.2152,66.9207
Z" /> 
<path style="fill:#000000; fill-opacity:1.0000; stroke:none;fill-rule:evenodd;"
d="M 141.2552,67.2607
141.2445,67.3142
141.2142,67.3597
141.1688,67.3900
141.1152,67.4007
140.8352,67.4007
140.7816,67.3900
140.7362,67.3597
140.7059,67.3142
140.6952,67.2607
140.6952,66.9207
140.7059,66.8671
140.7362,66.8217
140.7816,66.7913
140.8352,66.7807
141.1152,66.7807
141.1688,66.7913
141.2142,66.8217
141.2445,66.8671
141.2552,66.9207
Z" /> 
<path style="fill:#000000; fill-opacity:1.0000; stroke:none;fill-rule:evenodd;"
d="M 148.9130,57.1520
148.8613,57.1417
148.8175,57.1125
148.7883,57.0687
148.7780,57.0170
148.7780,56.7470
148.7883,56.6953
148.8175,56.6515
148.8613,56.6223
148.9130,56.6120
149.2830,56.6120
149.3347,56.6223
149.3785,56.6515
149.4077,56.6953
149.4180,56.7470
149.4180,57.0170
149.4077,57.0687
149.3785,57.1125
149.3347,57.1417
149.2830,57.1520
Z" /> 
<path style="fill:#000000; fill-opacity:1.0000; stroke:none;fill-rule:evenodd;"
d="M 148.9130,56.1320
148.8613,56.1217
148.8175,56.0925
148.7883,56.0487
148.7780,55.9970
148.7780,55.7270
148.7883,55.6753
148.8175,55.6315
148.8613,55.6023
148.9130,55.5920
149.2830,55.5920
149.3347,55.6023
149.3785,55.6315
149.4077,55.6753
149.4180,55.7270
149.4180,55.9970
149.4077,56.0487
149.3785,56.0925
149.3347,56.1217
149.2830,56.1320
Z" /> 
<path style="fill:#000000; fill-opacity:1.0000; stroke:none;fill-rule:evenodd;"
d="M 86.7350,99.8650
86.8211,99.8821
86.8941,99.9309
86.9429,100.0039
86.9600,100.0900
86.9600,100.5400
86.9429,100.6261
86.8941,100.6991
86.8211,100.7479
86.7350,100.7650
85.9850,100.7650
85.8989,100.7479
85.8259,100.6991
85.7771,100.6261
85.7600,100.5400
85.7600,100.0900
85.7771,100.0039
85.8259,99.9309
85.8989,99.8821
85.9850,99.8650
Z" /> 
<path style="fill:#000000; fill-opacity:1.0000; stroke:none;fill-rule:evenodd;"
d="M 86.7350,103.1650
86.8211,103.1821
86.8941,103.2309
86.9429,103.3039
86.9600,103.3900
86.9600,103.8400
86.9429,103.9261
86.8941,103.9991
86.8211,104.0479
86.7350,104.0650
85.9850,104.0650
85.8989,104.0479
85.8259,103.9991
85.7771,103.9261
85.7600,103.8400
85.7600,103.3900
85.7771,103.3039
85.8259,103.2309
85.8989,103.1821
85.9850,103.1650
Z" /> 
<path style="fill:#000000; fill-opacity:1.0000; stroke:none;fill-rule:evenodd;"
d="M 146.4948,64.7847
146.5465,64.7949
146.5903,64.8242
146.6196,64.8680
146.6298,64.9197
146.6298,65.1897
146.6196,65.2413
146.5903,65.2851
146.5465,65.3144
146.4948,65.3247
146.1248,65.3247
146.0732,65.3144
146.0294,65.2851
146.0001,65.2413
145.9898,65.1897
145.9898,64.9197
146.0001,64.8680
146.0294,64.8242
146.0732,64.7949
146.1248,64.7847
Z" /> 
<path style="fill:#000000; fill-opacity:1.0000; stroke:none;fill-rule:evenodd;"
d="M 146.4948,65.8047
146.5465,65.8149
146.5903,65.8442
146.6196,65.8880
146.6298,65.9397
146.6298,66.2097
146.6196,66.2613
146.5903,66.3051
146.5465,66.3344
146.4948,66.3447
146.1248,66.3447
146.0732,66.3344
146.0294,66.3051
146.0001,66.2613
145.9898,66.2097
145.9898,65.9397
146.0001,65.8880
146.0294,65.8442
146.0732,65.8149
146.1248,65.8047
Z" /> 
<path style="fill:#000000; fill-opacity:1.0000; stroke:none;fill-rule:evenodd;"
d="M 133.9270,76.2020
133.8753,76.1917
133.8315,76.1625
133.8023,76.1187
133.7920,76.0670
133.7920,75.7970
133.8023,75.7453
133.8315,75.7015
133.8753,75.6723
133.9270,75.6620
134.2970,75.6620
134.3487,75.6723
134.3925,75.7015
134.4217,75.7453
134.4320,75.7970
134.4320,76.0670
134.4217,76.1187
134.3925,76.1625
134.3487,76.1917
134.2970,76.2020
Z" /> 
<path style="fill:#000000; fill-opacity:1.0000; stroke:none;fill-rule:evenodd;"
d="M 133.9270,75.1820
133.8753,75.1717
133.8315,75.1425
133.8023,75.0987
133.7920,75.0470
133.7920,74.7770
133.8023,74.7253
133.8315,74.6815
133.8753,74.6523
133.9270,74.6420
134.2970,74.6420
134.3487,74.6523
134.3925,74.6815
134.4217,74.7253
134.4320,74.7770
134.4320,75.0470
134.4217,75.0987
134.3925,75.1425
134.3487,75.1717
134.2970,75.1820
Z" /> 
<path style="fill:#000000; fill-opacity:1.0000; stroke:none;fill-rule:evenodd;"
d="M 107.0550,140.5050
107.1411,140.5221
107.2141,140.5709
107.2629,140.6439
107.2800,140.7300
107.2800,141.1800
107.2629,141.2661
107.2141,141.3391
107.1411,141.3879
107.0550,141.4050
106.3050,141.4050
106.2189,141.3879
106.1459,141.3391
106.0971,141.2661
106.0800,141.1800
106.0800,140.7300
106.0971,140.6439
106.1459,140.5709
106.2189,140.5221
106.3050,140.5050
Z" /> 
<path style="fill:#000000; fill-opacity:1.0000; stroke:none;fill-rule:evenodd;"
d="M 107.0550,143.8050
107.1411,143.8221
107.2141,143.8709
107.2629,143.9439
107.2800,144.0300
107.2800,144.4800
107.2629,144.5661
107.2141,144.6391
107.1411,144.6879
107.0550,144.7050
106.3050,144.7050
106.2189,144.6879
106.1459,144.6391
106.0971,144.5661
106.0800,144.4800
106.0800,144.0300
106.0971,143.9439
106.1459,143.8709
106.2189,143.8221
106.3050,143.8050
Z" /> 
<path style="fill:#000000; fill-opacity:1.0000; stroke:none;fill-rule:evenodd;"
d="M 66.4150,140.5050
66.5011,140.5221
66.5741,140.5709
66.6229,140.6439
66.6400,140.7300
66.6400,141.1800
66.6229,141.2661
66.5741,141.3391
66.5011,141.3879
66.4150,141.4050
65.6650,141.4050
65.5789,141.3879
65.5059,141.3391
65.4571,141.2661
65.4400,141.1800
65.4400,140.7300
65.4571,140.6439
65.5059,140.5709
65.5789,140.5221
65.6650,140.5050
Z" /> 
<path style="fill:#000000; fill-opacity:1.0000; stroke:none;fill-rule:evenodd;"
d="M 66.4150,143.8050
66.5011,143.8221
66.5741,143.8709
66.6229,143.9439
66.6400,144.0300
66.6400,144.4800
66.6229,144.5661
66.5741,144.6391
66.5011,144.6879
66.4150,144.7050
65.6650,144.7050
65.5789,144.6879
65.5059,144.6391
65.4571,144.5661
65.4400,144.4800
65.4400,144.0300
65.4571,143.9439
65.5059,143.8709
65.5789,143.8221
65.6650,143.8050
Z" /> 
<path style="fill:#000000; fill-opacity:1.0000; stroke:none;fill-rule:evenodd;"
d="M 127.3750,140.5050
127.4611,140.5221
127.5341,140.5709
127.5829,140.6439
127.6000,140.7300
127.6000,141.1800
127.5829,141.2661
127.5341,141.3391
127.4611,141.3879
127.3750,141.4050
126.6250,141.4050
126.5389,141.3879
126.4659,141.3391
126.4171,141.2661
126.4000,141.1800
126.4000,140.7300
126.4171,140.6439
126.4659,140.5709
126.5389,140.5221
126.6250,140.5050
Z" /> 
<path style="fill:#000000; fill-opacity:1.0000; stroke:none;fill-rule:evenodd;"
d="M 127.3750,143.8050
127.4611,143.8221
127.5341,143.8709
127.5829,143.9439
127.6000,144.0300
127.6000,144.4800
127.5829,144.5661
127.5341,144.6391
127.4611,144.6879
127.3750,144.7050
126.6250,144.7050
126.5389,144.6879
126.4659,144.6391
126.4171,144.5661
126.4000,144.4800
126.4000,144.0300
126.4171,143.9439
126.4659,143.8709
126.5389,143.8221
126.6250,143.8050
Z" /> 
<path style="fill:#000000; fill-opacity:1.0000; stroke:none;fill-rule:evenodd;"
d="M 157.8682,55.8145
157.9199,55.8247
157.9637,55.8540
157.9929,55.8978
158.0032,55.9495
158.0032,56.2195
157.9929,56.2711
157.9637,56.3149
157.9199,56.3442
157.8682,56.3545
157.4982,56.3545
157.4465,56.3442
157.4027,56.3149
157.3735,56.2711
157.3632,56.2195
157.3632,55.9495
157.3735,55.8978
157.4027,55.8540
157.4465,55.8247
157.4982,55.8145
Z" /> 
<path style="fill:#000000; fill-opacity:1.0000; stroke:none;fill-rule:evenodd;"
d="M 157.8682,56.8345
157.9199,56.8447
157.9637,56.8740
157.9929,56.9178
158.0032,56.9695
158.0032,57.2395
157.9929,57.2911
157.9637,57.3349
157.9199,57.3642
157.8682,57.3745
157.4982,57.3745
157.4465,57.3642
157.4027,57.3349
157.3735,57.2911
157.3632,57.2395
157.3632,56.9695
157.3735,56.9178
157.4027,56.8740
157.4465,56.8447
157.4982,56.8345
Z" /> 
<path style="fill:#000000; fill-opacity:1.0000; stroke:none;fill-rule:evenodd;"
d="M 147.6824,80.3828
147.6931,80.3292
147.7234,80.2838
147.7688,80.2535
147.8224,80.2428
148.1024,80.2428
148.1560,80.2535
148.2014,80.2838
148.2318,80.3292
148.2424,80.3828
148.2424,80.7228
148.2318,80.7764
148.2014,80.8218
148.1560,80.8521
148.1024,80.8628
147.8224,80.8628
147.7688,80.8521
147.7234,80.8218
147.6931,80.7764
147.6824,80.7228
Z" /> 
<path style="fill:#000000; fill-opacity:1.0000; stroke:none;fill-rule:evenodd;"
d="M 148.6424,80.3828
148.6531,80.3292
148.6834,80.2838
148.7288,80.2535
148.7824,80.2428
149.0624,80.2428
149.1160,80.2535
149.1614,80.2838
149.1918,80.3292
149.2024,80.3828
149.2024,80.7228
149.1918,80.7764
149.1614,80.8218
149.1160,80.8521
149.0624,80.8628
148.7824,80.8628
148.7288,80.8521
148.6834,80.8218
148.6531,80.7764
148.6424,80.7228
Z" /> 
<path style="fill:#000000; fill-opacity:1.0000; stroke:none;fill-rule:evenodd;"
d="M 138.1540,77.5230
138.1643,77.4713
138.1935,77.4275
138.2373,77.3983
138.2890,77.3880
138.5590,77.3880
138.6107,77.3983
138.6545,77.4275
138.6837,77.4713
138.6940,77.5230
138.6940,77.8930
138.6837,77.9447
138.6545,77.9885
138.6107,78.0177
138.5590,78.0280
138.2890,78.0280
138.2373,78.0177
138.1935,77.9885
138.1643,77.9447
138.1540,77.8930
Z" /> 
<path style="fill:#000000; fill-opacity:1.0000; stroke:none;fill-rule:evenodd;"
d="M 139.1740,77.5230
139.1843,77.4713
139.2135,77.4275
139.2573,77.3983
139.3090,77.3880
139.5790,77.3880
139.6307,77.3983
139.6745,77.4275
139.7037,77.4713
139.7140,77.5230
139.7140,77.8930
139.7037,77.9447
139.6745,77.9885
139.6307,78.0177
139.5790,78.0280
139.3090,78.0280
139.2573,78.0177
139.2135,77.9885
139.1843,77.9447
139.1740,77.8930
Z" /> 
<path style="fill:#000000; fill-opacity:1.0000; stroke:none;fill-rule:evenodd;"
d="M 127.3750,99.8650
127.4611,99.8821
127.5341,99.9309
127.5829,100.0039
127.6000,100.0900
127.6000,100.5400
127.5829,100.6261
127.5341,100.6991
127.4611,100.7479
127.3750,100.7650
126.6250,100.7650
126.5389,100.7479
126.4659,100.6991
126.4171,100.6261
126.4000,100.5400
126.4000,100.0900
126.4171,100.0039
126.4659,99.9309
126.5389,99.8821
126.6250,99.8650
Z" /> 
<path style="fill:#000000; fill-opacity:1.0000; stroke:none;fill-rule:evenodd;"
d="M 127.3750,103.1650
127.4611,103.1821
127.5341,103.2309
127.5829,103.3039
127.6000,103.3900
127.6000,103.8400
127.5829,103.9261
127.5341,103.9991
127.4611,104.0479
127.3750,104.0650
126.6250,104.0650
126.5389,104.0479
126.4659,103.9991
126.4171,103.9261
126.4000,103.8400
126.4000,103.3900
126.4171,103.3039
126.4659,103.2309
126.5389,103.1821
126.6250,103.1650
Z" /> 
<path style="fill:#000000; fill-opacity:1.0000; stroke:none;fill-rule:evenodd;"
d="M 135.2990,72.3895
135.2990,72.0745
136.1376,72.0745
136.1376,72.3895
Z" /> 
<path style="fill:#000000; fill-opacity:1.0000; stroke:none;fill-rule:evenodd;"
d="M 135.2990,73.0395
135.2990,72.7245
136.1376,72.7245
136.1376,73.0395
Z" /> 
<path style="fill:#000000; fill-opacity:1.0000; stroke:none;fill-rule:evenodd;"
d="M 135.2990,73.6895
135.2990,73.3745
136.1376,73.3745
136.1376,73.6895
Z" /> 
<path style="fill:#000000; fill-opacity:1.0000; stroke:none;fill-rule:evenodd;"
d="M 133.6104,73.6895
133.6104,73.3745
134.4490,73.3745
134.4490,73.6895
Z" /> 
<path style="fill:#000000; fill-opacity:1.0000; stroke:none;fill-rule:evenodd;"
d="M 133.6104,72.3895
133.6104,72.0745
134.4490,72.0745
134.4490,72.3895
Z" /> 
<path style="fill:#000000; fill-opacity:1.0000; stroke:none;fill-rule:evenodd;"
d="M 156.4822,57.3785
156.4305,57.3682
156.3867,57.3389
156.3575,57.2951
156.3472,57.2435
156.3472,56.9735
156.3575,56.9218
156.3867,56.8780
156.4305,56.8487
156.4822,56.8385
156.8522,56.8385
156.9039,56.8487
156.9477,56.8780
156.9769,56.9218
156.9872,56.9735
156.9872,57.2435
156.9769,57.2951
156.9477,57.3389
156.9039,57.3682
156.8522,57.3785
Z" /> 
<path style="fill:#000000; fill-opacity:1.0000; stroke:none;fill-rule:evenodd;"
d="M 156.4822,56.3585
156.4305,56.3482
156.3867,56.3189
156.3575,56.2751
156.3472,56.2235
156.3472,55.9535
156.3575,55.9018
156.3867,55.8580
156.4305,55.8287
156.4822,55.8185
156.8522,55.8185
156.9039,55.8287
156.9477,55.8580
156.9769,55.9018
156.9872,55.9535
156.9872,56.2235
156.9769,56.2751
156.9477,56.3189
156.9039,56.3482
156.8522,56.3585
Z" /> 
<path style="fill:#000000; fill-opacity:1.0000; stroke:none;fill-rule:evenodd;"
d="M 147.6950,140.5050
147.7811,140.5221
147.8541,140.5709
147.9029,140.6439
147.9200,140.7300
147.9200,141.1800
147.9029,141.2661
147.8541,141.3391
147.7811,141.3879
147.6950,141.4050
146.9450,141.4050
146.8589,141.3879
146.7859,141.3391
146.7371,141.2661
146.7200,141.1800
146.7200,140.7300
146.7371,140.6439
146.7859,140.5709
146.8589,140.5221
146.9450,140.5050
Z" /> 
<path style="fill:#000000; fill-opacity:1.0000; stroke:none;fill-rule:evenodd;"
d="M 147.6950,143.8050
147.7811,143.8221
147.8541,143.8709
147.9029,143.9439
147.9200,144.0300
147.9200,144.4800
147.9029,144.5661
147.8541,144.6391
147.7811,144.6879
147.6950,144.7050
146.9450,144.7050
146.8589,144.6879
146.7859,144.6391
146.7371,144.5661
146.7200,144.4800
146.7200,144.0300
146.7371,143.9439
146.7859,143.8709
146.8589,143.8221
146.9450,143.8050
Z" /> 
<path style="fill:#000000; fill-opacity:1.0000; stroke:none;fill-rule:evenodd;"
d="M 145.8650,57.1520
145.8133,57.1417
145.7695,57.1125
145.7403,57.0687
145.7300,57.0170
145.7300,56.7470
145.7403,56.6953
145.7695,56.6515
145.8133,56.6223
145.8650,56.6120
146.2350,56.6120
146.2867,56.6223
146.3305,56.6515
146.3597,56.6953
146.3700,56.7470
146.3700,57.0170
146.3597,57.0687
146.3305,57.1125
146.2867,57.1417
146.2350,57.1520
Z" /> 
<path style="fill:#000000; fill-opacity:1.0000; stroke:none;fill-rule:evenodd;"
d="M 145.8650,56.1320
145.8133,56.1217
145.7695,56.0925
145.7403,56.0487
145.7300,55.9970
145.7300,55.7270
145.7403,55.6753
145.7695,55.6315
145.8133,55.6023
145.8650,55.5920
146.2350,55.5920
146.2867,55.6023
146.3305,55.6315
146.3597,55.6753
146.3700,55.7270
146.3700,55.9970
146.3597,56.0487
146.3305,56.0925
146.2867,56.1217
146.2350,56.1320
Z" /> 
<path style="fill:#000000; fill-opacity:1.0000; stroke:none;fill-rule:evenodd;"
d="M 216.5671,78.6556
216.5778,78.6020
216.6081,78.5566
216.6535,78.5263
216.7071,78.5156
216.9871,78.5156
217.0407,78.5263
217.0861,78.5566
217.1164,78.6020
217.1271,78.6556
217.1271,78.9956
217.1164,79.0492
217.0861,79.0946
217.0407,79.1249
216.9871,79.1356
216.7071,79.1356
216.6535,79.1249
216.6081,79.0946
216.5778,79.0492
216.5671,78.9956
Z" /> 
<path style="fill:#000000; fill-opacity:1.0000; stroke:none;fill-rule:evenodd;"
d="M 217.5271,78.6556
217.5378,78.6020
217.5681,78.5566
217.6135,78.5263
217.6671,78.5156
217.9471,78.5156
218.0007,78.5263
218.0461,78.5566
218.0764,78.6020
218.0871,78.6556
218.0871,78.9956
218.0764,79.0492
218.0461,79.0946
218.0007,79.1249
217.9471,79.1356
217.6671,79.1356
217.6135,79.1249
217.5681,79.0946
217.5378,79.0492
217.5271,78.9956
Z" /> 
<path style="fill:#000000; fill-opacity:1.0000; stroke:none;fill-rule:evenodd;"
d="M 188.3350,99.8650
188.4211,99.8821
188.4941,99.9309
188.5429,100.0039
188.5600,100.0900
188.5600,100.5400
188.5429,100.6261
188.4941,100.6991
188.4211,100.7479
188.3350,100.7650
187.5850,100.7650
187.4989,100.7479
187.4259,100.6991
187.3771,100.6261
187.3600,100.5400
187.3600,100.0900
187.3771,100.0039
187.4259,99.9309
187.4989,99.8821
187.5850,99.8650
Z" /> 
<path style="fill:#000000; fill-opacity:1.0000; stroke:none;fill-rule:evenodd;"
d="M 188.3350,103.1650
188.4211,103.1821
188.4941,103.2309
188.5429,103.3039
188.5600,103.3900
188.5600,103.8400
188.5429,103.9261
188.4941,103.9991
188.4211,104.0479
188.3350,104.0650
187.5850,104.0650
187.4989,104.0479
187.4259,103.9991
187.3771,103.9261
187.3600,103.8400
187.3600,103.3900
187.3771,103.3039
187.4259,103.2309
187.4989,103.1821
187.5850,103.1650
Z" /> 
<path style="fill:#000000; fill-opacity:1.0000; stroke:none;fill-rule:evenodd;"
d="M 86.7350,120.1850
86.8211,120.2021
86.8941,120.2509
86.9429,120.3239
86.9600,120.4100
86.9600,120.8600
86.9429,120.9461
86.8941,121.0191
86.8211,121.0679
86.7350,121.0850
85.9850,121.0850
85.8989,121.0679
85.8259,121.0191
85.7771,120.9461
85.7600,120.8600
85.7600,120.4100
85.7771,120.3239
85.8259,120.2509
85.8989,120.2021
85.9850,120.1850
Z" /> 
<path style="fill:#000000; fill-opacity:1.0000; stroke:none;fill-rule:evenodd;"
d="M 86.7350,123.4850
86.8211,123.5021
86.8941,123.5509
86.9429,123.6239
86.9600,123.7100
86.9600,124.1600
86.9429,124.2461
86.8941,124.3191
86.8211,124.3679
86.7350,124.3850
85.9850,124.3850
85.8989,124.3679
85.8259,124.3191
85.7771,124.2461
85.7600,124.1600
85.7600,123.7100
85.7771,123.6239
85.8259,123.5509
85.8989,123.5021
85.9850,123.4850
Z" /> 
<path style="fill:#000000; fill-opacity:1.0000; stroke:none;fill-rule:evenodd;"
d="M 107.0550,120.1850
107.1411,120.2021
107.2141,120.2509
107.2629,120.3239
107.2800,120.4100
107.2800,120.8600
107.2629,120.9461
107.2141,121.0191
107.1411,121.0679
107.0550,121.0850
106.3050,121.0850
106.2189,121.0679
106.1459,121.0191
106.0971,120.9461
106.0800,120.8600
106.0800,120.4100
106.0971,120.3239
106.1459,120.2509
106.2189,120.2021
106.3050,120.1850
Z" /> 
<path style="fill:#000000; fill-opacity:1.0000; stroke:none;fill-rule:evenodd;"
d="M 107.0550,123.4850
107.1411,123.5021
107.2141,123.5509
107.2629,123.6239
107.2800,123.7100
107.2800,124.1600
107.2629,124.2461
107.2141,124.3191
107.1411,124.3679
107.0550,124.3850
106.3050,124.3850
106.2189,124.3679
106.1459,124.3191
106.0971,124.2461
106.0800,124.1600
106.0800,123.7100
106.0971,123.6239
106.1459,123.5509
106.2189,123.5021
106.3050,123.4850
Z" /> 
<path style="fill:#000000; fill-opacity:1.0000; stroke:none;fill-rule:evenodd;"
d="M 160.7879,52.8980
160.7879,54.2580
159.5579,54.2580
159.5579,52.8980
Z" /> 
<path style="fill:#000000; fill-opacity:1.0000; stroke:none;fill-rule:evenodd;"
d="M 156.4181,52.8980
156.4181,54.2580
155.1881,54.2580
155.1881,52.8980
Z" /> 
<path style="fill:#000000; fill-opacity:1.0000; stroke:none;fill-rule:evenodd;"
d="M 133.9420,71.1020
133.8884,71.0913
133.8430,71.0610
133.8127,71.0156
133.8020,70.9620
133.8020,70.6820
133.8127,70.6284
133.8430,70.5830
133.8884,70.5527
133.9420,70.5420
134.2820,70.5420
134.3356,70.5527
134.3810,70.5830
134.4113,70.6284
134.4220,70.6820
134.4220,70.9620
134.4113,71.0156
134.3810,71.0610
134.3356,71.0913
134.2820,71.1020
Z" /> 
<path style="fill:#000000; fill-opacity:1.0000; stroke:none;fill-rule:evenodd;"
d="M 133.9420,70.1420
133.8884,70.1313
133.8430,70.1010
133.8127,70.0556
133.8020,70.0020
133.8020,69.7220
133.8127,69.6684
133.8430,69.6230
133.8884,69.5927
133.9420,69.5820
134.2820,69.5820
134.3356,69.5927
134.3810,69.6230
134.4113,69.6684
134.4220,69.7220
134.4220,70.0020
134.4113,70.0556
134.3810,70.1010
134.3356,70.1313
134.2820,70.1420
Z" /> 
<path style="fill:#000000; fill-opacity:1.0000; stroke:none;fill-rule:evenodd;"
d="M 147.1729,65.3617
147.1193,65.3510
147.0739,65.3207
147.0436,65.2753
147.0329,65.2217
147.0329,64.9417
147.0436,64.8881
147.0739,64.8427
147.1193,64.8124
147.1729,64.8017
147.5129,64.8017
147.5665,64.8124
147.6119,64.8427
147.6422,64.8881
147.6529,64.9417
147.6529,65.2217
147.6422,65.2753
147.6119,65.3207
147.5665,65.3510
147.5129,65.3617
Z" /> 
<path style="fill:#000000; fill-opacity:1.0000; stroke:none;fill-rule:evenodd;"
d="M 147.1729,64.4017
147.1193,64.3910
147.0739,64.3607
147.0436,64.3153
147.0329,64.2617
147.0329,63.9817
147.0436,63.9281
147.0739,63.8827
147.1193,63.8524
147.1729,63.8417
147.5129,63.8417
147.5665,63.8524
147.6119,63.8827
147.6422,63.9281
147.6529,63.9817
147.6529,64.2617
147.6422,64.3153
147.6119,64.3607
147.5665,64.3910
147.5129,64.4017
Z" /> 
<path style="fill:#000000; fill-opacity:1.0000; stroke:none;fill-rule:evenodd;"
d="M 148.2728,77.6138
148.3245,77.6241
148.3683,77.6533
148.3976,77.6971
148.4078,77.7488
148.4078,78.0188
148.3976,78.0705
148.3683,78.1143
148.3245,78.1435
148.2728,78.1538
147.9028,78.1538
147.8512,78.1435
147.8074,78.1143
147.7781,78.0705
147.7678,78.0188
147.7678,77.7488
147.7781,77.6971
147.8074,77.6533
147.8512,77.6241
147.9028,77.6138
Z" /> 
<path style="fill:#000000; fill-opacity:1.0000; stroke:none;fill-rule:evenodd;"
d="M 148.2728,78.6338
148.3245,78.6441
148.3683,78.6733
148.3976,78.7171
148.4078,78.7688
148.4078,79.0388
148.3976,79.0905
148.3683,79.1343
148.3245,79.1635
148.2728,79.1738
147.9028,79.1738
147.8512,79.1635
147.8074,79.1343
147.7781,79.0905
147.7678,79.0388
147.7678,78.7688
147.7781,78.7171
147.8074,78.6733
147.8512,78.6441
147.9028,78.6338
Z" /> 
<path style="fill:#000000; fill-opacity:1.0000; stroke:none;fill-rule:evenodd;"
d="M 234.1040,77.4560
234.1576,77.4667
234.2030,77.4970
234.2333,77.5424
234.2440,77.5960
234.2440,77.8760
234.2333,77.9296
234.2030,77.9750
234.1576,78.0053
234.1040,78.0160
233.7640,78.0160
233.7104,78.0053
233.6650,77.9750
233.6347,77.9296
233.6240,77.8760
233.6240,77.5960
233.6347,77.5424
233.6650,77.4970
233.7104,77.4667
233.7640,77.4560
Z" /> 
<path style="fill:#000000; fill-opacity:1.0000; stroke:none;fill-rule:evenodd;"
d="M 234.1040,78.4160
234.1576,78.4267
234.2030,78.4570
234.2333,78.5024
234.2440,78.5560
234.2440,78.8360
234.2333,78.8896
234.2030,78.9350
234.1576,78.9653
234.1040,78.9760
233.7640,78.9760
233.7104,78.9653
233.6650,78.9350
233.6347,78.8896
233.6240,78.8360
233.6240,78.5560
233.6347,78.5024
233.6650,78.4570
233.7104,78.4267
233.7640,78.4160
Z" /> 
<path style="fill:#000000; fill-opacity:1.0000; stroke:none;fill-rule:evenodd;"
d="M 146.2258,77.6298
146.2794,77.6405
146.3248,77.6708
146.3552,77.7162
146.3658,77.7698
146.3658,78.0498
146.3552,78.1034
146.3248,78.1488
146.2794,78.1791
146.2258,78.1898
145.8858,78.1898
145.8323,78.1791
145.7868,78.1488
145.7565,78.1034
145.7458,78.0498
145.7458,77.7698
145.7565,77.7162
145.7868,77.6708
145.8323,77.6405
145.8858,77.6298
Z" /> 
<path style="fill:#000000; fill-opacity:1.0000; stroke:none;fill-rule:evenodd;"
d="M 146.2258,78.5898
146.2794,78.6005
146.3248,78.6308
146.3552,78.6762
146.3658,78.7298
146.3658,79.0098
146.3552,79.0634
146.3248,79.1088
146.2794,79.1391
146.2258,79.1498
145.8858,79.1498
145.8323,79.1391
145.7868,79.1088
145.7565,79.0634
145.7458,79.0098
145.7458,78.7298
145.7565,78.6762
145.7868,78.6308
145.8323,78.6005
145.8858,78.5898
Z" /> 
<path style="fill:#000000; fill-opacity:1.0000; stroke:none;fill-rule:evenodd;"
d="M 107.0550,99.8650
107.1411,99.8821
107.2141,99.9309
107.2629,100.0039
107.2800,100.0900
107.2800,100.5400
107.2629,100.6261
107.2141,100.6991
107.1411,100.7479
107.0550,100.7650
106.3050,100.7650
106.2189,100.7479
106.1459,100.6991
106.0971,100.6261
106.0800,100.5400
106.0800,100.0900
106.0971,100.0039
106.1459,99.9309
106.2189,99.8821
106.3050,99.8650
Z" /> 
<path style="fill:#000000; fill-opacity:1.0000; stroke:none;fill-rule:evenodd;"
d="M 107.0550,103.1650
107.1411,103.1821
107.2141,103.2309
107.2629,103.3039
107.2800,103.3900
107.2800,103.8400
107.2629,103.9261
107.2141,103.9991
107.1411,104.0479
107.0550,104.0650
106.3050,104.0650
106.2189,104.0479
106.1459,103.9991
106.0971,103.9261
106.0800,103.8400
106.0800,103.3900
106.0971,103.3039
106.1459,103.2309
106.2189,103.1821
106.3050,103.1650
Z" /> 
<path style="fill:#000000; fill-opacity:1.0000; stroke:none;fill-rule:evenodd;"
d="M 152.5036,68.8511
152.5143,68.7975
152.5446,68.7521
152.5900,68.7217
152.6436,68.7111
152.9236,68.7111
152.9772,68.7217
153.0226,68.7521
153.0529,68.7975
153.0636,68.8511
153.0636,69.1911
153.0529,69.2446
153.0226,69.2901
152.9772,69.3204
152.9236,69.3311
152.6436,69.3311
152.5900,69.3204
152.5446,69.2901
152.5143,69.2446
152.5036,69.1911
Z" /> 
<path style="fill:#000000; fill-opacity:1.0000; stroke:none;fill-rule:evenodd;"
d="M 153.4636,68.8511
153.4743,68.7975
153.5046,68.7521
153.5500,68.7217
153.6036,68.7111
153.8836,68.7111
153.9372,68.7217
153.9826,68.7521
154.0129,68.7975
154.0236,68.8511
154.0236,69.1911
154.0129,69.2446
153.9826,69.2901
153.9372,69.3204
153.8836,69.3311
153.6036,69.3311
153.5500,69.3204
153.5046,69.2901
153.4743,69.2446
153.4636,69.1911
Z" /> 
<path style="fill:#000000; fill-opacity:1.0000; stroke:none;fill-rule:evenodd;"
d="M 188.3350,140.5050
188.4211,140.5221
188.4941,140.5709
188.5429,140.6439
188.5600,140.7300
188.5600,141.1800
188.5429,141.2661
188.4941,141.3391
188.4211,141.3879
188.3350,141.4050
187.5850,141.4050
187.4989,141.3879
187.4259,141.3391
187.3771,141.2661
187.3600,141.1800
187.3600,140.7300
187.3771,140.6439
187.4259,140.5709
187.4989,140.5221
187.5850,140.5050
Z" /> 
<path style="fill:#000000; fill-opacity:1.0000; stroke:none;fill-rule:evenodd;"
d="M 188.3350,143.8050
188.4211,143.8221
188.4941,143.8709
188.5429,143.9439
188.5600,144.0300
188.5600,144.4800
188.5429,144.5661
188.4941,144.6391
188.4211,144.6879
188.3350,144.7050
187.5850,144.7050
187.4989,144.6879
187.4259,144.6391
187.3771,144.5661
187.3600,144.4800
187.3600,144.0300
187.3771,143.9439
187.4259,143.8709
187.4989,143.8221
187.5850,143.8050
Z" /> 
<path style="fill:#000000; fill-opacity:1.0000; stroke:none;fill-rule:evenodd;"
d="M 235.5463,77.3706
235.5566,77.3189
235.5858,77.2751
235.6296,77.2459
235.6813,77.2356
235.9513,77.2356
236.0030,77.2459
236.0468,77.2751
236.0760,77.3189
236.0863,77.3706
236.0863,77.7406
236.0760,77.7923
236.0468,77.8361
236.0030,77.8653
235.9513,77.8756
235.6813,77.8756
235.6296,77.8653
235.5858,77.8361
235.5566,77.7923
235.5463,77.7406
Z" /> 
<path style="fill:#000000; fill-opacity:1.0000; stroke:none;fill-rule:evenodd;"
d="M 236.5663,77.3706
236.5766,77.3189
236.6058,77.2751
236.6496,77.2459
236.7013,77.2356
236.9713,77.2356
237.0230,77.2459
237.0668,77.2751
237.0960,77.3189
237.1063,77.3706
237.1063,77.7406
237.0960,77.7923
237.0668,77.8361
237.0230,77.8653
236.9713,77.8756
236.7013,77.8756
236.6496,77.8653
236.6058,77.8361
236.5766,77.7923
236.5663,77.7406
Z" /> 
<path style="fill:#000000; fill-opacity:1.0000; stroke:none;fill-rule:evenodd;"
d="M 240.8963,78.9956
240.8856,79.0492
240.8553,79.0946
240.8099,79.1249
240.7563,79.1356
240.4763,79.1356
240.4227,79.1249
240.3773,79.0946
240.3470,79.0492
240.3363,78.9956
240.3363,78.6556
240.3470,78.6020
240.3773,78.5566
240.4227,78.5263
240.4763,78.5156
240.7563,78.5156
240.8099,78.5263
240.8553,78.5566
240.8856,78.6020
240.8963,78.6556
Z" /> 
<path style="fill:#000000; fill-opacity:1.0000; stroke:none;fill-rule:evenodd;"
d="M 239.9363,78.9956
239.9256,79.0492
239.8953,79.0946
239.8499,79.1249
239.7963,79.1356
239.5163,79.1356
239.4627,79.1249
239.4173,79.0946
239.3870,79.0492
239.3763,78.9956
239.3763,78.6556
239.3870,78.6020
239.4173,78.5566
239.4627,78.5263
239.5163,78.5156
239.7963,78.5156
239.8499,78.5263
239.8953,78.5566
239.9256,78.6020
239.9363,78.6556
Z" /> 
<path style="fill:#000000; fill-opacity:1.0000; stroke:none;fill-rule:evenodd;"
d="M 148.1660,65.3615
148.1124,65.3508
148.0670,65.3205
148.0367,65.2750
148.0260,65.2215
148.0260,64.9415
148.0367,64.8879
148.0670,64.8425
148.1124,64.8121
148.1660,64.8015
148.5060,64.8015
148.5596,64.8121
148.6050,64.8425
148.6353,64.8879
148.6460,64.9415
148.6460,65.2215
148.6353,65.2750
148.6050,65.3205
148.5596,65.3508
148.5060,65.3615
Z" /> 
<path style="fill:#000000; fill-opacity:1.0000; stroke:none;fill-rule:evenodd;"
d="M 148.1660,64.4015
148.1124,64.3908
148.0670,64.3605
148.0367,64.3150
148.0260,64.2615
148.0260,63.9815
148.0367,63.9279
148.0670,63.8825
148.1124,63.8521
148.1660,63.8415
148.5060,63.8415
148.5596,63.8521
148.6050,63.8825
148.6353,63.9279
148.6460,63.9815
148.6460,64.2615
148.6353,64.3150
148.6050,64.3605
148.5596,64.3908
148.5060,64.4015
Z" /> 
<path style="fill:#000000; fill-opacity:1.0000; stroke:none;fill-rule:evenodd;"
d="M 46.0950,69.3850
46.1811,69.4021
46.2541,69.4509
46.3029,69.5239
46.3200,69.6100
46.3200,70.0600
46.3029,70.1461
46.2541,70.2191
46.1811,70.2679
46.0950,70.2850
45.3450,70.2850
45.2589,70.2679
45.1859,70.2191
45.1371,70.1461
45.1200,70.0600
45.1200,69.6100
45.1371,69.5239
45.1859,69.4509
45.2589,69.4021
45.3450,69.3850
Z" /> 
<path style="fill:#000000; fill-opacity:1.0000; stroke:none;fill-rule:evenodd;"
d="M 46.0950,72.6850
46.1811,72.7021
46.2541,72.7509
46.3029,72.8239
46.3200,72.9100
46.3200,73.3600
46.3029,73.4461
46.2541,73.5191
46.1811,73.5679
46.0950,73.5850
45.3450,73.5850
45.2589,73.5679
45.1859,73.5191
45.1371,73.4461
45.1200,73.3600
45.1200,72.9100
45.1371,72.8239
45.1859,72.7509
45.2589,72.7021
45.3450,72.6850
Z" /> 
<path style="fill:#000000; fill-opacity:1.0000; stroke:none;fill-rule:evenodd;"
d="M 138.7930,62.1700
138.8120,62.0743
138.8662,61.9932
138.9473,61.9390
139.0430,61.9200
139.9430,61.9200
140.0387,61.9390
140.1198,61.9932
140.1740,62.0743
140.1930,62.1700
140.1930,63.0200
140.1740,63.1157
140.1198,63.1968
140.0387,63.2510
139.9430,63.2700
139.0430,63.2700
138.9473,63.2510
138.8662,63.1968
138.8120,63.1157
138.7930,63.0200
Z" /> 
<path style="fill:#000000; fill-opacity:1.0000; stroke:none;fill-rule:evenodd;"
d="M 141.4930,62.1700
141.5120,62.0743
141.5662,61.9932
141.6473,61.9390
141.7430,61.9200
142.6430,61.9200
142.7387,61.9390
142.8198,61.9932
142.8740,62.0743
142.8930,62.1700
142.8930,63.0200
142.8740,63.1157
142.8198,63.1968
142.7387,63.2510
142.6430,63.2700
141.7430,63.2700
141.6473,63.2510
141.5662,63.1968
141.5120,63.1157
141.4930,63.0200
Z" /> 
</g> 
</svg>
