<?xml version="1.0" standalone="no"?>
 <!DOCTYPE svg PUBLIC "-//W3C//DTD SVG 1.1//EN" 
 "http://www.w3.org/Graphics/SVG/1.1/DTD/svg11.dtd"> 
<svg
  xmlns:svg="http://www.w3.org/2000/svg"
  xmlns="http://www.w3.org/2000/svg"
  xmlns:xlink="http://www.w3.org/1999/xlink"
  version="1.1"
  width="297.0022mm" height="210.0072mm" viewBox="0.0000 0.0000 297.0022 210.0072">
<title>SVG Image created as vm1-controller-F_Silkscreen.svg date 2025/07/18 07:27:12 </title>
  <desc>Image generated by PCBNEW </desc>
<g style="fill:#000000; fill-opacity:1.0000;stroke:#000000; stroke-opacity:1.0000;
stroke-linecap:round; stroke-linejoin:round;"
 transform="translate(0 0) scale(1 1)">
</g>
<g style="fill:none; 
stroke:#000000; stroke-width:0.1000; stroke-opacity:1; 
stroke-linecap:round; stroke-linejoin:round;">
<text x="129.2411" y="75.0400"
textLength="2.8143" font-size="1.3333" lengthAdjust="spacingAndGlyphs"
text-anchor="start" opacity="0" stroke-opacity="0">RST</text>
<g class="stroked-text"><desc>RST</desc>
<path d="M130.1164 74.9124
L129.7831 74.4362
" />
<path d="M129.5450 74.9124
L129.5450 73.9124
" />
<path d="M129.5450 73.9124
L129.9259 73.9124
" />
<path d="M129.9259 73.9124
L130.0212 73.9600
" />
<path d="M130.0212 73.9600
L130.0688 74.0077
" />
<path d="M130.0688 74.0077
L130.1164 74.1029
" />
<path d="M130.1164 74.1029
L130.1164 74.2458
" />
<path d="M130.1164 74.2458
L130.0688 74.3410
" />
<path d="M130.0688 74.3410
L130.0212 74.3886
" />
<path d="M130.0212 74.3886
L129.9259 74.4362
" />
<path d="M129.9259 74.4362
L129.5450 74.4362
" />
<path d="M130.4974 74.8648
L130.6402 74.9124
" />
<path d="M130.6402 74.9124
L130.8783 74.9124
" />
<path d="M130.8783 74.9124
L130.9736 74.8648
" />
<path d="M130.9736 74.8648
L131.0212 74.8172
" />
<path d="M131.0212 74.8172
L131.0688 74.7219
" />
<path d="M131.0688 74.7219
L131.0688 74.6267
" />
<path d="M131.0688 74.6267
L131.0212 74.5315
" />
<path d="M131.0212 74.5315
L130.9736 74.4838
" />
<path d="M130.9736 74.4838
L130.8783 74.4362
" />
<path d="M130.8783 74.4362
L130.6878 74.3886
" />
<path d="M130.6878 74.3886
L130.5926 74.3410
" />
<path d="M130.5926 74.3410
L130.5450 74.2934
" />
<path d="M130.5450 74.2934
L130.4974 74.1981
" />
<path d="M130.4974 74.1981
L130.4974 74.1029
" />
<path d="M130.4974 74.1029
L130.5450 74.0077
" />
<path d="M130.5450 74.0077
L130.5926 73.9600
" />
<path d="M130.5926 73.9600
L130.6878 73.9124
" />
<path d="M130.6878 73.9124
L130.9259 73.9124
" />
<path d="M130.9259 73.9124
L131.0688 73.9600
" />
<path d="M131.3545 73.9124
L131.9259 73.9124
" />
<path d="M131.6402 74.9124
L131.6402 73.9124
" />
</g><text x="129.2411" y="70.0400"
textLength="2.0524" font-size="1.3333" lengthAdjust="spacingAndGlyphs"
text-anchor="start" opacity="0" stroke-opacity="0">CS</text>
<g class="stroked-text"><desc>CS</desc>
<path d="M130.1164 69.8172
L130.0688 69.8648
" />
<path d="M130.0688 69.8648
L129.9259 69.9124
" />
<path d="M129.9259 69.9124
L129.8307 69.9124
" />
<path d="M129.8307 69.9124
L129.6878 69.8648
" />
<path d="M129.6878 69.8648
L129.5926 69.7696
" />
<path d="M129.5926 69.7696
L129.5450 69.6743
" />
<path d="M129.5450 69.6743
L129.4974 69.4838
" />
<path d="M129.4974 69.4838
L129.4974 69.3410
" />
<path d="M129.4974 69.3410
L129.5450 69.1505
" />
<path d="M129.5450 69.1505
L129.5926 69.0553
" />
<path d="M129.5926 69.0553
L129.6878 68.9600
" />
<path d="M129.6878 68.9600
L129.8307 68.9124
" />
<path d="M129.8307 68.9124
L129.9259 68.9124
" />
<path d="M129.9259 68.9124
L130.0688 68.9600
" />
<path d="M130.0688 68.9600
L130.1164 69.0077
" />
<path d="M130.4974 69.8648
L130.6402 69.9124
" />
<path d="M130.6402 69.9124
L130.8783 69.9124
" />
<path d="M130.8783 69.9124
L130.9736 69.8648
" />
<path d="M130.9736 69.8648
L131.0212 69.8172
" />
<path d="M131.0212 69.8172
L131.0688 69.7219
" />
<path d="M131.0688 69.7219
L131.0688 69.6267
" />
<path d="M131.0688 69.6267
L131.0212 69.5315
" />
<path d="M131.0212 69.5315
L130.9736 69.4838
" />
<path d="M130.9736 69.4838
L130.8783 69.4362
" />
<path d="M130.8783 69.4362
L130.6878 69.3886
" />
<path d="M130.6878 69.3886
L130.5926 69.3410
" />
<path d="M130.5926 69.3410
L130.5450 69.2934
" />
<path d="M130.5450 69.2934
L130.4974 69.1981
" />
<path d="M130.4974 69.1981
L130.4974 69.1029
" />
<path d="M130.4974 69.1029
L130.5450 69.0077
" />
<path d="M130.5450 69.0077
L130.5926 68.9600
" />
<path d="M130.5926 68.9600
L130.6878 68.9124
" />
<path d="M130.6878 68.9124
L130.9259 68.9124
" />
<path d="M130.9259 68.9124
L131.0688 68.9600
" />
</g><text x="129.2411" y="67.5400"
textLength="2.9095" font-size="1.3333" lengthAdjust="spacingAndGlyphs"
text-anchor="start" opacity="0" stroke-opacity="0">CLK</text>
<g class="stroked-text"><desc>CLK</desc>
<path d="M130.1164 67.3172
L130.0688 67.3648
" />
<path d="M130.0688 67.3648
L129.9259 67.4124
" />
<path d="M129.9259 67.4124
L129.8307 67.4124
" />
<path d="M129.8307 67.4124
L129.6878 67.3648
" />
<path d="M129.6878 67.3648
L129.5926 67.2696
" />
<path d="M129.5926 67.2696
L129.5450 67.1743
" />
<path d="M129.5450 67.1743
L129.4974 66.9838
" />
<path d="M129.4974 66.9838
L129.4974 66.8410
" />
<path d="M129.4974 66.8410
L129.5450 66.6505
" />
<path d="M129.5450 66.6505
L129.5926 66.5553
" />
<path d="M129.5926 66.5553
L129.6878 66.4600
" />
<path d="M129.6878 66.4600
L129.8307 66.4124
" />
<path d="M129.8307 66.4124
L129.9259 66.4124
" />
<path d="M129.9259 66.4124
L130.0688 66.4600
" />
<path d="M130.0688 66.4600
L130.1164 66.5077
" />
<path d="M131.0212 67.4124
L130.5450 67.4124
" />
<path d="M130.5450 67.4124
L130.5450 66.4124
" />
<path d="M131.3545 67.4124
L131.3545 66.4124
" />
<path d="M131.9259 67.4124
L131.4974 66.8410
" />
<path d="M131.9259 66.4124
L131.3545 66.9838
" />
</g><text x="129.2411" y="62.5400"
textLength="3.1476" font-size="1.3333" lengthAdjust="spacingAndGlyphs"
text-anchor="start" opacity="0" stroke-opacity="0">GND</text>
<g class="stroked-text"><desc>GND</desc>
<path d="M130.0688 61.4600
L129.9736 61.4124
" />
<path d="M129.9736 61.4124
L129.8307 61.4124
" />
<path d="M129.8307 61.4124
L129.6878 61.4600
" />
<path d="M129.6878 61.4600
L129.5926 61.5553
" />
<path d="M129.5926 61.5553
L129.5450 61.6505
" />
<path d="M129.5450 61.6505
L129.4974 61.8410
" />
<path d="M129.4974 61.8410
L129.4974 61.9838
" />
<path d="M129.4974 61.9838
L129.5450 62.1743
" />
<path d="M129.5450 62.1743
L129.5926 62.2696
" />
<path d="M129.5926 62.2696
L129.6878 62.3648
" />
<path d="M129.6878 62.3648
L129.8307 62.4124
" />
<path d="M129.8307 62.4124
L129.9259 62.4124
" />
<path d="M129.9259 62.4124
L130.0688 62.3648
" />
<path d="M130.0688 62.3648
L130.1164 62.3172
" />
<path d="M130.1164 62.3172
L130.1164 61.9838
" />
<path d="M130.1164 61.9838
L129.9259 61.9838
" />
<path d="M130.5450 62.4124
L130.5450 61.4124
" />
<path d="M130.5450 61.4124
L131.1164 62.4124
" />
<path d="M131.1164 62.4124
L131.1164 61.4124
" />
<path d="M131.5926 62.4124
L131.5926 61.4124
" />
<path d="M131.5926 61.4124
L131.8307 61.4124
" />
<path d="M131.8307 61.4124
L131.9736 61.4600
" />
<path d="M131.9736 61.4600
L132.0688 61.5553
" />
<path d="M132.0688 61.5553
L132.1164 61.6505
" />
<path d="M132.1164 61.6505
L132.1640 61.8410
" />
<path d="M132.1640 61.8410
L132.1640 61.9838
" />
<path d="M132.1640 61.9838
L132.1164 62.1743
" />
<path d="M132.1164 62.1743
L132.0688 62.2696
" />
<path d="M132.0688 62.2696
L131.9736 62.3648
" />
<path d="M131.9736 62.3648
L131.8307 62.4124
" />
<path d="M131.8307 62.4124
L131.5926 62.4124
" />
</g><text x="129.2411" y="60.0400"
textLength="2.9571" font-size="1.3333" lengthAdjust="spacingAndGlyphs"
text-anchor="start" opacity="0" stroke-opacity="0">VCC</text>
<g class="stroked-text"><desc>VCC</desc>
<path d="M129.4021 58.9124
L129.7355 59.9124
" />
<path d="M129.7355 59.9124
L130.0688 58.9124
" />
<path d="M130.9736 59.8172
L130.9259 59.8648
" />
<path d="M130.9259 59.8648
L130.7831 59.9124
" />
<path d="M130.7831 59.9124
L130.6878 59.9124
" />
<path d="M130.6878 59.9124
L130.5450 59.8648
" />
<path d="M130.5450 59.8648
L130.4497 59.7696
" />
<path d="M130.4497 59.7696
L130.4021 59.6743
" />
<path d="M130.4021 59.6743
L130.3545 59.4838
" />
<path d="M130.3545 59.4838
L130.3545 59.3410
" />
<path d="M130.3545 59.3410
L130.4021 59.1505
" />
<path d="M130.4021 59.1505
L130.4497 59.0553
" />
<path d="M130.4497 59.0553
L130.5450 58.9600
" />
<path d="M130.5450 58.9600
L130.6878 58.9124
" />
<path d="M130.6878 58.9124
L130.7831 58.9124
" />
<path d="M130.7831 58.9124
L130.9259 58.9600
" />
<path d="M130.9259 58.9600
L130.9736 59.0077
" />
<path d="M131.9736 59.8172
L131.9259 59.8648
" />
<path d="M131.9259 59.8648
L131.7831 59.9124
" />
<path d="M131.7831 59.9124
L131.6878 59.9124
" />
<path d="M131.6878 59.9124
L131.5450 59.8648
" />
<path d="M131.5450 59.8648
L131.4497 59.7696
" />
<path d="M131.4497 59.7696
L131.4021 59.6743
" />
<path d="M131.4021 59.6743
L131.3545 59.4838
" />
<path d="M131.3545 59.4838
L131.3545 59.3410
" />
<path d="M131.3545 59.3410
L131.4021 59.1505
" />
<path d="M131.4021 59.1505
L131.4497 59.0553
" />
<path d="M131.4497 59.0553
L131.5450 58.9600
" />
<path d="M131.5450 58.9600
L131.6878 58.9124
" />
<path d="M131.6878 58.9124
L131.7831 58.9124
" />
<path d="M131.7831 58.9124
L131.9259 58.9600
" />
<path d="M131.9259 58.9600
L131.9736 59.0077
" />
</g><text x="129.2411" y="72.5400"
textLength="2.1000" font-size="1.3333" lengthAdjust="spacingAndGlyphs"
text-anchor="start" opacity="0" stroke-opacity="0">DC</text>
<g class="stroked-text"><desc>DC</desc>
<path d="M129.5450 72.4124
L129.5450 71.4124
" />
<path d="M129.5450 71.4124
L129.7831 71.4124
" />
<path d="M129.7831 71.4124
L129.9259 71.4600
" />
<path d="M129.9259 71.4600
L130.0212 71.5553
" />
<path d="M130.0212 71.5553
L130.0688 71.6505
" />
<path d="M130.0688 71.6505
L130.1164 71.8410
" />
<path d="M130.1164 71.8410
L130.1164 71.9838
" />
<path d="M130.1164 71.9838
L130.0688 72.1743
" />
<path d="M130.0688 72.1743
L130.0212 72.2696
" />
<path d="M130.0212 72.2696
L129.9259 72.3648
" />
<path d="M129.9259 72.3648
L129.7831 72.4124
" />
<path d="M129.7831 72.4124
L129.5450 72.4124
" />
<path d="M131.1164 72.3172
L131.0688 72.3648
" />
<path d="M131.0688 72.3648
L130.9259 72.4124
" />
<path d="M130.9259 72.4124
L130.8307 72.4124
" />
<path d="M130.8307 72.4124
L130.6878 72.3648
" />
<path d="M130.6878 72.3648
L130.5926 72.2696
" />
<path d="M130.5926 72.2696
L130.5450 72.1743
" />
<path d="M130.5450 72.1743
L130.4974 71.9838
" />
<path d="M130.4974 71.9838
L130.4974 71.8410
" />
<path d="M130.4974 71.8410
L130.5450 71.6505
" />
<path d="M130.5450 71.6505
L130.5926 71.5553
" />
<path d="M130.5926 71.5553
L130.6878 71.4600
" />
<path d="M130.6878 71.4600
L130.8307 71.4124
" />
<path d="M130.8307 71.4124
L130.9259 71.4124
" />
<path d="M130.9259 71.4124
L131.0688 71.4600
" />
<path d="M131.0688 71.4600
L131.1164 71.5077
" />
</g><text x="129.2411" y="65.0400"
textLength="2.6238" font-size="1.3333" lengthAdjust="spacingAndGlyphs"
text-anchor="start" opacity="0" stroke-opacity="0">DIN</text>
<g class="stroked-text"><desc>DIN</desc>
<path d="M129.5450 64.9124
L129.5450 63.9124
" />
<path d="M129.5450 63.9124
L129.7831 63.9124
" />
<path d="M129.7831 63.9124
L129.9259 63.9600
" />
<path d="M129.9259 63.9600
L130.0212 64.0553
" />
<path d="M130.0212 64.0553
L130.0688 64.1505
" />
<path d="M130.0688 64.1505
L130.1164 64.3410
" />
<path d="M130.1164 64.3410
L130.1164 64.4838
" />
<path d="M130.1164 64.4838
L130.0688 64.6743
" />
<path d="M130.0688 64.6743
L130.0212 64.7696
" />
<path d="M130.0212 64.7696
L129.9259 64.8648
" />
<path d="M129.9259 64.8648
L129.7831 64.9124
" />
<path d="M129.7831 64.9124
L129.5450 64.9124
" />
<path d="M130.5450 64.9124
L130.5450 63.9124
" />
<path d="M131.0212 64.9124
L131.0212 63.9124
" />
<path d="M131.0212 63.9124
L131.5926 64.9124
" />
<path d="M131.5926 64.9124
L131.5926 63.9124
" />
</g></g> 
</svg>
