%TF.GenerationSoftware,KiCad,Pcbnew,7.0.5-0*%
%TF.CreationDate,2023-10-31T21:53:37+01:00*%
%TF.ProjectId,20231027_vm-1_prototyp,32303233-3130-4323-975f-766d2d315f70,rev?*%
%TF.SameCoordinates,Original*%
%TF.FileFunction,Legend,Top*%
%TF.FilePolarity,Positive*%
%FSLAX46Y46*%
G04 Gerber Fmt 4.6, Leading zero omitted, Abs format (unit mm)*
G04 Created by KiCad (PCBNEW 7.0.5-0) date 2023-10-31 21:53:37*
%MOMM*%
%LPD*%
G01*
G04 APERTURE LIST*
%ADD10C,0.152400*%
%ADD11C,0.059995*%
%ADD12C,0.254000*%
%ADD13C,0.500000*%
%ADD14C,3.200000*%
%ADD15C,2.500000*%
%ADD16C,1.750000*%
%ADD17C,4.000000*%
%ADD18R,1.100000X1.000000*%
%ADD19R,0.565659X0.540005*%
%ADD20R,0.540005X0.565659*%
%ADD21R,0.790094X0.540005*%
%ADD22R,1.300000X0.600000*%
%ADD23R,1.300000X0.700000*%
%ADD24R,1.600000X3.200000*%
%ADD25R,3.200000X1.600000*%
%ADD26C,1.524000*%
%ADD27O,2.900000X3.000000*%
%ADD28C,5.000000*%
%ADD29C,1.700000*%
%ADD30O,1.700000X1.700000*%
G04 APERTURE END LIST*
D10*
%TO.C,U1*%
X94721175Y-118401137D02*
X91968724Y-118401137D01*
X94721175Y-116548660D02*
X91968724Y-116548660D01*
X94261739Y-118351124D02*
X94261739Y-116598673D01*
X91968724Y-118401137D02*
X91968724Y-118208096D01*
X91968724Y-116548660D02*
X91968724Y-116741701D01*
D11*
X95275023Y-116674898D02*
G75*
G03*
X95275023Y-116674898I-29972J0D01*
G01*
D10*
%TO.C,U10*%
X155681175Y-118401137D02*
X152928724Y-118401137D01*
X155681175Y-116548660D02*
X152928724Y-116548660D01*
X155221739Y-118351124D02*
X155221739Y-116598673D01*
X152928724Y-118401137D02*
X152928724Y-118208096D01*
X152928724Y-116548660D02*
X152928724Y-116741701D01*
D11*
X156235023Y-116674898D02*
G75*
G03*
X156235023Y-116674898I-29972J0D01*
G01*
D10*
%TO.C,U9*%
X155681175Y-98081137D02*
X152928724Y-98081137D01*
X155681175Y-96228660D02*
X152928724Y-96228660D01*
X155221739Y-98031124D02*
X155221739Y-96278673D01*
X152928724Y-98081137D02*
X152928724Y-97888096D01*
X152928724Y-96228660D02*
X152928724Y-96421701D01*
D11*
X156235023Y-96354898D02*
G75*
G03*
X156235023Y-96354898I-29972J0D01*
G01*
%TO.C,R2*%
X58800644Y-112913013D02*
G75*
G03*
X58800644Y-112913013I-29997J0D01*
G01*
D10*
X57326400Y-112664397D02*
X57326400Y-113661603D01*
X57326400Y-113661603D02*
X58044434Y-113661603D01*
X58044434Y-112664397D02*
X57326400Y-112664397D01*
X58496860Y-112664397D02*
X59214894Y-112664397D01*
X59214894Y-112664397D02*
X59214894Y-113661603D01*
X59214894Y-113661603D02*
X58496860Y-113661603D01*
%TO.C,U28*%
X254528825Y-126708863D02*
X257281276Y-126708863D01*
X254528825Y-128561340D02*
X257281276Y-128561340D01*
X254988261Y-126758876D02*
X254988261Y-128511327D01*
X257281276Y-126708863D02*
X257281276Y-126901904D01*
X257281276Y-128561340D02*
X257281276Y-128368299D01*
D11*
X254034921Y-128435102D02*
G75*
G03*
X254034921Y-128435102I-29972J0D01*
G01*
%TO.C,R3*%
X53617010Y-110373013D02*
G75*
G03*
X53617010Y-110373013I-29997J0D01*
G01*
D10*
X52142766Y-110124397D02*
X52142766Y-111121603D01*
X52142766Y-111121603D02*
X52860800Y-111121603D01*
X52860800Y-110124397D02*
X52142766Y-110124397D01*
X53313226Y-110124397D02*
X54031260Y-110124397D01*
X54031260Y-110124397D02*
X54031260Y-111121603D01*
X54031260Y-111121603D02*
X53313226Y-111121603D01*
%TO.C,U13*%
X176001175Y-118401137D02*
X173248724Y-118401137D01*
X176001175Y-116548660D02*
X173248724Y-116548660D01*
X175541739Y-118351124D02*
X175541739Y-116598673D01*
X173248724Y-118401137D02*
X173248724Y-118208096D01*
X173248724Y-116548660D02*
X173248724Y-116741701D01*
D11*
X176555023Y-116674898D02*
G75*
G03*
X176555023Y-116674898I-29972J0D01*
G01*
D10*
%TO.C,U2*%
X94721175Y-138721137D02*
X91968724Y-138721137D01*
X94721175Y-136868660D02*
X91968724Y-136868660D01*
X94261739Y-138671124D02*
X94261739Y-136918673D01*
X91968724Y-138721137D02*
X91968724Y-138528096D01*
X91968724Y-136868660D02*
X91968724Y-137061701D01*
D11*
X95275023Y-136994898D02*
G75*
G03*
X95275023Y-136994898I-29972J0D01*
G01*
%TO.C,R4*%
X57800644Y-110872987D02*
G75*
G03*
X57800644Y-110872987I-29997J0D01*
G01*
D10*
X59214894Y-111121603D02*
X59214894Y-110124397D01*
X59214894Y-110124397D02*
X58496860Y-110124397D01*
X58496860Y-111121603D02*
X59214894Y-111121603D01*
X58044434Y-111121603D02*
X57326400Y-111121603D01*
X57326400Y-111121603D02*
X57326400Y-110124397D01*
X57326400Y-110124397D02*
X58044434Y-110124397D01*
%TO.C,R9*%
X236991397Y-100691064D02*
X236991397Y-99973030D01*
X237988603Y-100691064D02*
X236991397Y-100691064D01*
X237988603Y-99973030D02*
X237988603Y-100691064D01*
X237988603Y-99520604D02*
X237988603Y-98802570D01*
X236991397Y-98802570D02*
X236991397Y-99520604D01*
X237988603Y-98802570D02*
X236991397Y-98802570D01*
D11*
X237769984Y-100246817D02*
G75*
G03*
X237769984Y-100246817I-29997J0D01*
G01*
D10*
%TO.C,U6*%
X135361175Y-98081137D02*
X132608724Y-98081137D01*
X135361175Y-96228660D02*
X132608724Y-96228660D01*
X134901739Y-98031124D02*
X134901739Y-96278673D01*
X132608724Y-98081137D02*
X132608724Y-97888096D01*
X132608724Y-96228660D02*
X132608724Y-96421701D01*
D11*
X135915023Y-96354898D02*
G75*
G03*
X135915023Y-96354898I-29972J0D01*
G01*
%TO.C,C2*%
X57642912Y-111642987D02*
G75*
G03*
X57642912Y-111642987I-29997J0D01*
G01*
D10*
X56096608Y-111394393D02*
G75*
G03*
X55944208Y-111546797I7J-152407D01*
G01*
X55944212Y-112239203D02*
G75*
G03*
X56096608Y-112391603I152403J3D01*
G01*
X58281622Y-111546797D02*
G75*
G03*
X58129222Y-111394397I-152400J0D01*
G01*
X58129222Y-112391603D02*
G75*
G03*
X58281622Y-112239203I0J152400D01*
G01*
X55944208Y-111546797D02*
X55944208Y-112239203D01*
X56096608Y-112391603D02*
X56886702Y-112391603D01*
X56886702Y-111394397D02*
X56096608Y-111394397D01*
X57339128Y-111394397D02*
X58129222Y-111394397D01*
X58129222Y-112391603D02*
X57339128Y-112391603D01*
X58281622Y-111546797D02*
X58281622Y-112239203D01*
D11*
%TO.C,R8*%
X58953984Y-97452817D02*
G75*
G03*
X58953984Y-97452817I-29997J0D01*
G01*
D10*
X59172603Y-96008570D02*
X58175397Y-96008570D01*
X58175397Y-96008570D02*
X58175397Y-96726604D01*
X59172603Y-96726604D02*
X59172603Y-96008570D01*
X59172603Y-97179030D02*
X59172603Y-97897064D01*
X59172603Y-97897064D02*
X58175397Y-97897064D01*
X58175397Y-97897064D02*
X58175397Y-97179030D01*
%TO.C,U8*%
X135361175Y-138721137D02*
X132608724Y-138721137D01*
X135361175Y-136868660D02*
X132608724Y-136868660D01*
X134901739Y-138671124D02*
X134901739Y-136918673D01*
X132608724Y-138721137D02*
X132608724Y-138528096D01*
X132608724Y-136868660D02*
X132608724Y-137061701D01*
D11*
X135915023Y-136994898D02*
G75*
G03*
X135915023Y-136994898I-29972J0D01*
G01*
D10*
%TO.C,R11*%
X251098936Y-127009397D02*
X251816970Y-127009397D01*
X251098936Y-128006603D02*
X251098936Y-127009397D01*
X251816970Y-128006603D02*
X251098936Y-128006603D01*
X252269396Y-128006603D02*
X252987430Y-128006603D01*
X252987430Y-127009397D02*
X252269396Y-127009397D01*
X252987430Y-128006603D02*
X252987430Y-127009397D01*
D11*
X251573180Y-127757987D02*
G75*
G03*
X251573180Y-127757987I-29997J0D01*
G01*
D10*
%TO.C,U20*%
X216641175Y-138721137D02*
X213888724Y-138721137D01*
X216641175Y-136868660D02*
X213888724Y-136868660D01*
X216181739Y-138671124D02*
X216181739Y-136918673D01*
X213888724Y-138721137D02*
X213888724Y-138528096D01*
X213888724Y-136868660D02*
X213888724Y-137061701D01*
D11*
X217195023Y-136994898D02*
G75*
G03*
X217195023Y-136994898I-29972J0D01*
G01*
%TO.C,U31*%
X58809896Y-87900000D02*
G75*
G03*
X58809896Y-87900000I-29972J0D01*
G01*
D12*
X54794656Y-87892888D02*
X54794656Y-89907874D01*
X54794656Y-89907874D02*
X56935118Y-89907874D01*
X56935118Y-87892888D02*
X54794656Y-87892888D01*
X56935118Y-89907874D02*
X56935118Y-87892888D01*
D10*
%TO.C,U4*%
X115041175Y-118401137D02*
X112288724Y-118401137D01*
X115041175Y-116548660D02*
X112288724Y-116548660D01*
X114581739Y-118351124D02*
X114581739Y-116598673D01*
X112288724Y-118401137D02*
X112288724Y-118208096D01*
X112288724Y-116548660D02*
X112288724Y-116741701D01*
D11*
X115595023Y-116674898D02*
G75*
G03*
X115595023Y-116674898I-29972J0D01*
G01*
%TO.C,R1*%
X52617010Y-113412987D02*
G75*
G03*
X52617010Y-113412987I-29997J0D01*
G01*
D10*
X54031260Y-113661603D02*
X54031260Y-112664397D01*
X54031260Y-112664397D02*
X53313226Y-112664397D01*
X53313226Y-113661603D02*
X54031260Y-113661603D01*
X52860800Y-113661603D02*
X52142766Y-113661603D01*
X52142766Y-113661603D02*
X52142766Y-112664397D01*
X52142766Y-112664397D02*
X52860800Y-112664397D01*
D11*
%TO.C,R7*%
X58953984Y-87189183D02*
G75*
G03*
X58953984Y-87189183I-29997J0D01*
G01*
D10*
X59172603Y-85744936D02*
X58175397Y-85744936D01*
X58175397Y-85744936D02*
X58175397Y-86462970D01*
X59172603Y-86462970D02*
X59172603Y-85744936D01*
X59172603Y-86915396D02*
X59172603Y-87633430D01*
X59172603Y-87633430D02*
X58175397Y-87633430D01*
X58175397Y-87633430D02*
X58175397Y-86915396D01*
D11*
%TO.C,U30*%
X58809896Y-77740000D02*
G75*
G03*
X58809896Y-77740000I-29972J0D01*
G01*
D12*
X54794656Y-77732888D02*
X54794656Y-79747874D01*
X54794656Y-79747874D02*
X56935118Y-79747874D01*
X56935118Y-77732888D02*
X54794656Y-77732888D01*
X56935118Y-79747874D02*
X56935118Y-77732888D01*
D10*
%TO.C,U7*%
X135361175Y-118401137D02*
X132608724Y-118401137D01*
X135361175Y-116548660D02*
X132608724Y-116548660D01*
X134901739Y-118351124D02*
X134901739Y-116598673D01*
X132608724Y-118401137D02*
X132608724Y-118208096D01*
X132608724Y-116548660D02*
X132608724Y-116741701D01*
D11*
X135915023Y-116674898D02*
G75*
G03*
X135915023Y-116674898I-29972J0D01*
G01*
D10*
%TO.C,U22*%
X236961175Y-118401137D02*
X234208724Y-118401137D01*
X236961175Y-116548660D02*
X234208724Y-116548660D01*
X236501739Y-118351124D02*
X236501739Y-116598673D01*
X234208724Y-118401137D02*
X234208724Y-118208096D01*
X234208724Y-116548660D02*
X234208724Y-116741701D01*
D11*
X237515023Y-116674898D02*
G75*
G03*
X237515023Y-116674898I-29972J0D01*
G01*
D10*
%TO.C,U26*%
X79141825Y-79253863D02*
X81894276Y-79253863D01*
X79141825Y-81106340D02*
X81894276Y-81106340D01*
X79601261Y-79303876D02*
X79601261Y-81056327D01*
X81894276Y-79253863D02*
X81894276Y-79446904D01*
X81894276Y-81106340D02*
X81894276Y-80913299D01*
D11*
X78647921Y-80980102D02*
G75*
G03*
X78647921Y-80980102I-29972J0D01*
G01*
D10*
%TO.C,R10*%
X236991397Y-121011064D02*
X236991397Y-120293030D01*
X237988603Y-121011064D02*
X236991397Y-121011064D01*
X237988603Y-120293030D02*
X237988603Y-121011064D01*
X237988603Y-119840604D02*
X237988603Y-119122570D01*
X236991397Y-119122570D02*
X236991397Y-119840604D01*
X237988603Y-119122570D02*
X236991397Y-119122570D01*
D11*
X237769984Y-120566817D02*
G75*
G03*
X237769984Y-120566817I-29997J0D01*
G01*
D10*
%TO.C,U25*%
X94721175Y-98081137D02*
X91968724Y-98081137D01*
X94721175Y-96228660D02*
X91968724Y-96228660D01*
X94261739Y-98031124D02*
X94261739Y-96278673D01*
X91968724Y-98081137D02*
X91968724Y-97888096D01*
X91968724Y-96228660D02*
X91968724Y-96421701D01*
D11*
X95275023Y-96354898D02*
G75*
G03*
X95275023Y-96354898I-29972J0D01*
G01*
%TO.C,R6*%
X58953984Y-77029183D02*
G75*
G03*
X58953984Y-77029183I-29997J0D01*
G01*
D10*
X59172603Y-75584936D02*
X58175397Y-75584936D01*
X58175397Y-75584936D02*
X58175397Y-76302970D01*
X59172603Y-76302970D02*
X59172603Y-75584936D01*
X59172603Y-76755396D02*
X59172603Y-77473430D01*
X59172603Y-77473430D02*
X58175397Y-77473430D01*
X58175397Y-77473430D02*
X58175397Y-76755396D01*
%TO.C,U21*%
X236961175Y-98081137D02*
X234208724Y-98081137D01*
X236961175Y-96228660D02*
X234208724Y-96228660D01*
X236501739Y-98031124D02*
X236501739Y-96278673D01*
X234208724Y-98081137D02*
X234208724Y-97888096D01*
X234208724Y-96228660D02*
X234208724Y-96421701D01*
D11*
X237515023Y-96354898D02*
G75*
G03*
X237515023Y-96354898I-29972J0D01*
G01*
D10*
%TO.C,U18*%
X216641175Y-98081137D02*
X213888724Y-98081137D01*
X216641175Y-96228660D02*
X213888724Y-96228660D01*
X216181739Y-98031124D02*
X216181739Y-96278673D01*
X213888724Y-98081137D02*
X213888724Y-97888096D01*
X213888724Y-96228660D02*
X213888724Y-96421701D01*
D11*
X217195023Y-96354898D02*
G75*
G03*
X217195023Y-96354898I-29972J0D01*
G01*
%TO.C,U29*%
X58809896Y-67580000D02*
G75*
G03*
X58809896Y-67580000I-29972J0D01*
G01*
D12*
X54794656Y-67572888D02*
X54794656Y-69587874D01*
X54794656Y-69587874D02*
X56935118Y-69587874D01*
X56935118Y-67572888D02*
X54794656Y-67572888D01*
X56935118Y-69587874D02*
X56935118Y-67572888D01*
D10*
%TO.C,U17*%
X196321175Y-138721137D02*
X193568724Y-138721137D01*
X196321175Y-136868660D02*
X193568724Y-136868660D01*
X195861739Y-138671124D02*
X195861739Y-136918673D01*
X193568724Y-138721137D02*
X193568724Y-138528096D01*
X193568724Y-136868660D02*
X193568724Y-137061701D01*
D11*
X196875023Y-136994898D02*
G75*
G03*
X196875023Y-136994898I-29972J0D01*
G01*
D10*
%TO.C,U23*%
X236961175Y-138721137D02*
X234208724Y-138721137D01*
X236961175Y-136868660D02*
X234208724Y-136868660D01*
X236501739Y-138671124D02*
X236501739Y-136918673D01*
X234208724Y-138721137D02*
X234208724Y-138528096D01*
X234208724Y-136868660D02*
X234208724Y-137061701D01*
D11*
X237515023Y-136994898D02*
G75*
G03*
X237515023Y-136994898I-29972J0D01*
G01*
D10*
%TO.C,U14*%
X176001175Y-138721137D02*
X173248724Y-138721137D01*
X176001175Y-136868660D02*
X173248724Y-136868660D01*
X175541739Y-138671124D02*
X175541739Y-136918673D01*
X173248724Y-138721137D02*
X173248724Y-138528096D01*
X173248724Y-136868660D02*
X173248724Y-137061701D01*
D11*
X176555023Y-136994898D02*
G75*
G03*
X176555023Y-136994898I-29972J0D01*
G01*
%TO.C,U32*%
X58809896Y-98060000D02*
G75*
G03*
X58809896Y-98060000I-29972J0D01*
G01*
D12*
X54794656Y-98052888D02*
X54794656Y-100067874D01*
X54794656Y-100067874D02*
X56935118Y-100067874D01*
X56935118Y-98052888D02*
X54794656Y-98052888D01*
X56935118Y-100067874D02*
X56935118Y-98052888D01*
D10*
%TO.C,U12*%
X176001175Y-98081137D02*
X173248724Y-98081137D01*
X176001175Y-96228660D02*
X173248724Y-96228660D01*
X175541739Y-98031124D02*
X175541739Y-96278673D01*
X173248724Y-98081137D02*
X173248724Y-97888096D01*
X173248724Y-96228660D02*
X173248724Y-96421701D01*
D11*
X176555023Y-96354898D02*
G75*
G03*
X176555023Y-96354898I-29972J0D01*
G01*
D12*
%TO.C,U27*%
X260879848Y-77659594D02*
X260879848Y-69659695D01*
X260879848Y-77659594D02*
X260479670Y-77659594D01*
X260479670Y-77659594D02*
X260479670Y-69659695D01*
X260479670Y-77462464D02*
X259579822Y-77462464D01*
X260479670Y-69851008D02*
X259605298Y-69851008D01*
X260479670Y-69659695D02*
X260879848Y-69659695D01*
X259605298Y-69851008D02*
X259579822Y-69825583D01*
X259580000Y-84160051D02*
X259580000Y-63160051D01*
X259580000Y-63160051D02*
X259241163Y-63160051D01*
X259241062Y-84159924D02*
X259579822Y-84159924D01*
X257178908Y-63160051D02*
X256701158Y-63160051D01*
X256701158Y-84160051D02*
X257178908Y-84160051D01*
X254638903Y-63160051D02*
X254161153Y-63160051D01*
X254161153Y-84160051D02*
X254638903Y-84160051D01*
X252098898Y-63160051D02*
X251621148Y-63160051D01*
X251621148Y-84160051D02*
X252098898Y-84160051D01*
X249558893Y-63160051D02*
X249081143Y-63160051D01*
X249081143Y-84160051D02*
X249558893Y-84160051D01*
X247018887Y-63160051D02*
X246541138Y-63160051D01*
X246541138Y-84160051D02*
X247018887Y-84160051D01*
X244478882Y-63160051D02*
X244001133Y-63160051D01*
X244001133Y-84160051D02*
X244478882Y-84160051D01*
X241938877Y-63160051D02*
X241461128Y-63160051D01*
X241461128Y-84160051D02*
X241938877Y-84160051D01*
X239398872Y-63160051D02*
X238921123Y-63160051D01*
X238921123Y-84160051D02*
X239398872Y-84160051D01*
X236858867Y-63160051D02*
X236381118Y-63160051D01*
X236381118Y-84160051D02*
X236858867Y-84160051D01*
X234318862Y-63160051D02*
X233841113Y-63160051D01*
X233841113Y-84160051D02*
X234318862Y-84160051D01*
X231778857Y-63160051D02*
X231301107Y-63160051D01*
X231301107Y-84160051D02*
X231778857Y-84160051D01*
X229238852Y-63160051D02*
X228761102Y-63160051D01*
X228761102Y-84160051D02*
X229238852Y-84160051D01*
X226698847Y-63160051D02*
X226221097Y-63160051D01*
X226221097Y-84160051D02*
X226698847Y-84160051D01*
X224158842Y-63160051D02*
X223681092Y-63160051D01*
X223681092Y-84160051D02*
X224158842Y-84160051D01*
X221618837Y-63160051D02*
X221141087Y-63160051D01*
X221141087Y-84160051D02*
X221618837Y-84160051D01*
X219078832Y-63160051D02*
X218601082Y-63160051D01*
X218601082Y-84160051D02*
X219078832Y-84160051D01*
X216538827Y-63160051D02*
X216061077Y-63160051D01*
X216061077Y-84160051D02*
X216538827Y-84160051D01*
X213998821Y-63160051D02*
X213521072Y-63160051D01*
X213521072Y-84160051D02*
X213998821Y-84160051D01*
X211458816Y-63160051D02*
X210981067Y-63160051D01*
X210981067Y-84160051D02*
X211458816Y-84160051D01*
X208918811Y-63160051D02*
X208579975Y-63160051D01*
X208579975Y-84160051D02*
X208918811Y-84160051D01*
X208579975Y-77231095D02*
X208579975Y-84160051D01*
X208579975Y-74691090D02*
X208579975Y-75168890D01*
X208579975Y-72151085D02*
X208579975Y-72628885D01*
X208579975Y-63160051D02*
X208579975Y-70088880D01*
D11*
X259610022Y-63160000D02*
G75*
G03*
X259610022Y-63160000I-29997J0D01*
G01*
D13*
X258479796Y-61159873D02*
G75*
G03*
X258479796Y-61159873I-249936J0D01*
G01*
D12*
X258230115Y-79159873D02*
G75*
G03*
X258230115Y-79159873I-800102J0D01*
G01*
X258830064Y-79159873D02*
G75*
G03*
X258830064Y-79159873I-1400051J0D01*
G01*
X258230115Y-68159873D02*
G75*
G03*
X258230115Y-68159873I-800102J0D01*
G01*
X258830064Y-68159873D02*
G75*
G03*
X258830064Y-68159873I-1400051J0D01*
G01*
X211530088Y-79159873D02*
G75*
G03*
X211530088Y-79159873I-800101J0D01*
G01*
X212130038Y-79159873D02*
G75*
G03*
X212130038Y-79159873I-1400051J0D01*
G01*
X211530088Y-68159873D02*
G75*
G03*
X211530088Y-68159873I-800101J0D01*
G01*
X212130038Y-68159873D02*
G75*
G03*
X212130038Y-68159873I-1400051J0D01*
G01*
D10*
%TO.C,U11*%
X155681175Y-138721137D02*
X152928724Y-138721137D01*
X155681175Y-136868660D02*
X152928724Y-136868660D01*
X155221739Y-138671124D02*
X155221739Y-136918673D01*
X152928724Y-138721137D02*
X152928724Y-138528096D01*
X152928724Y-136868660D02*
X152928724Y-137061701D01*
D11*
X156235023Y-136994898D02*
G75*
G03*
X156235023Y-136994898I-29972J0D01*
G01*
%TO.C,C1*%
X53848912Y-112143013D02*
G75*
G03*
X53848912Y-112143013I-29997J0D01*
G01*
D10*
X55335222Y-112391607D02*
G75*
G03*
X55487622Y-112239203I-7J152407D01*
G01*
X55487618Y-111546797D02*
G75*
G03*
X55335222Y-111394397I-152403J-3D01*
G01*
X53150208Y-112239203D02*
G75*
G03*
X53302608Y-112391603I152400J0D01*
G01*
X53302608Y-111394397D02*
G75*
G03*
X53150208Y-111546797I0J-152400D01*
G01*
X55487622Y-112239203D02*
X55487622Y-111546797D01*
X55335222Y-111394397D02*
X54545128Y-111394397D01*
X54545128Y-112391603D02*
X55335222Y-112391603D01*
X54092702Y-112391603D02*
X53302608Y-112391603D01*
X53302608Y-111394397D02*
X54092702Y-111394397D01*
X53150208Y-112239203D02*
X53150208Y-111546797D01*
%TO.C,U3*%
X115041175Y-98081137D02*
X112288724Y-98081137D01*
X115041175Y-96228660D02*
X112288724Y-96228660D01*
X114581739Y-98031124D02*
X114581739Y-96278673D01*
X112288724Y-98081137D02*
X112288724Y-97888096D01*
X112288724Y-96228660D02*
X112288724Y-96421701D01*
D11*
X115595023Y-96354898D02*
G75*
G03*
X115595023Y-96354898I-29972J0D01*
G01*
D10*
%TO.C,U19*%
X216641175Y-118401137D02*
X213888724Y-118401137D01*
X216641175Y-116548660D02*
X213888724Y-116548660D01*
X216181739Y-118351124D02*
X216181739Y-116598673D01*
X213888724Y-118401137D02*
X213888724Y-118208096D01*
X213888724Y-116548660D02*
X213888724Y-116741701D01*
D11*
X217195023Y-116674898D02*
G75*
G03*
X217195023Y-116674898I-29972J0D01*
G01*
D10*
%TO.C,U16*%
X196321175Y-118401137D02*
X193568724Y-118401137D01*
X196321175Y-116548660D02*
X193568724Y-116548660D01*
X195861739Y-118351124D02*
X195861739Y-116598673D01*
X193568724Y-118401137D02*
X193568724Y-118208096D01*
X193568724Y-116548660D02*
X193568724Y-116741701D01*
D11*
X196875023Y-116674898D02*
G75*
G03*
X196875023Y-116674898I-29972J0D01*
G01*
D10*
%TO.C,R5*%
X58368447Y-67492247D02*
X58368447Y-66774213D01*
X59365653Y-67492247D02*
X58368447Y-67492247D01*
X59365653Y-66774213D02*
X59365653Y-67492247D01*
X59365653Y-66321787D02*
X59365653Y-65603753D01*
X58368447Y-65603753D02*
X58368447Y-66321787D01*
X59365653Y-65603753D02*
X58368447Y-65603753D01*
D11*
X59147034Y-67048000D02*
G75*
G03*
X59147034Y-67048000I-29997J0D01*
G01*
D10*
%TO.C,U15*%
X196321175Y-98081137D02*
X193568724Y-98081137D01*
X196321175Y-96228660D02*
X193568724Y-96228660D01*
X195861739Y-98031124D02*
X195861739Y-96278673D01*
X193568724Y-98081137D02*
X193568724Y-97888096D01*
X193568724Y-96228660D02*
X193568724Y-96421701D01*
D11*
X196875023Y-96354898D02*
G75*
G03*
X196875023Y-96354898I-29972J0D01*
G01*
D10*
%TO.C,U5*%
X115041175Y-138721137D02*
X112288724Y-138721137D01*
X115041175Y-136868660D02*
X112288724Y-136868660D01*
X114581739Y-138671124D02*
X114581739Y-136918673D01*
X112288724Y-138721137D02*
X112288724Y-138528096D01*
X112288724Y-136868660D02*
X112288724Y-137061701D01*
D11*
X115595023Y-136994898D02*
G75*
G03*
X115595023Y-136994898I-29972J0D01*
G01*
%TO.C,U24*%
X98967921Y-80515102D02*
G75*
G03*
X98967921Y-80515102I-29972J0D01*
G01*
D10*
X102214276Y-80641340D02*
X102214276Y-80448299D01*
X102214276Y-78788863D02*
X102214276Y-78981904D01*
X99921261Y-78838876D02*
X99921261Y-80591327D01*
X99461825Y-80641340D02*
X102214276Y-80641340D01*
X99461825Y-78788863D02*
X102214276Y-78788863D01*
%TD*%
%LPC*%
D14*
%TO.C,H5*%
X40000000Y-60000000D03*
%TD*%
%TO.C,H4*%
X255000000Y-90000000D03*
%TD*%
%TO.C,H3*%
X255000000Y-150000000D03*
%TD*%
%TO.C,H2*%
X40000000Y-150000000D03*
%TD*%
%TO.C,H1*%
X40000000Y-90000000D03*
%TD*%
D15*
%TO.C,SW27*%
X89408000Y-78740000D03*
X83058000Y-76200000D03*
D16*
X91948000Y-73660000D03*
D17*
X86868000Y-73660000D03*
D16*
X81788000Y-73660000D03*
%TD*%
D18*
%TO.C,U1*%
X95079950Y-117475000D03*
X91610050Y-117475000D03*
%TD*%
%TO.C,U10*%
X156039950Y-117475000D03*
X152570050Y-117475000D03*
%TD*%
%TO.C,U9*%
X156039950Y-97155000D03*
X152570050Y-97155000D03*
%TD*%
D19*
%TO.C,R2*%
X57837830Y-113163000D03*
X58703464Y-113163000D03*
%TD*%
D18*
%TO.C,U28*%
X254170050Y-127635000D03*
X257639950Y-127635000D03*
%TD*%
D19*
%TO.C,R3*%
X52654196Y-110623000D03*
X53519830Y-110623000D03*
%TD*%
D18*
%TO.C,U13*%
X176359950Y-117475000D03*
X172890050Y-117475000D03*
%TD*%
%TO.C,U2*%
X95079950Y-137795000D03*
X91610050Y-137795000D03*
%TD*%
D19*
%TO.C,R4*%
X58703464Y-110623000D03*
X57837830Y-110623000D03*
%TD*%
D20*
%TO.C,R9*%
X237490000Y-100179634D03*
X237490000Y-99314000D03*
%TD*%
D18*
%TO.C,U6*%
X135719950Y-97155000D03*
X132250050Y-97155000D03*
%TD*%
D21*
%TO.C,C2*%
X56567830Y-111893000D03*
X57658000Y-111893000D03*
%TD*%
D20*
%TO.C,R8*%
X58674000Y-96520000D03*
X58674000Y-97385634D03*
%TD*%
D18*
%TO.C,U8*%
X135719950Y-137795000D03*
X132250050Y-137795000D03*
%TD*%
D19*
%TO.C,R11*%
X251610366Y-127508000D03*
X252476000Y-127508000D03*
%TD*%
D18*
%TO.C,U20*%
X216999950Y-137795000D03*
X213530050Y-137795000D03*
%TD*%
D22*
%TO.C,U31*%
X53179975Y-88900000D03*
D23*
X58580025Y-88900000D03*
%TD*%
D18*
%TO.C,U4*%
X115399950Y-117475000D03*
X111930050Y-117475000D03*
%TD*%
D19*
%TO.C,R1*%
X53519830Y-113163000D03*
X52654196Y-113163000D03*
%TD*%
D20*
%TO.C,R7*%
X58674000Y-86256366D03*
X58674000Y-87122000D03*
%TD*%
D22*
%TO.C,U30*%
X53179975Y-78740000D03*
D23*
X58580025Y-78740000D03*
%TD*%
D18*
%TO.C,U7*%
X135719950Y-117475000D03*
X132250050Y-117475000D03*
%TD*%
%TO.C,U22*%
X237319950Y-117475000D03*
X233850050Y-117475000D03*
%TD*%
%TO.C,U26*%
X78783050Y-80180000D03*
X82252950Y-80180000D03*
%TD*%
D20*
%TO.C,R10*%
X237490000Y-120499634D03*
X237490000Y-119634000D03*
%TD*%
D18*
%TO.C,U25*%
X95079950Y-97155000D03*
X91610050Y-97155000D03*
%TD*%
D20*
%TO.C,R6*%
X58674000Y-76096366D03*
X58674000Y-76962000D03*
%TD*%
D18*
%TO.C,U21*%
X237319950Y-97155000D03*
X233850050Y-97155000D03*
%TD*%
%TO.C,U18*%
X216999950Y-97155000D03*
X213530050Y-97155000D03*
%TD*%
D22*
%TO.C,U29*%
X53179975Y-68580000D03*
D23*
X58580025Y-68580000D03*
%TD*%
D18*
%TO.C,U17*%
X196679950Y-137795000D03*
X193210050Y-137795000D03*
%TD*%
%TO.C,U23*%
X237319950Y-137795000D03*
X233850050Y-137795000D03*
%TD*%
%TO.C,U14*%
X176359950Y-137795000D03*
X172890050Y-137795000D03*
%TD*%
D22*
%TO.C,U32*%
X53179975Y-99060000D03*
D23*
X58580025Y-99060000D03*
%TD*%
D18*
%TO.C,U12*%
X176359950Y-97155000D03*
X172890050Y-97155000D03*
%TD*%
D24*
%TO.C,U27*%
X258210048Y-63572624D03*
X255670043Y-63572624D03*
X253130038Y-63572624D03*
X250590033Y-63572624D03*
X248050028Y-63572624D03*
X245510023Y-63572624D03*
X242970018Y-63572624D03*
X240430013Y-63572624D03*
X237890008Y-63572624D03*
X235350003Y-63572624D03*
X232809997Y-63572624D03*
X230269992Y-63572624D03*
X227729987Y-63572624D03*
X225189982Y-63572624D03*
X222649977Y-63572624D03*
X220109972Y-63572624D03*
X217569967Y-63572624D03*
X215029962Y-63572624D03*
X212489957Y-63572624D03*
X209949952Y-63572624D03*
X209949952Y-83747376D03*
X212489957Y-83747376D03*
X215029962Y-83747376D03*
X217569967Y-83747376D03*
X220109972Y-83747376D03*
X222649977Y-83747376D03*
X225189982Y-83747376D03*
X227729987Y-83747376D03*
X230269992Y-83747376D03*
X232809997Y-83747376D03*
X235350003Y-83747376D03*
X237890008Y-83747376D03*
X240430013Y-83747376D03*
X242970018Y-83747376D03*
X245510023Y-83747376D03*
X248050028Y-83747376D03*
X250590033Y-83747376D03*
X253130038Y-83747376D03*
X255670043Y-83747376D03*
X258210048Y-83747376D03*
D25*
X209149952Y-71119995D03*
X209149952Y-73660000D03*
X209149952Y-76200005D03*
%TD*%
D18*
%TO.C,U11*%
X156039950Y-137795000D03*
X152570050Y-137795000D03*
%TD*%
D21*
%TO.C,C1*%
X54864000Y-111893000D03*
X53773830Y-111893000D03*
%TD*%
D18*
%TO.C,U3*%
X115399950Y-97155000D03*
X111930050Y-97155000D03*
%TD*%
%TO.C,U19*%
X216999950Y-117475000D03*
X213530050Y-117475000D03*
%TD*%
%TO.C,U16*%
X196679950Y-117475000D03*
X193210050Y-117475000D03*
%TD*%
D20*
%TO.C,R5*%
X58867050Y-66980817D03*
X58867050Y-66115183D03*
%TD*%
D18*
%TO.C,U15*%
X196679950Y-97155000D03*
X193210050Y-97155000D03*
%TD*%
%TO.C,U5*%
X115399950Y-137795000D03*
X111930050Y-137795000D03*
%TD*%
%TO.C,U24*%
X102572950Y-79715000D03*
X99103050Y-79715000D03*
%TD*%
D16*
%TO.C,SW28*%
X254635000Y-133985000D03*
D17*
X249555000Y-133985000D03*
D16*
X244475000Y-133985000D03*
D15*
X253365000Y-131445000D03*
X247015000Y-128905000D03*
%TD*%
D16*
%TO.C,SW20*%
X213995000Y-123825000D03*
D17*
X208915000Y-123825000D03*
D16*
X203835000Y-123825000D03*
D15*
X212725000Y-121285000D03*
X206375000Y-118745000D03*
%TD*%
D16*
%TO.C,SW16*%
X193675000Y-103505000D03*
D17*
X188595000Y-103505000D03*
D16*
X183515000Y-103505000D03*
D15*
X192405000Y-100965000D03*
X186055000Y-98425000D03*
%TD*%
D16*
%TO.C,SW24*%
X234315000Y-144145000D03*
D17*
X229235000Y-144145000D03*
D16*
X224155000Y-144145000D03*
D15*
X233045000Y-141605000D03*
X226695000Y-139065000D03*
%TD*%
D16*
%TO.C,SW9*%
X132715000Y-144145000D03*
D17*
X127635000Y-144145000D03*
D16*
X122555000Y-144145000D03*
D15*
X131445000Y-141605000D03*
X125095000Y-139065000D03*
%TD*%
D26*
%TO.C,SW25*%
X53126000Y-116211000D03*
X58126000Y-116211000D03*
X55626000Y-116211000D03*
D27*
X62226000Y-123711000D03*
X49026000Y-123711000D03*
%TD*%
D16*
%TO.C,SW15*%
X173355000Y-144145000D03*
D17*
X168275000Y-144145000D03*
D16*
X163195000Y-144145000D03*
D15*
X172085000Y-141605000D03*
X165735000Y-139065000D03*
%TD*%
D16*
%TO.C,SW2*%
X92075000Y-123825000D03*
D17*
X86995000Y-123825000D03*
D16*
X81915000Y-123825000D03*
D15*
X90805000Y-121285000D03*
X84455000Y-118745000D03*
%TD*%
D16*
%TO.C,SW7*%
X132715000Y-103505000D03*
D17*
X127635000Y-103505000D03*
D16*
X122555000Y-103505000D03*
D15*
X131445000Y-100965000D03*
X125095000Y-98425000D03*
%TD*%
D16*
%TO.C,SW11*%
X153035000Y-123825000D03*
D17*
X147955000Y-123825000D03*
D16*
X142875000Y-123825000D03*
D15*
X151765000Y-121285000D03*
X145415000Y-118745000D03*
%TD*%
D16*
%TO.C,SW8*%
X132715000Y-123825000D03*
D17*
X127635000Y-123825000D03*
D16*
X122555000Y-123825000D03*
D15*
X131445000Y-121285000D03*
X125095000Y-118745000D03*
%TD*%
D16*
%TO.C,SW12*%
X153035000Y-144145000D03*
D17*
X147955000Y-144145000D03*
D16*
X142875000Y-144145000D03*
D15*
X151765000Y-141605000D03*
X145415000Y-139065000D03*
%TD*%
D16*
%TO.C,SW1*%
X92075000Y-103505000D03*
D17*
X86995000Y-103505000D03*
D16*
X81915000Y-103505000D03*
D15*
X90805000Y-100965000D03*
X84455000Y-98425000D03*
%TD*%
D16*
%TO.C,SW17*%
X193675000Y-123825000D03*
D17*
X188595000Y-123825000D03*
D16*
X183515000Y-123825000D03*
D15*
X192405000Y-121285000D03*
X186055000Y-118745000D03*
%TD*%
D16*
%TO.C,SW10*%
X153035000Y-103505000D03*
D17*
X147955000Y-103505000D03*
D16*
X142875000Y-103505000D03*
D15*
X151765000Y-100965000D03*
X145415000Y-98425000D03*
%TD*%
D16*
%TO.C,SW22*%
X234315000Y-103505000D03*
D17*
X229235000Y-103505000D03*
D16*
X224155000Y-103505000D03*
D15*
X233045000Y-100965000D03*
X226695000Y-98425000D03*
%TD*%
D16*
%TO.C,SW14*%
X173355000Y-123825000D03*
D17*
X168275000Y-123825000D03*
D16*
X163195000Y-123825000D03*
D15*
X172085000Y-121285000D03*
X165735000Y-118745000D03*
%TD*%
D16*
%TO.C,SW6*%
X112395000Y-144145000D03*
D17*
X107315000Y-144145000D03*
D16*
X102235000Y-144145000D03*
D15*
X111125000Y-141605000D03*
X104775000Y-139065000D03*
%TD*%
D28*
%TO.C,J2*%
X177880000Y-89610000D03*
X177880000Y-57710000D03*
X138380000Y-89610000D03*
X138380000Y-57710000D03*
D29*
X177820000Y-82550000D03*
D30*
X177820000Y-80010000D03*
X177820000Y-77470000D03*
X177820000Y-74930000D03*
X177820000Y-72390000D03*
X177820000Y-69850000D03*
X177820000Y-67310000D03*
X177820000Y-64770000D03*
%TD*%
D16*
%TO.C,SW21*%
X213995000Y-144145000D03*
D17*
X208915000Y-144145000D03*
D16*
X203835000Y-144145000D03*
D15*
X212725000Y-141605000D03*
X206375000Y-139065000D03*
%TD*%
%TO.C,SW26*%
X109728000Y-78740000D03*
X103378000Y-76200000D03*
D16*
X112268000Y-73660000D03*
D17*
X107188000Y-73660000D03*
D16*
X102108000Y-73660000D03*
%TD*%
%TO.C,SW4*%
X112395000Y-103505000D03*
D17*
X107315000Y-103505000D03*
D16*
X102235000Y-103505000D03*
D15*
X111125000Y-100965000D03*
X104775000Y-98425000D03*
%TD*%
D16*
%TO.C,SW19*%
X213995000Y-103505000D03*
D17*
X208915000Y-103505000D03*
D16*
X203835000Y-103505000D03*
D15*
X212725000Y-100965000D03*
X206375000Y-98425000D03*
%TD*%
D16*
%TO.C,SW5*%
X112395000Y-123825000D03*
D17*
X107315000Y-123825000D03*
D16*
X102235000Y-123825000D03*
D15*
X111125000Y-121285000D03*
X104775000Y-118745000D03*
%TD*%
D16*
%TO.C,SW23*%
X234315000Y-123825000D03*
D17*
X229235000Y-123825000D03*
D16*
X224155000Y-123825000D03*
D15*
X233045000Y-121285000D03*
X226695000Y-118745000D03*
%TD*%
D16*
%TO.C,SW13*%
X173355000Y-103505000D03*
D17*
X168275000Y-103505000D03*
D16*
X163195000Y-103505000D03*
D15*
X172085000Y-100965000D03*
X165735000Y-98425000D03*
%TD*%
D16*
%TO.C,SW3*%
X92075000Y-144145000D03*
D17*
X86995000Y-144145000D03*
D16*
X81915000Y-144145000D03*
D15*
X90805000Y-141605000D03*
X84455000Y-139065000D03*
%TD*%
D16*
%TO.C,SW18*%
X193675000Y-144145000D03*
D17*
X188595000Y-144145000D03*
D16*
X183515000Y-144145000D03*
D15*
X192405000Y-141605000D03*
X186055000Y-139065000D03*
%TD*%
%LPD*%
M02*
