M48
; DRILL file {KiCad 7.0.5-0} date 2023 October 31, Tuesday 21:53:37
; FORMAT={-:-/ absolute / inch / decimal}
; #@! TF.CreationDate,2023-10-31T21:53:37+01:00
; #@! TF.GenerationSoftware,Kicad,Pcbnew,7.0.5-0
; #@! TF.FileFunction,Plated,1,2,PTH
FMAT,2
INCH
; #@! TA.AperFunction,Plated,PTH,ViaDrill
T1C0.0157
; #@! TA.AperFunction,Plated,PTH,ComponentDrill
T2C0.0394
; #@! TA.AperFunction,Plated,PTH,ComponentDrill
T3C0.0591
; #@! TA.AperFunction,Plated,PTH,ComponentDrill
T4C0.0827
; #@! TA.AperFunction,Plated,PTH,ComponentDrill
T5C0.1260
%
G90
G05
T1
X2.0Y-4.4552
X2.31Y-4.26
X2.31Y-4.3
X2.38Y-4.4552
X2.9549Y-3.7759
X3.23Y-5.9
X6.18Y-2.28
X7.36Y-3.6
X7.41Y-3.6
X7.46Y-3.6
X7.51Y-3.6
X7.56Y-3.6
X7.61Y-3.6
X7.66Y-3.6
X7.71Y-3.6
X7.76Y-3.6
X8.36Y-3.55
X8.56Y-3.52
X8.66Y-3.49
X8.76Y-3.61
X8.86Y-3.58
X9.2657Y-3.16
X9.3657Y-3.1343
X9.765Y-3.415
X9.765Y-3.455
X9.765Y-3.495
T2
X2.0916Y-4.5752
X2.19Y-4.5752
X2.2884Y-4.5752
X7.0008Y-2.55
X7.0008Y-2.65
X7.0008Y-2.75
X7.0008Y-2.85
X7.0008Y-2.95
X7.0008Y-3.05
X7.0008Y-3.15
X7.0008Y-3.25
T3
X3.27Y-3.0
X3.325Y-3.875
X3.325Y-4.675
X3.325Y-5.475
X3.52Y-3.1
X3.575Y-3.975
X3.575Y-4.775
X3.575Y-5.575
X4.07Y-3.0
X4.125Y-3.875
X4.125Y-4.675
X4.125Y-5.475
X4.32Y-3.1
X4.375Y-3.975
X4.375Y-4.775
X4.375Y-5.575
X4.925Y-3.875
X4.925Y-4.675
X4.925Y-5.475
X5.175Y-3.975
X5.175Y-4.775
X5.175Y-5.575
X5.725Y-3.875
X5.725Y-4.675
X5.725Y-5.475
X5.975Y-3.975
X5.975Y-4.775
X5.975Y-5.575
X6.525Y-3.875
X6.525Y-4.675
X6.525Y-5.475
X6.775Y-3.975
X6.775Y-4.775
X6.775Y-5.575
X7.325Y-3.875
X7.325Y-4.675
X7.325Y-5.475
X7.575Y-3.975
X7.575Y-4.775
X7.575Y-5.575
X8.125Y-3.875
X8.125Y-4.675
X8.125Y-5.475
X8.375Y-3.975
X8.375Y-4.775
X8.375Y-5.575
X8.925Y-3.875
X8.925Y-4.675
X8.925Y-5.475
X9.175Y-3.975
X9.175Y-4.775
X9.175Y-5.575
X9.725Y-5.075
X9.975Y-5.175
T5
X5.448Y-2.272
X5.448Y-3.528
X7.0031Y-2.272
X7.0031Y-3.528
T4
G00X1.9302Y-4.8685
M15
G01X1.9302Y-4.8725
M16
G05
G00X2.4498Y-4.8685
M15
G01X2.4498Y-4.8725
M16
G05
T0
M30
