M48
; DRILL file {KiCad 7.0.5-0} date 2023 October 31, Tuesday 21:53:37
; FORMAT={-:-/ absolute / inch / decimal}
; #@! TF.CreationDate,2023-10-31T21:53:37+01:00
; #@! TF.GenerationSoftware,Kicad,Pcbnew,7.0.5-0
; #@! TF.FileFunction,NonPlated,1,2,NPTH
FMAT,2
INCH
; #@! TA.AperFunction,NonPlated,NPTH,ComponentDrill
T1C0.0689
; #@! TA.AperFunction,NonPlated,NPTH,ComponentDrill
T2C0.1260
; #@! TA.AperFunction,NonPlated,NPTH,ComponentDrill
T3C0.1575
%
G90
G05
T1
X3.22Y-2.9
X3.225Y-4.075
X3.225Y-4.875
X3.225Y-5.675
X3.62Y-2.9
X3.625Y-4.075
X3.625Y-4.875
X3.625Y-5.675
X4.02Y-2.9
X4.025Y-4.075
X4.025Y-4.875
X4.025Y-5.675
X4.42Y-2.9
X4.425Y-4.075
X4.425Y-4.875
X4.425Y-5.675
X4.825Y-4.075
X4.825Y-4.875
X4.825Y-5.675
X5.225Y-4.075
X5.225Y-4.875
X5.225Y-5.675
X5.625Y-4.075
X5.625Y-4.875
X5.625Y-5.675
X6.025Y-4.075
X6.025Y-4.875
X6.025Y-5.675
X6.425Y-4.075
X6.425Y-4.875
X6.425Y-5.675
X6.825Y-4.075
X6.825Y-4.875
X6.825Y-5.675
X7.225Y-4.075
X7.225Y-4.875
X7.225Y-5.675
X7.625Y-4.075
X7.625Y-4.875
X7.625Y-5.675
X8.025Y-4.075
X8.025Y-4.875
X8.025Y-5.675
X8.425Y-4.075
X8.425Y-4.875
X8.425Y-5.675
X8.825Y-4.075
X8.825Y-4.875
X8.825Y-5.675
X9.225Y-4.075
X9.225Y-4.875
X9.225Y-5.675
X9.625Y-5.275
X10.025Y-5.275
T2
X1.5748Y-2.3622
X1.5748Y-3.5433
X1.5748Y-5.9055
X10.0394Y-3.5433
X10.0394Y-5.9055
T3
X3.42Y-2.9
X3.425Y-4.075
X3.425Y-4.875
X3.425Y-5.675
X4.22Y-2.9
X4.225Y-4.075
X4.225Y-4.875
X4.225Y-5.675
X5.025Y-4.075
X5.025Y-4.875
X5.025Y-5.675
X5.825Y-4.075
X5.825Y-4.875
X5.825Y-5.675
X6.625Y-4.075
X6.625Y-4.875
X6.625Y-5.675
X7.425Y-4.075
X7.425Y-4.875
X7.425Y-5.675
X8.225Y-4.075
X8.225Y-4.875
X8.225Y-5.675
X9.025Y-4.075
X9.025Y-4.875
X9.025Y-5.675
X9.825Y-5.275
T0
M30
