%TF.GenerationSoftware,KiCad,Pcbnew,7.0.5-0*%
%TF.CreationDate,2023-10-31T21:53:37+01:00*%
%TF.ProjectId,20231027_vm-1_prototyp,32303233-3130-4323-975f-766d2d315f70,rev?*%
%TF.SameCoordinates,Original*%
%TF.FileFunction,Soldermask,Top*%
%TF.FilePolarity,Negative*%
%FSLAX46Y46*%
G04 Gerber Fmt 4.6, Leading zero omitted, Abs format (unit mm)*
G04 Created by KiCad (PCBNEW 7.0.5-0) date 2023-10-31 21:53:37*
%MOMM*%
%LPD*%
G01*
G04 APERTURE LIST*
%ADD10C,3.200000*%
%ADD11C,2.500000*%
%ADD12C,1.750000*%
%ADD13C,4.000000*%
%ADD14R,1.100000X1.000000*%
%ADD15R,0.565659X0.540005*%
%ADD16R,0.540005X0.565659*%
%ADD17R,0.790094X0.540005*%
%ADD18R,1.300000X0.600000*%
%ADD19R,1.300000X0.700000*%
%ADD20R,1.600000X3.200000*%
%ADD21R,3.200000X1.600000*%
%ADD22C,1.524000*%
%ADD23O,2.900000X3.000000*%
%ADD24C,5.000000*%
%ADD25C,1.700000*%
%ADD26O,1.700000X1.700000*%
G04 APERTURE END LIST*
D10*
%TO.C,H5*%
X40000000Y-60000000D03*
%TD*%
%TO.C,H4*%
X255000000Y-90000000D03*
%TD*%
%TO.C,H3*%
X255000000Y-150000000D03*
%TD*%
%TO.C,H2*%
X40000000Y-150000000D03*
%TD*%
%TO.C,H1*%
X40000000Y-90000000D03*
%TD*%
D11*
%TO.C,SW27*%
X89408000Y-78740000D03*
X83058000Y-76200000D03*
D12*
X91948000Y-73660000D03*
D13*
X86868000Y-73660000D03*
D12*
X81788000Y-73660000D03*
%TD*%
D14*
%TO.C,U1*%
X95079950Y-117475000D03*
X91610050Y-117475000D03*
%TD*%
%TO.C,U10*%
X156039950Y-117475000D03*
X152570050Y-117475000D03*
%TD*%
%TO.C,U9*%
X156039950Y-97155000D03*
X152570050Y-97155000D03*
%TD*%
D15*
%TO.C,R2*%
X57837830Y-113163000D03*
X58703464Y-113163000D03*
%TD*%
D14*
%TO.C,U28*%
X254170050Y-127635000D03*
X257639950Y-127635000D03*
%TD*%
D15*
%TO.C,R3*%
X52654196Y-110623000D03*
X53519830Y-110623000D03*
%TD*%
D14*
%TO.C,U13*%
X176359950Y-117475000D03*
X172890050Y-117475000D03*
%TD*%
%TO.C,U2*%
X95079950Y-137795000D03*
X91610050Y-137795000D03*
%TD*%
D15*
%TO.C,R4*%
X58703464Y-110623000D03*
X57837830Y-110623000D03*
%TD*%
D16*
%TO.C,R9*%
X237490000Y-100179634D03*
X237490000Y-99314000D03*
%TD*%
D14*
%TO.C,U6*%
X135719950Y-97155000D03*
X132250050Y-97155000D03*
%TD*%
D17*
%TO.C,C2*%
X56567830Y-111893000D03*
X57658000Y-111893000D03*
%TD*%
D16*
%TO.C,R8*%
X58674000Y-96520000D03*
X58674000Y-97385634D03*
%TD*%
D14*
%TO.C,U8*%
X135719950Y-137795000D03*
X132250050Y-137795000D03*
%TD*%
D15*
%TO.C,R11*%
X251610366Y-127508000D03*
X252476000Y-127508000D03*
%TD*%
D14*
%TO.C,U20*%
X216999950Y-137795000D03*
X213530050Y-137795000D03*
%TD*%
D18*
%TO.C,U31*%
X53179975Y-88900000D03*
D19*
X58580025Y-88900000D03*
%TD*%
D14*
%TO.C,U4*%
X115399950Y-117475000D03*
X111930050Y-117475000D03*
%TD*%
D15*
%TO.C,R1*%
X53519830Y-113163000D03*
X52654196Y-113163000D03*
%TD*%
D16*
%TO.C,R7*%
X58674000Y-86256366D03*
X58674000Y-87122000D03*
%TD*%
D18*
%TO.C,U30*%
X53179975Y-78740000D03*
D19*
X58580025Y-78740000D03*
%TD*%
D14*
%TO.C,U7*%
X135719950Y-117475000D03*
X132250050Y-117475000D03*
%TD*%
%TO.C,U22*%
X237319950Y-117475000D03*
X233850050Y-117475000D03*
%TD*%
%TO.C,U26*%
X78783050Y-80180000D03*
X82252950Y-80180000D03*
%TD*%
D16*
%TO.C,R10*%
X237490000Y-120499634D03*
X237490000Y-119634000D03*
%TD*%
D14*
%TO.C,U25*%
X95079950Y-97155000D03*
X91610050Y-97155000D03*
%TD*%
D16*
%TO.C,R6*%
X58674000Y-76096366D03*
X58674000Y-76962000D03*
%TD*%
D14*
%TO.C,U21*%
X237319950Y-97155000D03*
X233850050Y-97155000D03*
%TD*%
%TO.C,U18*%
X216999950Y-97155000D03*
X213530050Y-97155000D03*
%TD*%
D18*
%TO.C,U29*%
X53179975Y-68580000D03*
D19*
X58580025Y-68580000D03*
%TD*%
D14*
%TO.C,U17*%
X196679950Y-137795000D03*
X193210050Y-137795000D03*
%TD*%
%TO.C,U23*%
X237319950Y-137795000D03*
X233850050Y-137795000D03*
%TD*%
%TO.C,U14*%
X176359950Y-137795000D03*
X172890050Y-137795000D03*
%TD*%
D18*
%TO.C,U32*%
X53179975Y-99060000D03*
D19*
X58580025Y-99060000D03*
%TD*%
D14*
%TO.C,U12*%
X176359950Y-97155000D03*
X172890050Y-97155000D03*
%TD*%
D20*
%TO.C,U27*%
X258210048Y-63572624D03*
X255670043Y-63572624D03*
X253130038Y-63572624D03*
X250590033Y-63572624D03*
X248050028Y-63572624D03*
X245510023Y-63572624D03*
X242970018Y-63572624D03*
X240430013Y-63572624D03*
X237890008Y-63572624D03*
X235350003Y-63572624D03*
X232809997Y-63572624D03*
X230269992Y-63572624D03*
X227729987Y-63572624D03*
X225189982Y-63572624D03*
X222649977Y-63572624D03*
X220109972Y-63572624D03*
X217569967Y-63572624D03*
X215029962Y-63572624D03*
X212489957Y-63572624D03*
X209949952Y-63572624D03*
X209949952Y-83747376D03*
X212489957Y-83747376D03*
X215029962Y-83747376D03*
X217569967Y-83747376D03*
X220109972Y-83747376D03*
X222649977Y-83747376D03*
X225189982Y-83747376D03*
X227729987Y-83747376D03*
X230269992Y-83747376D03*
X232809997Y-83747376D03*
X235350003Y-83747376D03*
X237890008Y-83747376D03*
X240430013Y-83747376D03*
X242970018Y-83747376D03*
X245510023Y-83747376D03*
X248050028Y-83747376D03*
X250590033Y-83747376D03*
X253130038Y-83747376D03*
X255670043Y-83747376D03*
X258210048Y-83747376D03*
D21*
X209149952Y-71119995D03*
X209149952Y-73660000D03*
X209149952Y-76200005D03*
%TD*%
D14*
%TO.C,U11*%
X156039950Y-137795000D03*
X152570050Y-137795000D03*
%TD*%
D17*
%TO.C,C1*%
X54864000Y-111893000D03*
X53773830Y-111893000D03*
%TD*%
D14*
%TO.C,U3*%
X115399950Y-97155000D03*
X111930050Y-97155000D03*
%TD*%
%TO.C,U19*%
X216999950Y-117475000D03*
X213530050Y-117475000D03*
%TD*%
%TO.C,U16*%
X196679950Y-117475000D03*
X193210050Y-117475000D03*
%TD*%
D16*
%TO.C,R5*%
X58867050Y-66980817D03*
X58867050Y-66115183D03*
%TD*%
D14*
%TO.C,U15*%
X196679950Y-97155000D03*
X193210050Y-97155000D03*
%TD*%
%TO.C,U5*%
X115399950Y-137795000D03*
X111930050Y-137795000D03*
%TD*%
%TO.C,U24*%
X102572950Y-79715000D03*
X99103050Y-79715000D03*
%TD*%
D12*
%TO.C,SW28*%
X254635000Y-133985000D03*
D13*
X249555000Y-133985000D03*
D12*
X244475000Y-133985000D03*
D11*
X253365000Y-131445000D03*
X247015000Y-128905000D03*
%TD*%
D12*
%TO.C,SW20*%
X213995000Y-123825000D03*
D13*
X208915000Y-123825000D03*
D12*
X203835000Y-123825000D03*
D11*
X212725000Y-121285000D03*
X206375000Y-118745000D03*
%TD*%
D12*
%TO.C,SW16*%
X193675000Y-103505000D03*
D13*
X188595000Y-103505000D03*
D12*
X183515000Y-103505000D03*
D11*
X192405000Y-100965000D03*
X186055000Y-98425000D03*
%TD*%
D12*
%TO.C,SW24*%
X234315000Y-144145000D03*
D13*
X229235000Y-144145000D03*
D12*
X224155000Y-144145000D03*
D11*
X233045000Y-141605000D03*
X226695000Y-139065000D03*
%TD*%
D12*
%TO.C,SW9*%
X132715000Y-144145000D03*
D13*
X127635000Y-144145000D03*
D12*
X122555000Y-144145000D03*
D11*
X131445000Y-141605000D03*
X125095000Y-139065000D03*
%TD*%
D22*
%TO.C,SW25*%
X53126000Y-116211000D03*
X58126000Y-116211000D03*
X55626000Y-116211000D03*
D23*
X62226000Y-123711000D03*
X49026000Y-123711000D03*
%TD*%
D12*
%TO.C,SW15*%
X173355000Y-144145000D03*
D13*
X168275000Y-144145000D03*
D12*
X163195000Y-144145000D03*
D11*
X172085000Y-141605000D03*
X165735000Y-139065000D03*
%TD*%
D12*
%TO.C,SW2*%
X92075000Y-123825000D03*
D13*
X86995000Y-123825000D03*
D12*
X81915000Y-123825000D03*
D11*
X90805000Y-121285000D03*
X84455000Y-118745000D03*
%TD*%
D12*
%TO.C,SW7*%
X132715000Y-103505000D03*
D13*
X127635000Y-103505000D03*
D12*
X122555000Y-103505000D03*
D11*
X131445000Y-100965000D03*
X125095000Y-98425000D03*
%TD*%
D12*
%TO.C,SW11*%
X153035000Y-123825000D03*
D13*
X147955000Y-123825000D03*
D12*
X142875000Y-123825000D03*
D11*
X151765000Y-121285000D03*
X145415000Y-118745000D03*
%TD*%
D12*
%TO.C,SW8*%
X132715000Y-123825000D03*
D13*
X127635000Y-123825000D03*
D12*
X122555000Y-123825000D03*
D11*
X131445000Y-121285000D03*
X125095000Y-118745000D03*
%TD*%
D12*
%TO.C,SW12*%
X153035000Y-144145000D03*
D13*
X147955000Y-144145000D03*
D12*
X142875000Y-144145000D03*
D11*
X151765000Y-141605000D03*
X145415000Y-139065000D03*
%TD*%
D12*
%TO.C,SW1*%
X92075000Y-103505000D03*
D13*
X86995000Y-103505000D03*
D12*
X81915000Y-103505000D03*
D11*
X90805000Y-100965000D03*
X84455000Y-98425000D03*
%TD*%
D12*
%TO.C,SW17*%
X193675000Y-123825000D03*
D13*
X188595000Y-123825000D03*
D12*
X183515000Y-123825000D03*
D11*
X192405000Y-121285000D03*
X186055000Y-118745000D03*
%TD*%
D12*
%TO.C,SW10*%
X153035000Y-103505000D03*
D13*
X147955000Y-103505000D03*
D12*
X142875000Y-103505000D03*
D11*
X151765000Y-100965000D03*
X145415000Y-98425000D03*
%TD*%
D12*
%TO.C,SW22*%
X234315000Y-103505000D03*
D13*
X229235000Y-103505000D03*
D12*
X224155000Y-103505000D03*
D11*
X233045000Y-100965000D03*
X226695000Y-98425000D03*
%TD*%
D12*
%TO.C,SW14*%
X173355000Y-123825000D03*
D13*
X168275000Y-123825000D03*
D12*
X163195000Y-123825000D03*
D11*
X172085000Y-121285000D03*
X165735000Y-118745000D03*
%TD*%
D12*
%TO.C,SW6*%
X112395000Y-144145000D03*
D13*
X107315000Y-144145000D03*
D12*
X102235000Y-144145000D03*
D11*
X111125000Y-141605000D03*
X104775000Y-139065000D03*
%TD*%
D24*
%TO.C,J2*%
X177880000Y-89610000D03*
X177880000Y-57710000D03*
X138380000Y-89610000D03*
X138380000Y-57710000D03*
D25*
X177820000Y-82550000D03*
D26*
X177820000Y-80010000D03*
X177820000Y-77470000D03*
X177820000Y-74930000D03*
X177820000Y-72390000D03*
X177820000Y-69850000D03*
X177820000Y-67310000D03*
X177820000Y-64770000D03*
%TD*%
D12*
%TO.C,SW21*%
X213995000Y-144145000D03*
D13*
X208915000Y-144145000D03*
D12*
X203835000Y-144145000D03*
D11*
X212725000Y-141605000D03*
X206375000Y-139065000D03*
%TD*%
%TO.C,SW26*%
X109728000Y-78740000D03*
X103378000Y-76200000D03*
D12*
X112268000Y-73660000D03*
D13*
X107188000Y-73660000D03*
D12*
X102108000Y-73660000D03*
%TD*%
%TO.C,SW4*%
X112395000Y-103505000D03*
D13*
X107315000Y-103505000D03*
D12*
X102235000Y-103505000D03*
D11*
X111125000Y-100965000D03*
X104775000Y-98425000D03*
%TD*%
D12*
%TO.C,SW19*%
X213995000Y-103505000D03*
D13*
X208915000Y-103505000D03*
D12*
X203835000Y-103505000D03*
D11*
X212725000Y-100965000D03*
X206375000Y-98425000D03*
%TD*%
D12*
%TO.C,SW5*%
X112395000Y-123825000D03*
D13*
X107315000Y-123825000D03*
D12*
X102235000Y-123825000D03*
D11*
X111125000Y-121285000D03*
X104775000Y-118745000D03*
%TD*%
D12*
%TO.C,SW23*%
X234315000Y-123825000D03*
D13*
X229235000Y-123825000D03*
D12*
X224155000Y-123825000D03*
D11*
X233045000Y-121285000D03*
X226695000Y-118745000D03*
%TD*%
D12*
%TO.C,SW13*%
X173355000Y-103505000D03*
D13*
X168275000Y-103505000D03*
D12*
X163195000Y-103505000D03*
D11*
X172085000Y-100965000D03*
X165735000Y-98425000D03*
%TD*%
D12*
%TO.C,SW3*%
X92075000Y-144145000D03*
D13*
X86995000Y-144145000D03*
D12*
X81915000Y-144145000D03*
D11*
X90805000Y-141605000D03*
X84455000Y-139065000D03*
%TD*%
D12*
%TO.C,SW18*%
X193675000Y-144145000D03*
D13*
X188595000Y-144145000D03*
D12*
X183515000Y-144145000D03*
D11*
X192405000Y-141605000D03*
X186055000Y-139065000D03*
%TD*%
M02*
