%TF.GenerationSoftware,KiCad,Pcbnew,7.0.5-0*%
%TF.CreationDate,2023-10-31T21:53:37+01:00*%
%TF.ProjectId,20231027_vm-1_prototyp,32303233-3130-4323-975f-766d2d315f70,rev?*%
%TF.SameCoordinates,Original*%
%TF.FileFunction,Soldermask,Bot*%
%TF.FilePolarity,Negative*%
%FSLAX46Y46*%
G04 Gerber Fmt 4.6, Leading zero omitted, Abs format (unit mm)*
G04 Created by KiCad (PCBNEW 7.0.5-0) date 2023-10-31 21:53:37*
%MOMM*%
%LPD*%
G01*
G04 APERTURE LIST*
%ADD10C,3.200000*%
%ADD11C,2.500000*%
%ADD12C,1.750000*%
%ADD13C,4.000000*%
%ADD14C,1.524000*%
%ADD15O,2.900000X3.000000*%
%ADD16C,5.000000*%
%ADD17C,1.700000*%
%ADD18O,1.700000X1.700000*%
G04 APERTURE END LIST*
%TO.C,G\u002A\u002A\u002A*%
G36*
X229590602Y-72840735D02*
G01*
X229846165Y-73556446D01*
X230106948Y-74284392D01*
X230355176Y-74974877D01*
X230588358Y-75621080D01*
X230804001Y-76216177D01*
X230999612Y-76753344D01*
X231172700Y-77225757D01*
X231320771Y-77626595D01*
X231441335Y-77949032D01*
X231531897Y-78186246D01*
X231589967Y-78331414D01*
X231613051Y-78377711D01*
X231629359Y-78338409D01*
X231681390Y-78199926D01*
X231766366Y-77968531D01*
X231881763Y-77651241D01*
X232025059Y-77255070D01*
X232193728Y-76787032D01*
X232385249Y-76254143D01*
X232597095Y-75663417D01*
X232826745Y-75021869D01*
X233071674Y-74336514D01*
X233329359Y-73614366D01*
X233597276Y-72862440D01*
X233816024Y-72248365D01*
X234076073Y-71519153D01*
X234323921Y-70825025D01*
X234557032Y-70173041D01*
X234772872Y-69570257D01*
X234968906Y-69023733D01*
X235142599Y-68540527D01*
X235291417Y-68127697D01*
X235412824Y-67792302D01*
X235504286Y-67541399D01*
X235563268Y-67382047D01*
X235587235Y-67321305D01*
X235665542Y-67280776D01*
X235798383Y-67274441D01*
X235969334Y-67292618D01*
X233886102Y-73137334D01*
X231802870Y-78982051D01*
X231597876Y-78982699D01*
X231539433Y-78981990D01*
X231433985Y-78962136D01*
X231369451Y-78892935D01*
X231310330Y-78745046D01*
X231284917Y-78672988D01*
X231223206Y-78499187D01*
X231128715Y-78233600D01*
X231004032Y-77883492D01*
X230851748Y-77456126D01*
X230674452Y-76958764D01*
X230474734Y-76398670D01*
X230255183Y-75783108D01*
X230018389Y-75119340D01*
X229766942Y-74414630D01*
X229503431Y-73676241D01*
X229230445Y-72911436D01*
X228971456Y-72185690D01*
X228710678Y-71454474D01*
X228463084Y-70759768D01*
X228231129Y-70108480D01*
X228017269Y-69507520D01*
X227823958Y-68963797D01*
X227653651Y-68484220D01*
X227508804Y-68075699D01*
X227391872Y-67745143D01*
X227305309Y-67499460D01*
X227251571Y-67345561D01*
X227233113Y-67290355D01*
X227233777Y-67288168D01*
X227292704Y-67271440D01*
X227417865Y-67264583D01*
X227602617Y-67264583D01*
X229590602Y-72840735D01*
G37*
G36*
X226392053Y-73120580D02*
G01*
X226392053Y-78983346D01*
X226195806Y-78983346D01*
X225999559Y-78983346D01*
X225999559Y-73617386D01*
X225999490Y-73324472D01*
X225998667Y-72572454D01*
X225996966Y-71856854D01*
X225994455Y-71185244D01*
X225991199Y-70565197D01*
X225987264Y-70004285D01*
X225982717Y-69510080D01*
X225977623Y-69090154D01*
X225972049Y-68752080D01*
X225966062Y-68503431D01*
X225959727Y-68351777D01*
X225953110Y-68304693D01*
X225943417Y-68321549D01*
X225890507Y-68427423D01*
X225796353Y-68622312D01*
X225664963Y-68897726D01*
X225500345Y-69245171D01*
X225306510Y-69656158D01*
X225087465Y-70122195D01*
X224847219Y-70634791D01*
X224589781Y-71185455D01*
X224319159Y-71765694D01*
X224178554Y-72067331D01*
X223915702Y-72630185D01*
X223668840Y-73157466D01*
X223441873Y-73640908D01*
X223238707Y-74072242D01*
X223063247Y-74443203D01*
X222919398Y-74745523D01*
X222811067Y-74970935D01*
X222742158Y-75111172D01*
X222716577Y-75157968D01*
X222709774Y-75144783D01*
X222662541Y-75046213D01*
X222573824Y-74858434D01*
X222447549Y-74589829D01*
X222287641Y-74248780D01*
X222098024Y-73843667D01*
X221882624Y-73382875D01*
X221645364Y-72874783D01*
X221390169Y-72327776D01*
X221120965Y-71750234D01*
X220991903Y-71473414D01*
X220727474Y-70907420D01*
X220478025Y-70375042D01*
X220247588Y-69884793D01*
X220040192Y-69445185D01*
X219859866Y-69064730D01*
X219710641Y-68751941D01*
X219596545Y-68515330D01*
X219521609Y-68363410D01*
X219489863Y-68304693D01*
X219483237Y-68334251D01*
X219475589Y-68467943D01*
X219468525Y-68703877D01*
X219462098Y-69036596D01*
X219456359Y-69460645D01*
X219451361Y-69970570D01*
X219447155Y-70560915D01*
X219443794Y-71226224D01*
X219441328Y-71961042D01*
X219439811Y-72759915D01*
X219439294Y-73617386D01*
X219439294Y-78983346D01*
X219243046Y-78983346D01*
X219046799Y-78983346D01*
X219046799Y-73123964D01*
X219046799Y-67264583D01*
X219257064Y-67265774D01*
X219467329Y-67266966D01*
X221086997Y-70743863D01*
X221255850Y-71105749D01*
X221520625Y-71670787D01*
X221769582Y-72199126D01*
X221998814Y-72682631D01*
X222204410Y-73113167D01*
X222382464Y-73482600D01*
X222529066Y-73782794D01*
X222640309Y-74005615D01*
X222712283Y-74142929D01*
X222741080Y-74186599D01*
X222750889Y-74169195D01*
X222803464Y-74063051D01*
X222897282Y-73868112D01*
X223028380Y-73592774D01*
X223192796Y-73245432D01*
X223386568Y-72834483D01*
X223605733Y-72368323D01*
X223846328Y-71855346D01*
X224104392Y-71303950D01*
X224375962Y-70722529D01*
X225976426Y-67292618D01*
X226184240Y-67275215D01*
X226392053Y-67257814D01*
X226392053Y-73120580D01*
G37*
G36*
X204247279Y-67267505D02*
G01*
X204321976Y-67289045D01*
X204411291Y-67340299D01*
X204527833Y-67431502D01*
X204684211Y-67572890D01*
X204893035Y-67774700D01*
X205166916Y-68047167D01*
X205335967Y-68216694D01*
X205559094Y-68442406D01*
X205717167Y-68607813D01*
X205819118Y-68724744D01*
X205873879Y-68805030D01*
X205890381Y-68860498D01*
X205877557Y-68902977D01*
X205844340Y-68944297D01*
X205759417Y-69020890D01*
X205680195Y-69058843D01*
X205659321Y-69048930D01*
X205566592Y-68976023D01*
X205418298Y-68843857D01*
X205229695Y-68666256D01*
X205016037Y-68457040D01*
X204412362Y-67855237D01*
X204412362Y-73419292D01*
X204412362Y-78983346D01*
X204216115Y-78983346D01*
X204019868Y-78983346D01*
X204019868Y-73123964D01*
X204019868Y-67264583D01*
X204202848Y-67264583D01*
X204247279Y-67267505D01*
G37*
G36*
X216803974Y-73123964D02*
G01*
X216803974Y-73320212D01*
X213860265Y-73320212D01*
X210916556Y-73320212D01*
X210916556Y-73123964D01*
X210916556Y-72927717D01*
X213860265Y-72927717D01*
X216803974Y-72927717D01*
X216803974Y-73123964D01*
G37*
%TD*%
D10*
%TO.C,H5*%
X40000000Y-60000000D03*
%TD*%
%TO.C,H4*%
X255000000Y-90000000D03*
%TD*%
%TO.C,H3*%
X255000000Y-150000000D03*
%TD*%
%TO.C,H2*%
X40000000Y-150000000D03*
%TD*%
%TO.C,H1*%
X40000000Y-90000000D03*
%TD*%
D11*
%TO.C,SW27*%
X89408000Y-78740000D03*
X83058000Y-76200000D03*
D12*
X91948000Y-73660000D03*
D13*
X86868000Y-73660000D03*
D12*
X81788000Y-73660000D03*
%TD*%
%TO.C,SW28*%
X254635000Y-133985000D03*
D13*
X249555000Y-133985000D03*
D12*
X244475000Y-133985000D03*
D11*
X253365000Y-131445000D03*
X247015000Y-128905000D03*
%TD*%
D12*
%TO.C,SW20*%
X213995000Y-123825000D03*
D13*
X208915000Y-123825000D03*
D12*
X203835000Y-123825000D03*
D11*
X212725000Y-121285000D03*
X206375000Y-118745000D03*
%TD*%
D12*
%TO.C,SW16*%
X193675000Y-103505000D03*
D13*
X188595000Y-103505000D03*
D12*
X183515000Y-103505000D03*
D11*
X192405000Y-100965000D03*
X186055000Y-98425000D03*
%TD*%
D12*
%TO.C,SW24*%
X234315000Y-144145000D03*
D13*
X229235000Y-144145000D03*
D12*
X224155000Y-144145000D03*
D11*
X233045000Y-141605000D03*
X226695000Y-139065000D03*
%TD*%
D12*
%TO.C,SW9*%
X132715000Y-144145000D03*
D13*
X127635000Y-144145000D03*
D12*
X122555000Y-144145000D03*
D11*
X131445000Y-141605000D03*
X125095000Y-139065000D03*
%TD*%
D14*
%TO.C,SW25*%
X53126000Y-116211000D03*
X58126000Y-116211000D03*
X55626000Y-116211000D03*
D15*
X62226000Y-123711000D03*
X49026000Y-123711000D03*
%TD*%
D12*
%TO.C,SW15*%
X173355000Y-144145000D03*
D13*
X168275000Y-144145000D03*
D12*
X163195000Y-144145000D03*
D11*
X172085000Y-141605000D03*
X165735000Y-139065000D03*
%TD*%
D12*
%TO.C,SW2*%
X92075000Y-123825000D03*
D13*
X86995000Y-123825000D03*
D12*
X81915000Y-123825000D03*
D11*
X90805000Y-121285000D03*
X84455000Y-118745000D03*
%TD*%
D12*
%TO.C,SW7*%
X132715000Y-103505000D03*
D13*
X127635000Y-103505000D03*
D12*
X122555000Y-103505000D03*
D11*
X131445000Y-100965000D03*
X125095000Y-98425000D03*
%TD*%
D12*
%TO.C,SW11*%
X153035000Y-123825000D03*
D13*
X147955000Y-123825000D03*
D12*
X142875000Y-123825000D03*
D11*
X151765000Y-121285000D03*
X145415000Y-118745000D03*
%TD*%
D12*
%TO.C,SW8*%
X132715000Y-123825000D03*
D13*
X127635000Y-123825000D03*
D12*
X122555000Y-123825000D03*
D11*
X131445000Y-121285000D03*
X125095000Y-118745000D03*
%TD*%
D12*
%TO.C,SW12*%
X153035000Y-144145000D03*
D13*
X147955000Y-144145000D03*
D12*
X142875000Y-144145000D03*
D11*
X151765000Y-141605000D03*
X145415000Y-139065000D03*
%TD*%
D12*
%TO.C,SW1*%
X92075000Y-103505000D03*
D13*
X86995000Y-103505000D03*
D12*
X81915000Y-103505000D03*
D11*
X90805000Y-100965000D03*
X84455000Y-98425000D03*
%TD*%
D12*
%TO.C,SW17*%
X193675000Y-123825000D03*
D13*
X188595000Y-123825000D03*
D12*
X183515000Y-123825000D03*
D11*
X192405000Y-121285000D03*
X186055000Y-118745000D03*
%TD*%
D12*
%TO.C,SW10*%
X153035000Y-103505000D03*
D13*
X147955000Y-103505000D03*
D12*
X142875000Y-103505000D03*
D11*
X151765000Y-100965000D03*
X145415000Y-98425000D03*
%TD*%
D12*
%TO.C,SW22*%
X234315000Y-103505000D03*
D13*
X229235000Y-103505000D03*
D12*
X224155000Y-103505000D03*
D11*
X233045000Y-100965000D03*
X226695000Y-98425000D03*
%TD*%
D12*
%TO.C,SW14*%
X173355000Y-123825000D03*
D13*
X168275000Y-123825000D03*
D12*
X163195000Y-123825000D03*
D11*
X172085000Y-121285000D03*
X165735000Y-118745000D03*
%TD*%
D12*
%TO.C,SW6*%
X112395000Y-144145000D03*
D13*
X107315000Y-144145000D03*
D12*
X102235000Y-144145000D03*
D11*
X111125000Y-141605000D03*
X104775000Y-139065000D03*
%TD*%
D16*
%TO.C,J2*%
X177880000Y-89610000D03*
X177880000Y-57710000D03*
X138380000Y-89610000D03*
X138380000Y-57710000D03*
D17*
X177820000Y-82550000D03*
D18*
X177820000Y-80010000D03*
X177820000Y-77470000D03*
X177820000Y-74930000D03*
X177820000Y-72390000D03*
X177820000Y-69850000D03*
X177820000Y-67310000D03*
X177820000Y-64770000D03*
%TD*%
D12*
%TO.C,SW21*%
X213995000Y-144145000D03*
D13*
X208915000Y-144145000D03*
D12*
X203835000Y-144145000D03*
D11*
X212725000Y-141605000D03*
X206375000Y-139065000D03*
%TD*%
%TO.C,SW26*%
X109728000Y-78740000D03*
X103378000Y-76200000D03*
D12*
X112268000Y-73660000D03*
D13*
X107188000Y-73660000D03*
D12*
X102108000Y-73660000D03*
%TD*%
%TO.C,SW4*%
X112395000Y-103505000D03*
D13*
X107315000Y-103505000D03*
D12*
X102235000Y-103505000D03*
D11*
X111125000Y-100965000D03*
X104775000Y-98425000D03*
%TD*%
D12*
%TO.C,SW19*%
X213995000Y-103505000D03*
D13*
X208915000Y-103505000D03*
D12*
X203835000Y-103505000D03*
D11*
X212725000Y-100965000D03*
X206375000Y-98425000D03*
%TD*%
D12*
%TO.C,SW5*%
X112395000Y-123825000D03*
D13*
X107315000Y-123825000D03*
D12*
X102235000Y-123825000D03*
D11*
X111125000Y-121285000D03*
X104775000Y-118745000D03*
%TD*%
D12*
%TO.C,SW23*%
X234315000Y-123825000D03*
D13*
X229235000Y-123825000D03*
D12*
X224155000Y-123825000D03*
D11*
X233045000Y-121285000D03*
X226695000Y-118745000D03*
%TD*%
D12*
%TO.C,SW13*%
X173355000Y-103505000D03*
D13*
X168275000Y-103505000D03*
D12*
X163195000Y-103505000D03*
D11*
X172085000Y-100965000D03*
X165735000Y-98425000D03*
%TD*%
D12*
%TO.C,SW3*%
X92075000Y-144145000D03*
D13*
X86995000Y-144145000D03*
D12*
X81915000Y-144145000D03*
D11*
X90805000Y-141605000D03*
X84455000Y-139065000D03*
%TD*%
D12*
%TO.C,SW18*%
X193675000Y-144145000D03*
D13*
X188595000Y-144145000D03*
D12*
X183515000Y-144145000D03*
D11*
X192405000Y-141605000D03*
X186055000Y-139065000D03*
%TD*%
M02*
